<svg width="188" height="227" viewBox="0 0 188 227" fill="none" xmlns="http://www.w3.org/2000/svg">
<g clip-path="url(#clip0_367_1957)">
<path d="M73.1811 27.2422C73.1811 16.5014 82.4742 7.78349 93.9236 7.78349C105.374 7.78349 114.666 16.5014 114.666 27.2422V39.1769H122.963V27.2422C122.963 12.2205 109.937 0 93.9236 0C77.9109 0 64.8841 12.2205 64.8841 27.2422V39.1769H73.1811V27.2422Z" fill="#364FD4"/>
<path fill-rule="evenodd" clip-rule="evenodd" d="M35.8447 132.838C34.6001 132.838 33.4388 132.293 32.6922 131.438C31.8625 130.581 31.5298 129.414 31.7794 128.246L48.3734 42.3683C48.705 40.4995 50.4476 39.1769 52.4387 39.1769H64.8842V54.7439H60.7357C58.4119 54.7439 56.5872 56.4556 56.5872 58.6356C56.5872 60.8146 58.4119 62.5273 60.7357 62.5273H77.3297C79.6535 62.5273 81.4782 60.8146 81.4782 58.6356C81.4782 56.4556 79.6535 54.7439 77.3297 54.7439H73.1812V39.1769H114.666V54.7439H110.518C108.194 54.7439 106.369 56.4556 106.369 58.6356C106.369 60.8146 108.194 62.5273 110.518 62.5273H127.112C129.435 62.5273 131.26 60.8146 131.26 58.6356C131.26 56.4556 129.435 54.7439 127.112 54.7439H122.963V39.1769H135.409C137.4 39.1769 139.142 40.4995 139.474 42.3683L156.068 128.246C156.318 129.414 155.985 130.581 155.156 131.438C154.409 132.293 153.247 132.838 152.003 132.838H35.8447Z" fill="#364FD4"/>
<path d="M94.7427 111.763C92.7458 111.763 90.7488 111.529 88.7519 111.06C86.8003 110.592 85.0303 109.783 83.4418 108.634C81.8987 107.484 80.6279 105.951 79.6294 104.035C78.6309 102.119 78.1317 99.7138 78.1317 96.8186C78.1317 95.7542 78.2225 94.4769 78.404 92.9867C78.5856 91.4965 78.9259 89.9638 79.4252 88.3885C79.9698 86.8131 80.696 85.2591 81.6037 83.7264C82.5568 82.151 83.7822 80.746 85.2799 79.5113C86.7776 78.2766 88.593 77.276 90.7261 76.5097C92.8592 75.7433 95.4008 75.3601 98.3508 75.3601C100.711 75.3601 102.708 75.6156 104.342 76.1265C105.976 76.6374 107.292 77.3399 108.29 78.234C109.289 79.0855 110.015 80.0861 110.469 81.2356C110.923 82.3852 111.149 83.6199 111.149 84.9398C111.149 86.8983 110.718 88.5588 109.856 89.9212C109.039 91.2837 107.95 92.4332 106.588 93.3699C105.272 94.264 103.797 94.9665 102.163 95.4774C100.529 95.9883 98.9182 96.3928 97.3297 96.6909C95.7412 96.9463 94.2662 97.1166 92.9046 97.2018C91.5884 97.2443 90.5673 97.2656 89.8411 97.2656C89.8411 98.0746 89.9546 98.8835 90.1815 99.6925C90.4538 100.459 90.8396 101.14 91.3388 101.736C91.8381 102.332 92.4961 102.822 93.3131 103.205C94.13 103.588 95.1285 103.78 96.3085 103.78C97.4885 103.78 98.3962 103.61 99.0316 103.269C99.7124 102.886 100.257 102.481 100.665 102.055C101.074 101.587 101.414 101.183 101.687 100.842C102.004 100.459 102.413 100.267 102.912 100.267C103.139 100.267 103.525 100.331 104.069 100.459C104.659 100.544 105.249 100.757 105.839 101.098C106.429 101.438 106.951 101.906 107.405 102.503C107.859 103.099 108.086 103.865 108.086 104.802C108.086 106.036 107.678 107.101 106.861 107.995C106.044 108.889 104.977 109.613 103.661 110.166C102.39 110.72 100.961 111.124 99.372 111.38C97.7835 111.635 96.2404 111.763 94.7427 111.763ZM96.0362 83.8541C95.0377 83.8541 94.1754 84.1308 93.4492 84.6843C92.7685 85.1952 92.1784 85.8552 91.6792 86.6641C91.2254 87.4731 90.8623 88.3672 90.59 89.3464C90.363 90.3257 90.1815 91.2624 90.0453 92.1565C92.8592 92.1139 95.1285 91.6668 96.8531 90.8153C98.6232 89.9638 99.5082 88.7504 99.5082 87.175C99.5082 86.3235 99.2132 85.5571 98.6232 84.8759C98.0785 84.1947 97.2162 83.8541 96.0362 83.8541Z" fill="white"/>
</g>
<path d="M23.9199 227C21.0443 227 18.1686 226.663 15.293 225.988C12.4828 225.314 9.93393 224.149 7.64652 222.494C5.42445 220.838 3.59452 218.631 2.15671 215.872C0.718903 213.113 0 209.649 0 205.48C0 203.947 0.13071 202.108 0.392129 199.962C0.653548 197.816 1.14371 195.609 1.86261 193.341C2.64687 191.072 3.69255 188.835 4.99964 186.627C6.3721 184.359 8.13668 182.336 10.2934 180.558C12.4501 178.78 15.0643 177.339 18.136 176.235C21.2076 175.132 24.8675 174.58 29.1156 174.58C32.514 174.58 35.3896 174.948 37.7424 175.684C40.0952 176.419 41.9905 177.431 43.4283 178.718C44.8661 179.945 45.9118 181.385 46.5653 183.041C47.2189 184.696 47.5456 186.474 47.5456 188.375C47.5456 191.195 46.9248 193.586 45.683 195.548C44.5066 197.51 42.9381 199.165 40.9775 200.514C39.0822 201.802 36.9582 202.813 34.6054 203.549C32.2526 204.285 29.9325 204.867 27.6451 205.296C25.3577 205.664 23.2336 205.909 21.273 206.032C19.3777 206.093 17.9072 206.124 16.8615 206.124C16.8615 207.289 17.0249 208.454 17.3517 209.619C17.7438 210.722 18.2994 211.703 19.0183 212.561C19.7372 213.42 20.6848 214.125 21.8612 214.677C23.0376 215.228 24.4754 215.504 26.1746 215.504C27.8738 215.504 29.1809 215.259 30.0959 214.769C31.0762 214.217 31.8605 213.634 32.4487 213.021C33.0369 212.347 33.527 211.764 33.9192 211.274C34.3766 210.722 34.9648 210.446 35.6837 210.446C36.0105 210.446 36.566 210.538 37.3503 210.722C38.1999 210.845 39.0495 211.151 39.8991 211.642C40.7487 212.132 41.5003 212.807 42.1539 213.665C42.8074 214.523 43.1342 215.627 43.1342 216.976C43.1342 218.754 42.546 220.287 41.3696 221.574C40.1932 222.862 38.6574 223.904 36.7621 224.701C34.9322 225.498 32.8735 226.08 30.5861 226.448C28.2986 226.816 26.0766 227 23.9199 227ZM25.7825 186.811C24.3447 186.811 23.1029 187.21 22.0573 188.007C21.0769 188.743 20.2273 189.693 19.5084 190.858C18.8549 192.023 18.332 193.31 17.9399 194.72C17.6131 196.13 17.3517 197.479 17.1556 198.767C21.2076 198.705 24.4754 198.062 26.9589 196.835C29.5077 195.609 30.7821 193.862 30.7821 191.593C30.7821 190.367 30.3573 189.264 29.5077 188.283C28.7234 187.302 27.4817 186.811 25.7825 186.811Z" fill="#364FD4"/>
<path d="M57.3325 206.252C56.9731 206.252 56.7933 206.083 56.7933 205.746L56.9404 203.263C56.9731 202.864 57.0221 202.481 57.0874 202.113C57.1855 201.715 57.3489 201.362 57.5776 201.056C57.839 200.749 58.1985 200.504 58.656 200.32C59.1134 200.136 59.718 200.044 60.4696 200.044H73.8019C73.998 200.044 74.1777 200.105 74.3411 200.228C74.5045 200.32 74.5862 200.473 74.5862 200.688L74.3901 203.171C74.3248 204.09 74.047 204.842 73.5569 205.424C73.0994 205.976 72.1354 206.252 70.6649 206.252H57.3325Z" fill="#364FD4"/>
<path d="M90.6484 190.112C93.426 190.112 95.4683 190.633 96.7754 191.675C98.0825 192.687 98.736 193.99 98.736 195.584C98.736 196.933 98.2786 197.959 97.3636 198.665C96.4813 199.37 95.1905 199.722 93.4913 199.722C93.0338 199.722 92.7234 199.676 92.56 199.584C92.3966 199.492 92.3149 199.324 92.3149 199.078C92.3149 198.802 92.2822 198.496 92.2169 198.159C92.1842 197.791 92.0698 197.454 91.8738 197.147C91.7104 196.81 91.4326 196.534 91.0405 196.319C90.6811 196.105 90.1582 195.998 89.472 195.998C88.557 195.998 87.8218 196.212 87.2663 196.641C86.7108 197.04 86.433 197.546 86.433 198.159C86.433 198.802 86.7108 199.324 87.2663 199.722C87.8545 200.09 88.5734 200.443 89.423 200.78C90.3053 201.117 91.2529 201.469 92.2659 201.837C93.2789 202.175 94.2102 202.634 95.0598 203.217C95.9421 203.799 96.661 204.535 97.2165 205.424C97.8047 206.282 98.0988 207.401 98.0988 208.781C98.0988 210.988 97.2656 212.796 95.599 214.207C93.9325 215.617 91.4326 216.322 88.0995 216.322C87.1846 216.322 86.1226 216.245 84.9135 216.092C83.7371 215.969 82.6097 215.77 81.5314 215.494C80.453 215.188 79.5381 214.789 78.7865 214.299C78.0676 213.808 77.7081 213.195 77.7081 212.459C77.7081 212.183 77.7571 211.846 77.8552 211.448C77.9859 211.049 78.1656 210.666 78.3944 210.298C78.6558 209.93 78.9499 209.624 79.2766 209.378C79.6361 209.103 80.0609 208.965 80.5511 208.965C80.9432 208.965 81.3026 209.057 81.6294 209.24C81.9562 209.424 82.332 209.624 82.7568 209.838C83.2143 210.022 83.7698 210.206 84.4233 210.39C85.0769 210.574 85.9428 210.666 87.0212 210.666C87.8381 210.666 88.557 210.574 89.1779 210.39C89.8314 210.206 90.1582 209.792 90.1582 209.149C90.1582 208.566 89.8968 208.106 89.374 207.769C88.8511 207.401 88.1812 207.064 87.3643 206.757C86.58 206.451 85.7141 206.129 84.7664 205.792C83.8515 205.424 82.9855 204.949 82.1686 204.366C81.3843 203.784 80.7308 203.048 80.2079 202.159C79.6851 201.24 79.4237 200.059 79.4237 198.619C79.4237 197.055 79.7505 195.737 80.404 194.664C81.0902 193.56 81.9562 192.671 83.0019 191.997C84.0802 191.323 85.2893 190.848 86.6291 190.572C87.9688 190.265 89.3086 190.112 90.6484 190.112Z" fill="#364FD4"/>
<path d="M118.661 210.16C118.759 209.149 118.857 208.091 118.955 206.987C119.086 205.884 119.184 204.826 119.249 203.815C119.348 202.803 119.429 201.899 119.495 201.102C119.56 200.305 119.593 199.722 119.593 199.354C119.593 198.557 119.38 197.852 118.955 197.239C118.563 196.595 117.779 196.273 116.603 196.273C115.034 196.273 113.76 196.963 112.779 198.343C111.832 199.722 111.276 201.561 111.113 203.861C111.047 204.504 110.966 205.409 110.868 206.574C110.77 207.708 110.672 208.873 110.574 210.068C110.476 211.233 110.378 212.291 110.28 213.241C110.214 214.161 110.182 214.728 110.182 214.942C110.182 215.31 110.1 215.555 109.936 215.678C109.806 215.801 109.528 215.862 109.103 215.862H107.339C106.326 215.862 105.492 215.77 104.839 215.586C104.218 215.371 103.711 215.08 103.319 214.712C102.96 214.345 102.698 213.9 102.535 213.379C102.404 212.827 102.339 212.199 102.339 211.494C102.339 210.819 102.388 209.884 102.486 208.689C102.617 207.463 102.78 205.792 102.976 203.677C103.172 201.531 103.401 198.802 103.662 195.492C103.924 192.181 104.202 188.073 104.496 183.168C104.528 182.494 104.61 182.096 104.741 181.973C104.839 181.881 105.1 181.835 105.525 181.835H107.437C108.417 181.835 109.234 181.942 109.887 182.157C110.541 182.371 111.064 182.663 111.456 183.031C111.848 183.398 112.126 183.828 112.289 184.318C112.453 184.778 112.534 185.268 112.534 185.789C112.534 186.341 112.469 187.368 112.338 188.87C112.24 190.372 112.109 192.135 111.946 194.158C112.926 192.626 114.005 191.568 115.181 190.985C116.39 190.403 117.91 190.112 119.74 190.112C121.112 190.112 122.305 190.25 123.318 190.526C124.331 190.802 125.164 191.277 125.818 191.951C126.504 192.595 127.01 193.453 127.337 194.526C127.664 195.568 127.827 196.871 127.827 198.435C127.827 198.925 127.778 199.768 127.68 200.964C127.582 202.159 127.452 203.523 127.288 205.056C127.157 206.589 127.01 208.198 126.847 209.884C126.716 211.54 126.602 213.057 126.504 214.437C126.471 214.774 126.439 215.034 126.406 215.218C126.373 215.402 126.308 215.54 126.21 215.632C126.144 215.724 126.03 215.785 125.867 215.816C125.703 215.847 125.475 215.862 125.18 215.862H123.612C122.566 215.862 121.717 215.77 121.063 215.586C120.41 215.402 119.903 215.142 119.544 214.804C119.184 214.467 118.923 214.053 118.759 213.563C118.629 213.042 118.563 212.459 118.563 211.816C118.563 211.509 118.563 211.218 118.563 210.942C118.596 210.666 118.629 210.405 118.661 210.16Z" fill="#364FD4"/>
<path d="M143.325 216.322C141.07 216.322 139.191 216.031 137.688 215.448C136.218 214.835 135.041 214.007 134.159 212.965C133.277 211.923 132.656 210.712 132.296 209.332C131.937 207.922 131.757 206.42 131.757 204.826C131.757 202.987 131.986 201.194 132.443 199.446C132.934 197.668 133.751 196.09 134.894 194.71C136.038 193.331 137.541 192.227 139.404 191.399C141.299 190.541 143.652 190.112 146.462 190.112C150.579 190.112 153.52 191.062 155.285 192.963C157.082 194.833 157.981 197.469 157.981 200.872C157.981 201.822 157.899 202.88 157.736 204.044C157.605 205.179 157.327 206.313 156.903 207.447C156.51 208.581 155.955 209.685 155.236 210.758C154.55 211.831 153.667 212.781 152.589 213.609C151.511 214.437 150.204 215.096 148.668 215.586C147.165 216.077 145.384 216.322 143.325 216.322ZM145.629 196.227C144.387 196.227 143.39 196.534 142.639 197.147C141.92 197.73 141.364 198.45 140.972 199.308C140.613 200.136 140.368 201.025 140.237 201.975C140.139 202.895 140.09 203.677 140.09 204.32C140.09 206.344 140.433 207.83 141.119 208.781C141.806 209.731 142.786 210.206 144.06 210.206C145.204 210.206 146.135 209.869 146.854 209.195C147.606 208.52 148.178 207.708 148.57 206.757C148.995 205.807 149.272 204.811 149.403 203.769C149.566 202.726 149.648 201.853 149.648 201.148C149.648 199.615 149.338 198.419 148.717 197.561C148.129 196.672 147.099 196.227 145.629 196.227Z" fill="#364FD4"/>
<path d="M178.736 190.112C181.808 190.112 184.111 191.001 185.647 192.779C187.216 194.557 188 197.362 188 201.194C188 203.585 187.706 205.715 187.118 207.585C186.53 209.455 185.713 211.049 184.667 212.367C183.621 213.655 182.396 214.636 180.991 215.31C179.586 215.985 178.066 216.322 176.432 216.322C174.7 216.322 173.344 215.969 172.364 215.264C171.384 214.559 170.616 213.563 170.06 212.275C169.962 213.379 169.88 214.222 169.815 214.804C169.75 215.387 169.701 215.847 169.668 216.184C169.635 216.552 169.603 216.874 169.57 217.149C169.57 217.425 169.537 217.793 169.472 218.253C169.439 218.713 169.39 219.341 169.325 220.138C169.26 220.935 169.161 222.039 169.031 223.449C168.998 223.817 168.916 224.062 168.786 224.185C168.655 224.307 168.377 224.369 167.952 224.369H166.188C165.175 224.369 164.342 224.261 163.688 224.047C163.067 223.863 162.561 223.587 162.169 223.219C161.809 222.851 161.548 222.391 161.384 221.84C161.254 221.319 161.188 220.705 161.188 220C161.188 219.694 161.237 218.866 161.335 217.517C161.433 216.169 161.548 214.559 161.678 212.689C161.842 210.789 162.005 208.75 162.169 206.574C162.365 204.397 162.544 202.328 162.708 200.366C162.871 198.373 163.002 196.611 163.1 195.078C163.231 193.545 163.329 192.488 163.394 191.905C163.427 191.231 163.508 190.832 163.639 190.71C163.737 190.618 163.998 190.572 164.423 190.572H166.335C168.099 190.572 169.374 190.924 170.158 191.629C170.975 192.304 171.384 193.116 171.384 194.066C172.135 192.656 173.099 191.645 174.276 191.031C175.485 190.418 176.971 190.112 178.736 190.112ZM175.158 196.227C173.491 196.227 172.266 196.902 171.482 198.251C170.697 199.6 170.305 201.439 170.305 203.769C170.305 204.566 170.354 205.347 170.452 206.114C170.583 206.88 170.795 207.57 171.089 208.183C171.384 208.796 171.776 209.286 172.266 209.654C172.789 210.022 173.442 210.206 174.226 210.206C175.632 210.206 176.808 209.562 177.756 208.275C178.703 206.987 179.177 204.964 179.177 202.205C179.177 201.439 179.112 200.703 178.981 199.998C178.883 199.262 178.687 198.619 178.393 198.067C178.099 197.515 177.69 197.07 177.167 196.733C176.645 196.396 175.975 196.227 175.158 196.227Z" fill="#364FD4"/>
<defs>
<clipPath id="clip0_367_1957">
<rect width="141.602" height="132.838" fill="white" transform="translate(23.1247)"/>
</clipPath>
</defs>
</svg>
