<svg width="140" height="207" viewBox="0 0 140 207" fill="none" xmlns="http://www.w3.org/2000/svg">
<path d="M54.764 21.3281C54.764 12.9191 61.5894 6.09375 69.9984 6.09375C78.4083 6.09375 85.2328 12.9191 85.2328 21.3281V30.6719H91.3265V21.3281C91.3265 9.5675 81.7598 0 69.9984 0C58.2378 0 48.6703 9.5675 48.6703 21.3281V30.6719H54.764V21.3281Z" fill="white"/>
<path fill-rule="evenodd" clip-rule="evenodd" d="M27.3422 104C26.4281 104 25.5752 103.573 25.0269 102.903C24.4175 102.233 24.1731 101.319 24.3564 100.405L36.5439 33.1705C36.7875 31.7073 38.0674 30.6719 39.5297 30.6719H48.6703V42.8594H45.6234C43.9167 42.8594 42.5766 44.1995 42.5766 45.9062C42.5766 47.6122 43.9167 48.9531 45.6234 48.9531H57.8109C59.5177 48.9531 60.8578 47.6122 60.8578 45.9062C60.8578 44.1995 59.5177 42.8594 57.8109 42.8594H54.7641V30.6719H85.2328V42.8594H82.1859C80.4792 42.8594 79.1391 44.1995 79.1391 45.9062C79.1391 47.6122 80.4792 48.9531 82.1859 48.9531H94.3734C96.0802 48.9531 97.4203 47.6122 97.4203 45.9062C97.4203 44.1995 96.0802 42.8594 94.3734 42.8594H91.3266V30.6719H100.467C101.93 30.6719 103.209 31.7073 103.453 33.1705L115.64 100.405C115.824 101.319 115.579 102.233 114.971 102.903C114.422 103.573 113.569 104 112.655 104H27.3422Z" fill="white"/>
<path d="M70.6 87.5C69.1334 87.5 67.6667 87.3167 66.2 86.95C64.7667 86.5833 63.4667 85.95 62.3 85.05C61.1667 84.15 60.2334 82.95 59.5 81.45C58.7667 79.95 58.4 78.0667 58.4 75.8C58.4 74.9667 58.4667 73.9667 58.6 72.8C58.7334 71.6333 58.9834 70.4333 59.35 69.2C59.75 67.9667 60.2834 66.75 60.95 65.55C61.65 64.3167 62.55 63.2167 63.65 62.25C64.75 61.2833 66.0834 60.5 67.65 59.9C69.2167 59.3 71.0834 59 73.25 59C74.9834 59 76.45 59.2 77.65 59.6C78.85 60 79.8167 60.55 80.55 61.25C81.2834 61.9167 81.8167 62.7 82.15 63.6C82.4834 64.5 82.65 65.4667 82.65 66.5C82.65 68.0333 82.3334 69.3333 81.7 70.4C81.1 71.4667 80.3 72.3667 79.3 73.1C78.3334 73.8 77.25 74.35 76.05 74.75C74.85 75.15 73.6667 75.4667 72.5 75.7C71.3334 75.9 70.25 76.0333 69.25 76.1C68.2834 76.1333 67.5334 76.15 67 76.15C67 76.7833 67.0834 77.4167 67.25 78.05C67.45 78.65 67.7334 79.1833 68.1 79.65C68.4667 80.1167 68.95 80.5 69.55 80.8C70.15 81.1 70.8834 81.25 71.75 81.25C72.6167 81.25 73.2834 81.1167 73.75 80.85C74.25 80.55 74.65 80.2333 74.95 79.9C75.25 79.5333 75.5 79.2167 75.7 78.95C75.9334 78.65 76.2334 78.5 76.6 78.5C76.7667 78.5 77.05 78.55 77.45 78.65C77.8834 78.7167 78.3167 78.8833 78.75 79.15C79.1834 79.4167 79.5667 79.7833 79.9 80.25C80.2334 80.7167 80.4 81.3167 80.4 82.05C80.4 83.0167 80.1 83.85 79.5 84.55C78.9 85.25 78.1167 85.8167 77.15 86.25C76.2167 86.6833 75.1667 87 74 87.2C72.8334 87.4 71.7 87.5 70.6 87.5ZM71.55 65.65C70.8167 65.65 70.1834 65.8667 69.65 66.3C69.15 66.7 68.7167 67.2167 68.35 67.85C68.0167 68.4833 67.75 69.1833 67.55 69.95C67.3834 70.7167 67.25 71.45 67.15 72.15C69.2167 72.1167 70.8834 71.7667 72.15 71.1C73.45 70.4333 74.1 69.4833 74.1 68.25C74.1 67.5833 73.8834 66.9833 73.45 66.45C73.05 65.9167 72.4167 65.65 71.55 65.65Z" fill="#364FD4"/>
<path d="M18.584 177.72C16.472 177.72 14.36 177.456 12.248 176.928C10.184 176.4 8.31199 175.488 6.63199 174.192C4.99999 172.896 3.65599 171.168 2.59999 169.008C1.54399 166.848 1.01599 164.136 1.01599 160.872C1.01599 159.672 1.11199 158.232 1.30399 156.552C1.49599 154.872 1.85599 153.144 2.38399 151.368C2.95999 149.592 3.72799 147.84 4.68799 146.112C5.69599 144.336 6.99199 142.752 8.57599 141.36C10.16 139.968 12.08 138.84 14.336 137.976C16.592 137.112 19.28 136.68 22.4 136.68C24.896 136.68 27.008 136.968 28.736 137.544C30.464 138.12 31.856 138.912 32.912 139.92C33.968 140.88 34.736 142.008 35.216 143.304C35.696 144.6 35.936 145.992 35.936 147.48C35.936 149.688 35.48 151.56 34.568 153.096C33.704 154.632 32.552 155.928 31.112 156.984C29.72 157.992 28.16 158.784 26.432 159.36C24.704 159.936 23 160.392 21.32 160.728C19.64 161.016 18.08 161.208 16.64 161.304C15.248 161.352 14.168 161.376 13.4 161.376C13.4 162.288 13.52 163.2 13.76 164.112C14.048 164.976 14.456 165.744 14.984 166.416C15.512 167.088 16.208 167.64 17.072 168.072C17.936 168.504 18.992 168.72 20.24 168.72C21.488 168.72 22.448 168.528 23.12 168.144C23.84 167.712 24.416 167.256 24.848 166.776C25.28 166.248 25.64 165.792 25.928 165.408C26.264 164.976 26.696 164.76 27.224 164.76C27.464 164.76 27.872 164.832 28.448 164.976C29.072 165.072 29.696 165.312 30.32 165.696C30.944 166.08 31.496 166.608 31.976 167.28C32.456 167.952 32.696 168.816 32.696 169.872C32.696 171.264 32.264 172.464 31.4 173.472C30.536 174.48 29.408 175.296 28.016 175.92C26.672 176.544 25.16 177 23.48 177.288C21.8 177.576 20.168 177.72 18.584 177.72ZM19.952 146.256C18.896 146.256 17.984 146.568 17.216 147.192C16.496 147.768 15.872 148.512 15.344 149.424C14.864 150.336 14.48 151.344 14.192 152.448C13.952 153.552 13.76 154.608 13.616 155.616C16.592 155.568 18.992 155.064 20.816 154.104C22.688 153.144 23.624 151.776 23.624 150C23.624 149.04 23.312 148.176 22.688 147.408C22.112 146.64 21.2 146.256 19.952 146.256Z" fill="white"/>
<path d="M43.124 161.476C42.86 161.476 42.728 161.344 42.728 161.08L42.836 159.136C42.86 158.824 42.896 158.524 42.944 158.236C43.016 157.924 43.136 157.648 43.304 157.408C43.496 157.168 43.76 156.976 44.096 156.832C44.432 156.688 44.876 156.616 45.428 156.616H55.22C55.364 156.616 55.496 156.664 55.616 156.76C55.736 156.832 55.796 156.952 55.796 157.12L55.652 159.064C55.604 159.784 55.4 160.372 55.04 160.828C54.704 161.26 53.996 161.476 52.916 161.476H43.124Z" fill="white"/>
<path d="M67.5929 148.84C69.6329 148.84 71.1329 149.248 72.0929 150.064C73.0529 150.856 73.5329 151.876 73.5329 153.124C73.5329 154.18 73.1969 154.984 72.5249 155.536C71.8769 156.088 70.9289 156.364 69.6809 156.364C69.3449 156.364 69.1169 156.328 68.9969 156.256C68.8769 156.184 68.8169 156.052 68.8169 155.86C68.8169 155.644 68.7929 155.404 68.7449 155.14C68.7209 154.852 68.6369 154.588 68.4929 154.348C68.3729 154.084 68.1689 153.868 67.8809 153.7C67.6169 153.532 67.2329 153.448 66.7289 153.448C66.0569 153.448 65.5169 153.616 65.1089 153.952C64.7009 154.264 64.4969 154.66 64.4969 155.14C64.4969 155.644 64.7009 156.052 65.1089 156.364C65.5409 156.652 66.0689 156.928 66.6929 157.192C67.3409 157.456 68.0369 157.732 68.7809 158.02C69.5249 158.284 70.2089 158.644 70.8329 159.1C71.4809 159.556 72.0089 160.132 72.4169 160.828C72.8489 161.5 73.0649 162.376 73.0649 163.456C73.0649 165.184 72.4529 166.6 71.2289 167.704C70.0049 168.808 68.1689 169.36 65.7209 169.36C65.0489 169.36 64.2689 169.3 63.3809 169.18C62.5169 169.084 61.6889 168.928 60.8969 168.712C60.1049 168.472 59.4329 168.16 58.8809 167.776C58.3529 167.392 58.0889 166.912 58.0889 166.336C58.0889 166.12 58.1249 165.856 58.1969 165.544C58.2929 165.232 58.4249 164.932 58.5929 164.644C58.7849 164.356 59.0009 164.116 59.2409 163.924C59.5049 163.708 59.8169 163.6 60.1769 163.6C60.4649 163.6 60.7289 163.672 60.9689 163.816C61.2089 163.96 61.4849 164.116 61.7969 164.284C62.1329 164.428 62.5409 164.572 63.0209 164.716C63.5009 164.86 64.1369 164.932 64.9289 164.932C65.5289 164.932 66.0569 164.86 66.5129 164.716C66.9929 164.572 67.2329 164.248 67.2329 163.744C67.2329 163.288 67.0409 162.928 66.6569 162.664C66.2729 162.376 65.7809 162.112 65.1809 161.872C64.6049 161.632 63.9689 161.38 63.2729 161.116C62.6009 160.828 61.9649 160.456 61.3649 160C60.7889 159.544 60.3089 158.968 59.9249 158.272C59.5409 157.552 59.3489 156.628 59.3489 155.5C59.3489 154.276 59.5889 153.244 60.0689 152.404C60.5729 151.54 61.2089 150.844 61.9769 150.316C62.7689 149.788 63.6569 149.416 64.6409 149.2C65.6249 148.96 66.6089 148.84 67.5929 148.84Z" fill="white"/>
<path d="M88.1671 164.536C88.2391 163.744 88.3111 162.916 88.3831 162.052C88.4791 161.188 88.5511 160.36 88.5991 159.568C88.6711 158.776 88.7311 158.068 88.7791 157.444C88.827 156.82 88.8511 156.364 88.8511 156.076C88.8511 155.452 88.6951 154.9 88.3831 154.42C88.0951 153.916 87.5191 153.664 86.6551 153.664C85.5031 153.664 84.5671 154.204 83.8471 155.284C83.1511 156.364 82.7431 157.804 82.6231 159.604C82.5751 160.108 82.5151 160.816 82.4431 161.728C82.3711 162.616 82.299 163.528 82.2271 164.464C82.1551 165.376 82.0831 166.204 82.0111 166.948C81.9631 167.668 81.9391 168.112 81.9391 168.28C81.9391 168.568 81.8791 168.76 81.7591 168.856C81.6631 168.952 81.4591 169 81.1471 169H79.8511C79.107 169 78.4951 168.928 78.0151 168.784C77.5591 168.616 77.1871 168.388 76.8991 168.1C76.6351 167.812 76.4431 167.464 76.3231 167.056C76.2271 166.624 76.1791 166.132 76.1791 165.58C76.1791 165.052 76.2151 164.32 76.2871 163.384C76.3831 162.424 76.5031 161.116 76.6471 159.46C76.7911 157.78 76.9591 155.644 77.1511 153.052C77.3431 150.46 77.5471 147.244 77.7631 143.404C77.7871 142.876 77.8471 142.564 77.9431 142.468C78.0151 142.396 78.2071 142.36 78.5191 142.36H79.9231C80.6431 142.36 81.243 142.444 81.7231 142.612C82.2031 142.78 82.5871 143.008 82.8751 143.296C83.1631 143.584 83.3671 143.92 83.4871 144.304C83.6071 144.664 83.6671 145.048 83.6671 145.456C83.6671 145.888 83.6191 146.692 83.5231 147.868C83.4511 149.044 83.3551 150.424 83.2351 152.008C83.9551 150.808 84.7471 149.98 85.6111 149.524C86.4991 149.068 87.6151 148.84 88.9591 148.84C89.9671 148.84 90.8431 148.948 91.5871 149.164C92.3311 149.38 92.9431 149.752 93.4231 150.28C93.9271 150.784 94.2991 151.456 94.5391 152.296C94.7791 153.112 94.8991 154.132 94.8991 155.356C94.8991 155.74 94.8631 156.4 94.7911 157.336C94.7191 158.272 94.6231 159.34 94.5031 160.54C94.4071 161.74 94.2991 163 94.1791 164.32C94.0831 165.616 93.9991 166.804 93.9271 167.884C93.9031 168.148 93.8791 168.352 93.8551 168.496C93.8311 168.64 93.7831 168.748 93.7111 168.82C93.6631 168.892 93.5791 168.94 93.4591 168.964C93.3391 168.988 93.1711 169 92.9551 169H91.8031C91.0351 169 90.4111 168.928 89.9311 168.784C89.451 168.64 89.0791 168.436 88.8151 168.172C88.5511 167.908 88.3591 167.584 88.2391 167.2C88.1431 166.792 88.0951 166.336 88.0951 165.832C88.0951 165.592 88.0951 165.364 88.0951 165.148C88.1191 164.932 88.1431 164.728 88.1671 164.536Z" fill="white"/>
<path d="M106.281 169.36C104.625 169.36 103.245 169.132 102.141 168.676C101.061 168.196 100.197 167.548 99.5494 166.732C98.9014 165.916 98.4454 164.968 98.1814 163.888C97.9174 162.784 97.7854 161.608 97.7854 160.36C97.7854 158.92 97.9534 157.516 98.2894 156.148C98.6494 154.756 99.2494 153.52 100.089 152.44C100.929 151.36 102.033 150.496 103.401 149.848C104.793 149.176 106.521 148.84 108.585 148.84C111.609 148.84 113.769 149.584 115.065 151.072C116.385 152.536 117.045 154.6 117.045 157.264C117.045 158.008 116.985 158.836 116.865 159.748C116.769 160.636 116.565 161.524 116.253 162.412C115.965 163.3 115.557 164.164 115.029 165.004C114.525 165.844 113.877 166.588 113.085 167.236C112.293 167.884 111.333 168.4 110.205 168.784C109.101 169.168 107.793 169.36 106.281 169.36ZM107.973 153.628C107.061 153.628 106.329 153.868 105.777 154.348C105.249 154.804 104.841 155.368 104.553 156.04C104.289 156.688 104.109 157.384 104.013 158.128C103.941 158.848 103.905 159.46 103.905 159.964C103.905 161.548 104.157 162.712 104.661 163.456C105.165 164.2 105.885 164.572 106.821 164.572C107.661 164.572 108.345 164.308 108.873 163.78C109.425 163.252 109.845 162.616 110.133 161.872C110.445 161.128 110.649 160.348 110.745 159.532C110.865 158.716 110.925 158.032 110.925 157.48C110.925 156.28 110.697 155.344 110.241 154.672C109.809 153.976 109.053 153.628 107.973 153.628Z" fill="white"/>
<path d="M132.289 148.84C134.545 148.84 136.237 149.536 137.365 150.928C138.517 152.32 139.093 154.516 139.093 157.516C139.093 159.388 138.877 161.056 138.445 162.52C138.013 163.984 137.413 165.232 136.645 166.264C135.877 167.272 134.977 168.04 133.945 168.568C132.913 169.096 131.797 169.36 130.597 169.36C129.325 169.36 128.329 169.084 127.609 168.532C126.889 167.98 126.325 167.2 125.917 166.192C125.845 167.056 125.785 167.716 125.737 168.172C125.689 168.628 125.653 168.988 125.629 169.252C125.605 169.54 125.581 169.792 125.557 170.008C125.557 170.224 125.533 170.512 125.485 170.872C125.461 171.232 125.425 171.724 125.377 172.348C125.329 172.972 125.257 173.836 125.161 174.94C125.137 175.228 125.077 175.42 124.981 175.516C124.885 175.612 124.681 175.66 124.369 175.66H123.073C122.329 175.66 121.717 175.576 121.237 175.408C120.781 175.264 120.409 175.048 120.121 174.76C119.857 174.472 119.665 174.112 119.545 173.68C119.449 173.272 119.401 172.792 119.401 172.24C119.401 172 119.437 171.352 119.509 170.296C119.581 169.24 119.665 167.98 119.761 166.516C119.881 165.028 120.001 163.432 120.121 161.728C120.265 160.024 120.397 158.404 120.517 156.868C120.637 155.308 120.733 153.928 120.805 152.728C120.901 151.528 120.973 150.7 121.021 150.244C121.045 149.716 121.105 149.404 121.201 149.308C121.273 149.236 121.465 149.2 121.777 149.2H123.181C124.477 149.2 125.413 149.476 125.989 150.028C126.589 150.556 126.889 151.192 126.889 151.936C127.441 150.832 128.149 150.04 129.013 149.56C129.901 149.08 130.993 148.84 132.289 148.84ZM129.661 153.628C128.437 153.628 127.537 154.156 126.961 155.212C126.385 156.268 126.097 157.708 126.097 159.532C126.097 160.156 126.133 160.768 126.205 161.368C126.301 161.968 126.457 162.508 126.673 162.988C126.889 163.468 127.177 163.852 127.537 164.14C127.921 164.428 128.401 164.572 128.977 164.572C130.009 164.572 130.873 164.068 131.569 163.06C132.265 162.052 132.613 160.468 132.613 158.308C132.613 157.708 132.565 157.132 132.469 156.58C132.397 156.004 132.253 155.5 132.037 155.068C131.821 154.636 131.521 154.288 131.137 154.024C130.753 153.76 130.261 153.628 129.661 153.628Z" fill="white"/>
<path d="M7.49158 193.528L4.67158 198.916V202H3.29158V198.916L0.459578 193.528H2.04358L3.98758 197.452L5.93158 193.528H7.49158ZM11.5375 195.304C12.1775 195.304 12.7535 195.44 13.2655 195.712C13.7775 195.984 14.1775 196.376 14.4655 196.888C14.7535 197.4 14.8975 198 14.8975 198.688C14.8975 199.384 14.7535 199.988 14.4655 200.5C14.1775 201.012 13.7775 201.404 13.2655 201.676C12.7535 201.948 12.1775 202.084 11.5375 202.084C10.8975 202.084 10.3215 201.948 9.80955 201.676C9.30555 201.404 8.90555 201.012 8.60955 200.5C8.32155 199.98 8.17755 199.376 8.17755 198.688C8.17755 198 8.32155 197.4 8.60955 196.888C8.90555 196.376 9.30555 195.984 9.80955 195.712C10.3215 195.44 10.8975 195.304 11.5375 195.304ZM11.5375 196.492C11.1855 196.492 10.8615 196.572 10.5655 196.732C10.2695 196.892 10.0295 197.14 9.84555 197.476C9.66955 197.804 9.58155 198.208 9.58155 198.688C9.58155 199.176 9.66955 199.584 9.84555 199.912C10.0295 200.24 10.2695 200.484 10.5655 200.644C10.8615 200.804 11.1855 200.884 11.5375 200.884C11.8895 200.884 12.2135 200.804 12.5095 200.644C12.8055 200.484 13.0415 200.24 13.2175 199.912C13.4015 199.584 13.4935 199.176 13.4935 198.688C13.4935 198.208 13.4015 197.804 13.2175 197.476C13.0415 197.14 12.8055 196.892 12.5095 196.732C12.2135 196.572 11.8895 196.492 11.5375 196.492ZM22.3088 195.388V202H20.9288V200.56C20.7608 201.048 20.4688 201.428 20.0528 201.7C19.6368 201.964 19.1528 202.096 18.6008 202.096C17.8328 202.096 17.2168 201.848 16.7528 201.352C16.2888 200.856 16.0568 200.148 16.0568 199.228V195.388H17.4248V199.084C17.4248 199.684 17.5768 200.148 17.8808 200.476C18.1848 200.796 18.6008 200.956 19.1288 200.956C19.6728 200.956 20.1088 200.78 20.4368 200.428C20.7648 200.076 20.9288 199.564 20.9288 198.892V195.388H22.3088ZM25.3151 196.684C25.5391 196.252 25.8591 195.912 26.2751 195.664C26.6911 195.408 27.1711 195.28 27.7151 195.28V196.768H27.3071C26.7071 196.768 26.2231 196.916 25.8551 197.212C25.4951 197.5 25.3151 197.98 25.3151 198.652V202H23.9471V195.388H25.3151V196.684ZM37.1206 199.744C37.1206 200.16 37.0206 200.548 36.8206 200.908C36.6206 201.26 36.3166 201.544 35.9086 201.76C35.5006 201.976 35.0006 202.084 34.4086 202.084C33.8326 202.084 33.3166 201.984 32.8606 201.784C32.4046 201.576 32.0406 201.288 31.7686 200.92C31.4966 200.552 31.3406 200.128 31.3006 199.648H32.7646C32.8046 200.016 32.9606 200.332 33.2326 200.596C33.5126 200.86 33.8846 200.992 34.3486 200.992C34.7646 200.992 35.0846 200.88 35.3086 200.656C35.5406 200.432 35.6566 200.144 35.6566 199.792C35.6566 199.488 35.5726 199.24 35.4046 199.048C35.2366 198.848 35.0286 198.692 34.7806 198.58C34.5326 198.468 34.1926 198.34 33.7606 198.196C33.2326 198.028 32.8006 197.86 32.4646 197.692C32.1366 197.524 31.8566 197.28 31.6246 196.96C31.3926 196.64 31.2766 196.22 31.2766 195.7C31.2766 195.244 31.3886 194.844 31.6126 194.5C31.8366 194.156 32.1566 193.892 32.5726 193.708C32.9886 193.516 33.4686 193.42 34.0126 193.42C34.8766 193.42 35.5606 193.628 36.0646 194.044C36.5766 194.46 36.8686 195.004 36.9406 195.676H35.4646C35.4086 195.356 35.2566 195.084 35.0086 194.86C34.7686 194.628 34.4366 194.512 34.0126 194.512C33.6286 194.512 33.3206 194.612 33.0886 194.812C32.8566 195.004 32.7406 195.284 32.7406 195.652C32.7406 195.94 32.8206 196.18 32.9806 196.372C33.1406 196.556 33.3406 196.704 33.5806 196.816C33.8286 196.92 34.1646 197.044 34.5886 197.188C35.1246 197.356 35.5606 197.528 35.8966 197.704C36.2406 197.872 36.5286 198.12 36.7606 198.448C37.0006 198.776 37.1206 199.208 37.1206 199.744ZM42.1861 195.28C42.9541 195.28 43.5701 195.528 44.0341 196.024C44.4981 196.52 44.7301 197.228 44.7301 198.148V202H43.3621V198.292C43.3621 197.7 43.2101 197.244 42.9061 196.924C42.6021 196.596 42.1861 196.432 41.6581 196.432C41.1141 196.432 40.6781 196.608 40.3501 196.96C40.0221 197.304 39.8581 197.812 39.8581 198.484V202H38.4901V193.12H39.8581V196.84C40.0341 196.344 40.3301 195.96 40.7461 195.688C41.1621 195.416 41.6421 195.28 42.1861 195.28ZM49.354 195.304C49.994 195.304 50.57 195.44 51.082 195.712C51.594 195.984 51.994 196.376 52.282 196.888C52.57 197.4 52.714 198 52.714 198.688C52.714 199.384 52.57 199.988 52.282 200.5C51.994 201.012 51.594 201.404 51.082 201.676C50.57 201.948 49.994 202.084 49.354 202.084C48.714 202.084 48.138 201.948 47.626 201.676C47.122 201.404 46.722 201.012 46.426 200.5C46.138 199.98 45.994 199.376 45.994 198.688C45.994 198 46.138 197.4 46.426 196.888C46.722 196.376 47.122 195.984 47.626 195.712C48.138 195.44 48.714 195.304 49.354 195.304ZM49.354 196.492C49.002 196.492 48.678 196.572 48.382 196.732C48.086 196.892 47.846 197.14 47.662 197.476C47.486 197.804 47.398 198.208 47.398 198.688C47.398 199.176 47.486 199.584 47.662 199.912C47.846 200.24 48.086 200.484 48.382 200.644C48.678 200.804 49.002 200.884 49.354 200.884C49.706 200.884 50.03 200.804 50.326 200.644C50.622 200.484 50.858 200.24 51.034 199.912C51.218 199.584 51.31 199.176 51.31 198.688C51.31 198.208 51.218 197.804 51.034 197.476C50.858 197.14 50.622 196.892 50.326 196.732C50.03 196.572 49.706 196.492 49.354 196.492ZM57.8212 195.304C58.3972 195.304 58.9092 195.44 59.3572 195.712C59.8132 195.984 60.1692 196.376 60.4252 196.888C60.6812 197.4 60.8092 198 60.8092 198.688C60.8092 199.384 60.6812 199.988 60.4252 200.5C60.1692 201.012 59.8132 201.404 59.3572 201.676C58.9092 201.948 58.3972 202.084 57.8212 202.084C57.2212 202.084 56.7092 201.936 56.2852 201.64C55.8612 201.344 55.5652 200.952 55.3972 200.464V205.144H54.0292V195.388H55.3972V196.924C55.5652 196.436 55.8612 196.044 56.2852 195.748C56.7092 195.452 57.2212 195.304 57.8212 195.304ZM57.4012 196.504C57.0172 196.504 56.6732 196.596 56.3692 196.78C56.0652 196.956 55.8252 197.212 55.6492 197.548C55.4732 197.876 55.3852 198.256 55.3852 198.688C55.3852 199.128 55.4732 199.512 55.6492 199.84C55.8252 200.168 56.0652 200.424 56.3692 200.608C56.6732 200.784 57.0172 200.872 57.4012 200.872C58.0092 200.872 58.4972 200.68 58.8652 200.296C59.2332 199.904 59.4172 199.368 59.4172 198.688C59.4172 198.016 59.2332 197.484 58.8652 197.092C58.4972 196.7 58.0092 196.504 57.4012 196.504ZM65.9188 195.304C66.4948 195.304 67.0068 195.44 67.4548 195.712C67.9108 195.984 68.2668 196.376 68.5228 196.888C68.7788 197.4 68.9068 198 68.9068 198.688C68.9068 199.384 68.7788 199.988 68.5228 200.5C68.2668 201.012 67.9108 201.404 67.4548 201.676C67.0068 201.948 66.4948 202.084 65.9188 202.084C65.3188 202.084 64.8068 201.936 64.3828 201.64C63.9588 201.344 63.6628 200.952 63.4948 200.464V205.144H62.1268V195.388H63.4948V196.924C63.6628 196.436 63.9588 196.044 64.3828 195.748C64.8068 195.452 65.3188 195.304 65.9188 195.304ZM65.4988 196.504C65.1148 196.504 64.7708 196.596 64.4668 196.78C64.1628 196.956 63.9228 197.212 63.7468 197.548C63.5708 197.876 63.4828 198.256 63.4828 198.688C63.4828 199.128 63.5708 199.512 63.7468 199.84C63.9228 200.168 64.1628 200.424 64.4668 200.608C64.7708 200.784 65.1148 200.872 65.4988 200.872C66.1068 200.872 66.5948 200.68 66.9628 200.296C67.3308 199.904 67.5148 199.368 67.5148 198.688C67.5148 198.016 67.3308 197.484 66.9628 197.092C66.5948 196.7 66.1068 196.504 65.4988 196.504ZM70.0325 193.468C70.0325 193.236 70.1125 193.044 70.2725 192.892C70.4325 192.74 70.6445 192.664 70.9085 192.664C71.1725 192.664 71.3845 192.74 71.5445 192.892C71.7125 193.044 71.7965 193.236 71.7965 193.468C71.7965 193.7 71.7125 193.888 71.5445 194.032C71.3845 194.176 71.1725 194.248 70.9085 194.248C70.6445 194.248 70.4325 194.176 70.2725 194.032C70.1125 193.888 70.0325 193.7 70.0325 193.468ZM71.5925 195.388V202H70.2245V195.388H71.5925ZM76.9439 195.28C77.7119 195.28 78.3279 195.528 78.7919 196.024C79.2559 196.52 79.4879 197.228 79.4879 198.148V202H78.1199V198.292C78.1199 197.7 77.9679 197.244 77.6639 196.924C77.3599 196.596 76.9439 196.432 76.4159 196.432C75.8719 196.432 75.4359 196.608 75.1079 196.96C74.7799 197.304 74.6159 197.812 74.6159 198.484V202H73.2479V195.388H74.6159V196.84C74.7919 196.344 75.0879 195.96 75.5039 195.688C75.9199 195.416 76.3999 195.28 76.9439 195.28ZM83.7398 195.304C84.3398 195.304 84.8518 195.452 85.2758 195.748C85.6998 196.044 85.9998 196.436 86.1758 196.924V195.388H87.5438V202.072C87.5438 202.688 87.4158 203.232 87.1598 203.704C86.9118 204.184 86.5518 204.56 86.0798 204.832C85.6078 205.104 85.0478 205.24 84.3998 205.24C83.4718 205.24 82.7198 205.02 82.1438 204.58C81.5758 204.14 81.2198 203.544 81.0758 202.792H82.4318C82.5438 203.184 82.7598 203.488 83.0798 203.704C83.3998 203.928 83.8078 204.04 84.3038 204.04C84.8478 204.04 85.2958 203.872 85.6478 203.536C85.9998 203.2 86.1758 202.712 86.1758 202.072V200.464C85.9998 200.952 85.6998 201.344 85.2758 201.64C84.8518 201.936 84.3398 202.084 83.7398 202.084C83.1638 202.084 82.6478 201.948 82.1918 201.676C81.7438 201.404 81.3918 201.012 81.1358 200.5C80.8798 199.988 80.7518 199.384 80.7518 198.688C80.7518 198 80.8798 197.4 81.1358 196.888C81.3918 196.376 81.7438 195.984 82.1918 195.712C82.6478 195.44 83.1638 195.304 83.7398 195.304ZM84.1598 196.504C83.5518 196.504 83.0638 196.7 82.6958 197.092C82.3358 197.476 82.1558 198.008 82.1558 198.688C82.1558 199.368 82.3358 199.904 82.6958 200.296C83.0638 200.68 83.5518 200.872 84.1598 200.872C84.5438 200.872 84.8878 200.784 85.1918 200.608C85.4958 200.424 85.7358 200.168 85.9118 199.84C86.0878 199.512 86.1758 199.128 86.1758 198.688C86.1758 198.256 86.0878 197.876 85.9118 197.548C85.7358 197.212 85.4958 196.956 85.1918 196.78C84.8878 196.596 84.5438 196.504 84.1598 196.504ZM97.5659 199.744C97.5659 200.16 97.4659 200.548 97.2659 200.908C97.0659 201.26 96.7619 201.544 96.3539 201.76C95.9459 201.976 95.4459 202.084 94.8539 202.084C94.2779 202.084 93.7619 201.984 93.3059 201.784C92.8499 201.576 92.4859 201.288 92.2139 200.92C91.9419 200.552 91.7859 200.128 91.7459 199.648H93.2099C93.2499 200.016 93.4059 200.332 93.6779 200.596C93.9579 200.86 94.3299 200.992 94.7939 200.992C95.2099 200.992 95.5299 200.88 95.7539 200.656C95.9859 200.432 96.1019 200.144 96.1019 199.792C96.1019 199.488 96.0179 199.24 95.8499 199.048C95.6819 198.848 95.4739 198.692 95.2259 198.58C94.9779 198.468 94.6379 198.34 94.2059 198.196C93.6779 198.028 93.2459 197.86 92.9099 197.692C92.5819 197.524 92.3019 197.28 92.0699 196.96C91.8379 196.64 91.7219 196.22 91.7219 195.7C91.7219 195.244 91.8339 194.844 92.0579 194.5C92.2819 194.156 92.6019 193.892 93.0179 193.708C93.4339 193.516 93.9139 193.42 94.4579 193.42C95.3219 193.42 96.0059 193.628 96.5099 194.044C97.0219 194.46 97.3139 195.004 97.3859 195.676H95.9099C95.8539 195.356 95.7019 195.084 95.4539 194.86C95.2139 194.628 94.8819 194.512 94.4579 194.512C94.0739 194.512 93.7659 194.612 93.5339 194.812C93.3019 195.004 93.1859 195.284 93.1859 195.652C93.1859 195.94 93.2659 196.18 93.4259 196.372C93.5859 196.556 93.7859 196.704 94.0259 196.816C94.2739 196.92 94.6099 197.044 95.0339 197.188C95.5699 197.356 96.0059 197.528 96.3419 197.704C96.6859 197.872 96.9739 198.12 97.2059 198.448C97.4459 198.776 97.5659 199.208 97.5659 199.744ZM101.959 195.304C102.599 195.304 103.175 195.44 103.687 195.712C104.199 195.984 104.599 196.376 104.887 196.888C105.175 197.4 105.319 198 105.319 198.688C105.319 199.384 105.175 199.988 104.887 200.5C104.599 201.012 104.199 201.404 103.687 201.676C103.175 201.948 102.599 202.084 101.959 202.084C101.319 202.084 100.743 201.948 100.231 201.676C99.7274 201.404 99.3274 201.012 99.0314 200.5C98.7434 199.98 98.5994 199.376 98.5994 198.688C98.5994 198 98.7434 197.4 99.0314 196.888C99.3274 196.376 99.7274 195.984 100.231 195.712C100.743 195.44 101.319 195.304 101.959 195.304ZM101.959 196.492C101.607 196.492 101.283 196.572 100.987 196.732C100.691 196.892 100.451 197.14 100.267 197.476C100.091 197.804 100.003 198.208 100.003 198.688C100.003 199.176 100.091 199.584 100.267 199.912C100.451 200.24 100.691 200.484 100.987 200.644C101.283 200.804 101.607 200.884 101.959 200.884C102.311 200.884 102.635 200.804 102.931 200.644C103.227 200.484 103.463 200.24 103.639 199.912C103.823 199.584 103.915 199.176 103.915 198.688C103.915 198.208 103.823 197.804 103.639 197.476C103.463 197.14 103.227 196.892 102.931 196.732C102.635 196.572 102.311 196.492 101.959 196.492ZM108.003 193.12V202H106.635V193.12H108.003ZM115.754 195.388V202H114.374V200.56C114.206 201.048 113.914 201.428 113.498 201.7C113.082 201.964 112.598 202.096 112.046 202.096C111.278 202.096 110.662 201.848 110.198 201.352C109.734 200.856 109.502 200.148 109.502 199.228V195.388H110.87V199.084C110.87 199.684 111.022 200.148 111.326 200.476C111.63 200.796 112.046 200.956 112.574 200.956C113.118 200.956 113.554 200.78 113.882 200.428C114.21 200.076 114.374 199.564 114.374 198.892V195.388H115.754ZM120.716 200.812V202H119.876C119.172 202 118.636 201.832 118.268 201.496C117.908 201.152 117.728 200.584 117.728 199.792V196.552H116.78V195.388H117.728V193.744H119.108V195.388H120.704V196.552H119.108V199.816C119.108 200.192 119.176 200.452 119.312 200.596C119.456 200.74 119.704 200.812 120.056 200.812H120.716ZM121.806 193.468C121.806 193.236 121.886 193.044 122.046 192.892C122.206 192.74 122.418 192.664 122.682 192.664C122.946 192.664 123.158 192.74 123.318 192.892C123.486 193.044 123.57 193.236 123.57 193.468C123.57 193.7 123.486 193.888 123.318 194.032C123.158 194.176 122.946 194.248 122.682 194.248C122.418 194.248 122.206 194.176 122.046 194.032C121.886 193.888 121.806 193.7 121.806 193.468ZM123.366 195.388V202H121.998V195.388H123.366ZM128.045 195.304C128.685 195.304 129.261 195.44 129.773 195.712C130.285 195.984 130.685 196.376 130.973 196.888C131.261 197.4 131.405 198 131.405 198.688C131.405 199.384 131.261 199.988 130.973 200.5C130.685 201.012 130.285 201.404 129.773 201.676C129.261 201.948 128.685 202.084 128.045 202.084C127.405 202.084 126.829 201.948 126.317 201.676C125.813 201.404 125.413 201.012 125.117 200.5C124.829 199.98 124.685 199.376 124.685 198.688C124.685 198 124.829 197.4 125.117 196.888C125.413 196.376 125.813 195.984 126.317 195.712C126.829 195.44 127.405 195.304 128.045 195.304ZM128.045 196.492C127.693 196.492 127.369 196.572 127.073 196.732C126.777 196.892 126.537 197.14 126.353 197.476C126.177 197.804 126.089 198.208 126.089 198.688C126.089 199.176 126.177 199.584 126.353 199.912C126.537 200.24 126.777 200.484 127.073 200.644C127.369 200.804 127.693 200.884 128.045 200.884C128.397 200.884 128.721 200.804 129.017 200.644C129.313 200.484 129.549 200.24 129.725 199.912C129.909 199.584 130.001 199.176 130.001 198.688C130.001 198.208 129.909 197.804 129.725 197.476C129.549 197.14 129.313 196.892 129.017 196.732C128.721 196.572 128.397 196.492 128.045 196.492ZM136.417 195.28C137.185 195.28 137.801 195.528 138.265 196.024C138.729 196.52 138.961 197.228 138.961 198.148V202H137.593V198.292C137.593 197.7 137.441 197.244 137.137 196.924C136.833 196.596 136.417 196.432 135.889 196.432C135.345 196.432 134.909 196.608 134.581 196.96C134.253 197.304 134.089 197.812 134.089 198.484V202H132.721V195.388H134.089V196.84C134.265 196.344 134.561 195.96 134.977 195.688C135.393 195.416 135.873 195.28 136.417 195.28Z" fill="#F0F3F8"/>
</svg>
