<svg width="38" height="39" viewBox="0 0 38 39" fill="none" xmlns="http://www.w3.org/2000/svg">
<path d="M15.7778 32.7885C16.0603 32.903 16.3498 32.993 16.6433 33.0586C17.0097 33.9039 17.4669 34.6995 18.0024 35.433C16.9691 35.4559 15.9323 35.2691 14.9553 34.8729L2.20578 29.7028C0.944648 29.1914 0.117676 27.953 0.117676 26.5759V9.41005C0.117676 8.03302 0.944648 6.79469 2.20578 6.28327L14.9553 1.11305C16.8032 0.363683 18.8646 0.363683 20.7126 1.11305L33.4621 6.28327C34.7233 6.79469 35.5502 8.03302 35.5502 9.41005V18.5696C34.8701 18.0003 34.128 17.5042 33.3356 17.0935V9.41005C33.3356 8.95104 33.0599 8.53828 32.6396 8.36778L19.8901 3.19759C18.57 2.66233 17.0977 2.66233 15.7778 3.19759L3.02826 8.36778C2.60787 8.53828 2.33221 8.95104 2.33221 9.41005V26.5759C2.33221 27.035 2.60787 27.4476 3.02823 27.6183L15.7778 32.7885ZM8.31797 9.10941C7.75916 8.8576 7.10481 9.11275 6.85645 9.67928C6.60807 10.2458 6.85975 10.9092 7.41856 11.161L16.7261 15.3549V22.9451C17.2838 21.7146 18.0352 20.5931 18.9407 19.6205V15.3549L28.2486 11.161C28.8076 10.9092 29.0592 10.2458 28.8109 9.6793C28.5624 9.11275 27.9083 8.85762 27.3493 9.10939L17.8334 13.397L8.31797 9.10941ZM33.3359 36.4954C31.6969 37.6056 29.7702 38.1981 27.7993 38.1981C25.1563 38.1981 22.6215 37.1337 20.7527 35.239C18.8838 33.3444 17.8339 30.7747 17.8339 28.0951C17.8339 26.097 18.4183 24.1438 19.5134 22.4824C20.6085 20.8208 22.1649 19.526 23.9857 18.7613C25.8067 17.9967 27.8104 17.7965 29.7434 18.1864C31.6765 18.5761 33.4521 19.5384 34.8459 20.9512C36.2395 22.3643 37.1887 24.1644 37.5731 26.1242C37.9578 28.0839 37.7605 30.1153 37.0062 31.9614C36.252 33.8076 34.9746 35.3854 33.3359 36.4954ZM28.5824 22.8113C28.3746 22.6007 28.093 22.4824 27.7993 22.4824C27.5057 22.4824 27.224 22.6007 27.0163 22.8113C26.8088 23.0216 26.692 23.3072 26.692 23.6049V26.9726H23.3702C23.0766 26.9726 22.7949 27.0909 22.5872 27.3015C22.3797 27.5119 22.263 27.7974 22.263 28.0951C22.263 28.3928 22.3797 28.6784 22.5872 28.889C22.7949 29.0994 23.0766 29.2177 23.3702 29.2177H26.692V32.5853C26.692 32.883 26.8088 33.1686 27.0163 33.3792C27.224 33.5896 27.5057 33.7079 27.7993 33.7079C28.093 33.7079 28.3746 33.5896 28.5824 33.3792C28.7899 33.1686 28.9066 32.883 28.9066 32.5853V29.2177H32.2284C32.522 29.2177 32.8037 29.0994 33.0114 28.889C33.2189 28.6784 33.3356 28.3928 33.3356 28.0951C33.3356 27.7974 33.2189 27.5119 33.0114 27.3015C32.8037 27.0909 32.522 26.9726 32.2284 26.9726H28.9066V23.6049C28.9066 23.3072 28.7899 23.0216 28.5824 22.8113Z" fill="#212121"/>
</svg>
