<svg width="52" height="57" viewBox="0 0 52 57" fill="none" xmlns="http://www.w3.org/2000/svg">
<path d="M25.421 0.207673C25.6945 0.0763929 26.0128 0.0763932 26.2864 0.207673L51.14 12.1362C51.4868 12.3027 51.7073 12.6532 51.7073 13.0378V42.7999C51.7073 43.1848 51.4864 43.5356 51.1392 43.7019L26.2855 55.6017C26.0125 55.7325 25.6949 55.7325 25.4218 55.6017L0.568149 43.7018C0.220953 43.5356 0 43.1848 0 42.7999V13.0378C0 12.6532 0.220569 12.3027 0.567304 12.1362L25.421 0.207673ZM43.3898 14.5028C44.1477 14.1405 44.1482 13.0617 43.3907 12.6987L26.2852 4.50206C26.0123 4.37129 25.6949 4.37114 25.4219 4.50163L20.238 6.97932C19.4822 7.34058 19.4789 8.4154 20.2326 8.78119L37.2285 17.0304C37.5023 17.1633 37.8218 17.1642 38.0964 17.033L43.3898 14.5028ZM25.423 22.7017C25.6954 22.8322 26.0121 22.8326 26.2849 22.7028L31.3691 20.2831C32.1265 19.9227 32.1303 18.8461 31.3754 18.4803L14.3543 10.2321C14.0806 10.0995 13.7614 10.0986 13.487 10.2298L8.31762 12.7006C7.55968 13.0628 7.55914 14.1416 8.31672 14.5046L25.423 22.7017ZM5.41018 17.3914C4.74635 17.0728 3.97749 17.5566 3.97749 18.2929V40.4143C3.97749 40.7989 4.19806 41.1494 4.54479 41.3158L22.4322 49.901C23.0961 50.2196 23.8649 49.7357 23.8649 48.9994V26.8781C23.8649 26.4935 23.6443 26.1429 23.2976 25.9765L5.41018 17.3914ZM31.0007 52.6313C31.3014 52.9166 31.747 52.9868 32.1208 52.8078L39.4268 49.3097L47.0318 45.6684C47.3253 45.5279 47.5321 45.2533 47.5861 44.9324L48.4861 39.5824C48.4954 39.5276 48.5 39.4721 48.5 39.4165L48.5 35L48.5 31L48.5 22.908L47.9059 18.1219C47.8203 17.4329 47.0758 17.0386 46.4578 17.355L29.4878 26.0428C29.232 26.1737 29.0449 26.4085 28.9742 26.6871L27.5307 32.379C27.5103 32.4594 27.5 32.5419 27.5 32.6248L27.5 40.5L27.5 48.88C27.5 49.1544 27.6127 49.4166 27.8117 49.6054L31.0007 52.6313Z" fill="#B9C1CC"/>
<path d="M43.1558 53.3147C41.5111 54.4136 39.5778 55 37.6 55C34.9478 55 32.4042 53.9464 30.5289 52.0711C28.6536 50.1958 27.6 47.6522 27.6 45C27.6 43.0222 28.1864 41.0888 29.2853 39.4444C30.3842 37.7997 31.946 36.5182 33.7731 35.7613C35.6004 35.0044 37.6111 34.8063 39.5509 35.1921C41.4906 35.5779 43.2724 36.5304 44.6711 37.9288C46.0695 39.3275 47.022 41.1093 47.4077 43.0491C47.7937 44.9889 47.5957 46.9995 46.8389 48.8269C46.082 50.6542 44.8002 52.216 43.1558 53.3147ZM38.3858 39.7699C38.1773 39.5615 37.8947 39.4444 37.6 39.4444C37.3053 39.4444 37.0227 39.5615 36.8142 39.7699C36.606 39.9782 36.4889 40.2608 36.4889 40.5555V43.8888H33.1556C32.8609 43.8888 32.5782 44.006 32.3698 44.2144C32.1616 44.4226 32.0444 44.7053 32.0444 45C32.0444 45.2946 32.1616 45.5773 32.3698 45.7857C32.5782 45.994 32.8609 46.1111 33.1556 46.1111H36.4889V49.4444C36.4889 49.7391 36.606 50.0218 36.8142 50.2302C37.0227 50.4384 37.3053 50.5555 37.6 50.5555C37.8947 50.5555 38.1773 50.4384 38.3858 50.2302C38.594 50.0218 38.7111 49.7391 38.7111 49.4444V46.1111H42.0444C42.3391 46.1111 42.6218 45.994 42.8302 45.7857C43.0384 45.5773 43.1555 45.2946 43.1555 45C43.1555 44.7053 43.0384 44.4226 42.8302 44.2144C42.6218 44.006 42.3391 43.8888 42.0444 43.8888H38.7111V40.5555C38.7111 40.2608 38.594 39.9782 38.3858 39.7699Z" fill="#B9C1CC"/>
</svg>
