<svg width="375" height="258" viewBox="0 0 375 258" fill="none" xmlns="http://www.w3.org/2000/svg">
<path d="M26.4998 52.9753C-65.8833 163.215 -64.167 186.142 -19.5003 191.975C-28.0005 219.475 41.4988 185.475 82.4995 223.975C130.102 268.674 344 275.975 327 202.475C313.33 143.375 384.882 151.215 401.5 93.9753C419.5 31.9753 303.999 -34.5247 255 20.4753C195.255 87.536 85.9994 -18.0247 26.4998 52.9753Z" fill="#E8F2FD"/>
<path d="M142.45 213H91V252.683H142.45V213Z" fill="#C8E0FB"/>
<path d="M112.543 213.104H106.699V221.571H112.543V213.104Z" fill="#B3CBFC"/>
<path d="M112.543 244.097H106.699V252.564H112.543V244.097Z" fill="#B3CBFC"/>
<path d="M284.877 203H220V253.037H284.877V203Z" fill="#C8E0FB"/>
<path d="M247.159 203.128H239.788V213.804H247.159V203.128Z" fill="#B3CBFC"/>
<path d="M247.159 242.209H239.788V252.884H247.159V242.209Z" fill="#B3CBFC"/>
<path d="M239.878 193.33L219.801 191.752C219.801 191.752 219.319 188.686 220.369 186.36C221.373 184.129 219.991 182.514 218.615 179.856C219.89 181.172 224.285 180.978 227.188 180.587C227.543 181.165 231.124 186.482 232.311 187.337C233.624 188.282 239.475 189.522 239.878 193.33Z" fill="#243862"/>
<path d="M216.297 191.752H196.22C196.22 191.752 195.738 188.687 196.787 186.36C197.792 184.129 199.543 181.733 198.167 179.075C199.443 180.391 203.473 180.247 206.376 179.856C206.731 180.433 205.033 184.209 208.731 187.337C209.965 188.381 215.893 187.945 216.297 191.752Z" fill="#243862"/>
<path d="M212.966 120.265C212.966 120.265 206.297 117.588 197.179 126.873C179.668 141.082 157.184 177.231 155.07 179.768C150.837 184.849 154.109 191.921 171.418 191.752C181.538 191.653 187.732 186.999 190.506 182.813C191.246 181.698 193.962 176.613 197.289 169.804C197.189 176.643 197.148 181.6 197.148 181.6C196.628 186.447 207.497 185.123 207.497 185.123C225.929 123.351 212.966 120.265 212.966 120.265Z" fill="#183660"/>
<path d="M204.002 97.7682C202.985 95.7285 201.083 94.3039 199.651 93.4607C200.251 93.3318 201.039 93.6667 201.039 93.6667C200.269 92.9663 197.795 92.5345 197.795 92.5345C188.98 79.9676 175.386 96.2437 172.911 100.484C170.435 104.723 167.329 109.431 158.954 109.101C142.474 108.451 141.425 125.057 144.797 133.56C144.845 133.679 152.923 148.013 152.923 148.013C154.825 144.52 171.932 129.699 183.319 129.808C187.144 128.261 191.183 123.704 191.498 123.344C188.505 127.097 186.334 128.873 184.887 129.721C195.714 128.043 206.7 103.173 204.002 97.7682Z" fill="#263238"/>
<path d="M184 129.804C184.031 129.846 182.512 135.477 177.947 133.008C174.95 131.386 170.141 124.469 171.994 122.125C172.875 121.011 176.755 118.894 180.796 111.726L181.281 112.146L189.436 119.213C189.436 119.213 187.579 121.992 186.021 124.718C184.713 127.007 183.615 129.26 184 129.804Z" fill="#F4A36A"/>
<path d="M180.981 110.375C180.981 110.375 181.133 104.566 182.849 100.664C184.072 97.877 191.512 89.4973 199.881 97.0424C199.881 97.0424 202.392 99.1131 203.775 102.52C204.875 105.23 205.812 110.114 197.181 115.99L194.518 118.145L180.981 110.375Z" fill="#263238"/>
<path d="M170.019 119.055C170.019 119.055 173.015 119.628 174.282 117.927C175.548 116.226 178.306 112.628 178.95 114.693C179.594 116.757 185.677 122.76 187.085 122.917C188.491 123.075 189.477 123.47 188.681 124.201C187.886 124.931 188.217 127.856 187.421 128.122C186.625 128.387 171.853 118.894 170.019 119.055Z" fill="#FEB546"/>
<path d="M188.857 123.159C188.857 123.159 177.095 115.54 181.943 108.275C186.792 101.01 188.539 95.1339 196.253 99.6912C203.968 104.248 203.562 107.988 202.532 110.807C201.502 113.626 192.041 124.954 188.857 123.159Z" fill="#FAB17E"/>
<path d="M189.436 129.051C189.436 129.051 169.519 114.347 162.548 119.886C152.267 128.055 154.323 155.633 151.935 159.222C149.547 162.81 136.092 188.543 157.976 191.161C179.86 193.778 184.901 179.956 185.896 169.589C186.891 159.221 189.436 129.051 189.436 129.051Z" fill="#FEB546"/>
<path d="M163.229 128.867C163.229 128.867 157.494 160.631 168.86 169.309C180.225 177.986 185.947 127.884 163.229 128.867Z" fill="#C6920A"/>
<path d="M174.668 123.791C174.668 123.791 174.886 120.08 178.154 121.499C181.423 122.918 187.47 125.046 189.812 124.173C192.155 123.3 186.045 135.034 180.465 131.105C174.886 127.175 174.668 123.791 174.668 123.791Z" fill="#C6920A"/>
<path d="M201.67 103.071C201.67 103.071 192.788 109.449 187.058 107.426C181.327 105.404 180.085 102.668 180.085 102.668C180.085 102.668 185.83 102.201 190.093 97.5151C190.093 97.5151 201.979 97.4036 201.67 103.071Z" fill="#263238"/>
<path d="M216.812 144.475C216.812 144.475 221.316 146.44 220.421 151.618C219.525 156.796 217.735 155.061 217.735 155.061L216.812 144.475Z" fill="#FAB17E"/>
<path d="M200.419 103.232C200.419 103.232 201.526 106.731 200.868 108.969C200.212 111.207 197.927 115.188 199.121 115.801C199.121 115.801 205.393 111.623 204.886 106.538C204.35 101.146 200.419 103.232 200.419 103.232Z" fill="#263238"/>
<path d="M149.481 179.768C152.14 176.576 187.236 115.116 201.834 115.943C223.806 117.188 185.407 178.55 182.714 182.614C179.939 186.799 175.948 191.654 165.828 191.752C148.518 191.921 145.247 184.849 149.481 179.768Z" fill="#1C478A"/>
<path d="M208.006 120.265C208.006 120.265 208.879 121.081 228.754 182.3C228.754 182.3 220.461 188.321 218.615 183.81C218.615 183.81 191.832 143.537 198.141 136.446C204.45 129.355 208.006 120.265 208.006 120.265Z" fill="#1C478A"/>
<path d="M161.581 122.132C161.581 122.132 156.335 130.25 172.65 137.7C188.966 145.15 190.886 146.967 194.068 147.632C199.025 148.668 218.066 148.522 218.066 148.522C218.066 148.522 218.566 145.497 216.812 144.476C214.005 142.84 197.786 140.183 195.599 139.307C193.412 138.43 170.109 113.335 161.581 122.132Z" fill="#EE9960"/>
<path d="M166.212 118.651C166.212 118.651 174.547 118.988 191.931 135.034C191.931 135.034 194.591 138.27 195.914 138.486C197.237 138.702 200.823 139.646 200.901 140.56C200.98 141.475 196.486 152.936 190.766 153.263C185.046 153.591 158.244 133.861 160.124 127.23C162.003 120.599 166.212 118.651 166.212 118.651Z" fill="#FEB546"/>
<path d="M157.964 253.118H137.887C137.887 253.118 137.136 249.91 138.454 247.727C139.621 245.795 139.174 244.695 138.31 243.096C139.219 243.469 140.396 243.809 141.692 243.734C142.692 243.677 143.75 243.222 144.677 242.683C145.541 243.67 149.242 247.871 150.398 248.703C151.71 249.648 157.56 249.311 157.964 253.118Z" fill="#243862"/>
<path d="M206.221 193.778H132.728V253.118H206.221V193.778Z" fill="#C66228"/>
<path d="M242.968 193.779H176.474V253.118H242.968V193.779Z" fill="#F0A350"/>
<path d="M188.765 206.372C189.438 206.372 189.984 205.844 189.984 205.191C189.984 204.539 189.438 204.01 188.765 204.01C188.092 204.01 187.546 204.539 187.546 205.191C187.546 205.844 188.092 206.372 188.765 206.372Z" fill="#D46928"/>
<path d="M233.488 206.372C234.161 206.372 234.707 205.844 234.707 205.191C234.707 204.539 234.161 204.01 233.488 204.01C232.815 204.01 232.269 204.539 232.269 205.191C232.269 205.844 232.815 206.372 233.488 206.372Z" fill="#D46928"/>
<path d="M188.765 243.753C189.438 243.753 189.984 243.224 189.984 242.572C189.984 241.92 189.438 241.391 188.765 241.391C188.092 241.391 187.546 241.92 187.546 242.572C187.546 243.224 188.092 243.753 188.765 243.753Z" fill="#D46928"/>
<path d="M233.488 243.753C234.161 243.753 234.707 243.224 234.707 242.572C234.707 241.92 234.161 241.391 233.488 241.391C232.815 241.391 232.269 241.92 232.269 242.572C232.269 243.224 232.815 243.753 233.488 243.753Z" fill="#D46928"/>
<path d="M140.403 206.372C140.82 206.372 141.158 205.844 141.158 205.191C141.158 204.539 140.82 204.01 140.403 204.01C139.986 204.01 139.648 204.539 139.648 205.191C139.648 205.844 139.986 206.372 140.403 206.372Z" fill="#B25827"/>
<path d="M168.103 206.372C168.52 206.372 168.858 205.844 168.858 205.191C168.858 204.539 168.52 204.01 168.103 204.01C167.686 204.01 167.348 204.539 167.348 205.191C167.348 205.844 167.686 206.372 168.103 206.372Z" fill="#B25827"/>
<path d="M140.403 243.753C140.82 243.753 141.158 243.224 141.158 242.572C141.158 241.92 140.82 241.391 140.403 241.391C139.986 241.391 139.648 241.92 139.648 242.572C139.648 243.224 139.986 243.753 140.403 243.753Z" fill="#B25827"/>
<path d="M168.103 243.753C168.52 243.753 168.858 243.224 168.858 242.572C168.858 241.92 168.52 241.391 168.103 241.391C167.686 241.391 167.348 241.92 167.348 242.572C167.348 243.224 167.686 243.753 168.103 243.753Z" fill="#B25827"/>
<path d="M132.728 193.874C132.728 193.874 142.715 184.632 149.303 187.45C157.975 191.161 178.482 190.127 183.656 189.17C188.83 188.213 229.245 191.072 242.968 193.779L132.728 193.874Z" fill="#D46928"/>
<path opacity="0.4" d="M242.968 237.552V253.118H176.474V193.779H187.629L187.847 193.874C187.847 193.874 193.817 234.125 242.968 237.552Z" fill="#D76927"/>
<path opacity="0.5" d="M243 66C244.346 59.5328 249.591 54.7081 255.86 54.7081C257.011 54.7081 258.127 54.8713 259.191 55.1768C262.286 47.8751 269.001 42.8159 276.787 42.8159C278.801 42.8159 280.742 43.154 282.568 43.7815C286.76 36.1217 294.376 31 303.076 31C313.428 31 322.244 38.2498 325.585 48.3988C327.95 46.9441 330.672 46.1119 333.571 46.1119C342.645 46.1119 350 54.2285 350 64.2407C350 64.8345 349.972 65.4209 349.922 65.9998L243 66Z" fill="white"/>
<path opacity="0.5" d="M36 103C36.7927 99.1197 39.8806 96.2248 43.5718 96.2248C44.2494 96.2248 44.9066 96.3228 45.5333 96.5061C47.3551 92.1251 51.3088 89.0895 55.8935 89.0895C57.0788 89.0895 58.222 89.2924 59.2969 89.6689C61.7653 85.073 66.2494 82 71.372 82C77.4667 82 82.6578 86.3499 84.6247 92.4393C86.0172 91.5664 87.6199 91.0672 89.3271 91.0672C94.6693 91.0672 99 95.9371 99 101.944C99 102.301 98.9838 102.653 98.954 103L36 103Z" fill="white"/>
<path d="M86.3656 240.461C86.3884 240.389 86.4182 240.32 86.4545 240.254C86.5237 240.106 86.6175 239.908 86.7312 239.656C87.0748 238.884 87.3509 238.084 87.5561 237.265C88.0995 235.141 88.2922 231.895 87.487 228.042C87.0496 225.941 86.4771 223.87 85.7728 221.842C85.0516 219.644 84.2068 217.312 83.5202 214.788C82.7449 212.155 82.3702 209.421 82.4087 206.677C82.5124 203.807 83.3621 200.946 84.2957 198.091C85.2294 195.236 86.1927 192.454 86.4792 189.639C86.7977 186.938 86.2548 184.207 84.9281 181.833C83.6931 179.556 82.137 177.605 80.9761 175.589C79.8892 173.716 79.0884 171.692 78.5999 169.582C77.899 166.528 77.8468 163.361 78.4468 160.285C78.6654 159.16 78.9964 158.059 79.4348 157C79.4215 157.074 79.4017 157.147 79.3755 157.217L79.1779 157.845C79.01 158.398 78.7877 159.228 78.5753 160.315C78.0231 163.376 78.1054 166.519 78.8173 169.548C79.3128 171.631 80.1171 173.63 81.2033 175.476C82.3642 177.452 83.9253 179.428 85.1899 181.715C86.549 184.136 87.1075 186.925 86.7855 189.683C86.494 192.538 85.5258 195.349 84.5921 198.2C83.6585 201.05 82.8187 203.881 82.715 206.701C82.6708 209.418 83.0372 212.126 83.8017 214.734C84.4785 217.243 85.3084 219.575 86.0247 221.783C86.7223 223.822 87.2835 225.904 87.7043 228.017C88.4898 231.9 88.2675 235.18 87.7043 237.31C87.484 238.131 87.1879 238.929 86.8201 239.696L86.5138 240.283C86.4713 240.348 86.4216 240.408 86.3656 240.461Z" fill="#263238"/>
<path d="M82.5577 177.58C82.5577 177.58 80.1964 170.017 84.4349 165.591C84.4678 165.555 84.5099 165.529 84.5566 165.516C84.6032 165.503 84.6526 165.503 84.6992 165.516C84.7458 165.53 84.7878 165.556 84.8205 165.591C84.8532 165.627 84.8753 165.671 84.8844 165.719C85.1117 166.969 85.3933 170.773 82.5577 177.58Z" fill="#ABC6FC"/>
<path d="M83.9738 168.11C83.9663 168.578 83.9134 169.045 83.8157 169.503C83.6577 170.466 83.4749 171.593 83.2773 172.838C83.0797 174.083 82.8969 175.214 82.7438 176.172C82.7006 176.639 82.618 177.102 82.4968 177.555C82.4504 177.088 82.4604 176.617 82.5264 176.152C82.6055 175.288 82.7586 174.102 82.971 172.798C83.1834 171.494 83.4156 170.328 83.5984 169.474C83.6705 169.006 83.7965 168.549 83.9738 168.11Z" fill="#263238"/>
<path d="M85.3323 195.418C85.3323 195.418 86.7797 187.628 92.599 185.701C92.6448 185.685 92.6942 185.682 92.7417 185.693C92.7891 185.703 92.8327 185.727 92.8676 185.761C92.9024 185.795 92.9272 185.837 92.9391 185.885C92.951 185.932 92.9495 185.981 92.9349 186.027C92.5496 187.228 91.0231 190.72 85.3323 195.418Z" fill="#ABC6FC"/>
<path d="M91.0137 187.702C90.7881 188.114 90.5234 188.502 90.2233 188.863L88.1831 191.555L86.1577 194.258C85.9027 194.65 85.6134 195.018 85.2932 195.359C85.4736 194.924 85.7058 194.513 85.9848 194.134C86.4788 193.408 87.1506 192.43 87.9608 191.378C88.771 190.325 89.507 189.402 90.0652 188.73C90.3427 188.353 90.6608 188.009 91.0137 187.702Z" fill="#263238"/>
<path d="M83.7625 214.946C83.7625 214.946 82.8832 207.072 87.8924 203.54C87.931 203.509 87.9774 203.491 88.0262 203.486C88.075 203.482 88.1241 203.491 88.1677 203.513C88.2113 203.536 88.2477 203.57 88.2724 203.612C88.2971 203.655 88.3093 203.703 88.3073 203.752C88.2925 205.022 87.843 208.806 83.7625 214.946Z" fill="#ABC6FC"/>
<path d="M86.9735 205.921C86.8816 206.381 86.7409 206.83 86.5536 207.26L85.3877 210.431C84.953 211.617 84.5628 212.689 84.2318 213.603C84.1051 214.052 83.9398 214.49 83.7378 214.912C83.7835 214.443 83.8863 213.982 84.0441 213.538C84.2861 212.708 84.6616 211.562 85.121 210.327C85.5804 209.092 86.0299 207.981 86.3708 207.186C86.5282 206.745 86.7301 206.321 86.9735 205.921Z" fill="#263238"/>
<path d="M88.1436 234.598C88.1436 234.598 87.5508 226.694 92.6785 223.344C92.7187 223.317 92.7657 223.301 92.8144 223.298C92.863 223.296 92.9113 223.307 92.9539 223.331C92.9965 223.355 93.0317 223.39 93.0555 223.432C93.0793 223.475 93.0907 223.523 93.0886 223.571C93.0293 224.841 92.4464 228.61 88.1436 234.598Z" fill="#ABC6FC"/>
<path d="M91.6611 225.696C91.5505 226.152 91.3933 226.595 91.1918 227.019C90.8263 227.919 90.3915 228.995 89.9124 230.146C89.4332 231.298 89.0133 232.369 88.6477 233.274C88.5014 233.719 88.3145 234.151 88.0895 234.563C88.155 234.096 88.2761 233.638 88.4501 233.199C88.7218 232.379 89.1368 231.253 89.6406 230.033C90.1445 228.813 90.6287 227.716 90.9992 226.935C91.175 226.5 91.397 226.084 91.6611 225.696Z" fill="#263238"/>
<path d="M79.1581 170.936C79.1581 170.936 72.1531 167.26 72 161.14C71.9996 161.092 72.0122 161.044 72.0364 161.003C72.0605 160.961 72.0955 160.927 72.1375 160.904C72.1794 160.881 72.2269 160.869 72.2749 160.871C72.3229 160.872 72.3695 160.887 72.41 160.912C73.4524 161.634 76.3472 164.123 79.1581 170.936Z" fill="#ABC6FC"/>
<path d="M73.4574 163.244C73.7862 163.58 74.0792 163.949 74.3318 164.346C74.9048 165.131 75.5717 166.06 76.3078 167.083L78.2838 169.809C78.5848 170.168 78.8526 170.553 79.084 170.96C78.7227 170.66 78.3993 170.316 78.1207 169.938C77.5625 169.276 76.8314 168.327 76.0608 167.255C75.2901 166.183 74.6134 165.191 74.149 164.464C73.8767 164.083 73.6449 163.674 73.4574 163.244Z" fill="#263238"/>
<path d="M86.7022 187.174C86.7022 187.174 79.47 183.938 78.9612 177.827C78.9571 177.779 78.9663 177.731 78.9878 177.688C79.0094 177.645 79.0424 177.608 79.0833 177.583C79.1241 177.557 79.1712 177.543 79.2194 177.543C79.2676 177.543 79.315 177.555 79.3564 177.58C80.4382 178.237 83.4764 180.539 86.7022 187.174Z" fill="#ABC6FC"/>
<path d="M80.5524 179.843C80.9008 180.156 81.2154 180.506 81.491 180.885L83.6349 183.498L85.7838 186.102C86.1057 186.442 86.3967 186.811 86.6533 187.203C86.2743 186.923 85.9294 186.6 85.6258 186.24C85.033 185.608 84.2426 184.708 83.4077 183.686C82.5728 182.663 81.8417 181.71 81.328 181.013C81.0269 180.653 80.7668 180.26 80.5524 179.843Z" fill="#263238"/>
<path d="M82.528 205.298C82.528 205.298 77.588 199.123 79.895 193.442C79.9132 193.398 79.9434 193.359 79.9823 193.331C80.0211 193.302 80.0671 193.285 80.1151 193.281C80.1631 193.277 80.2113 193.286 80.2544 193.307C80.2975 193.329 80.3338 193.362 80.3593 193.403C81.046 194.475 82.691 197.913 82.528 205.298Z" fill="#ABC6FC"/>
<path d="M80.3933 195.952C80.5623 196.391 80.6848 196.846 80.7589 197.31C80.9664 198.259 81.2084 199.375 81.4752 200.61C81.742 201.845 81.9939 202.957 82.2014 203.905C82.3336 204.356 82.4245 204.817 82.4731 205.284C82.2562 204.864 82.0904 204.419 81.9791 203.96C81.737 203.125 81.4406 201.984 81.164 200.67C80.8873 199.356 80.67 198.2 80.5317 197.35C80.4346 196.89 80.3882 196.422 80.3933 195.952Z" fill="#263238"/>
<path d="M87.4664 226.595C87.4664 226.595 80.2885 223.24 79.8834 217.125C79.8787 217.076 79.8877 217.027 79.9094 216.983C79.9312 216.939 79.9648 216.902 80.0065 216.876C80.0482 216.851 80.0962 216.837 80.1452 216.837C80.1942 216.838 80.2421 216.852 80.2836 216.878C81.3457 217.554 84.3443 219.911 87.4664 226.595Z" fill="#ABC6FC"/>
<path d="M81.4254 219.16C81.7649 219.484 82.0726 219.839 82.3443 220.222L84.4438 222.865L86.5482 225.508C86.8646 225.853 87.149 226.227 87.3979 226.624C87.03 226.336 86.6983 226.004 86.4099 225.636C85.822 224.994 85.0514 224.08 84.2313 223.043C83.4113 222.005 82.6999 221.042 82.1961 220.336C81.8943 219.975 81.6357 219.58 81.4254 219.16Z" fill="#263238"/>
<path d="M101.749 195.453C101.749 195.453 101.749 195.512 101.749 195.626C101.749 195.739 101.749 195.927 101.749 196.12C101.749 196.614 101.699 197.241 101.665 198.041C101.576 199.731 101.443 202.087 101.289 204.903C100.795 207.768 99.3135 210.945 97.3375 214.032C95.8999 216.305 94.3735 218.37 93.0891 220.291C91.9168 221.978 90.8637 223.744 89.9373 225.577C89.324 226.816 88.8279 228.109 88.4553 229.44C88.3318 229.909 88.233 230.28 88.1787 230.532C88.1553 230.663 88.1206 230.792 88.075 230.917C88.0767 230.784 88.0932 230.651 88.1243 230.522C88.1589 230.265 88.233 229.89 88.3466 229.41C88.6791 228.056 89.1509 226.74 89.7546 225.483C90.6727 223.636 91.7244 221.857 92.9013 220.163C94.1956 218.226 95.6924 216.156 97.125 213.899C99.0763 210.826 100.529 207.699 101.077 204.878C101.275 202.068 101.438 199.716 101.571 198.027C101.635 197.226 101.69 196.589 101.729 196.11C101.729 195.912 101.764 195.744 101.779 195.616C101.762 195.563 101.752 195.508 101.749 195.453Z" fill="#263238"/>
<path d="M97.4761 213.464C97.4761 213.464 100.514 206.153 96.6955 201.356C96.6659 201.318 96.6262 201.288 96.5808 201.271C96.5354 201.254 96.4861 201.25 96.4384 201.259C96.3907 201.268 96.3466 201.29 96.3109 201.323C96.2751 201.356 96.2493 201.398 96.2361 201.445C95.8952 202.67 95.2679 206.43 97.4761 213.464Z" fill="#ABC6FC"/>
<path d="M96.9215 203.91C97.0525 204.361 97.1337 204.825 97.1636 205.293C97.2722 206.153 97.3908 207.343 97.4847 208.662C97.5785 209.981 97.623 211.177 97.623 212.046C97.6527 212.516 97.6245 212.987 97.539 213.449C97.4537 212.988 97.4124 212.52 97.4155 212.051C97.3513 211.063 97.2722 209.942 97.1883 208.682C97.1043 207.422 97.0252 206.281 96.9561 205.313C96.8985 204.848 96.887 204.378 96.9215 203.91Z" fill="#263238"/>
<g opacity="0.3">
<path opacity="0.3" d="M97.4761 213.464C97.4761 213.464 100.514 206.153 96.6955 201.356C96.6659 201.318 96.6262 201.288 96.5808 201.271C96.5354 201.254 96.4861 201.25 96.4384 201.259C96.3907 201.268 96.3466 201.29 96.3109 201.323C96.2751 201.356 96.2493 201.398 96.2361 201.445C95.8952 202.67 95.2679 206.43 97.4761 213.464Z" fill="black"/>
</g>
<path d="M88.0655 231.095C88.0655 231.095 90.5009 223.557 86.3019 219.091C86.2693 219.055 86.2276 219.029 86.1813 219.016C86.1349 219.003 86.0858 219.002 86.0393 219.015C85.9928 219.028 85.9508 219.053 85.9178 219.089C85.8848 219.124 85.8621 219.167 85.8523 219.214C85.6152 220.459 85.2941 224.263 88.0655 231.095Z" fill="#ABC6FC"/>
<path d="M86.7361 221.6C86.9072 222.039 87.0266 222.497 87.0918 222.964C87.2696 223.809 87.482 224.989 87.6846 226.293C87.8871 227.598 88.0254 228.788 88.0995 229.653C88.1636 230.119 88.1719 230.592 88.1242 231.06C88.0069 230.607 87.9276 230.144 87.8871 229.677C87.7438 228.714 87.5759 227.588 87.3931 226.338C87.2103 225.088 87.0325 223.962 86.8991 222.998C86.7989 222.539 86.7443 222.071 86.7361 221.6Z" fill="#263238"/>
<g opacity="0.3">
<path opacity="0.3" d="M88.0655 231.095C88.0655 231.095 90.5009 223.557 86.3019 219.091C86.2693 219.055 86.2276 219.029 86.1813 219.016C86.1349 219.003 86.0858 219.002 86.0393 219.015C85.9928 219.028 85.9508 219.053 85.9178 219.089C85.8848 219.124 85.8621 219.167 85.8523 219.214C85.6152 220.459 85.2941 224.263 88.0655 231.095Z" fill="black"/>
</g>
<path d="M101.348 204.528C101.348 204.528 107.834 199.983 107.182 193.887C107.177 193.839 107.159 193.794 107.13 193.755C107.101 193.717 107.061 193.688 107.016 193.67C106.971 193.653 106.922 193.648 106.875 193.657C106.828 193.665 106.784 193.687 106.748 193.719C105.804 194.569 103.275 197.394 101.348 204.528Z" fill="#ABC6FC"/>
<g opacity="0.3">
<path opacity="0.3" d="M101.348 204.528C101.348 204.528 107.834 199.983 107.182 193.887C107.177 193.839 107.159 193.794 107.13 193.755C107.101 193.717 107.061 193.688 107.016 193.67C106.971 193.653 106.922 193.648 106.875 193.657C106.828 193.665 106.784 193.687 106.748 193.719C105.804 194.569 103.275 197.394 101.348 204.528Z" fill="black"/>
</g>
<path d="M106.007 196.164C105.879 196.617 105.698 197.053 105.469 197.464C105.098 198.244 104.56 199.311 103.932 200.477C103.305 201.643 102.702 202.675 102.238 203.406C102.01 203.817 101.733 204.198 101.413 204.543C101.587 204.108 101.802 203.691 102.055 203.298C102.52 202.443 103.068 201.445 103.671 200.334L105.281 197.37C105.483 196.945 105.727 196.541 106.007 196.164Z" fill="#263238"/>
<path d="M90.6832 223.621C90.6832 223.621 98.5082 222.401 100.603 216.641C100.62 216.596 100.624 216.547 100.615 216.5C100.606 216.453 100.585 216.409 100.552 216.373C100.52 216.337 100.479 216.311 100.433 216.297C100.387 216.284 100.338 216.283 100.292 216.295C99.0714 216.66 95.5343 218.068 90.6832 223.621Z" fill="#ABC6FC"/>
<g opacity="0.3">
<path opacity="0.3" d="M90.6832 223.621C90.6832 223.621 98.5082 222.401 100.603 216.641C100.62 216.596 100.624 216.547 100.615 216.5C100.606 216.453 100.585 216.409 100.552 216.373C100.52 216.337 100.479 216.311 100.433 216.297C100.387 216.284 100.338 216.283 100.292 216.295C99.0714 216.66 95.5343 218.068 90.6832 223.621Z" fill="black"/>
</g>
<path d="M98.5468 218.167C98.2297 218.513 97.8752 218.823 97.4897 219.091C96.8129 219.634 95.8595 220.355 94.7875 221.126C93.7155 221.897 92.7127 222.554 91.9717 223.008C91.5854 223.278 91.1673 223.498 90.7268 223.665C91.0774 223.353 91.4561 223.073 91.8581 222.83L94.6146 220.884L97.3662 218.908C97.7323 218.62 98.1281 218.371 98.5468 218.167Z" fill="#263238"/>
<path d="M83.2133 238.026L80.931 253.389H95.1582L93.3156 238.026H83.2133Z" fill="#455A64"/>
<path d="M93.8887 242.783C93.8887 242.867 91.3199 242.931 88.1534 242.931C84.9868 242.931 82.4131 242.867 82.4131 242.783C84.3228 242.637 86.2387 242.587 88.1534 242.635C90.0664 242.587 91.9807 242.637 93.8887 242.783Z" fill="#263238"/>
<path d="M94.1651 244.008C94.1651 244.092 91.5123 244.157 88.2371 244.157C84.9619 244.157 82.3091 244.092 82.3091 244.008C82.3091 243.924 84.9619 243.86 88.2371 243.86C91.5123 243.86 94.1651 243.924 94.1651 244.008Z" fill="#263238"/>
</svg>
