<svg width="375" height="214" viewBox="0 0 375 214" fill="none" xmlns="http://www.w3.org/2000/svg">
<path d="M62.7666 44.386C-13.7686 135.714 -12.3467 154.708 24.6576 159.541C17.6155 182.324 75.1926 154.156 109.16 186.052C148.596 223.082 325.801 229.131 311.717 168.24C300.393 119.278 359.67 125.773 373.437 78.3526C388.349 26.9884 292.662 -28.1038 252.068 17.4612C202.573 73.0179 112.059 -14.4343 62.7666 44.386Z" fill="#E8F2FD"/>
<path d="M158.826 176.959H116.202V209.835H158.826V176.959Z" fill="#C8E0FB"/>
<path d="M134.05 177.045H129.208V184.06H134.05V177.045Z" fill="#B3CBFC"/>
<path d="M134.05 202.722H129.208V209.736H134.05V202.722Z" fill="#B3CBFC"/>
<path d="M276.82 168.674H223.073V210.128H276.82V168.674Z" fill="#C8E0FB"/>
<path d="M245.572 168.781H239.466V177.625H245.572V168.781Z" fill="#B3CBFC"/>
<path d="M245.572 201.157H239.466V210.001H245.572V201.157Z" fill="#B3CBFC"/>
<g clip-path="url(#clip0_639_1990)">
<path d="M239.541 160.663L222.908 159.356C222.908 159.356 222.509 156.816 223.378 154.889C224.21 153.041 223.065 151.703 221.926 149.501C222.982 150.591 226.623 150.43 229.027 150.106C229.322 150.585 232.289 154.99 233.272 155.699C234.359 156.481 239.207 157.509 239.541 160.663Z" fill="#243862"/>
<path d="M220.005 159.356H203.372C203.372 159.356 202.973 156.816 203.842 154.889C204.675 153.041 206.125 151.056 204.985 148.854C206.042 149.944 209.381 149.825 211.786 149.501C212.08 149.979 210.673 153.107 213.737 155.698C214.759 156.563 219.67 156.202 220.005 159.356Z" fill="#243862"/>
<path d="M217.245 100.133C217.245 100.133 211.72 97.915 204.166 105.607C189.66 117.378 171.032 147.326 169.281 149.428C165.775 153.637 168.485 159.496 182.825 159.356C191.208 159.274 196.34 155.418 198.639 151.951C199.251 151.027 201.501 146.814 204.258 141.173C204.175 146.839 204.141 150.946 204.141 150.946C203.71 154.961 212.714 153.864 212.714 153.864C227.985 102.689 217.245 100.133 217.245 100.133Z" fill="#183660"/>
<path d="M209.819 81.4948C208.977 79.805 207.401 78.6248 206.215 77.9262C206.712 77.8195 207.364 78.0969 207.364 78.0969C206.727 77.5166 204.677 77.1589 204.677 77.1589C197.374 66.7478 186.112 80.2318 184.062 83.745C182.01 87.2565 179.437 91.1571 172.499 90.8835C158.846 90.3447 157.977 104.102 160.771 111.147C160.81 111.245 167.503 123.12 167.503 123.12C169.078 120.226 183.25 107.948 192.684 108.038C195.853 106.756 199.199 102.982 199.46 102.683C196.981 105.793 195.182 107.263 193.983 107.966C202.953 106.576 212.054 85.9727 209.819 81.4948Z" fill="#263238"/>
<path d="M193.248 108.035C193.274 108.07 192.015 112.735 188.233 110.689C185.751 109.346 181.767 103.615 183.302 101.674C184.032 100.75 187.247 98.9969 190.594 93.0586L190.996 93.4062L197.752 99.2607C197.752 99.2607 196.214 101.563 194.923 103.822C193.839 105.718 192.93 107.585 193.248 108.035Z" fill="#F4A36A"/>
<path d="M190.748 91.939C190.748 91.939 190.874 87.1265 192.294 83.8935C193.308 81.5849 199.472 74.6428 206.405 80.8935C206.405 80.8935 208.485 82.609 209.631 85.4315C210.543 87.6765 211.318 91.7227 204.168 96.5908L201.962 98.3762L190.748 91.939Z" fill="#263238"/>
<path d="M181.665 99.1302C181.665 99.1302 184.148 99.6043 185.197 98.1952C186.246 96.7864 188.531 93.8057 189.065 95.516C189.598 97.2266 194.638 102.199 195.804 102.33C196.969 102.461 197.786 102.788 197.127 103.393C196.468 103.998 196.742 106.421 196.083 106.641C195.423 106.861 183.185 98.9964 181.665 99.1302Z" fill="#FEB546"/>
<path d="M197.272 102.53C197.272 102.53 187.528 96.2183 191.545 90.1995C195.561 84.1808 197.009 79.3124 203.399 83.088C209.791 86.863 209.455 89.9613 208.601 92.297C207.748 94.6326 199.91 104.017 197.272 102.53Z" fill="#FAB17E"/>
<path d="M197.752 107.411C197.752 107.411 181.252 95.2299 175.477 99.8184C166.959 106.586 168.663 129.433 166.684 132.406C164.706 135.379 153.558 156.697 171.689 158.866C189.819 161.034 193.995 149.583 194.819 140.995C195.644 132.406 197.752 107.411 197.752 107.411Z" fill="#FEB546"/>
<path d="M176.041 107.259C176.041 107.259 171.29 133.574 180.705 140.763C190.121 147.952 194.861 106.445 176.041 107.259Z" fill="#C6920A"/>
<path d="M185.517 103.054C185.517 103.054 185.698 99.9792 188.406 101.154C191.114 102.33 196.123 104.094 198.064 103.37C200.004 102.647 194.943 112.368 190.32 109.113C185.698 105.857 185.517 103.054 185.517 103.054Z" fill="#C6920A"/>
<path d="M207.888 85.8876C207.888 85.8876 200.529 91.1719 195.782 89.4963C191.034 87.8205 190.005 85.5542 190.005 85.5542C190.005 85.5542 194.765 85.1675 198.296 81.2852C198.296 81.2852 208.144 81.1929 207.888 85.8876Z" fill="#263238"/>
<path d="M220.432 120.19C220.432 120.19 224.163 121.818 223.421 126.107C222.68 130.397 221.196 128.96 221.196 128.96L220.432 120.19Z" fill="#FAB17E"/>
<path d="M206.851 86.0214C206.851 86.0214 207.768 88.9198 207.223 90.7738C206.679 92.628 204.787 95.9259 205.775 96.4344C205.775 96.4344 210.971 92.9731 210.552 88.7598C210.107 84.2928 206.851 86.0214 206.851 86.0214Z" fill="#263238"/>
<path d="M164.651 149.428C166.854 146.783 195.929 95.8666 208.023 96.5518C226.226 97.5829 194.414 148.419 192.183 151.785C189.884 155.253 186.578 159.275 178.194 159.356C163.854 159.496 161.144 153.637 164.651 149.428Z" fill="#1C478A"/>
<path d="M213.136 100.133C213.136 100.133 213.859 100.808 230.325 151.526C230.325 151.526 223.455 156.513 221.925 152.776C221.925 152.776 199.737 119.412 204.963 113.538C210.19 107.663 213.136 100.133 213.136 100.133Z" fill="#1C478A"/>
<path d="M174.675 101.679C174.675 101.679 170.329 108.405 183.845 114.577C197.362 120.748 198.953 122.254 201.589 122.805C205.696 123.663 221.471 123.542 221.471 123.542C221.471 123.542 221.885 121.036 220.432 120.19C218.106 118.834 204.669 116.634 202.858 115.907C201.046 115.181 181.741 94.3912 174.675 101.679Z" fill="#EE9960"/>
<path d="M178.512 98.7954C178.512 98.7954 185.417 99.0745 199.819 112.368C199.819 112.368 202.023 115.049 203.119 115.228C204.215 115.407 207.185 116.189 207.25 116.946C207.316 117.704 203.593 127.199 198.854 127.47C194.115 127.741 171.91 111.396 173.468 105.903C175.025 100.409 178.512 98.7954 178.512 98.7954Z" fill="#FEB546"/>
<path d="M171.679 210.195H155.046C155.046 210.195 154.424 207.538 155.516 205.728C156.482 204.128 156.112 203.217 155.396 201.893C156.15 202.202 157.125 202.483 158.198 202.421C159.026 202.374 159.903 201.997 160.671 201.55C161.387 202.367 164.453 205.848 165.411 206.538C166.497 207.32 171.344 207.041 171.679 210.195Z" fill="#243862"/>
<path d="M211.658 161.034H150.771V210.195H211.658V161.034Z" fill="#C66228"/>
<path d="M242.101 161.035H187.013V210.195H242.101V161.035Z" fill="#F0A350"/>
<path d="M197.196 171.468C197.754 171.468 198.206 171.03 198.206 170.49C198.206 169.95 197.754 169.511 197.196 169.511C196.638 169.511 196.186 169.95 196.186 170.49C196.186 171.03 196.638 171.468 197.196 171.468Z" fill="#D46928"/>
<path d="M234.247 171.468C234.805 171.468 235.257 171.03 235.257 170.49C235.257 169.95 234.805 169.511 234.247 169.511C233.689 169.511 233.237 169.95 233.237 170.49C233.237 171.03 233.689 171.468 234.247 171.468Z" fill="#D46928"/>
<path d="M197.196 202.437C197.754 202.437 198.206 201.999 198.206 201.458C198.206 200.918 197.754 200.48 197.196 200.48C196.638 200.48 196.186 200.918 196.186 201.458C196.186 201.999 196.638 202.437 197.196 202.437Z" fill="#D46928"/>
<path d="M234.247 202.436C234.805 202.436 235.257 201.998 235.257 201.458C235.257 200.918 234.805 200.48 234.247 200.48C233.689 200.48 233.237 200.918 233.237 201.458C233.237 201.998 233.689 202.436 234.247 202.436Z" fill="#D46928"/>
<path d="M157.13 171.468C157.475 171.468 157.755 171.03 157.755 170.49C157.755 169.95 157.475 169.511 157.13 169.511C156.785 169.511 156.505 169.95 156.505 170.49C156.505 171.03 156.785 171.468 157.13 171.468Z" fill="#B25827"/>
<path d="M180.079 171.468C180.424 171.468 180.704 171.03 180.704 170.49C180.704 169.95 180.424 169.511 180.079 169.511C179.733 169.511 179.453 169.95 179.453 170.49C179.453 171.03 179.733 171.468 180.079 171.468Z" fill="#B25827"/>
<path d="M157.13 202.436C157.475 202.436 157.755 201.998 157.755 201.458C157.755 200.918 157.475 200.48 157.13 200.48C156.785 200.48 156.505 200.918 156.505 201.458C156.505 201.998 156.785 202.436 157.13 202.436Z" fill="#B25827"/>
<path d="M180.079 202.436C180.424 202.436 180.704 201.998 180.704 201.458C180.704 200.918 180.424 200.48 180.079 200.48C179.733 200.48 179.453 200.918 179.453 201.458C179.453 201.998 179.733 202.436 180.079 202.436Z" fill="#B25827"/>
<path d="M150.771 161.114C150.771 161.114 159.046 153.457 164.503 155.792C171.688 158.866 188.677 158.009 192.963 157.217C197.25 156.424 230.732 158.792 242.101 161.035L150.771 161.114Z" fill="#D46928"/>
<path opacity="0.4" d="M242.101 197.299V210.195H187.013V161.035H196.255L196.436 161.114C196.436 161.114 201.381 194.46 242.101 197.299Z" fill="#D76927"/>
</g>
<path opacity="0.5" d="M242.127 55.1762C243.243 49.8184 247.587 45.8213 252.781 45.8213C253.735 45.8213 254.659 45.9566 255.541 46.2097C258.104 40.1606 263.668 35.9692 270.119 35.9692C271.786 35.9692 273.395 36.2493 274.907 36.7692C278.38 30.4234 284.69 26.1803 291.898 26.1803C300.473 26.1803 307.777 32.1865 310.545 40.5944C312.504 39.3892 314.759 38.6999 317.162 38.6999C324.678 38.6999 330.772 45.4241 330.772 53.7187C330.772 54.2106 330.749 54.6964 330.707 55.176L242.127 55.1762Z" fill="white"/>
<path opacity="0.5" d="M70.6371 85.8291C71.2938 82.6144 73.852 80.2161 76.91 80.2161C77.4713 80.2161 78.0158 80.2973 78.535 80.4492C80.0442 76.8197 83.3198 74.3049 87.118 74.3049C88.0999 74.3049 89.047 74.4729 89.9375 74.7849C91.9824 70.9774 95.6973 68.4315 99.9412 68.4315C104.99 68.4315 109.291 72.0352 110.92 77.08C112.074 76.3569 113.402 75.9433 114.816 75.9433C119.242 75.9433 122.83 79.9778 122.83 84.9546C122.83 85.2497 122.816 85.5412 122.792 85.829L70.6371 85.8291Z" fill="white"/>
<path d="M112.363 199.71C112.382 199.65 112.406 199.592 112.436 199.538C112.494 199.415 112.571 199.251 112.666 199.042C112.95 198.403 113.179 197.74 113.349 197.062C113.799 195.302 113.959 192.613 113.292 189.421C112.929 187.68 112.455 185.964 111.872 184.285C111.274 182.463 110.574 180.532 110.005 178.441C109.363 176.259 109.053 173.994 109.085 171.721C109.171 169.343 109.874 166.973 110.648 164.608C111.421 162.242 112.219 159.938 112.457 157.605C112.721 155.368 112.271 153.105 111.172 151.139C110.149 149.252 108.859 147.636 107.898 145.966C106.997 144.414 106.334 142.737 105.929 140.989C105.349 138.459 105.305 135.835 105.802 133.287C105.983 132.355 106.258 131.443 106.621 130.566C106.61 130.627 106.593 130.687 106.572 130.746L106.408 131.265C106.269 131.724 106.085 132.411 105.909 133.312C105.451 135.848 105.52 138.452 106.109 140.961C106.52 142.687 107.186 144.342 108.086 145.872C109.048 147.509 110.341 149.146 111.389 151.041C112.515 153.047 112.977 155.357 112.711 157.642C112.469 160.008 111.667 162.336 110.893 164.698C110.12 167.059 109.424 169.404 109.338 171.741C109.302 173.992 109.605 176.235 110.239 178.395C110.799 180.475 111.487 182.406 112.08 184.236C112.658 185.924 113.123 187.65 113.472 189.4C114.123 192.617 113.938 195.335 113.472 197.099C113.289 197.779 113.044 198.44 112.739 199.075L112.486 199.562C112.45 199.616 112.409 199.665 112.363 199.71V199.71Z" fill="#263238"/>
<path d="M109.208 147.615C109.208 147.615 107.252 141.35 110.763 137.683C110.79 137.653 110.825 137.632 110.864 137.621C110.903 137.61 110.944 137.61 110.982 137.621C111.021 137.632 111.056 137.654 111.083 137.684C111.11 137.713 111.128 137.75 111.136 137.789C111.324 138.825 111.557 141.976 109.208 147.615Z" fill="#ABC6FC"/>
<path d="M110.381 139.77C110.375 140.158 110.331 140.545 110.25 140.924C110.119 141.722 109.968 142.655 109.804 143.687C109.64 144.718 109.489 145.655 109.362 146.449C109.326 146.836 109.258 147.219 109.158 147.595C109.119 147.208 109.127 146.818 109.182 146.433C109.248 145.717 109.374 144.734 109.55 143.654C109.726 142.573 109.919 141.608 110.07 140.9C110.13 140.512 110.234 140.133 110.381 139.77Z" fill="#263238"/>
<path d="M111.507 162.393C111.507 162.393 112.706 155.94 117.527 154.343C117.565 154.33 117.606 154.328 117.645 154.336C117.684 154.345 117.72 154.365 117.749 154.393C117.778 154.421 117.799 154.456 117.808 154.495C117.818 154.534 117.817 154.575 117.805 154.614C117.486 155.608 116.221 158.501 111.507 162.393Z" fill="#ABC6FC"/>
<path d="M116.213 156.001C116.026 156.342 115.807 156.664 115.559 156.963L113.868 159.193L112.19 161.432C111.979 161.757 111.74 162.062 111.474 162.345C111.624 161.985 111.816 161.644 112.047 161.33C112.456 160.728 113.013 159.918 113.684 159.046C114.355 158.174 114.965 157.409 115.428 156.852C115.657 156.541 115.921 156.255 116.213 156.001V156.001Z" fill="#263238"/>
<path d="M110.206 178.572C110.206 178.572 109.478 172.048 113.628 169.122C113.66 169.097 113.698 169.081 113.738 169.078C113.779 169.074 113.82 169.082 113.856 169.1C113.892 169.119 113.922 169.147 113.942 169.182C113.963 169.217 113.973 169.257 113.971 169.298C113.959 170.35 113.587 173.485 110.206 178.572Z" fill="#ABC6FC"/>
<path d="M112.866 171.094C112.79 171.476 112.673 171.847 112.518 172.204L111.552 174.831C111.192 175.813 110.869 176.701 110.595 177.458C110.49 177.831 110.353 178.194 110.186 178.543C110.223 178.155 110.309 177.773 110.439 177.405C110.64 176.718 110.951 175.768 111.331 174.745C111.712 173.722 112.084 172.801 112.367 172.142C112.497 171.777 112.665 171.426 112.866 171.094V171.094Z" fill="#263238"/>
<path d="M113.836 194.852C113.836 194.852 113.345 188.303 117.593 185.529C117.626 185.506 117.665 185.493 117.705 185.491C117.745 185.489 117.786 185.498 117.821 185.518C117.856 185.537 117.885 185.566 117.905 185.601C117.925 185.637 117.934 185.677 117.932 185.717C117.883 186.769 117.4 189.891 113.836 194.852Z" fill="#ABC6FC"/>
<path d="M116.75 187.477C116.658 187.855 116.528 188.222 116.361 188.574C116.058 189.318 115.698 190.211 115.301 191.164C114.904 192.118 114.556 193.006 114.253 193.755C114.132 194.124 113.977 194.482 113.791 194.823C113.845 194.436 113.945 194.057 114.09 193.693C114.315 193.014 114.659 192.081 115.076 191.07C115.493 190.059 115.894 189.151 116.201 188.504C116.347 188.143 116.531 187.799 116.75 187.477V187.477Z" fill="#263238"/>
<path d="M106.392 142.111C106.392 142.111 100.588 139.066 100.461 133.995C100.461 133.955 100.472 133.916 100.492 133.882C100.512 133.847 100.541 133.819 100.575 133.8C100.61 133.781 100.649 133.771 100.689 133.772C100.729 133.774 100.768 133.785 100.801 133.807C101.665 134.404 104.063 136.467 106.392 142.111Z" fill="#ABC6FC"/>
<path d="M101.669 135.739C101.941 136.017 102.184 136.323 102.393 136.651C102.868 137.302 103.42 138.072 104.03 138.919L105.667 141.178C105.917 141.475 106.139 141.794 106.33 142.131C106.031 141.882 105.763 141.598 105.532 141.284C105.07 140.736 104.464 139.95 103.826 139.062C103.187 138.174 102.626 137.351 102.242 136.75C102.016 136.433 101.824 136.095 101.669 135.739V135.739Z" fill="#263238"/>
<path d="M112.642 155.563C112.642 155.563 106.65 152.883 106.228 147.82C106.225 147.78 106.233 147.74 106.251 147.705C106.268 147.669 106.296 147.639 106.33 147.618C106.363 147.597 106.402 147.585 106.442 147.585C106.482 147.584 106.522 147.595 106.556 147.615C107.452 148.16 109.969 150.067 112.642 155.563Z" fill="#ABC6FC"/>
<path d="M107.547 149.49C107.835 149.75 108.096 150.039 108.324 150.353L110.101 152.518L111.881 154.675C112.147 154.957 112.389 155.263 112.601 155.588C112.287 155.356 112.001 155.088 111.75 154.79C111.259 154.266 110.604 153.521 109.912 152.674C109.221 151.827 108.615 151.037 108.189 150.46C107.94 150.161 107.724 149.836 107.547 149.49V149.49Z" fill="#263238"/>
<path d="M109.183 170.579C109.183 170.579 105.091 165.463 107.002 160.757C107.017 160.72 107.042 160.688 107.074 160.664C107.107 160.641 107.145 160.626 107.184 160.623C107.224 160.619 107.264 160.627 107.3 160.645C107.336 160.663 107.366 160.69 107.387 160.724C107.956 161.612 109.318 164.461 109.183 170.579Z" fill="#ABC6FC"/>
<path d="M107.415 162.836C107.555 163.199 107.656 163.576 107.718 163.961C107.89 164.747 108.09 165.672 108.311 166.695C108.532 167.718 108.741 168.639 108.913 169.425C109.022 169.798 109.098 170.18 109.138 170.567C108.958 170.219 108.821 169.85 108.729 169.47C108.528 168.778 108.283 167.833 108.053 166.744C107.824 165.655 107.644 164.698 107.529 163.994C107.449 163.613 107.411 163.225 107.415 162.836V162.836Z" fill="#263238"/>
<path d="M113.275 188.222C113.275 188.222 107.328 185.443 106.992 180.376C106.989 180.336 106.996 180.295 107.014 180.259C107.032 180.223 107.06 180.192 107.094 180.171C107.129 180.149 107.169 180.138 107.209 180.138C107.25 180.139 107.29 180.15 107.324 180.172C108.204 180.732 110.688 182.685 113.275 188.222Z" fill="#ABC6FC"/>
<path d="M108.27 182.062C108.551 182.331 108.806 182.625 109.031 182.942L110.77 185.132L112.514 187.321C112.776 187.608 113.012 187.917 113.218 188.246C112.913 188.007 112.638 187.732 112.399 187.428C111.912 186.896 111.274 186.138 110.594 185.279C109.915 184.42 109.326 183.622 108.908 183.036C108.658 182.738 108.444 182.411 108.27 182.062V182.062Z" fill="#263238"/>
<path d="M125.107 162.422C125.107 162.422 125.107 162.471 125.107 162.565C125.107 162.659 125.107 162.815 125.107 162.975C125.107 163.384 125.066 163.904 125.037 164.567C124.964 165.966 124.853 167.918 124.726 170.251C124.317 172.625 123.089 175.256 121.452 177.814C120.261 179.697 118.997 181.408 117.933 183C116.962 184.397 116.089 185.86 115.322 187.379C114.814 188.405 114.403 189.476 114.094 190.579C113.992 190.968 113.91 191.275 113.865 191.483C113.845 191.592 113.817 191.699 113.779 191.803C113.78 191.692 113.794 191.583 113.82 191.475C113.848 191.262 113.91 190.951 114.004 190.554C114.279 189.433 114.67 188.342 115.17 187.301C115.931 185.77 116.802 184.297 117.777 182.893C118.85 181.289 120.09 179.574 121.276 177.704C122.893 175.158 124.096 172.568 124.55 170.231C124.714 167.902 124.849 165.954 124.96 164.554C125.013 163.891 125.058 163.363 125.091 162.966C125.091 162.803 125.119 162.664 125.132 162.557C125.118 162.513 125.109 162.468 125.107 162.422V162.422Z" fill="#263238"/>
<path d="M121.567 177.344C121.567 177.344 124.084 171.287 120.921 167.313C120.896 167.281 120.863 167.257 120.826 167.242C120.788 167.228 120.747 167.225 120.708 167.232C120.668 167.24 120.632 167.258 120.602 167.286C120.572 167.313 120.551 167.348 120.54 167.386C120.258 168.401 119.738 171.516 121.567 177.344Z" fill="#ABC6FC"/>
<path d="M121.108 169.429C121.216 169.802 121.283 170.186 121.308 170.575C121.398 171.287 121.496 172.273 121.574 173.366C121.652 174.458 121.689 175.449 121.689 176.169C121.713 176.558 121.69 176.948 121.619 177.331C121.549 176.949 121.514 176.562 121.517 176.173C121.464 175.355 121.398 174.426 121.329 173.382C121.259 172.339 121.194 171.393 121.136 170.591C121.089 170.205 121.079 169.816 121.108 169.429V169.429Z" fill="#263238"/>
<g opacity="0.3">
<path opacity="0.3" d="M121.567 177.344C121.567 177.344 124.084 171.287 120.921 167.313C120.896 167.281 120.863 167.257 120.826 167.242C120.788 167.228 120.747 167.225 120.708 167.232C120.668 167.24 120.632 167.258 120.602 167.286C120.572 167.313 120.551 167.348 120.54 167.386C120.258 168.401 119.738 171.516 121.567 177.344Z" fill="black"/>
</g>
<path d="M113.771 191.95C113.771 191.95 115.789 185.705 112.31 182.005C112.283 181.976 112.248 181.954 112.21 181.943C112.172 181.932 112.131 181.932 112.092 181.943C112.054 181.953 112.019 181.974 111.992 182.003C111.964 182.032 111.946 182.069 111.938 182.108C111.741 183.139 111.475 186.29 113.771 191.95Z" fill="#ABC6FC"/>
<path d="M112.67 184.084C112.811 184.448 112.91 184.827 112.964 185.214C113.112 185.914 113.288 186.892 113.455 187.972C113.623 189.053 113.738 190.039 113.799 190.755C113.852 191.142 113.859 191.533 113.82 191.921C113.722 191.546 113.657 191.162 113.623 190.776C113.505 189.978 113.365 189.044 113.214 188.009C113.063 186.974 112.915 186.04 112.805 185.242C112.722 184.862 112.677 184.474 112.67 184.084Z" fill="#263238"/>
<g opacity="0.3">
<path opacity="0.3" d="M113.771 191.95C113.771 191.95 115.789 185.705 112.31 182.005C112.283 181.976 112.248 181.954 112.21 181.943C112.172 181.932 112.131 181.932 112.092 181.943C112.054 181.953 112.019 181.974 111.992 182.003C111.964 182.032 111.946 182.069 111.938 182.108C111.741 183.139 111.475 186.29 113.771 191.95Z" fill="black"/>
</g>
<path d="M124.775 169.94C124.775 169.94 130.149 166.175 129.608 161.125C129.604 161.085 129.589 161.047 129.565 161.016C129.541 160.984 129.508 160.96 129.471 160.945C129.434 160.931 129.393 160.927 129.354 160.934C129.315 160.941 129.278 160.959 129.248 160.986C128.467 161.69 126.371 164.031 124.775 169.94Z" fill="#ABC6FC"/>
<g opacity="0.3">
<path opacity="0.3" d="M124.775 169.94C124.775 169.94 130.149 166.175 129.608 161.125C129.604 161.085 129.589 161.047 129.565 161.016C129.541 160.984 129.508 160.96 129.471 160.945C129.434 160.931 129.393 160.927 129.354 160.934C129.315 160.941 129.278 160.959 129.248 160.986C128.467 161.69 126.371 164.031 124.775 169.94Z" fill="black"/>
</g>
<path d="M128.635 163.012C128.528 163.387 128.379 163.748 128.189 164.088C127.882 164.735 127.436 165.619 126.916 166.585C126.396 167.55 125.897 168.406 125.512 169.011C125.323 169.351 125.094 169.667 124.829 169.953C124.973 169.593 125.151 169.247 125.361 168.921C125.746 168.213 126.2 167.387 126.699 166.466L128.033 164.01C128.201 163.659 128.402 163.324 128.635 163.012Z" fill="#263238"/>
<path d="M115.94 185.758C115.94 185.758 122.422 184.747 124.158 179.975C124.172 179.938 124.175 179.898 124.168 179.859C124.161 179.82 124.143 179.783 124.116 179.754C124.089 179.724 124.055 179.702 124.017 179.691C123.979 179.68 123.938 179.679 123.9 179.689C122.889 179.992 119.959 181.158 115.94 185.758Z" fill="#ABC6FC"/>
<g opacity="0.3">
<path opacity="0.3" d="M115.94 185.758C115.94 185.758 122.422 184.747 124.158 179.975C124.172 179.938 124.175 179.898 124.168 179.859C124.161 179.82 124.143 179.783 124.116 179.754C124.089 179.724 124.055 179.702 124.017 179.691C123.979 179.68 123.938 179.679 123.9 179.689C122.889 179.992 119.959 181.158 115.94 185.758Z" fill="black"/>
</g>
<path d="M122.454 181.24C122.192 181.526 121.898 181.783 121.578 182.005C121.018 182.455 120.228 183.053 119.34 183.691C118.452 184.33 117.621 184.874 117.007 185.25C116.687 185.474 116.341 185.657 115.976 185.795C116.266 185.536 116.58 185.304 116.913 185.103L119.197 183.491L121.476 181.854C121.779 181.615 122.107 181.409 122.454 181.24V181.24Z" fill="#263238"/>
<path d="M109.751 197.692L107.86 210.42H119.647L118.12 197.692H109.751Z" fill="#455A64"/>
<path d="M118.595 201.633C118.595 201.703 116.467 201.756 113.844 201.756C111.22 201.756 109.088 201.703 109.088 201.633C110.67 201.512 112.257 201.471 113.844 201.51C115.429 201.471 117.014 201.512 118.595 201.633V201.633Z" fill="#263238"/>
<path d="M118.824 202.648C118.824 202.718 116.626 202.771 113.913 202.771C111.2 202.771 109.002 202.718 109.002 202.648C109.002 202.579 111.2 202.525 113.913 202.525C116.626 202.525 118.824 202.579 118.824 202.648Z" fill="#263238"/>
<defs>
<clipPath id="clip0_639_1990">
<rect width="130.896" height="181.432" fill="white" transform="translate(111.231 31.1511)"/>
</clipPath>
</defs>
</svg>
