<svg width="375" height="276" viewBox="0 0 375 276" fill="none" xmlns="http://www.w3.org/2000/svg">
<path d="M26.5002 52.9753C-65.8829 163.215 -64.1665 186.142 -19.4998 191.975C-28.0001 219.475 41.4993 185.475 82.5 223.975C130.102 268.674 344 275.975 327 202.475C313.331 143.375 384.882 151.215 401.5 93.9753C419.5 31.9753 304 -34.5247 255 20.4753C195.256 87.536 85.9998 -18.0247 26.5002 52.9753Z" fill="#E8F2FD"/>
<path d="M186.954 216.103H135.504V255.786H186.954V216.103Z" fill="#C8E0FB"/>
<path d="M174.065 255.509C173.996 255.509 173.937 246.661 173.937 235.749C173.937 224.837 173.996 215.989 174.065 215.989C174.134 215.989 174.194 224.837 174.194 235.749C174.194 246.661 174.134 255.509 174.065 255.509Z" fill="#B3CBFC"/>
<path d="M182.592 246.755H178.65V251.216H182.592V246.755Z" fill="#E8F2FD"/>
<path d="M157.047 216.206H151.203V224.673H157.047V216.206Z" fill="#B3CBFC"/>
<path d="M157.047 247.2H151.203V255.667H157.047V247.2Z" fill="#B3CBFC"/>
<path d="M280.316 206.153H215.439V256.191H280.316V206.153Z" fill="#C8E0FB"/>
<path d="M264.057 255.835C263.988 255.835 263.929 244.685 263.929 230.928C263.929 217.17 263.988 206.02 264.057 206.02C264.126 206.02 264.186 217.17 264.186 230.928C264.186 244.685 264.131 255.835 264.057 255.835Z" fill="#B3CBFC"/>
<path d="M274.812 244.799H269.838V250.421H274.812V244.799Z" fill="#E8F2FD"/>
<path d="M242.597 206.282H235.227V216.957H242.597V206.282Z" fill="#B3CBFC"/>
<path d="M242.597 245.362H235.227V256.037H242.597V245.362Z" fill="#B3CBFC"/>
<path d="M126.709 74.6208C129.039 77.4718 130.3 81.0465 130.276 84.7281C130.251 86.8128 129.866 89.1099 131.081 90.8043C132 92.0887 133.679 92.7358 134.425 94.1289C135.324 95.8036 134.559 97.9228 135.112 99.7408C135.893 102.319 138.916 103.401 140.709 105.412C141.473 106.301 142.008 107.364 142.267 108.508C142.525 109.651 142.499 110.841 142.191 111.972C141.864 113.099 141.274 114.131 140.468 114.984C139.662 115.836 138.664 116.484 137.557 116.873C136.376 117.338 135.058 117.317 133.892 116.813C132.682 116.211 131.916 114.971 131.323 113.76C130.133 111.379 119.675 98.5107 119.082 95.9123" fill="#263238"/>
<path d="M119.102 71.5877C114.824 70.8961 110.704 73.7366 108.91 77.6788C107.117 81.6209 107.058 86.0767 106.934 90.4239C106.811 94.7711 106.495 99.2764 104.287 103.001C102.884 105.367 100.71 107.447 100.369 110.169C100.063 112.609 101.328 115.07 100.908 117.495C100.542 119.609 98.9317 121.447 98.9959 123.586C99.0749 126.165 101.728 128.106 104.301 128.175C106.875 128.245 109.286 126.896 111.306 125.295C114.598 122.682 117.232 119.334 118.998 115.519" fill="#263238"/>
<path d="M112.062 81.7838C111.928 80.7077 112.011 79.6155 112.307 78.5722C112.602 77.5288 113.105 76.5555 113.784 75.71C114.463 74.8645 115.305 74.1641 116.26 73.6503C117.215 73.1365 118.264 72.8197 119.344 72.7189C123.656 72.304 127.495 75.5199 128.142 79.8078C128.71 83.5672 129.194 87.3611 129.179 88.7393C129.125 92.8939 126.709 94.5093 125.721 94.9983C125.366 95.1259 124.998 95.2169 124.624 95.27V95.2997L125.543 100.072C125.963 103.199 124.219 106 121.097 106.439C117.975 106.879 115.52 104.493 115.041 101.366L112.062 81.7838Z" fill="#FFBE9D"/>
<path d="M127.292 81.6257C127.223 81.7245 126.675 81.4331 125.973 81.5368C125.272 81.6406 124.803 82.0654 124.714 81.9913C124.625 81.9172 124.714 81.7937 124.931 81.5961C125.201 81.333 125.546 81.1603 125.919 81.1021C126.285 81.0457 126.659 81.1081 126.986 81.28C127.233 81.438 127.327 81.5862 127.292 81.6257Z" fill="#263238"/>
<path d="M121.039 83.1474C120.97 83.2462 120.421 82.9498 119.715 83.0535C119.009 83.1572 118.549 83.587 118.46 83.5129C118.371 83.4388 118.46 83.3104 118.678 83.1177C118.948 82.8546 119.293 82.6819 119.666 82.6237C120.032 82.5716 120.405 82.6355 120.733 82.8065C120.975 82.9597 121.073 83.1029 121.039 83.1474Z" fill="#263238"/>
<path d="M123.602 86.9165C123.955 86.7466 124.328 86.6221 124.713 86.5461C124.891 86.5016 125.054 86.4423 125.069 86.3139C125.053 86.1334 124.984 85.9616 124.871 85.8199L124.135 84.5058C123.113 82.6682 122.347 81.1466 122.421 81.1022C122.495 81.0577 123.409 82.5249 124.397 84.3626C124.649 84.8171 124.891 85.2518 125.108 85.6618C125.252 85.8627 125.322 86.107 125.306 86.3534C125.29 86.4208 125.258 86.4835 125.213 86.5367C125.169 86.5898 125.113 86.6319 125.049 86.6597C124.953 86.7018 124.851 86.7317 124.748 86.7486C124.375 86.8543 123.989 86.9108 123.602 86.9165Z" fill="#263238"/>
<path d="M124.585 95.275C124.585 95.275 121.903 95.8925 118.207 94.3463C118.207 94.3463 119.803 97.7796 124.837 96.5594L124.585 95.275Z" fill="#EB996E"/>
<path d="M120.679 81.3047C120.639 81.5072 119.923 81.5171 119.113 81.7394C118.302 81.9617 117.665 82.2779 117.532 82.1247C117.473 82.0506 117.561 81.853 117.803 81.6307C118.129 81.3519 118.515 81.151 118.93 81.0432C119.345 80.9353 119.779 80.9234 120.199 81.0083C120.525 81.0824 120.679 81.2108 120.679 81.3047Z" fill="#263238"/>
<path d="M126.716 80.0697C126.617 80.2475 126.108 80.1537 125.525 80.2278C124.942 80.3019 124.463 80.4945 124.325 80.3414C124.265 80.2673 124.325 80.0993 124.512 79.9166C124.771 79.6869 125.096 79.5451 125.441 79.5115C125.781 79.4705 126.126 79.5343 126.429 79.6943C126.666 79.8276 126.76 79.9808 126.716 80.0697Z" fill="#263238"/>
<path d="M119.513 84.0563C119.523 84.1328 119.549 84.2063 119.589 84.2726C119.628 84.339 119.681 84.3968 119.743 84.4428C119.805 84.4887 119.875 84.5219 119.95 84.5404C120.025 84.5588 120.103 84.5622 120.179 84.5503C120.254 84.5418 120.325 84.5186 120.391 84.482C120.456 84.4455 120.513 84.3964 120.559 84.3376C120.605 84.2787 120.639 84.2113 120.658 84.1393C120.678 84.0673 120.683 83.992 120.673 83.918C120.65 83.7642 120.567 83.6258 120.442 83.5332C120.317 83.4406 120.16 83.4013 120.007 83.424C119.932 83.4319 119.86 83.4547 119.795 83.491C119.729 83.5273 119.672 83.5764 119.626 83.6354C119.579 83.6944 119.546 83.7621 119.526 83.8344C119.507 83.9067 119.502 83.9822 119.513 84.0563Z" fill="#263238"/>
<path d="M125.741 82.7077C125.764 82.8615 125.848 82.9999 125.973 83.0925C126.098 83.185 126.254 83.2243 126.408 83.2017C126.482 83.1931 126.554 83.1699 126.619 83.1334C126.684 83.0969 126.742 83.0478 126.787 82.9889C126.833 82.9301 126.867 82.8627 126.887 82.7907C126.907 82.7186 126.912 82.6434 126.902 82.5694C126.879 82.4155 126.796 82.2772 126.671 82.1846C126.546 82.092 126.389 82.0527 126.235 82.0754C126.161 82.0833 126.089 82.106 126.023 82.1424C125.958 82.1787 125.9 82.2278 125.854 82.2868C125.808 82.3458 125.774 82.4135 125.755 82.4858C125.736 82.5581 125.731 82.6335 125.741 82.7077Z" fill="#263238"/>
<path d="M124.71 88.28C124.516 88.2196 124.307 88.2291 124.119 88.3067C123.931 88.3843 123.777 88.5252 123.682 88.7048C123.592 88.8698 123.555 89.0589 123.577 89.2458C123.599 89.4326 123.679 89.6079 123.806 89.7472C123.94 89.8794 124.118 89.9595 124.306 89.9731C124.494 89.9866 124.681 89.9328 124.833 89.8213C125.024 89.6478 125.139 89.4067 125.154 89.1494C125.188 88.9136 125.131 88.6737 124.996 88.4776C124.927 88.3817 124.828 88.3113 124.714 88.2774C124.601 88.2435 124.479 88.2478 124.369 88.2899" fill="#EB996E"/>
<path d="M127.594 76.424C127.206 74.8588 126.238 73.4993 124.887 72.6202C123.78 71.8209 122.466 71.3594 121.103 71.2913C119.731 71.2322 118.392 71.7189 117.378 72.6449C116.658 73.3579 116.247 74.3244 116.232 75.3372L116.311 74.6456C116.103 75.2083 116.103 75.8266 116.311 76.3894C116.424 76.6907 116.563 76.997 116.681 77.2983C117.035 78.1692 117.691 78.8831 118.529 79.3089C118.908 79.5125 119.333 79.6162 119.764 79.6103C119.979 79.6059 120.191 79.5546 120.385 79.4599C120.579 79.3652 120.749 79.2294 120.885 79.0619C121.192 78.5264 121.287 77.8955 121.152 77.2934C121.476 77.8884 121.939 78.3967 122.501 78.7754C122.787 78.9588 123.129 79.0377 123.467 78.999C123.805 78.9604 124.12 78.8064 124.358 78.563C124.763 78.069 124.605 77.2885 124.358 76.6759C124.74 77.2537 125.276 77.7138 125.904 78.0048C126.07 78.0997 126.253 78.1592 126.443 78.1796C126.632 78.2 126.824 78.1809 127.006 78.1233C127.151 78.0512 127.278 77.9471 127.378 77.8187C127.477 77.6904 127.546 77.5412 127.579 77.3823C127.652 77.0676 127.657 76.7408 127.594 76.424Z" fill="#263238"/>
<path d="M124.021 77.738C123.977 77.738 123.987 77.1501 123.794 76.256C123.572 75.0678 122.974 73.9822 122.09 73.1586C121.603 72.7164 121.017 72.3993 120.38 72.2348C119.859 72.1069 119.317 72.0934 118.79 72.1953C118.304 72.3088 117.84 72.5007 117.416 72.7634C117.416 72.7634 117.5 72.6399 117.718 72.4818C118.03 72.2636 118.38 72.1061 118.75 72.0174C119.304 71.8877 119.881 71.8877 120.435 72.0174C121.117 72.1879 121.746 72.5277 122.263 73.0054C123.189 73.863 123.794 75.0119 123.977 76.2609C124.035 76.6301 124.065 77.0034 124.066 77.3773C124.072 77.4992 124.057 77.6212 124.021 77.738Z" fill="#455A64"/>
<path d="M169.519 135.333L150.524 127.8C150.524 127.8 140.797 115.04 141 114.793L134.168 122.272L144.097 135.704L167.113 141.098L171.065 140.002C170.195 135.808 169.519 135.333 169.519 135.333Z" fill="#FFBE9D"/>
<path d="M128.122 98.9306L125.533 97.9426L114.359 99.3604V101.336L114.038 101.376C111.629 101.888 109.319 102.786 107.196 104.034C105.207 105.248 103.627 107.028 102.659 109.147C101.691 111.266 101.378 113.626 101.762 115.924C102.216 118.75 103.096 122.183 104.795 124.169C108.041 127.968 111.005 123.275 111.005 123.275C111.005 123.275 113.04 127.919 112.921 130.117C112.823 131.959 112.012 135.793 111.751 136.988C111.74 137.036 111.739 137.086 111.748 137.134C111.757 137.182 111.776 137.228 111.803 137.268C111.83 137.309 111.865 137.344 111.907 137.37C111.948 137.397 111.994 137.415 112.042 137.423L135.616 141.785L135.729 136.02L134.978 112.308L133.916 103.1C133.916 103.1 133.951 98.7034 128.122 98.9306Z" fill="#FEB546"/>
<path d="M133.557 101.569L142.547 114.556L135.31 123.369L133.557 101.569Z" fill="#FEB546"/>
<path d="M135.498 128.897C135.465 128.618 135.454 128.337 135.463 128.057C135.463 127.474 135.463 126.708 135.433 125.775C135.39 123.269 135.21 120.767 134.895 118.281C134.524 115.366 133.956 112.763 133.527 110.871L133.003 108.648C132.927 108.379 132.871 108.105 132.835 107.828C132.947 108.084 133.037 108.35 133.102 108.623C133.255 109.117 133.462 109.892 133.699 110.831C134.337 113.268 134.822 115.743 135.152 118.241C135.469 120.738 135.624 123.253 135.616 125.77C135.616 126.758 135.591 127.518 135.562 128.057C135.564 128.338 135.543 128.619 135.498 128.897Z" fill="#263238"/>
<path d="M113.367 109.151C113.367 109.191 112.685 109.186 111.593 109.24C110.169 109.318 108.752 109.501 107.355 109.789C105.958 110.082 104.584 110.476 103.245 110.969C102.217 111.35 101.6 111.631 101.58 111.592C101.707 111.493 101.846 111.411 101.995 111.35C102.267 111.202 102.672 111.014 103.181 110.801C105.846 109.701 108.695 109.111 111.579 109.062C112.132 109.062 112.567 109.062 112.888 109.092C113.049 109.087 113.211 109.107 113.367 109.151Z" fill="#FAFAFA"/>
<path d="M134.188 115.094C133.827 115.226 133.45 115.309 133.067 115.341C131.24 115.608 129.389 115.671 127.549 115.529C127.164 115.522 126.782 115.466 126.413 115.361C126.794 115.327 127.177 115.327 127.559 115.361C128.26 115.361 129.233 115.361 130.305 115.361C131.377 115.361 132.346 115.252 133.047 115.188C133.424 115.122 133.806 115.091 134.188 115.094Z" fill="#FAFAFA"/>
<path d="M138.313 109.221C137.769 109.85 137.116 110.377 136.387 110.777C135.698 111.242 134.929 111.577 134.119 111.765C134.09 111.696 135.107 111.271 136.253 110.54C137.4 109.808 138.264 109.161 138.313 109.221Z" fill="#FAFAFA"/>
<path d="M134.682 103.199C133.123 104.601 131.138 105.436 129.045 105.57C129.045 105.491 130.404 105.283 131.965 104.617C133.526 103.95 134.633 103.135 134.682 103.199Z" fill="#FAFAFA"/>
<path d="M135.172 125.152C135.027 125.25 134.871 125.331 134.708 125.394C134.396 125.542 133.947 125.725 133.374 125.938C131.885 126.473 130.348 126.863 128.784 127.103C127.221 127.345 125.638 127.432 124.057 127.365C123.449 127.341 122.96 127.296 122.624 127.252C122.448 127.24 122.274 127.208 122.106 127.158C122.106 127.113 122.856 127.158 124.082 127.187C127.222 127.217 130.347 126.736 133.334 125.765C134.461 125.394 135.157 125.113 135.172 125.152Z" fill="#FAFAFA"/>
<path d="M135.354 131.846C135.354 131.846 135.285 131.895 135.142 131.969L134.509 132.246C133.966 132.503 133.161 132.839 132.153 133.234C131.145 133.629 129.925 134.01 128.552 134.385C125.566 135.189 122.502 135.664 119.413 135.803C117.99 135.857 116.711 135.852 115.634 135.803C114.557 135.753 113.692 135.674 113.094 135.59L112.408 135.496C112.327 135.491 112.247 135.474 112.171 135.447C112.251 135.434 112.333 135.434 112.413 135.447L113.104 135.492C113.702 135.541 114.586 135.59 115.639 135.62C116.691 135.65 117.99 135.62 119.403 135.571C120.816 135.521 122.367 135.343 123.982 135.077C125.598 134.81 127.119 134.489 128.492 134.143C129.866 133.797 131.081 133.407 132.089 133.046C133.097 132.686 133.917 132.384 134.47 132.157L135.112 131.905C135.19 131.877 135.272 131.857 135.354 131.846Z" fill="#FAFAFA"/>
<path d="M92.0256 236.865L89.3531 248.934L84.4773 257.87C84.3944 258.023 84.3437 258.191 84.3283 258.364C84.3128 258.537 84.3331 258.711 84.3877 258.876C84.4424 259.041 84.5302 259.192 84.6459 259.322C84.7616 259.451 84.9026 259.556 85.0602 259.629C85.2432 259.713 85.4437 259.752 85.6448 259.742C85.8459 259.733 86.0419 259.675 86.2162 259.574C88.4787 258.27 96.7828 253.414 96.9261 252.52C97.099 251.488 100.592 239.977 100.592 239.977L92.0256 236.865Z" fill="#37474F"/>
<g opacity="0.6">
<path opacity="0.6" d="M85.0594 259.629L97.1279 251.725L96.9994 252.219C96.8938 252.66 96.6346 253.048 96.2683 253.316C95.2803 254.022 92.5287 255.919 86.2549 259.584C86.0748 259.69 85.8714 259.749 85.6628 259.757C85.4542 259.765 85.2469 259.721 85.0594 259.629Z" fill="white"/>
</g>
<g opacity="0.6">
<path opacity="0.6" d="M95.6121 247.234C95.4378 247.307 95.2965 247.442 95.2153 247.612C95.1341 247.783 95.1189 247.977 95.1724 248.158C95.2383 248.334 95.3693 248.479 95.5384 248.561C95.7074 248.644 95.9017 248.659 96.0814 248.603C96.268 248.526 96.419 248.382 96.5049 248.199C96.5908 248.016 96.6054 247.808 96.5457 247.615C96.4582 247.44 96.3071 247.305 96.1234 247.238C95.9397 247.171 95.7373 247.177 95.5577 247.254" fill="white"/>
</g>
<path d="M89.0917 255.054C88.8924 254.61 88.6127 254.207 88.2667 253.864C87.8682 253.586 87.4206 253.387 86.9478 253.276C86.9478 253.241 87.1207 253.187 87.4121 253.217C87.7914 253.266 88.1483 253.424 88.4396 253.671C88.7332 253.909 88.9497 254.229 89.0621 254.59C89.1461 254.872 89.1214 255.054 89.0917 255.054Z" fill="#263238"/>
<path d="M87.8413 256.453C87.7721 256.492 87.4807 256.008 86.9027 255.677C86.534 255.506 86.1544 255.359 85.7665 255.237C85.9797 255.167 86.2066 255.149 86.4282 255.185C86.6499 255.22 86.8599 255.307 87.041 255.44C87.698 255.82 87.9104 256.438 87.8413 256.453Z" fill="#263238"/>
<path d="M91.1867 253.385C90.7666 252.918 90.3108 252.486 89.8233 252.09C89.2862 251.763 88.7247 251.477 88.1437 251.236C88.8118 251.222 89.463 251.446 89.9814 251.868C90.5528 252.212 90.9808 252.75 91.1867 253.385Z" fill="#263238"/>
<path d="M92.3072 249.783C92.2578 249.848 91.6601 249.408 90.8252 249.166C89.9904 248.924 89.2346 248.963 89.2296 248.879C89.7794 248.737 90.3575 248.746 90.9028 248.905C91.448 249.064 91.9401 249.368 92.327 249.783H92.3072Z" fill="#263238"/>
<path d="M93.1821 246.261C92.7002 245.963 92.18 245.732 91.6359 245.574C91.0753 245.498 90.507 245.498 89.9464 245.574C89.9464 245.545 90.0995 245.426 90.4157 245.332C90.8313 245.22 91.2675 245.205 91.6895 245.291C92.1115 245.377 92.5076 245.56 92.8462 245.826C93.0981 246.063 93.2019 246.241 93.1821 246.261Z" fill="#263238"/>
<path d="M91.818 244.908C91.8184 244.751 91.8521 244.596 91.9168 244.453C92.0568 244.045 92.2787 243.67 92.5689 243.351C92.7587 243.099 93.0258 242.915 93.3296 242.828C93.4331 242.811 93.5392 242.825 93.6343 242.869C93.7295 242.913 93.8092 242.985 93.8632 243.075C93.954 243.259 93.9733 243.47 93.9175 243.668C93.7908 244.064 93.5304 244.404 93.1807 244.629C92.831 244.854 92.4139 244.951 92.0008 244.903C91.5934 244.845 91.2123 244.667 90.9055 244.393C90.5987 244.119 90.3799 243.76 90.2767 243.361C90.253 243.26 90.2509 243.155 90.2704 243.053C90.29 242.951 90.3309 242.854 90.3904 242.769C90.4586 242.689 90.5505 242.633 90.6526 242.609C90.7547 242.585 90.8619 242.594 90.9585 242.635C91.2377 242.774 91.476 242.984 91.65 243.243C91.9119 243.585 92.1109 243.972 92.2379 244.384C92.2981 244.531 92.3267 244.689 92.3219 244.848C92.1227 244.316 91.8446 243.816 91.4969 243.366C91.335 243.155 91.125 242.986 90.8844 242.872C90.8314 242.849 90.7725 242.844 90.7164 242.858C90.6603 242.871 90.61 242.902 90.5731 242.946C90.5386 243.005 90.5164 243.069 90.5079 243.136C90.4994 243.204 90.5048 243.272 90.5237 243.337C90.6268 243.672 90.8224 243.971 91.0881 244.2C91.3538 244.429 91.6787 244.579 92.0255 244.631C92.3749 244.672 92.7278 244.593 93.0265 244.407C93.3252 244.221 93.5523 243.94 93.6705 243.608C93.7184 243.474 93.7184 243.328 93.6705 243.193C93.6425 243.143 93.5993 243.102 93.547 243.077C93.4947 243.053 93.436 243.045 93.379 243.055C93.1216 243.126 92.8922 243.274 92.722 243.48C92.3431 243.902 92.0375 244.385 91.818 244.908Z" fill="#263238"/>
<g opacity="0.3">
<path opacity="0.3" d="M91.7 238.174L91.1221 240.941L99.8609 242.393L100.592 239.977L92.0113 236.865L91.7 238.174Z" fill="black"/>
</g>
<path d="M131.051 241.331L130.33 250.974C130.33 250.974 139.893 254.926 139.933 256.744L121.161 256.018L121.655 240.941L131.051 241.331Z" fill="#37474F"/>
<g opacity="0.6">
<path opacity="0.6" d="M124.575 249.936C124.393 249.985 124.235 250.099 124.131 250.257C124.028 250.414 123.985 250.604 124.012 250.791C124.054 250.975 124.164 251.136 124.32 251.241C124.476 251.347 124.666 251.389 124.852 251.359C125.046 251.308 125.213 251.186 125.323 251.019C125.432 250.851 125.476 250.648 125.445 250.45C125.382 250.263 125.25 250.106 125.075 250.014C124.9 249.922 124.696 249.901 124.506 249.956" fill="white"/>
</g>
<g opacity="0.6">
<path opacity="0.6" d="M121.171 256.018L121.28 254.496L139.237 255.746C139.237 255.746 140.062 256.141 139.943 256.734L121.171 256.018Z" fill="white"/>
</g>
<path d="M130.647 250.89C130.647 250.984 130.183 251.008 129.723 251.285C129.264 251.562 129.007 251.937 128.923 251.898C128.839 251.858 128.997 251.334 129.56 251.008C130.123 250.682 130.672 250.806 130.647 250.89Z" fill="#263238"/>
<path d="M132.583 251.794C132.583 251.888 132.198 252.026 131.871 252.402C131.545 252.777 131.442 253.182 131.348 253.177C131.254 253.172 131.219 252.649 131.634 252.189C132.049 251.73 132.583 251.695 132.583 251.794Z" fill="#263238"/>
<path d="M133.611 254.18C133.527 254.18 133.418 253.73 133.67 253.241C133.922 252.752 134.362 252.565 134.396 252.644C134.431 252.723 134.159 252.98 133.957 253.385C133.754 253.79 133.7 254.175 133.611 254.18Z" fill="#263238"/>
<path d="M130.559 248.677C130.519 248.756 130.104 248.613 129.571 248.627C129.037 248.642 128.642 248.79 128.583 248.711C128.523 248.632 128.938 248.321 129.571 248.311C130.203 248.301 130.618 248.608 130.559 248.677Z" fill="#263238"/>
<g opacity="0.3">
<path opacity="0.3" d="M130.918 243.243L130.789 244.962L121.576 244.517L121.64 242.531L130.918 243.243Z" fill="black"/>
</g>
<path d="M130.682 246.725C130.371 246.8 130.046 246.787 129.743 246.686C129.4 246.615 129.068 246.5 128.755 246.345C128.572 246.255 128.395 246.153 128.226 246.039C128.123 245.975 128.03 245.897 127.95 245.807C127.895 245.736 127.866 245.649 127.866 245.56C127.866 245.47 127.895 245.383 127.95 245.313C127.998 245.25 128.06 245.2 128.131 245.167C128.203 245.133 128.281 245.117 128.36 245.12C128.479 245.125 128.597 245.145 128.71 245.179C128.908 245.237 129.1 245.313 129.284 245.406C129.595 245.559 129.881 245.761 130.128 246.004C130.548 246.424 130.682 246.775 130.652 246.79C130.622 246.804 130.41 246.523 129.98 246.172C129.728 245.975 129.452 245.809 129.16 245.678C128.986 245.606 128.808 245.543 128.627 245.49C128.429 245.431 128.261 245.426 128.207 245.49C128.152 245.555 128.207 245.54 128.207 245.599C128.266 245.664 128.334 245.721 128.409 245.767C128.568 245.877 128.733 245.978 128.903 246.068C129.188 246.226 129.487 246.355 129.797 246.454C130.098 246.523 130.394 246.614 130.682 246.725Z" fill="#263238"/>
<path d="M130.559 246.854C130.394 246.577 130.32 246.256 130.346 245.935C130.348 245.588 130.405 245.243 130.514 244.913C130.585 244.719 130.673 244.533 130.776 244.354C130.831 244.232 130.917 244.126 131.025 244.047C131.134 243.967 131.26 243.917 131.393 243.9C131.478 243.905 131.559 243.935 131.627 243.985C131.695 244.034 131.748 244.103 131.779 244.181C131.822 244.292 131.848 244.409 131.858 244.527C131.89 244.737 131.89 244.95 131.858 245.16C131.792 245.509 131.641 245.836 131.418 246.113C131.033 246.607 130.647 246.681 130.638 246.651C130.628 246.622 130.934 246.439 131.235 245.98C131.408 245.718 131.521 245.421 131.566 245.11C131.591 244.93 131.591 244.747 131.566 244.567C131.542 244.369 131.472 244.201 131.398 244.221C131.324 244.241 131.141 244.359 131.057 244.517C130.961 244.675 130.877 244.841 130.806 245.011C130.691 245.31 130.618 245.622 130.588 245.94C130.524 246.493 130.608 246.854 130.559 246.854Z" fill="#263238"/>
<path d="M111.647 137.334C111.647 137.334 108.683 137.467 106.707 147.604C104.731 157.741 89.6687 239.879 89.6687 239.879L100.591 239.977L121.171 161.886L119.803 242.408L130.898 243.258C130.898 243.258 139.222 154.194 139.296 149.012C139.395 142.551 135.685 136.015 135.685 136.015L111.647 137.334Z" fill="#263876"/>
<path d="M126.66 136.47C126.729 136.47 125.593 142.274 124.126 149.403C122.658 156.531 121.414 162.301 121.344 162.286C121.275 162.271 122.407 156.482 123.874 149.353C125.341 142.225 126.606 136.455 126.66 136.47Z" fill="#455A64"/>
<path d="M128.36 137.917C128.36 137.887 128.656 137.799 128.997 138.1C129.094 138.188 129.17 138.295 129.222 138.416C129.273 138.536 129.297 138.666 129.293 138.796C129.281 138.962 129.222 139.12 129.123 139.253C129.024 139.386 128.89 139.488 128.735 139.547C128.584 139.616 128.417 139.64 128.253 139.619C128.089 139.597 127.934 139.529 127.806 139.424C127.711 139.334 127.635 139.225 127.585 139.104C127.535 138.983 127.511 138.853 127.515 138.722C127.515 138.268 127.821 138.11 127.826 138.139C127.743 138.321 127.699 138.518 127.698 138.717C127.704 138.818 127.731 138.916 127.776 139.006C127.821 139.096 127.883 139.176 127.96 139.241C128.057 139.308 128.17 139.35 128.288 139.362C128.405 139.374 128.524 139.357 128.633 139.311C128.743 139.265 128.839 139.193 128.912 139.1C128.986 139.008 129.036 138.898 129.056 138.782C129.063 138.682 129.051 138.581 129.018 138.486C128.986 138.391 128.935 138.303 128.869 138.228C128.626 137.947 128.355 137.957 128.36 137.917Z" fill="#455A64"/>
<path d="M127.89 141.928C127.89 141.899 128.196 141.928 128.384 142.338C128.432 142.455 128.453 142.582 128.447 142.708C128.441 142.834 128.408 142.957 128.349 143.07C128.264 143.203 128.145 143.31 128.003 143.38C127.862 143.451 127.704 143.481 127.546 143.468C127.389 143.456 127.238 143.4 127.11 143.308C126.981 143.216 126.88 143.091 126.818 142.946C126.778 142.827 126.766 142.701 126.78 142.576C126.795 142.451 126.836 142.332 126.902 142.225C127.134 141.854 127.45 141.864 127.44 141.894C127.431 141.923 127.203 141.993 127.06 142.309C126.988 142.486 126.988 142.685 127.06 142.862C127.112 142.96 127.187 143.043 127.28 143.104C127.372 143.165 127.478 143.202 127.589 143.211C127.699 143.22 127.81 143.201 127.911 143.155C128.012 143.11 128.1 143.039 128.167 142.951C128.26 142.782 128.283 142.583 128.231 142.398C128.088 142.062 127.865 141.963 127.89 141.928Z" fill="#455A64"/>
<path d="M117.423 138.016C117.403 138.186 117.359 138.352 117.294 138.51C117.14 138.962 116.947 139.4 116.716 139.819C115.963 141.216 114.874 142.405 113.548 143.278C112.222 144.152 110.7 144.683 109.119 144.823C108.644 144.865 108.166 144.865 107.691 144.823C107.524 144.818 107.358 144.791 107.197 144.744C107.197 144.695 107.943 144.779 109.124 144.631C110.662 144.444 112.137 143.903 113.431 143.05C114.726 142.197 115.804 141.056 116.583 139.715C117.161 138.717 117.378 138.001 117.423 138.016Z" fill="#455A64"/>
<path d="M138.674 145.223C138.674 145.223 138.545 145.164 138.343 145.026C138.06 144.822 137.795 144.594 137.552 144.344C136.74 143.522 136.106 142.54 135.69 141.462C135.275 140.383 135.086 139.23 135.137 138.075C135.148 137.728 135.193 137.382 135.27 137.043C135.325 136.801 135.359 136.672 135.379 136.677C135.399 136.682 135.32 137.216 135.32 138.08C135.32 140.349 136.164 142.538 137.686 144.221C138.264 144.858 138.699 145.184 138.674 145.223Z" fill="#455A64"/>
<path d="M176.994 145.51C177.157 145.115 177.112 145.273 174.494 143.534C174.494 143.534 178.248 146.004 177.858 144.828C177.52 144.383 177.107 144 176.638 143.697C177.626 144.28 178.199 144.344 178.372 144.107C178.668 143.697 176.519 142.131 175.497 141.424C176.432 142.093 177.412 142.696 178.431 143.228C179.039 143.415 178.747 142.704 178.337 142.185C177.927 141.667 174.746 138.604 173.891 137.69C173.81 137.62 173.745 137.534 173.7 137.437C173.655 137.339 173.632 137.234 173.632 137.127C173.632 137.02 173.655 136.914 173.7 136.817C173.745 136.719 173.81 136.633 173.891 136.564C175.423 135.576 176.095 134 176.075 133.481C176.058 133.364 176.004 133.256 175.922 133.171C175.839 133.087 175.732 133.031 175.616 133.011C175.499 132.991 175.38 133.009 175.274 133.061C175.168 133.114 175.082 133.199 175.027 133.303C174.641 133.784 174.19 134.209 173.689 134.568C173.3 134.871 172.862 135.107 172.394 135.264C171.851 135.442 169.178 135.294 168.605 135.002L166.783 141.182C166.783 141.182 173.397 144.275 174.652 144.878C176.193 145.609 176.88 145.811 176.994 145.51Z" fill="#FFBE9D"/>
<path d="M173.304 142.62C173.249 142.694 174.109 143.321 175.22 144.028C176.332 144.734 177.265 145.243 177.31 145.169C177.354 145.095 176.495 144.463 175.388 143.761C174.282 143.06 173.353 142.526 173.304 142.62Z" fill="#EB996E"/>
<path d="M173.925 141.41C173.876 141.484 174.755 142.205 175.901 143.025C177.047 143.845 177.996 144.453 178.045 144.384C178.095 144.314 177.22 143.588 176.069 142.768C174.918 141.948 173.98 141.341 173.925 141.41Z" fill="#EB996E"/>
<path d="M174.583 140.185C174.533 140.254 175.353 140.955 176.416 141.746C177.478 142.536 178.392 143.119 178.431 143.05C178.471 142.981 177.665 142.279 176.603 141.489C175.541 140.698 174.637 140.115 174.583 140.185Z" fill="#EB996E"/>
<path d="M107.305 117.801L112.156 118.068C112.5 119.422 112.959 120.745 113.529 122.02C117.437 115.243 120.445 106.158 121.216 102.507C121.107 102.148 120.974 101.743 120.816 101.292C120.697 100.61 120.718 99.911 120.875 99.2369C121.008 98.4268 121.236 97.3301 121.3 96.8262C121.512 95.2849 121.759 95.0379 122.288 95.2158C123.019 95.4529 121.987 99.5481 122.584 99.6371C122.91 99.6815 123.301 98.2786 123.419 97.1276C123.538 95.9765 124.051 92.4395 124.432 92.1876C124.99 91.8418 125.474 92.3901 125.336 93.5362C125.198 94.6822 125.015 98.1551 125.622 98.1995C126.23 98.244 126.724 92.3753 126.724 92.3753C126.724 92.3753 126.63 91.1008 127.332 91.1304C128.601 91.1847 127.613 97.3746 127.504 97.9624C127.425 98.3675 128.087 98.4564 128.147 98.0019C128.206 97.5474 128.512 92.1283 129.802 92.1727C130.79 92.2073 129.036 97.2708 129.594 98.4465C130.152 99.6222 130.538 94.4599 131.486 94.5291C131.837 94.5587 132.099 94.6279 131.452 97.5474C130.82 99.869 130.063 102.155 129.184 104.394C127.702 112.496 121.087 138.411 110.753 133.669C104.973 131.016 102.271 117.861 102.271 117.861L107.305 117.801Z" fill="#FFBE9D"/>
<path d="M129.194 104.439C129.203 104.378 129.219 104.318 129.243 104.261C129.288 104.132 129.342 103.965 129.416 103.767C129.579 103.298 129.802 102.646 130.093 101.791C130.385 100.936 130.735 99.8989 131.081 98.6738C131.259 98.0662 131.407 97.4042 131.54 96.6978C131.61 96.3421 131.674 95.9765 131.718 95.6011C131.731 95.4152 131.731 95.2288 131.718 95.0429C131.718 94.8502 131.674 94.6921 131.521 94.6872C131.368 94.6823 131.259 94.7761 131.15 94.9391C131.052 95.1136 130.971 95.2972 130.908 95.4875C130.77 95.8777 130.661 96.2927 130.552 96.7126C130.444 97.1325 130.345 97.5722 130.217 98.0168C130.161 98.2603 130.06 98.4914 129.92 98.6985C129.885 98.739 129.839 98.7683 129.787 98.7825C129.754 98.7896 129.72 98.7894 129.688 98.7817C129.655 98.774 129.625 98.759 129.599 98.738C129.542 98.6859 129.495 98.624 129.461 98.5552C129.409 98.4339 129.374 98.3059 129.357 98.1748C129.334 97.1785 129.434 96.183 129.653 95.2108C129.737 94.7168 129.826 94.2228 129.891 93.7288C129.92 93.4769 129.95 93.2348 129.955 92.9681C129.96 92.7013 129.92 92.4197 129.816 92.3753C129.713 92.3308 129.461 92.4691 129.322 92.6766C129.186 92.8958 129.078 93.1315 129.001 93.3781C128.833 93.8941 128.706 94.4227 128.621 94.9589C128.527 95.5023 128.453 96.0556 128.389 96.6187C128.364 96.9003 128.334 97.1819 128.31 97.4684L128.27 97.8982C128.275 97.99 128.261 98.0818 128.226 98.1672C128.192 98.2526 128.14 98.3294 128.073 98.3922C127.988 98.454 127.886 98.4873 127.781 98.4873C127.676 98.4873 127.574 98.454 127.49 98.3922C127.442 98.3606 127.401 98.3191 127.37 98.2705C127.34 98.222 127.32 98.1675 127.312 98.1106C127.304 98.0582 127.304 98.005 127.312 97.9525V97.8488L127.445 96.9843C127.529 96.4014 127.598 95.8185 127.653 95.2257C127.707 94.6329 127.752 94.0351 127.761 93.4374C127.79 92.8456 127.73 92.2528 127.584 91.6787C127.549 91.5331 127.461 91.4059 127.337 91.3231C127.277 91.3039 127.213 91.3041 127.153 91.3236C127.094 91.3432 127.042 91.381 127.006 91.4317C126.846 91.7242 126.78 92.0589 126.818 92.3901C126.709 93.551 126.586 94.6921 126.418 95.8135C126.334 96.3717 126.24 96.93 126.102 97.4783C126.062 97.6117 126.023 97.75 125.973 97.8883C125.926 98.056 125.828 98.2046 125.692 98.3132C125.631 98.3427 125.563 98.351 125.497 98.3366C125.432 98.3223 125.373 98.2861 125.331 98.2341C125.271 98.1708 125.225 98.0949 125.198 98.0118C125.144 97.8748 125.106 97.7323 125.084 97.587C124.968 96.512 124.958 95.4282 125.054 94.3513C125.127 93.8493 125.155 93.3417 125.138 92.8347C125.122 92.6183 125.023 92.4165 124.862 92.2715C124.824 92.248 124.781 92.2323 124.737 92.2255C124.693 92.2187 124.648 92.2209 124.605 92.232C124.559 92.2476 124.514 92.2674 124.471 92.2913C124.427 92.3308 124.432 92.2913 124.402 92.3753C124.224 92.8195 124.093 93.2816 124.012 93.7535C123.913 94.2475 123.829 94.6971 123.755 95.1614C123.681 95.6258 123.612 96.0803 123.553 96.5348C123.493 96.9892 123.464 97.4338 123.375 97.8784C123.298 98.3128 123.182 98.7394 123.029 99.153C122.988 99.2582 122.94 99.3605 122.886 99.4592C122.816 99.5531 122.777 99.6717 122.589 99.7309C122.541 99.7398 122.492 99.7341 122.447 99.7148C122.402 99.6955 122.364 99.6633 122.337 99.6223C122.303 99.5652 122.276 99.5037 122.258 99.4395C122.236 99.3321 122.223 99.223 122.219 99.1134C122.219 98.2687 122.332 97.4981 122.377 96.7521C122.409 96.3955 122.409 96.0367 122.377 95.6801C122.377 95.5221 122.303 95.3343 122.214 95.2998C122.152 95.2692 122.083 95.2534 122.014 95.2534C121.944 95.2534 121.876 95.2692 121.814 95.2998C121.606 95.5225 121.478 95.8071 121.448 96.1099C121.374 96.4113 121.344 96.7175 121.29 97.009C121.083 98.1748 120.865 99.1826 120.761 100.003C120.713 100.363 120.713 100.729 120.761 101.089C120.831 101.386 120.934 101.653 120.989 101.86C121.043 102.068 121.097 102.216 121.132 102.354C121.15 102.407 121.164 102.462 121.171 102.517C121.142 102.469 121.119 102.418 121.102 102.364L120.934 101.87C120.865 101.658 120.761 101.42 120.677 101.094C120.625 100.724 120.625 100.348 120.677 99.9779C120.771 99.1431 120.969 98.1452 121.171 96.9744C121.226 96.683 121.255 96.3767 121.32 96.0605C121.355 95.8935 121.4 95.7286 121.453 95.5665C121.502 95.3868 121.61 95.2287 121.759 95.117C121.849 95.0694 121.949 95.0445 122.051 95.0445C122.152 95.0445 122.252 95.0694 122.342 95.117C122.439 95.1779 122.518 95.2625 122.573 95.3629C122.627 95.4632 122.655 95.5759 122.653 95.69C122.688 96.0614 122.688 96.4351 122.653 96.8065C122.619 97.5573 122.5 98.3428 122.52 99.1431C122.524 99.2378 122.535 99.3319 122.555 99.4247C122.555 99.5185 122.624 99.558 122.614 99.5383C122.604 99.5185 122.708 99.4592 122.747 99.3802C122.796 99.2925 122.839 99.2018 122.876 99.1085C123.022 98.7081 123.13 98.2945 123.197 97.8735C123.281 97.4437 123.31 96.9991 123.37 96.5397C123.429 96.0803 123.488 95.6258 123.562 95.1565C123.636 94.6872 123.72 94.2179 123.814 93.7387C123.895 93.2383 124.034 92.7491 124.229 92.2814C124.269 92.203 124.328 92.1365 124.402 92.0888C124.468 92.0528 124.537 92.0246 124.61 92.0048C124.693 91.9811 124.779 91.9755 124.865 91.9882C124.95 92.001 125.031 92.0319 125.104 92.0789C125.218 92.1699 125.313 92.2835 125.382 92.4127C125.451 92.5419 125.492 92.6839 125.504 92.8298C125.541 93.0985 125.541 93.3711 125.504 93.6399C125.479 93.8919 125.454 94.1339 125.44 94.4106C125.343 95.4628 125.353 96.522 125.469 97.5722C125.49 97.6969 125.523 97.8193 125.568 97.9377C125.583 97.9855 125.608 98.0294 125.642 98.0662C125.642 98.0662 125.642 98.0662 125.667 98.0662C125.667 98.1798 125.667 98.0662 125.667 98.1106C125.667 98.1551 125.667 98.1106 125.667 98.0711C125.728 97.9886 125.777 97.8969 125.81 97.7994C125.856 97.6776 125.896 97.5491 125.929 97.4141C126.062 96.8904 126.151 96.3372 126.235 95.7839C126.403 94.6724 126.526 93.5312 126.63 92.3753V92.4C126.586 91.9928 126.675 91.5823 126.882 91.2292C126.961 91.1283 127.07 91.0546 127.193 91.0183C127.316 90.982 127.447 90.9849 127.569 91.0267C127.672 91.0842 127.763 91.1619 127.836 91.2552C127.909 91.3486 127.963 91.4556 127.994 91.5701C128.152 92.1775 128.217 92.8055 128.186 93.4324C128.186 94.045 128.132 94.6477 128.078 95.2454C128.023 95.8432 127.949 96.431 127.865 97.0139C127.821 97.3103 127.776 97.5969 127.732 97.8883C127.692 98.0711 127.702 98.076 127.732 98.1304C127.766 98.1535 127.806 98.1659 127.848 98.1659C127.889 98.1659 127.93 98.1535 127.964 98.1304C128.023 98.0859 128.033 98.0019 128.048 97.8389L128.082 97.4091L128.171 96.5545C128.231 95.9914 128.31 95.4282 128.404 94.8799C128.495 94.3291 128.627 93.7859 128.799 93.2546C128.888 92.9861 129.01 92.7291 129.159 92.4889C129.241 92.3594 129.349 92.2484 129.476 92.1629C129.546 92.1119 129.628 92.0786 129.714 92.0657C129.8 92.0528 129.887 92.0607 129.97 92.0888C130.045 92.1354 130.109 92.199 130.156 92.2744C130.203 92.3498 130.232 92.435 130.241 92.5235C130.262 92.6625 130.27 92.803 130.266 92.9434C130.266 93.2151 130.231 93.4769 130.202 93.7387C130.133 94.2327 130.039 94.7564 129.95 95.2553C129.738 96.1937 129.635 97.1535 129.644 98.1156C129.657 98.2189 129.684 98.3201 129.723 98.4169C129.74 98.452 129.762 98.4851 129.787 98.5157C129.787 98.5157 129.787 98.5157 129.787 98.4811C129.898 98.3026 129.979 98.1075 130.029 97.9031C130.157 97.4734 130.261 97.0386 130.375 96.6138C130.477 96.1911 130.6 95.7739 130.745 95.364C130.814 95.1609 130.903 94.9656 131.012 94.7811C131.071 94.6805 131.148 94.5917 131.239 94.5192C131.289 94.4762 131.348 94.4457 131.412 94.4303C131.476 94.4203 131.541 94.4203 131.605 94.4303C131.672 94.4371 131.737 94.4617 131.791 94.5016C131.846 94.5416 131.889 94.5954 131.916 94.6576C131.957 94.7614 131.979 94.8719 131.98 94.9836C131.984 95.1834 131.972 95.3833 131.946 95.5813C131.901 95.9667 131.827 96.3322 131.758 96.6928C131.615 97.3993 131.457 98.0711 131.264 98.6688C130.893 99.894 130.523 100.931 130.222 101.776C129.92 102.621 129.663 103.258 129.49 103.713C129.406 103.92 129.337 104.083 129.288 104.207C129.266 104.287 129.234 104.365 129.194 104.439Z" fill="#EB996E"/>
<path d="M102.226 118.36C103.165 121.674 105.002 126.787 106.973 132.192C107.036 132.366 107.148 132.518 107.296 132.628C107.445 132.738 107.623 132.801 107.807 132.81C107.992 132.819 108.175 132.773 108.334 132.678C108.492 132.583 108.619 132.443 108.697 132.276L113.529 122.055C113.529 122.055 112.363 113.657 112.462 113.958C112.561 114.259 102.493 115.045 102.493 115.045L102.226 118.36Z" fill="#FEB546"/>
<path d="M113.115 116.715C113.115 116.754 112.512 116.932 111.559 117.298C110.313 117.771 109.113 118.356 107.973 119.046C106.834 119.74 105.759 120.534 104.762 121.418C103.996 122.094 103.556 122.559 103.527 122.529C103.497 122.499 103.611 122.391 103.798 122.168C104.063 121.86 104.343 121.564 104.638 121.284C105.612 120.347 106.685 119.518 107.839 118.814C108.993 118.119 110.219 117.549 111.495 117.115C111.88 116.982 112.273 116.87 112.67 116.779C112.814 116.734 112.964 116.712 113.115 116.715Z" fill="#FAFAFA"/>
<path d="M115.031 119.264C114.717 118.947 114.445 118.592 114.221 118.207C113.644 117.307 113.148 116.358 112.739 115.371C112.329 114.381 112.01 113.356 111.785 112.308C111.67 111.88 111.612 111.438 111.613 110.994C111.76 111.408 111.877 111.833 111.963 112.264C112.228 113.287 112.558 114.292 112.951 115.272C113.362 116.248 113.834 117.196 114.364 118.113C114.611 118.482 114.834 118.866 115.031 119.264Z" fill="#263238"/>
<path d="M118.252 74.0033C117.413 75.3847 116.894 76.9355 116.731 78.5429C116.567 80.1503 116.765 81.7739 117.308 83.2955C117.802 84.654 118.592 85.9927 118.449 87.4352C118.306 88.8777 117.18 90.3054 117.575 91.7281C117.812 92.5728 118.533 93.2101 118.815 94.0301C119.136 95.0181 118.815 96.0605 118.642 97.0732C118.247 99.6617 119.077 102.265 119.279 104.873C119.482 107.482 118.785 110.54 116.453 111.676C115.747 112.022 114.823 112.12 114.235 111.592C113.484 110.925 113.692 109.72 113.899 108.732C115.945 98.8516 109.626 89.2087 111.069 79.2101C111.301 77.6096 112.195 74.8926 113.346 73.7761C114.497 72.6597 117.693 72.7881 118.78 73.9737" fill="#263238"/>
<path d="M108.52 102.665C108.52 102.665 108.822 102.31 109.266 101.608C109.89 100.617 110.327 99.5207 110.556 98.3724C110.705 97.5814 110.756 96.7751 110.709 95.9715C110.622 95.0372 110.588 94.0988 110.605 93.1607C110.635 92.6469 110.729 92.139 110.887 91.649C111.067 91.1443 111.295 90.658 111.568 90.1967C112.122 89.263 112.818 88.3936 113.46 87.4649C114.12 86.5871 114.579 85.5753 114.804 84.5009C114.914 83.4888 114.855 82.4656 114.631 81.4726C114.444 80.5497 114.371 79.6074 114.414 78.6667C114.473 77.845 114.639 77.0346 114.908 76.256C115.285 75.1262 115.879 74.0808 116.657 73.1784C116.863 72.933 117.088 72.7035 117.328 72.4917C117.405 72.4104 117.491 72.339 117.585 72.2793C117.585 72.2793 117.254 72.6004 116.731 73.2673C115.483 74.8154 114.754 76.7163 114.646 78.7013C114.613 79.6266 114.694 80.5524 114.888 81.4578C115.124 82.4775 115.187 83.5294 115.076 84.57C114.842 85.6744 114.37 86.7145 113.693 87.618C113.045 88.5615 112.349 89.426 111.805 90.335C111.538 90.7792 111.316 91.2492 111.144 91.738C110.987 92.2079 110.893 92.6961 110.862 93.1903C110.84 94.1181 110.866 95.0465 110.941 95.9715C110.98 96.7913 110.917 97.6127 110.753 98.4168C110.506 99.5808 110.036 100.686 109.37 101.672C109.19 101.939 108.992 102.193 108.777 102.433C108.7 102.52 108.614 102.597 108.52 102.665Z" fill="#455A64"/>
<path d="M103.837 103.401C103.877 103.286 103.928 103.175 103.99 103.07C104.113 102.838 104.272 102.532 104.484 102.147C104.899 101.341 105.516 100.171 106.124 98.6886C106.867 96.9577 107.279 95.1028 107.339 93.22C107.34 92.6775 107.298 92.1358 107.216 91.5997C107.132 91.0464 107.003 90.4882 106.919 89.9053C106.817 89.3023 106.83 88.6853 106.959 88.0873C107.126 87.4735 107.469 86.9221 107.947 86.5016C108.876 85.6569 109.997 85.1036 110.58 84.1106C111.085 83.1261 111.383 82.0483 111.454 80.9441C111.559 79.9318 111.788 78.9363 112.136 77.9801C112.919 75.9273 114.314 74.1648 116.132 72.9314C116.422 72.7363 116.724 72.5598 117.036 72.4028C117.142 72.3397 117.255 72.2899 117.372 72.2546C117.372 72.2546 116.928 72.4918 116.192 73.0154C115.154 73.7557 114.256 74.6739 113.539 75.7275C113.042 76.4496 112.637 77.2313 112.334 78.0542C112.001 79.0127 111.785 80.0079 111.691 81.0182C111.543 82.0704 111.425 83.2461 110.792 84.2885C110.16 85.3308 109.004 85.9236 108.12 86.7585C107.669 87.1495 107.344 87.6652 107.186 88.2405C107.066 88.8062 107.054 89.3895 107.152 89.9596C107.231 90.5277 107.354 91.0909 107.438 91.6491C107.524 92.1981 107.563 92.7533 107.557 93.3089C107.489 95.2262 107.055 97.1128 106.277 98.8664C105.772 100.052 105.198 101.206 104.558 102.324L104.034 103.1C103.979 103.207 103.913 103.308 103.837 103.401Z" fill="#455A64"/>
<path d="M267.282 242.991C267.304 242.919 267.334 242.849 267.371 242.783C267.44 242.635 267.534 242.438 267.647 242.186C267.991 241.414 268.267 240.614 268.472 239.795C269.016 237.67 269.208 234.425 268.403 230.572C267.966 228.47 267.393 226.399 266.689 224.372C265.968 222.174 265.123 219.842 264.436 217.318C263.661 214.685 263.286 211.95 263.325 209.206C263.428 206.336 264.278 203.476 265.212 200.62C266.145 197.765 267.109 194.984 267.395 192.168C267.714 189.468 267.171 186.736 265.844 184.363C264.609 182.086 263.053 180.134 261.892 178.119C260.805 176.246 260.004 174.221 259.516 172.112C258.815 169.058 258.763 165.89 259.363 162.815C259.581 161.689 259.912 160.589 260.351 159.53C260.338 159.604 260.318 159.676 260.292 159.747L260.094 160.374C259.926 160.928 259.704 161.757 259.491 162.844C258.939 165.906 259.021 169.049 259.733 172.077C260.229 174.161 261.033 176.159 262.119 178.005C263.28 179.981 264.841 181.957 266.106 184.244C267.465 186.666 268.024 189.455 267.702 192.213C267.41 195.068 266.442 197.879 265.508 200.729C264.575 203.58 263.735 206.41 263.631 209.231C263.587 211.948 263.953 214.656 264.718 217.263C265.395 219.773 266.224 222.105 266.941 224.313C267.638 226.351 268.199 228.434 268.62 230.547C269.406 234.43 269.184 237.71 268.62 239.839C268.4 240.66 268.104 241.459 267.736 242.225L267.43 242.813C267.387 242.878 267.338 242.937 267.282 242.991Z" fill="#263238"/>
<path d="M263.474 180.11C263.474 180.11 261.112 172.546 265.351 168.12C265.384 168.084 265.426 168.059 265.473 168.046C265.519 168.033 265.569 168.033 265.615 168.046C265.662 168.059 265.704 168.085 265.737 168.121C265.769 168.157 265.791 168.201 265.8 168.249C266.028 169.498 266.309 173.302 263.474 180.11Z" fill="#ABC6FC"/>
<path d="M264.89 170.64C264.882 171.108 264.829 171.575 264.732 172.033C264.574 172.996 264.391 174.122 264.193 175.367C263.996 176.612 263.813 177.743 263.66 178.702C263.617 179.169 263.534 179.632 263.413 180.085C263.366 179.618 263.376 179.147 263.442 178.682C263.521 177.817 263.675 176.632 263.887 175.328C264.099 174.024 264.332 172.858 264.514 172.003C264.587 171.536 264.712 171.078 264.89 170.64Z" fill="#263238"/>
<path d="M266.248 197.948C266.248 197.948 267.696 190.158 273.515 188.231C273.561 188.215 273.61 188.212 273.658 188.222C273.705 188.233 273.749 188.256 273.784 188.29C273.818 188.324 273.843 188.367 273.855 188.414C273.867 188.461 273.866 188.511 273.851 188.557C273.466 189.757 271.939 193.25 266.248 197.948Z" fill="#ABC6FC"/>
<path d="M271.93 190.232C271.704 190.643 271.439 191.032 271.139 191.393L269.099 194.085L267.074 196.787C266.819 197.179 266.529 197.548 266.209 197.889C266.39 197.454 266.622 197.043 266.901 196.664C267.395 195.937 268.067 194.959 268.877 193.907C269.687 192.855 270.423 191.931 270.981 191.259C271.259 190.883 271.577 190.538 271.93 190.232Z" fill="#263238"/>
<path d="M264.679 217.476C264.679 217.476 263.799 209.601 268.808 206.069C268.847 206.039 268.893 206.02 268.942 206.016C268.991 206.011 269.04 206.021 269.084 206.043C269.127 206.065 269.164 206.1 269.188 206.142C269.213 206.184 269.225 206.233 269.223 206.282C269.209 207.551 268.759 211.335 264.679 217.476Z" fill="#ABC6FC"/>
<path d="M267.889 208.45C267.798 208.91 267.657 209.359 267.47 209.789L266.304 212.961C265.869 214.146 265.479 215.218 265.148 216.132C265.021 216.582 264.856 217.02 264.654 217.441C264.699 216.973 264.802 216.511 264.96 216.068C265.202 215.238 265.578 214.092 266.037 212.857C266.496 211.622 266.946 210.51 267.287 209.715C267.444 209.274 267.646 208.85 267.889 208.45Z" fill="#263238"/>
<path d="M269.06 237.127C269.06 237.127 268.467 229.223 273.595 225.874C273.635 225.846 273.682 225.83 273.73 225.828C273.779 225.826 273.827 225.837 273.87 225.86C273.913 225.884 273.948 225.919 273.972 225.962C273.995 226.004 274.007 226.052 274.005 226.101C273.945 227.371 273.362 231.14 269.06 237.127Z" fill="#ABC6FC"/>
<path d="M272.577 228.225C272.467 228.681 272.309 229.125 272.108 229.549C271.742 230.448 271.308 231.525 270.828 232.676C270.349 233.827 269.929 234.899 269.564 235.803C269.417 236.249 269.231 236.681 269.005 237.092C269.071 236.625 269.192 236.167 269.366 235.729C269.638 234.909 270.053 233.783 270.557 232.562C271.061 231.342 271.545 230.246 271.915 229.465C272.091 229.029 272.313 228.614 272.577 228.225Z" fill="#263238"/>
<path d="M260.074 173.465C260.074 173.465 253.069 169.79 252.916 163.669C252.916 163.621 252.928 163.574 252.952 163.533C252.977 163.491 253.011 163.457 253.053 163.434C253.095 163.411 253.143 163.399 253.191 163.401C253.239 163.402 253.286 163.416 253.326 163.442C254.368 164.163 257.263 166.653 260.074 173.465Z" fill="#ABC6FC"/>
<path d="M254.373 165.774C254.702 166.11 254.995 166.479 255.248 166.875C255.821 167.661 256.488 168.589 257.224 169.612L259.2 172.339C259.501 172.698 259.769 173.083 260 173.49C259.639 173.189 259.315 172.846 259.037 172.467C258.479 171.805 257.747 170.857 256.977 169.785C256.206 168.713 255.529 167.72 255.065 166.994C254.793 166.612 254.561 166.203 254.373 165.774Z" fill="#263238"/>
<path d="M267.618 189.703C267.618 189.703 260.386 186.467 259.877 180.357C259.873 180.309 259.882 180.26 259.904 180.217C259.925 180.174 259.958 180.138 259.999 180.112C260.04 180.087 260.087 180.073 260.135 180.073C260.184 180.072 260.231 180.085 260.272 180.11C261.354 180.767 264.392 183.069 267.618 189.703Z" fill="#ABC6FC"/>
<path d="M261.468 182.372C261.817 182.686 262.131 183.035 262.407 183.414L264.551 186.028L266.7 188.631C267.022 188.972 267.313 189.34 267.569 189.733C267.19 189.453 266.845 189.13 266.542 188.769C265.949 188.137 265.159 187.238 264.324 186.215C263.489 185.193 262.758 184.239 262.244 183.543C261.943 183.182 261.683 182.79 261.468 182.372Z" fill="#263238"/>
<path d="M263.444 207.828C263.444 207.828 258.504 201.653 260.811 195.972C260.829 195.927 260.859 195.889 260.898 195.86C260.937 195.832 260.983 195.814 261.031 195.81C261.079 195.806 261.127 195.815 261.17 195.837C261.214 195.859 261.25 195.892 261.275 195.932C261.962 197.004 263.607 200.443 263.444 207.828Z" fill="#ABC6FC"/>
<path d="M261.309 198.481C261.478 198.92 261.601 199.376 261.675 199.84C261.882 200.788 262.124 201.905 262.391 203.14C262.658 204.375 262.91 205.486 263.117 206.435C263.25 206.885 263.341 207.346 263.389 207.813C263.172 207.393 263.006 206.949 262.895 206.489C262.653 205.654 262.357 204.513 262.08 203.199C261.803 201.885 261.586 200.729 261.448 199.879C261.351 199.42 261.304 198.951 261.309 198.481Z" fill="#263238"/>
<path d="M268.382 229.124C268.382 229.124 261.205 225.77 260.799 219.654C260.795 219.605 260.804 219.556 260.825 219.513C260.847 219.469 260.881 219.432 260.923 219.406C260.964 219.38 261.012 219.367 261.061 219.367C261.11 219.367 261.158 219.381 261.2 219.407C262.262 220.084 265.26 222.44 268.382 229.124Z" fill="#ABC6FC"/>
<path d="M262.341 221.689C262.681 222.013 262.989 222.369 263.26 222.752L265.36 225.394L267.464 228.037C267.781 228.383 268.065 228.757 268.314 229.154C267.946 228.865 267.614 228.534 267.326 228.166C266.738 227.524 265.967 226.61 265.147 225.572C264.327 224.535 263.616 223.572 263.112 222.865C262.81 222.505 262.552 222.11 262.341 221.689Z" fill="#263238"/>
<path d="M282.665 197.982C282.665 197.982 282.665 198.042 282.665 198.155C282.665 198.269 282.665 198.457 282.665 198.649C282.665 199.143 282.616 199.771 282.581 200.571C282.492 202.26 282.359 204.617 282.205 207.433C281.711 210.298 280.229 213.474 278.253 216.562C276.816 218.834 275.289 220.899 274.005 222.821C272.833 224.507 271.78 226.273 270.853 228.107C270.24 229.345 269.744 230.639 269.371 231.97C269.248 232.439 269.149 232.809 269.095 233.061C269.071 233.193 269.037 233.321 268.991 233.447C268.993 233.314 269.009 233.181 269.04 233.051C269.075 232.795 269.149 232.419 269.263 231.94C269.595 230.586 270.067 229.27 270.671 228.013C271.589 226.165 272.64 224.387 273.817 222.692C275.112 220.756 276.608 218.686 278.041 216.428C279.992 213.356 281.445 210.229 281.993 207.408C282.191 204.597 282.354 202.246 282.487 200.556C282.551 199.756 282.606 199.119 282.645 198.639C282.645 198.442 282.68 198.274 282.695 198.145C282.678 198.093 282.668 198.038 282.665 197.982Z" fill="#263238"/>
<path d="M278.392 215.994C278.392 215.994 281.43 208.682 277.612 203.886C277.582 203.847 277.542 203.818 277.497 203.801C277.451 203.783 277.402 203.779 277.354 203.788C277.307 203.798 277.263 203.82 277.227 203.853C277.191 203.886 277.165 203.928 277.152 203.975C276.811 205.2 276.184 208.959 278.392 215.994Z" fill="#ABC6FC"/>
<path d="M277.838 206.44C277.969 206.891 278.05 207.354 278.08 207.823C278.188 208.682 278.307 209.873 278.401 211.192C278.495 212.511 278.539 213.706 278.539 214.576C278.569 215.045 278.54 215.516 278.455 215.979C278.37 215.518 278.328 215.05 278.332 214.581C278.267 213.593 278.188 212.471 278.104 211.212C278.02 209.952 277.941 208.811 277.872 207.843C277.815 207.377 277.803 206.907 277.838 206.44Z" fill="#263238"/>
<g opacity="0.3">
<path opacity="0.3" d="M278.392 215.994C278.392 215.994 281.43 208.682 277.612 203.886C277.582 203.847 277.542 203.818 277.497 203.801C277.451 203.783 277.402 203.779 277.354 203.788C277.307 203.798 277.263 203.82 277.227 203.853C277.191 203.886 277.165 203.928 277.152 203.975C276.811 205.2 276.184 208.959 278.392 215.994Z" fill="black"/>
</g>
<path d="M268.981 233.624C268.981 233.624 271.417 226.086 267.218 221.62C267.185 221.585 267.144 221.559 267.097 221.545C267.051 221.532 267.002 221.532 266.955 221.545C266.909 221.557 266.867 221.583 266.834 221.618C266.801 221.653 266.778 221.697 266.768 221.744C266.531 222.989 266.21 226.792 268.981 233.624Z" fill="#ABC6FC"/>
<path d="M267.652 224.13C267.823 224.569 267.943 225.027 268.008 225.493C268.186 226.338 268.398 227.519 268.601 228.823C268.803 230.127 268.941 231.318 269.016 232.182C269.08 232.649 269.088 233.121 269.04 233.59C268.923 233.136 268.844 232.674 268.803 232.207C268.66 231.243 268.492 230.117 268.309 228.867C268.126 227.618 267.949 226.491 267.815 225.528C267.715 225.068 267.66 224.6 267.652 224.13Z" fill="#263238"/>
<g opacity="0.3">
<path opacity="0.3" d="M268.981 233.624C268.981 233.624 271.417 226.086 267.218 221.62C267.185 221.585 267.144 221.559 267.097 221.545C267.051 221.532 267.002 221.532 266.955 221.545C266.909 221.557 266.867 221.583 266.834 221.618C266.801 221.653 266.778 221.697 266.768 221.744C266.531 222.989 266.21 226.792 268.981 233.624Z" fill="black"/>
</g>
<path d="M282.264 207.057C282.264 207.057 288.75 202.513 288.098 196.417C288.093 196.369 288.075 196.323 288.046 196.285C288.017 196.247 287.977 196.217 287.932 196.2C287.887 196.182 287.838 196.178 287.791 196.186C287.744 196.195 287.7 196.217 287.664 196.249C286.72 197.098 284.191 199.924 282.264 207.057Z" fill="#ABC6FC"/>
<g opacity="0.3">
<path opacity="0.3" d="M282.264 207.057C282.264 207.057 288.75 202.513 288.098 196.417C288.093 196.369 288.075 196.323 288.046 196.285C288.017 196.247 287.977 196.217 287.932 196.2C287.887 196.182 287.838 196.178 287.791 196.186C287.744 196.195 287.7 196.217 287.664 196.249C286.72 197.098 284.191 199.924 282.264 207.057Z" fill="black"/>
</g>
<path d="M286.923 198.694C286.795 199.146 286.614 199.582 286.385 199.993C286.014 200.774 285.476 201.841 284.848 203.006C284.221 204.172 283.618 205.205 283.154 205.936C282.926 206.346 282.649 206.728 282.329 207.072C282.503 206.637 282.718 206.221 282.971 205.827C283.436 204.973 283.984 203.975 284.587 202.863L286.197 199.899C286.399 199.475 286.643 199.071 286.923 198.694Z" fill="#263238"/>
<path d="M271.599 226.15C271.599 226.15 279.424 224.93 281.519 219.17C281.536 219.125 281.54 219.077 281.531 219.029C281.522 218.982 281.501 218.938 281.468 218.903C281.436 218.867 281.395 218.841 281.349 218.827C281.303 218.813 281.254 218.812 281.208 218.824C279.987 219.19 276.45 220.598 271.599 226.15Z" fill="#ABC6FC"/>
<g opacity="0.3">
<path opacity="0.3" d="M271.599 226.15C271.599 226.15 279.424 224.93 281.519 219.17C281.536 219.125 281.54 219.077 281.531 219.029C281.522 218.982 281.501 218.938 281.468 218.903C281.436 218.867 281.395 218.841 281.349 218.827C281.303 218.813 281.254 218.812 281.208 218.824C279.987 219.19 276.45 220.598 271.599 226.15Z" fill="black"/>
</g>
<path d="M279.463 220.697C279.146 221.043 278.791 221.352 278.406 221.62C277.729 222.164 276.775 222.885 275.704 223.656C274.632 224.426 273.629 225.083 272.888 225.538C272.501 225.807 272.083 226.028 271.643 226.195C271.993 225.882 272.372 225.603 272.774 225.36L275.531 223.414L278.282 221.438C278.648 221.149 279.044 220.901 279.463 220.697Z" fill="#263238"/>
<path d="M264.129 240.555L261.847 255.919H276.074L274.232 240.555H264.129Z" fill="#455A64"/>
<path d="M274.805 245.313C274.805 245.397 272.236 245.461 269.069 245.461C265.903 245.461 263.329 245.397 263.329 245.313C265.239 245.166 267.155 245.117 269.069 245.165C270.982 245.117 272.897 245.166 274.805 245.313Z" fill="#263238"/>
<path d="M275.081 246.538C275.081 246.622 272.428 246.686 269.153 246.686C265.878 246.686 263.225 246.622 263.225 246.538C263.225 246.454 265.878 246.39 269.153 246.39C272.428 246.39 275.081 246.454 275.081 246.538Z" fill="#263238"/>
<path d="M219.76 91.5108C219.76 91.5108 219.627 91.5108 219.37 91.5108C218.995 91.4885 218.619 91.4885 218.244 91.5108C216.793 91.5957 215.367 91.9299 214.03 92.4988C211.91 93.3874 210.065 94.8248 208.685 96.6632C207.834 97.811 207.201 99.1054 206.817 100.482C205.953 103.761 206.42 107.248 208.117 110.184C208.579 110.997 209.144 111.747 209.796 112.417C210.455 113.126 211.222 113.727 212.069 114.195C212.938 114.684 213.922 114.932 214.919 114.912C215.947 114.899 216.933 114.501 217.681 113.795C218.042 113.416 218.325 112.97 218.514 112.482C218.703 111.994 218.794 111.473 218.782 110.95C218.775 109.862 218.429 108.804 217.794 107.921C216.515 106.118 214.44 104.908 212.232 104.256C209.942 103.613 207.524 103.579 205.217 104.157C204.039 104.463 202.904 104.915 201.838 105.501C200.761 106.108 199.784 106.876 198.938 107.778C198.736 108.01 198.503 108.223 198.321 108.48L197.762 109.231C197.423 109.76 197.119 110.311 196.853 110.88C196.325 112.037 195.964 113.263 195.781 114.521C195.423 117.035 195.765 119.599 196.769 121.931C197.73 124.21 199.402 126.116 201.537 127.365C202.571 127.957 203.727 128.306 204.916 128.388C206.081 128.453 207.241 128.175 208.25 127.588C209.252 127.034 210.043 126.166 210.503 125.118C210.936 124.084 210.966 122.926 210.587 121.872C210.196 120.855 209.558 119.951 208.729 119.244C207.926 118.549 206.999 118.012 205.997 117.658C204.044 117.042 201.954 117.006 199.98 117.554C198.134 118.055 196.438 118.999 195.04 120.306C193.768 121.525 192.798 123.026 192.21 124.688C191.181 127.571 191.228 130.729 192.343 133.58C193.213 135.708 194.612 137.579 196.409 139.014C197.54 139.921 198.801 140.656 200.148 141.192C200.613 141.365 200.973 141.494 201.22 141.563L201.586 141.681C201.586 141.681 201.458 141.657 201.211 141.588C200.846 141.49 200.486 141.373 200.134 141.237C198.768 140.724 197.491 140 196.35 139.093C194.523 137.659 193.095 135.779 192.205 133.634C191.07 130.756 191.012 127.565 192.042 124.648C192.631 122.961 193.611 121.438 194.902 120.202C196.319 118.87 198.041 117.903 199.916 117.386C201.931 116.824 204.066 116.859 206.062 117.485C207.093 117.845 208.046 118.396 208.872 119.111C209.734 119.841 210.396 120.777 210.799 121.832C211.205 122.934 211.188 124.147 210.75 125.236C210.262 126.326 209.436 127.229 208.393 127.81C207.347 128.42 206.145 128.712 204.935 128.65C203.717 128.565 202.535 128.203 201.477 127.593C199.294 126.326 197.58 124.387 196.592 122.065C195.565 119.69 195.213 117.078 195.574 114.516C195.763 113.233 196.132 111.982 196.671 110.801C196.942 110.22 197.252 109.657 197.599 109.117L198.172 108.351C198.355 108.089 198.592 107.857 198.8 107.63C199.665 106.711 200.664 105.928 201.764 105.308C202.855 104.711 204.017 104.253 205.222 103.945C207.573 103.356 210.037 103.391 212.37 104.048C214.623 104.72 216.732 105.95 218.061 107.818C218.729 108.737 219.092 109.843 219.098 110.979C219.122 112.098 218.701 113.18 217.928 113.988C217.137 114.73 216.097 115.148 215.013 115.159C213.976 115.182 212.951 114.924 212.049 114.413C211.182 113.934 210.398 113.319 209.727 112.59C209.066 111.905 208.493 111.14 208.023 110.312C206.296 107.322 205.827 103.768 206.719 100.432C207.114 99.04 207.762 97.7322 208.63 96.5743C210.036 94.722 211.912 93.2805 214.064 92.4C215.413 91.8421 216.85 91.5277 218.308 91.4712C218.686 91.4463 219.066 91.4463 219.444 91.4712L219.76 91.5108Z" fill="#263876"/>
<path d="M236.254 140.94H166.99V194.362H236.254V140.94Z" fill="#364FD4"/>
<path d="M166.99 140.94L179.785 152.875H247.873L236.254 140.94H166.99Z" fill="#364FD4"/>
<path d="M166.99 140.94L236.274 140.817H236.328L236.368 140.851L247.868 152.663L247.987 152.786L248.199 153.004H247.893L179.805 152.95H179.775L166.99 140.94L179.834 152.796H179.78L247.868 152.747L247.779 152.964L247.656 152.841L236.16 141.029L236.249 141.069L166.99 140.94Z" fill="#263238"/>
<path d="M187.799 165.576C187.424 165.59 187.069 165.75 186.811 166.023C186.552 166.295 186.412 166.658 186.418 167.034C186.425 167.409 186.579 167.767 186.847 168.03C187.115 168.293 187.475 168.44 187.851 168.44C188.226 168.44 188.587 168.293 188.855 168.03C189.122 167.767 189.276 167.409 189.283 167.034C189.29 166.658 189.149 166.295 188.891 166.023C188.633 165.75 188.278 165.59 187.903 165.576" fill="#263238"/>
<path d="M204.164 165.576C203.79 165.59 203.437 165.751 203.18 166.023C202.923 166.294 202.783 166.656 202.791 167.03C202.798 167.404 202.951 167.76 203.218 168.022C203.485 168.284 203.844 168.43 204.218 168.43C204.592 168.43 204.951 168.284 205.218 168.022C205.485 167.76 205.638 167.404 205.645 167.03C205.652 166.656 205.513 166.294 205.256 166.023C204.999 165.751 204.646 165.59 204.272 165.576" fill="#263238"/>
<path d="M204.258 178.361C203.972 177.27 203.508 176.233 202.884 175.293C202.191 174.288 201.3 173.434 200.266 172.784C199.019 171.956 197.565 171.495 196.068 171.454C194.572 171.413 193.095 171.793 191.804 172.551C190.738 173.146 189.802 173.949 189.052 174.913C188.377 175.818 187.858 176.83 187.516 177.906C187.52 177.826 187.533 177.746 187.556 177.669C187.603 177.447 187.664 177.227 187.738 177.012C188.009 176.219 188.404 175.473 188.909 174.804C189.654 173.796 190.601 172.954 191.69 172.334C193.014 171.544 194.536 171.146 196.077 171.188C197.618 171.23 199.116 171.71 200.395 172.571C201.446 173.247 202.345 174.135 203.033 175.179C203.502 175.876 203.857 176.643 204.085 177.452C204.146 177.671 204.193 177.894 204.228 178.119C204.245 178.198 204.255 178.279 204.258 178.361Z" fill="#263238"/>
<path opacity="0.5" d="M167.15 141.528L179.401 157.06H236.255V152.875H179.786L167.15 141.528Z" fill="black"/>
<path d="M222.595 194.243C222.526 194.243 222.467 184.951 222.467 173.495C222.467 162.039 222.526 152.747 222.595 152.747C222.664 152.747 222.729 162.034 222.729 173.495C222.729 184.956 222.669 194.243 222.595 194.243Z" fill="#263238"/>
<path d="M233.473 182.13H227.367V189.031H233.473V182.13Z" fill="#F5F5F5"/>
<path d="M166.991 140.94L152.773 152.875H166.991V140.94Z" fill="#364FD4"/>
<g opacity="0.4">
<path opacity="0.4" d="M166.991 140.94L152.773 152.875H166.991V140.94Z" fill="black"/>
</g>
<path d="M238.3 194.362H158.662V255.786H238.3V194.362Z" fill="#364FD4"/>
<path d="M238.3 194.362H158.662V255.786H238.3V194.362Z" fill="#D46928"/>
<path d="M218.346 255.351C218.277 255.351 218.217 241.662 218.217 224.777C218.217 207.892 218.277 194.198 218.346 194.198C218.415 194.198 218.474 207.887 218.474 224.777C218.474 241.667 218.415 255.351 218.346 255.351Z" fill="#263238"/>
<path d="M231.547 241.805H225.441V248.707H231.547V241.805Z" fill="#F5F5F5"/>
<path d="M192.003 194.525H182.958V207.63H192.003V194.525Z" fill="#A64104"/>
<path d="M192.003 242.497H182.958V255.603H192.003V242.497Z" fill="#A64104"/>
<path d="M237.609 194.361H237.401H236.803L234.506 194.386L226.044 194.426L198.138 194.49L170.222 194.455L161.765 194.416L159.468 194.391H158.865H158.662H158.865H159.468L161.765 194.366L170.222 194.327L198.138 194.287L226.044 194.327L234.506 194.366L236.803 194.391H237.401L237.609 194.361Z" fill="#263238"/>
<path d="M101.124 88.0181L92.4496 85.884H92.5138C90.2739 87.3088 87.6839 88.0867 85.0297 88.1317C83.4584 88.1389 81.8948 87.9108 80.391 87.455C77.7472 86.6061 75.4017 85.018 73.6316 82.8786C71.8616 80.7391 70.741 78.1376 70.4023 75.3816C70.1364 73.2972 70.3322 71.1799 70.9759 69.1796C71.6196 67.1794 72.6954 65.3452 74.1271 63.8072C74.8797 62.9805 75.7232 62.2414 76.6416 61.6039C77.1059 61.3125 77.5703 61.0111 78.0544 60.7592L78.7905 60.4035L79.156 60.2257L79.5413 60.0874C81.525 59.3185 83.6529 58.993 85.7756 59.1339C88.6205 59.3187 91.3471 60.3414 93.6117 62.0732C95.8763 63.8051 97.5776 66.1686 98.5011 68.8657C99.0141 70.3746 99.2843 71.9553 99.3013 73.5489C99.3137 76.1972 98.594 78.7975 97.2216 81.0626V80.9836C99.6323 85.3357 100.848 87.534 101.119 88.0181C100.838 87.5241 99.578 85.3653 97.0833 81.0577V81.0181V80.9786C98.4064 78.7355 99.0898 76.1727 99.0593 73.5686C99.0364 72.0006 98.7628 70.4462 98.2491 68.9645C97.3357 66.3225 95.6631 64.0087 93.4408 62.3127C91.2185 60.6168 88.5453 59.6142 85.7559 59.4303C83.6749 59.2947 81.5894 59.615 79.6451 60.3689L79.2696 60.5023L78.909 60.6802L78.1878 61.026C77.6938 61.2779 77.2591 61.5694 76.7996 61.8559C75.899 62.4763 75.0705 63.1954 74.3296 63.9998C72.9241 65.5097 71.8677 67.3101 71.2351 69.2735C70.6025 71.237 70.4093 73.3154 70.6691 75.3618C71.1271 79.1109 73.0506 82.5263 76.0191 84.8615C77.3463 85.9131 78.8525 86.7164 80.4651 87.2327C81.9419 87.6892 83.479 87.9207 85.0247 87.9193C87.6471 87.8912 90.211 87.1409 92.4347 85.7507H92.4644H92.5187L101.124 88.0181Z" fill="#263238"/>
<path d="M83.6258 67.1862L84.0655 74.448C84.083 74.7344 84.2047 75.0045 84.4076 75.2074C84.6105 75.4104 84.8807 75.5321 85.1671 75.5496C85.4685 75.5666 85.7649 75.4676 85.9956 75.2728C86.2262 75.078 86.3734 74.8023 86.407 74.5023L87.2123 67.2257C87.2263 67.0955 87.2125 66.9638 87.1717 66.8394C87.131 66.715 87.0643 66.6006 86.976 66.5039C86.8877 66.4072 86.7799 66.3304 86.6596 66.2785C86.5394 66.2267 86.4095 66.201 86.2786 66.2031H84.515C84.3913 66.2068 84.2695 66.2355 84.1571 66.2874C84.0447 66.3393 83.944 66.4134 83.8609 66.5052C83.7779 66.597 83.7143 66.7047 83.6738 66.8217C83.6334 66.9387 83.6171 67.0627 83.6258 67.1862Z" fill="#364FD4"/>
<path d="M87.0838 79.6054C86.9732 79.9371 86.7668 80.2286 86.4907 80.4431C86.2145 80.6575 85.881 80.7853 85.5322 80.8103C85.1834 80.8352 84.8351 80.7562 84.5312 80.5833C84.2273 80.4103 83.9815 80.1511 83.8249 79.8385C83.6682 79.5259 83.6077 79.1739 83.6511 78.8269C83.6945 78.48 83.8397 78.1537 84.0685 77.8892C84.2972 77.6248 84.5992 77.4341 84.9363 77.3412C85.2734 77.2484 85.6305 77.2575 85.9624 77.3675C86.1831 77.4407 86.3872 77.5566 86.563 77.7087C86.7388 77.8608 86.8829 78.0461 86.9871 78.2539C87.0912 78.4618 87.1534 78.6881 87.17 78.92C87.1866 79.1519 87.1573 79.3848 87.0838 79.6054Z" fill="#364FD4"/>
<path opacity="0.5" d="M13 122C13.7927 118.12 16.8806 115.225 20.5718 115.225C21.2494 115.225 21.9066 115.323 22.5333 115.506C24.3551 111.125 28.3088 108.09 32.8935 108.09C34.0788 108.09 35.222 108.292 36.2969 108.669C38.7653 104.073 43.2494 101 48.372 101C54.4667 101 59.6578 105.35 61.6247 111.439C63.0172 110.566 64.6199 110.067 66.3271 110.067C71.6693 110.067 76 114.937 76 120.944C76 121.301 75.9838 121.653 75.954 122L13 122Z" fill="white"/>
<path opacity="0.5" d="M243 66C244.346 59.5328 249.591 54.7081 255.86 54.7081C257.011 54.7081 258.127 54.8713 259.191 55.1768C262.286 47.8751 269.001 42.8159 276.787 42.8159C278.801 42.8159 280.742 43.154 282.568 43.7815C286.76 36.1217 294.376 31 303.076 31C313.428 31 322.244 38.2498 325.585 48.3988C327.95 46.9441 330.672 46.1119 333.571 46.1119C342.645 46.1119 350 54.2285 350 64.2407C350 64.8345 349.972 65.4209 349.922 65.9998L243 66Z" fill="white"/>
</svg>
