<svg width="372" height="226" viewBox="0 0 372 226" fill="none" xmlns="http://www.w3.org/2000/svg">
<path d="M62.2122 43.3784C-13.647 133.647 -12.2377 152.421 24.4398 157.197C17.4599 179.715 74.5284 151.875 108.196 183.4C147.284 220.001 322.923 225.98 308.964 165.795C297.739 117.401 356.493 123.821 370.139 76.9508C384.919 26.1827 290.077 -28.2702 249.842 16.766C200.784 71.678 111.069 -14.7593 62.2122 43.3784Z" fill="#E8F2FD"/>
<path d="M193.967 176.953H151.719V209.447H193.967V176.953Z" fill="#C8E0FB"/>
<path d="M183.383 209.221C183.326 209.221 183.278 201.976 183.278 193.041C183.278 184.105 183.326 176.86 183.383 176.86C183.44 176.86 183.488 184.105 183.488 193.041C183.488 201.976 183.44 209.221 183.383 209.221Z" fill="#B3CBFC"/>
<path d="M190.385 202.053H187.148V205.706H190.385V202.053Z" fill="#E8F2FD"/>
<path d="M169.409 177.038H164.61V183.972H169.409V177.038Z" fill="#B3CBFC"/>
<path d="M169.409 202.417H164.61V209.351H169.409V202.417Z" fill="#B3CBFC"/>
<path d="M270.629 168.807H217.356V209.779H270.629V168.807Z" fill="#C8E0FB"/>
<path d="M257.279 209.488C257.222 209.488 257.173 200.358 257.173 189.093C257.173 177.827 257.222 168.698 257.279 168.698C257.336 168.698 257.384 177.827 257.384 189.093C257.384 200.358 257.34 209.488 257.279 209.488Z" fill="#B3CBFC"/>
<path d="M266.11 200.451H262.026V205.055H266.11V200.451Z" fill="#E8F2FD"/>
<path d="M239.657 168.912H233.605V177.653H239.657V168.912Z" fill="#B3CBFC"/>
<path d="M239.657 200.912H233.605V209.654H239.657V200.912Z" fill="#B3CBFC"/>
<path d="M144.497 61.1028C146.41 63.4372 147.446 66.3643 147.426 69.379C147.406 71.086 147.089 72.967 148.087 74.3544C148.842 75.4062 150.221 75.9361 150.833 77.0768C151.572 78.4481 150.943 80.1834 151.397 81.672C152.038 83.7835 154.521 84.6694 155.993 86.3157C156.621 87.0437 157.06 87.9141 157.272 88.8506C157.484 89.7871 157.463 90.7612 157.21 91.6876C156.942 92.6101 156.457 93.4555 155.795 94.1534C155.133 94.8513 154.314 95.3816 153.405 95.7003C152.435 96.0817 151.353 96.0642 150.395 95.6517C149.402 95.1582 148.773 94.1429 148.286 93.1519C147.308 91.2022 138.721 80.6648 138.234 78.537" fill="#263238"/>
<path d="M138.251 58.6191C134.738 58.0528 131.355 60.3787 129.882 63.6066C128.41 66.8346 128.361 70.4833 128.26 74.0429C128.158 77.6026 127.899 81.2917 126.085 84.3417C124.933 86.2793 123.149 87.9822 122.869 90.2111C122.617 92.2093 123.656 94.2238 123.311 96.2099C123.011 97.9412 121.688 99.446 121.741 101.197C121.806 103.309 123.984 104.899 126.098 104.955C128.211 105.012 130.191 103.908 131.85 102.597C134.553 100.457 136.716 97.7153 138.165 94.5919" fill="#263238"/>
<path d="M132.47 66.9681C132.36 66.0869 132.428 65.1926 132.671 64.3383C132.914 63.4839 133.326 62.6869 133.884 61.9946C134.442 61.3023 135.133 60.7287 135.917 60.308C136.702 59.8873 137.563 59.628 138.449 59.5454C141.99 59.2056 145.142 61.839 145.674 65.3501C146.14 68.4284 146.538 71.535 146.526 72.6636C146.481 76.0655 144.497 77.3882 143.686 77.7887C143.394 77.8931 143.092 77.9677 142.786 78.0112V78.0112V78.0354L143.54 81.943C143.885 84.5035 142.453 86.7971 139.889 87.1571C137.326 87.5171 135.31 85.5633 134.916 83.0028L132.47 66.9681Z" fill="#FFBE9D"/>
<path d="M144.976 66.8386C144.92 66.9195 144.469 66.6809 143.893 66.7658C143.317 66.8508 142.932 67.1986 142.859 67.138C142.786 67.0773 142.859 66.9762 143.037 66.8144C143.259 66.5989 143.543 66.4575 143.849 66.4099C144.149 66.3637 144.456 66.4147 144.725 66.5555C144.928 66.6849 145.005 66.8063 144.976 66.8386Z" fill="#263238"/>
<path d="M139.841 68.0846C139.785 68.1655 139.334 67.9228 138.754 68.0077C138.174 68.0927 137.797 68.4446 137.724 68.3839C137.651 68.3232 137.724 68.2181 137.902 68.0603C138.124 67.8448 138.408 67.7035 138.714 67.6558C139.014 67.6131 139.321 67.6655 139.59 67.8055C139.789 67.9309 139.87 68.0482 139.841 68.0846Z" fill="#263238"/>
<path d="M141.946 71.1709C142.236 71.0317 142.543 70.9298 142.858 70.8675C143.004 70.8311 143.138 70.7826 143.15 70.6774C143.137 70.5296 143.081 70.3889 142.988 70.2729L142.384 69.1969C141.544 67.6921 140.915 66.4463 140.976 66.4099C141.037 66.3735 141.788 67.5748 142.599 69.0796C142.806 69.4518 143.004 69.8077 143.183 70.1435C143.301 70.308 143.358 70.508 143.345 70.7098C143.332 70.765 143.306 70.8163 143.269 70.8598C143.233 70.9033 143.186 70.9378 143.134 70.9606C143.055 70.9951 142.972 71.0195 142.887 71.0334C142.58 71.1199 142.264 71.1662 141.946 71.1709Z" fill="#263238"/>
<path d="M142.753 78.0152C142.753 78.0152 140.55 78.5209 137.516 77.2548C137.516 77.2548 138.826 80.0661 142.96 79.067L142.753 78.0152Z" fill="#EB996E"/>
<path d="M139.546 66.5757C139.513 66.7416 138.925 66.7496 138.26 66.9317C137.594 67.1137 137.071 67.3726 136.962 67.2472C136.913 67.1865 136.986 67.0247 137.185 66.8427C137.452 66.6144 137.769 66.4499 138.109 66.3616C138.45 66.2733 138.807 66.2635 139.152 66.333C139.42 66.3937 139.546 66.4988 139.546 66.5757Z" fill="#263238"/>
<path d="M144.503 65.5645C144.422 65.7101 144.004 65.6333 143.525 65.694C143.046 65.7546 142.653 65.9124 142.539 65.787C142.491 65.7263 142.539 65.5888 142.694 65.4391C142.906 65.2511 143.173 65.135 143.456 65.1074C143.736 65.0739 144.019 65.1261 144.267 65.2571C144.462 65.3663 144.539 65.4917 144.503 65.5645Z" fill="#263238"/>
<path d="M138.588 68.8288C138.597 68.8914 138.618 68.9516 138.651 69.0059C138.683 69.0603 138.726 69.1076 138.777 69.1452C138.828 69.1829 138.886 69.21 138.947 69.2252C139.009 69.2403 139.073 69.2431 139.136 69.2333C139.197 69.2263 139.255 69.2073 139.309 69.1774C139.362 69.1475 139.409 69.1073 139.447 69.0591C139.485 69.0109 139.513 68.9557 139.529 68.8968C139.545 68.8378 139.549 68.7762 139.541 68.7155C139.522 68.5896 139.454 68.4763 139.351 68.4005C139.249 68.3247 139.12 68.2925 138.994 68.311C138.933 68.3175 138.873 68.3362 138.82 68.3659C138.766 68.3957 138.719 68.4359 138.681 68.4842C138.643 68.5325 138.615 68.5879 138.599 68.6471C138.583 68.7063 138.58 68.7681 138.588 68.8288V68.8288Z" fill="#263238"/>
<path d="M143.703 67.7246C143.722 67.8505 143.79 67.9638 143.893 68.0396C143.995 68.1155 144.124 68.1476 144.25 68.1291C144.311 68.1221 144.37 68.1031 144.424 68.0732C144.477 68.0432 144.524 68.003 144.562 67.9549C144.6 67.9067 144.627 67.8515 144.643 67.7925C144.66 67.7335 144.664 67.6719 144.656 67.6113C144.637 67.4853 144.569 67.372 144.466 67.2962C144.363 67.2204 144.235 67.1882 144.108 67.2068C144.047 67.2133 143.988 67.2319 143.934 67.2617C143.88 67.2914 143.833 67.3316 143.795 67.3799C143.758 67.4282 143.73 67.4836 143.714 67.5428C143.698 67.602 143.694 67.6638 143.703 67.7246Z" fill="#263238"/>
<path d="M142.856 72.2874C142.696 72.238 142.525 72.2457 142.371 72.3093C142.216 72.3728 142.09 72.4882 142.012 72.6353C141.938 72.7704 141.907 72.9252 141.926 73.0782C141.944 73.2312 142.009 73.3747 142.113 73.4888C142.224 73.5971 142.369 73.6626 142.524 73.6738C142.678 73.6849 142.832 73.6408 142.957 73.5495C143.113 73.4074 143.208 73.21 143.221 72.9993C143.248 72.8062 143.202 72.6098 143.091 72.4492C143.034 72.3707 142.952 72.3131 142.859 72.2853C142.766 72.2575 142.667 72.2611 142.576 72.2955" fill="#EB996E"/>
<path d="M145.224 62.5792C144.905 61.2976 144.111 60.1843 143.001 59.4645C142.092 58.8101 141.013 58.4321 139.894 58.3764C138.767 58.328 137.668 58.7265 136.835 59.4847C136.244 60.0686 135.907 60.86 135.894 61.6893L135.959 61.123C135.788 61.5838 135.788 62.0901 135.959 62.5509V62.5509C136.052 62.7976 136.166 63.0484 136.263 63.2952C136.554 64.0082 137.092 64.5928 137.78 64.9415C138.092 65.1082 138.441 65.1931 138.794 65.1883C138.971 65.1847 139.145 65.1427 139.304 65.0652C139.463 64.9876 139.604 64.8764 139.715 64.7393C139.967 64.3008 140.045 63.7842 139.934 63.2911C140.2 63.7784 140.58 64.1946 141.042 64.5047C141.277 64.6548 141.557 64.7195 141.835 64.6878C142.113 64.6561 142.371 64.53 142.567 64.3307C142.899 63.9262 142.77 63.2871 142.567 62.7855C142.881 63.2586 143.32 63.6354 143.836 63.8736C143.972 63.9513 144.123 64.0001 144.279 64.0168C144.434 64.0335 144.592 64.0178 144.741 63.9707C144.86 63.9117 144.965 63.8264 145.046 63.7213C145.128 63.6162 145.184 63.494 145.212 63.364C145.272 63.1062 145.276 62.8387 145.224 62.5792Z" fill="#263238"/>
<path d="M142.29 63.6552C142.254 63.6552 142.262 63.1738 142.104 62.4417C141.921 61.4688 141.431 60.5798 140.704 59.9054C140.305 59.5433 139.823 59.2837 139.301 59.149C138.873 59.0443 138.427 59.0332 137.995 59.1166C137.596 59.2096 137.215 59.3667 136.867 59.5818C136.867 59.5818 136.936 59.4807 137.114 59.3512C137.37 59.1726 137.658 59.0436 137.962 58.971C138.417 58.8648 138.89 58.8648 139.345 58.971C139.906 59.1106 140.422 59.3888 140.846 59.78C141.607 60.4823 142.104 61.423 142.254 62.4457C142.302 62.7481 142.326 63.0538 142.327 63.3599C142.332 63.4597 142.319 63.5596 142.29 63.6552V63.6552Z" fill="#455A64"/>
<path d="M179.65 110.817L164.053 104.648C164.053 104.648 156.066 94.1996 156.232 93.9973L150.622 100.122L158.775 111.12L177.674 115.537L180.919 114.639C180.206 111.205 179.65 110.817 179.65 110.817Z" fill="#FFBE9D"/>
<path d="M145.657 81.0086L143.532 80.1996L134.356 81.3605V82.9785L134.093 83.0109C132.115 83.4303 130.218 84.1651 128.474 85.1872C126.842 86.1811 125.544 87.6394 124.749 89.3744C123.954 91.1095 123.697 93.042 124.012 94.9237C124.386 97.2374 125.108 100.049 126.503 101.675C129.168 104.786 131.602 100.943 131.602 100.943C131.602 100.943 133.273 104.745 133.176 106.545C133.095 108.054 132.429 111.193 132.214 112.172C132.206 112.211 132.205 112.251 132.212 112.291C132.22 112.33 132.235 112.368 132.257 112.401C132.28 112.434 132.309 112.463 132.342 112.485C132.376 112.506 132.414 112.521 132.454 112.528L151.811 116.1L151.904 111.379L151.288 91.9627L150.416 84.4226C150.416 84.4226 150.444 80.8225 145.657 81.0086Z" fill="#FEB546"/>
<path d="M150.12 83.1686L157.503 93.8031L151.56 101.019L150.12 83.1686Z" fill="#FEB546"/>
<path d="M151.714 105.546C151.687 105.318 151.678 105.088 151.686 104.858C151.686 104.381 151.686 103.754 151.661 102.989C151.625 100.938 151.478 98.889 151.219 96.8531C150.915 94.4665 150.448 92.3347 150.095 90.7855L149.666 88.9652C149.603 88.745 149.557 88.5206 149.528 88.2937C149.62 88.5039 149.693 88.7218 149.747 88.945C149.872 89.3495 150.043 89.9845 150.237 90.7531C150.761 92.7489 151.16 94.7754 151.43 96.8207C151.691 98.8652 151.818 100.924 151.811 102.985C151.811 103.794 151.791 104.417 151.767 104.858C151.769 105.089 151.751 105.319 151.714 105.546V105.546Z" fill="#263238"/>
<path d="M133.542 89.3779C133.542 89.4102 132.982 89.4062 132.085 89.4507C130.916 89.5139 129.752 89.664 128.605 89.8997C127.458 90.1397 126.33 90.4628 125.23 90.8664C124.386 91.1779 123.879 91.4085 123.863 91.3761C123.967 91.2949 124.082 91.2282 124.204 91.1779C124.427 91.0566 124.759 90.9029 125.177 90.7289C127.366 89.8276 129.705 89.3445 132.073 89.3051C132.527 89.3051 132.884 89.3051 133.148 89.3293C133.281 89.3251 133.414 89.3414 133.542 89.3779Z" fill="#FAFAFA"/>
<path d="M150.639 94.2441C150.342 94.3516 150.032 94.4196 149.718 94.4464C148.218 94.6647 146.698 94.7163 145.187 94.6001C144.871 94.5946 144.558 94.5484 144.254 94.4625C144.567 94.4348 144.882 94.4348 145.195 94.4625C145.771 94.4625 146.57 94.4625 147.45 94.4625C148.331 94.4625 149.126 94.3735 149.702 94.321C150.011 94.2671 150.325 94.2413 150.639 94.2441Z" fill="#FAFAFA"/>
<path d="M154.026 89.4345C153.579 89.9497 153.043 90.3812 152.444 90.7087C151.878 91.09 151.247 91.3642 150.582 91.5177C150.558 91.4611 151.393 91.1132 152.335 90.5145C153.276 89.9159 153.986 89.3859 154.026 89.4345Z" fill="#FAFAFA"/>
<path d="M151.044 84.5035C149.764 85.6516 148.134 86.3357 146.416 86.4452C146.416 86.3805 147.531 86.2106 148.813 85.6645C150.095 85.1184 151.004 84.4509 151.044 84.5035Z" fill="#FAFAFA"/>
<path d="M151.447 102.48C151.327 102.56 151.199 102.626 151.065 102.678C150.81 102.799 150.441 102.949 149.97 103.123C148.747 103.561 147.486 103.881 146.202 104.078C144.918 104.275 143.617 104.347 142.32 104.292C141.821 104.272 141.419 104.235 141.143 104.199C140.999 104.189 140.856 104.164 140.717 104.122C140.717 104.086 141.334 104.122 142.34 104.146C144.919 104.17 147.485 103.777 149.938 102.981C150.862 102.678 151.434 102.447 151.447 102.48Z" fill="#FAFAFA"/>
<path d="M151.596 107.961C151.596 107.961 151.539 108.001 151.422 108.062L150.902 108.289C150.456 108.499 149.795 108.774 148.968 109.098C148.14 109.421 147.138 109.733 146.01 110.04C143.559 110.698 141.042 111.088 138.506 111.201C137.338 111.246 136.287 111.241 135.403 111.201C134.519 111.161 133.809 111.096 133.318 111.027L132.754 110.95C132.688 110.945 132.622 110.932 132.559 110.91C132.625 110.899 132.692 110.899 132.758 110.91L133.326 110.946C133.817 110.987 134.543 111.027 135.407 111.051C136.271 111.076 137.338 111.051 138.498 111.011C139.658 110.97 140.932 110.825 142.258 110.606C143.585 110.388 144.834 110.125 145.962 109.842C147.089 109.559 148.087 109.239 148.915 108.944C149.742 108.649 150.416 108.402 150.87 108.216L151.397 108.009C151.462 107.986 151.528 107.97 151.596 107.961V107.961Z" fill="#FAFAFA"/>
<path d="M116.017 193.955L113.823 203.837L109.819 211.155C109.751 211.28 109.71 211.417 109.697 211.559C109.684 211.7 109.701 211.843 109.746 211.978C109.791 212.113 109.863 212.237 109.958 212.344C110.053 212.45 110.168 212.535 110.298 212.595V212.595C110.448 212.664 110.613 212.695 110.778 212.688C110.943 212.68 111.104 212.633 111.247 212.55C113.105 211.482 119.924 207.506 120.041 206.774C120.183 205.928 123.051 196.503 123.051 196.503L116.017 193.955Z" fill="#37474F"/>
<g opacity="0.6">
<path opacity="0.6" d="M110.297 212.595L120.207 206.123L120.102 206.527C120.015 206.888 119.802 207.207 119.501 207.425C118.69 208.004 116.431 209.557 111.279 212.558C111.131 212.645 110.964 212.693 110.793 212.7C110.621 212.706 110.451 212.67 110.297 212.595V212.595Z" fill="white"/>
</g>
<g opacity="0.6">
<path opacity="0.6" d="M118.962 202.446C118.819 202.505 118.703 202.615 118.637 202.755C118.57 202.895 118.557 203.054 118.601 203.202C118.656 203.346 118.763 203.465 118.902 203.532C119.041 203.6 119.2 203.612 119.348 203.566C119.501 203.503 119.625 203.385 119.696 203.235C119.766 203.086 119.778 202.915 119.729 202.757C119.657 202.614 119.533 202.504 119.382 202.449C119.231 202.394 119.065 202.398 118.918 202.462" fill="white"/>
</g>
<path d="M113.608 208.849C113.445 208.485 113.215 208.155 112.931 207.874C112.604 207.647 112.236 207.484 111.848 207.393C111.848 207.365 111.99 207.32 112.229 207.344C112.541 207.384 112.834 207.514 113.073 207.717C113.314 207.912 113.492 208.173 113.584 208.469C113.653 208.7 113.633 208.849 113.608 208.849Z" fill="#263238"/>
<path d="M112.582 209.994C112.525 210.026 112.285 209.63 111.811 209.359C111.508 209.218 111.196 209.098 110.878 208.999C111.053 208.941 111.239 208.927 111.421 208.956C111.603 208.984 111.776 209.056 111.924 209.165C112.464 209.476 112.638 209.982 112.582 209.994Z" fill="#263238"/>
<path d="M115.329 207.482C114.984 207.1 114.609 206.746 114.209 206.422C113.768 206.154 113.307 205.92 112.83 205.722C113.378 205.711 113.913 205.895 114.339 206.24C114.808 206.521 115.16 206.962 115.329 207.482Z" fill="#263238"/>
<path d="M116.249 204.533C116.208 204.586 115.717 204.226 115.032 204.027C114.346 203.829 113.726 203.862 113.722 203.793C114.173 203.676 114.648 203.684 115.095 203.814C115.543 203.944 115.947 204.193 116.265 204.533H116.249Z" fill="#263238"/>
<path d="M116.967 201.649C116.571 201.405 116.144 201.216 115.697 201.087C115.237 201.024 114.77 201.024 114.31 201.087C114.31 201.062 114.436 200.965 114.696 200.888C115.037 200.796 115.395 200.784 115.742 200.855C116.088 200.925 116.413 201.075 116.691 201.293C116.898 201.487 116.983 201.633 116.967 201.649Z" fill="#263238"/>
<path d="M115.847 200.541C115.847 200.412 115.875 200.285 115.928 200.168C116.043 199.834 116.225 199.528 116.464 199.266C116.619 199.059 116.839 198.909 117.088 198.838C117.173 198.824 117.26 198.836 117.338 198.872C117.417 198.908 117.482 198.966 117.526 199.04C117.601 199.191 117.617 199.364 117.571 199.525C117.467 199.85 117.253 200.128 116.966 200.312C116.679 200.497 116.336 200.576 115.997 200.537C115.662 200.489 115.35 200.344 115.098 200.119C114.846 199.895 114.666 199.601 114.581 199.274C114.562 199.192 114.56 199.105 114.576 199.022C114.592 198.938 114.626 198.859 114.675 198.789C114.731 198.724 114.806 198.678 114.89 198.658C114.974 198.639 115.062 198.646 115.141 198.68C115.37 198.794 115.566 198.965 115.709 199.177C115.924 199.458 116.087 199.774 116.192 200.112C116.241 200.232 116.265 200.362 116.261 200.492C116.097 200.056 115.869 199.647 115.583 199.279C115.45 199.106 115.278 198.967 115.08 198.874C115.037 198.855 114.988 198.851 114.942 198.862C114.896 198.873 114.855 198.898 114.825 198.935C114.796 198.982 114.778 199.035 114.771 199.09C114.764 199.145 114.769 199.201 114.784 199.254C114.869 199.529 115.029 199.774 115.248 199.961C115.466 200.149 115.733 200.271 116.017 200.314C116.304 200.347 116.594 200.283 116.839 200.131C117.085 199.978 117.271 199.748 117.368 199.477C117.407 199.367 117.407 199.247 117.368 199.137C117.345 199.095 117.31 199.062 117.267 199.042C117.224 199.022 117.176 199.015 117.129 199.024C116.917 199.082 116.729 199.203 116.589 199.372C116.278 199.717 116.027 200.112 115.847 200.541V200.541Z" fill="#263238"/>
<g opacity="0.3">
<path opacity="0.3" d="M115.75 195.027L115.276 197.292L122.451 198.481L123.052 196.503L116.006 193.955L115.75 195.027Z" fill="black"/>
</g>
<path d="M148.063 197.612L147.47 205.508C147.47 205.508 155.324 208.744 155.356 210.232L139.942 209.638L140.347 197.292L148.063 197.612Z" fill="#37474F"/>
<g opacity="0.6">
<path opacity="0.6" d="M142.745 204.658C142.596 204.698 142.466 204.792 142.381 204.921C142.295 205.05 142.261 205.205 142.283 205.358C142.317 205.508 142.407 205.64 142.535 205.727C142.663 205.813 142.82 205.848 142.972 205.823C143.131 205.781 143.269 205.682 143.359 205.544C143.449 205.407 143.485 205.241 143.459 205.079C143.408 204.925 143.299 204.797 143.155 204.722C143.012 204.647 142.844 204.63 142.688 204.674" fill="white"/>
</g>
<g opacity="0.6">
<path opacity="0.6" d="M139.95 209.638L140.039 208.392L154.784 209.415C154.784 209.415 155.462 209.739 155.364 210.224L139.95 209.638Z" fill="white"/>
</g>
<path d="M147.731 205.439C147.731 205.516 147.35 205.536 146.972 205.763C146.595 205.989 146.384 206.297 146.315 206.264C146.246 206.232 146.376 205.803 146.839 205.536C147.301 205.269 147.751 205.37 147.731 205.439Z" fill="#263238"/>
<path d="M149.32 206.179C149.32 206.256 149.004 206.369 148.736 206.677C148.469 206.984 148.383 207.316 148.306 207.312C148.229 207.308 148.201 206.879 148.542 206.503C148.882 206.127 149.32 206.098 149.32 206.179Z" fill="#263238"/>
<path d="M150.165 208.133C150.096 208.133 150.007 207.765 150.213 207.365C150.42 206.964 150.781 206.81 150.81 206.875C150.838 206.94 150.615 207.15 150.449 207.482C150.282 207.814 150.238 208.129 150.165 208.133Z" fill="#263238"/>
<path d="M147.658 203.627C147.626 203.692 147.285 203.574 146.847 203.586C146.409 203.599 146.084 203.72 146.036 203.655C145.987 203.59 146.328 203.336 146.847 203.328C147.366 203.319 147.707 203.57 147.658 203.627Z" fill="#263238"/>
<g opacity="0.3">
<path opacity="0.3" d="M147.953 199.177L147.848 200.585L140.283 200.221L140.335 198.595L147.953 199.177Z" fill="black"/>
</g>
<path d="M147.759 202.029C147.504 202.09 147.237 202.079 146.989 201.997C146.707 201.938 146.435 201.845 146.177 201.718C146.027 201.644 145.882 201.56 145.743 201.467C145.659 201.415 145.582 201.351 145.516 201.277C145.471 201.219 145.447 201.148 145.447 201.074C145.447 201.001 145.471 200.93 145.516 200.872C145.556 200.821 145.607 200.78 145.665 200.753C145.724 200.725 145.788 200.712 145.853 200.714C145.95 200.718 146.047 200.735 146.141 200.763C146.303 200.81 146.461 200.872 146.611 200.949C146.868 201.074 147.102 201.239 147.305 201.438C147.65 201.782 147.759 202.069 147.735 202.082C147.711 202.094 147.536 201.863 147.183 201.576C146.976 201.414 146.75 201.279 146.51 201.171C146.367 201.112 146.221 201.061 146.072 201.018C145.91 200.969 145.772 200.965 145.727 201.018C145.682 201.07 145.727 201.058 145.727 201.107C145.776 201.16 145.832 201.206 145.893 201.244C146.023 201.335 146.159 201.417 146.299 201.491C146.533 201.62 146.779 201.725 147.033 201.807C147.28 201.863 147.523 201.938 147.759 202.029V202.029Z" fill="#263238"/>
<path d="M147.658 202.134C147.523 201.908 147.462 201.645 147.484 201.382C147.485 201.097 147.532 200.815 147.622 200.545C147.68 200.386 147.752 200.233 147.837 200.087C147.882 199.987 147.953 199.901 148.042 199.836C148.13 199.77 148.234 199.729 148.344 199.715C148.413 199.72 148.48 199.744 148.536 199.785C148.592 199.826 148.635 199.881 148.66 199.946C148.695 200.037 148.717 200.132 148.725 200.229C148.752 200.401 148.752 200.575 148.725 200.747C148.671 201.033 148.547 201.301 148.364 201.528C148.048 201.932 147.731 201.993 147.723 201.968C147.715 201.944 147.966 201.795 148.214 201.418C148.356 201.204 148.449 200.961 148.486 200.706C148.506 200.559 148.506 200.409 148.486 200.261C148.465 200.1 148.409 199.962 148.348 199.978C148.287 199.994 148.137 200.092 148.068 200.221C147.989 200.35 147.92 200.486 147.861 200.625C147.767 200.87 147.707 201.126 147.683 201.386C147.63 201.839 147.699 202.134 147.658 202.134Z" fill="#263238"/>
<path d="M132.129 112.455C132.129 112.455 129.695 112.564 128.073 120.865C126.45 129.165 114.082 196.423 114.082 196.423L123.051 196.504L139.95 132.559L138.826 198.494L147.937 199.189C147.937 199.189 154.772 126.261 154.833 122.018C154.914 116.727 151.868 111.375 151.868 111.375L132.129 112.455Z" fill="#263876"/>
<path d="M144.457 111.747C144.514 111.747 143.581 116.5 142.376 122.337C141.171 128.174 140.149 132.899 140.092 132.887C140.035 132.874 140.964 128.134 142.169 122.297C143.374 116.46 144.412 111.735 144.457 111.747Z" fill="#455A64"/>
<path d="M145.853 112.932C145.853 112.908 146.096 112.835 146.376 113.082C146.455 113.154 146.518 113.242 146.56 113.341C146.602 113.439 146.623 113.545 146.619 113.652C146.609 113.788 146.561 113.917 146.48 114.026C146.398 114.135 146.288 114.219 146.161 114.267C146.037 114.323 145.9 114.343 145.765 114.326C145.63 114.308 145.503 114.252 145.398 114.166C145.32 114.093 145.258 114.004 145.217 113.905C145.175 113.805 145.156 113.699 145.159 113.592C145.159 113.22 145.411 113.09 145.415 113.114C145.346 113.263 145.31 113.424 145.309 113.588C145.315 113.67 145.336 113.75 145.373 113.824C145.41 113.897 145.461 113.963 145.524 114.016C145.604 114.071 145.697 114.105 145.793 114.115C145.89 114.125 145.988 114.111 146.077 114.074C146.167 114.036 146.246 113.977 146.307 113.901C146.367 113.825 146.408 113.736 146.425 113.64C146.431 113.558 146.42 113.476 146.394 113.398C146.367 113.32 146.325 113.249 146.27 113.187C146.072 112.957 145.849 112.965 145.853 112.932Z" fill="#455A64"/>
<path d="M145.467 116.217C145.467 116.193 145.718 116.217 145.873 116.553C145.912 116.648 145.93 116.752 145.925 116.855C145.92 116.958 145.892 117.06 145.844 117.151C145.774 117.26 145.676 117.348 145.56 117.406C145.444 117.463 145.314 117.488 145.185 117.478C145.056 117.468 144.932 117.422 144.826 117.347C144.721 117.272 144.638 117.169 144.587 117.05C144.554 116.953 144.544 116.849 144.556 116.747C144.568 116.645 144.602 116.547 144.656 116.46C144.846 116.156 145.106 116.164 145.098 116.189C145.09 116.213 144.903 116.269 144.786 116.528C144.726 116.674 144.726 116.836 144.786 116.981C144.828 117.062 144.89 117.13 144.966 117.18C145.042 117.23 145.129 117.26 145.22 117.267C145.31 117.274 145.401 117.259 145.484 117.221C145.567 117.184 145.639 117.127 145.694 117.054C145.771 116.916 145.789 116.753 145.747 116.601C145.629 116.326 145.447 116.245 145.467 116.217Z" fill="#455A64"/>
<path d="M136.872 113.013C136.855 113.152 136.82 113.288 136.767 113.418C136.64 113.788 136.481 114.147 136.292 114.49C135.673 115.634 134.779 116.607 133.69 117.322C132.602 118.037 131.352 118.472 130.053 118.587C129.663 118.621 129.271 118.621 128.881 118.587C128.744 118.583 128.607 118.561 128.475 118.523C128.475 118.482 129.088 118.551 130.057 118.429C131.321 118.277 132.532 117.834 133.594 117.135C134.657 116.437 135.543 115.502 136.183 114.405C136.657 113.588 136.836 113.001 136.872 113.013Z" fill="#455A64"/>
<path d="M154.322 118.915C154.322 118.915 154.217 118.866 154.05 118.753C153.818 118.586 153.601 118.4 153.401 118.195C152.734 117.521 152.214 116.718 151.872 115.835C151.531 114.951 151.376 114.007 151.418 113.062C151.427 112.777 151.464 112.494 151.527 112.216C151.572 112.018 151.6 111.913 151.616 111.917C151.633 111.921 151.568 112.358 151.568 113.066C151.568 114.924 152.261 116.716 153.511 118.094C153.985 118.616 154.342 118.882 154.322 118.915Z" fill="#455A64"/>
<path d="M185.788 119.149C185.922 118.826 185.885 118.955 183.735 117.531C183.735 117.531 186.818 119.554 186.498 118.591C186.22 118.227 185.881 117.913 185.496 117.665C186.307 118.142 186.778 118.195 186.92 118.001C187.163 117.665 185.398 116.383 184.559 115.804C185.326 116.352 186.131 116.845 186.968 117.281C187.467 117.434 187.228 116.852 186.891 116.427C186.554 116.002 183.942 113.494 183.24 112.746C183.174 112.689 183.12 112.618 183.083 112.539C183.046 112.459 183.027 112.373 183.027 112.285C183.027 112.197 183.046 112.111 183.083 112.031C183.12 111.951 183.174 111.881 183.24 111.824C184.498 111.015 185.05 109.724 185.033 109.3C185.019 109.204 184.975 109.115 184.908 109.046C184.84 108.977 184.752 108.931 184.656 108.915C184.561 108.899 184.463 108.913 184.376 108.956C184.289 108.999 184.218 109.068 184.173 109.154C183.856 109.548 183.486 109.896 183.074 110.19C182.755 110.438 182.395 110.631 182.011 110.76C181.565 110.906 179.371 110.784 178.9 110.546L177.403 115.606C177.403 115.606 182.835 118.138 183.865 118.632C185.131 119.23 185.695 119.396 185.788 119.149Z" fill="#FFBE9D"/>
<path d="M182.758 116.783C182.713 116.844 183.419 117.358 184.332 117.936C185.244 118.515 186.011 118.931 186.048 118.87C186.084 118.81 185.378 118.292 184.47 117.718C183.561 117.143 182.798 116.706 182.758 116.783Z" fill="#EB996E"/>
<path d="M183.268 115.792C183.228 115.853 183.95 116.443 184.891 117.115C185.832 117.786 186.611 118.284 186.651 118.227C186.692 118.171 185.974 117.576 185.029 116.905C184.084 116.233 183.313 115.736 183.268 115.792Z" fill="#EB996E"/>
<path d="M183.808 114.789C183.768 114.846 184.441 115.42 185.313 116.067C186.185 116.714 186.936 117.192 186.968 117.135C187.001 117.078 186.339 116.504 185.467 115.857C184.595 115.21 183.853 114.732 183.808 114.789Z" fill="#EB996E"/>
<path d="M128.564 96.4607L132.547 96.6792C132.829 97.7881 133.207 98.8708 133.675 99.9152C136.883 94.3654 139.354 86.9265 139.987 83.9372C139.897 83.6432 139.788 83.3115 139.658 82.9421C139.561 82.3836 139.577 81.8113 139.707 81.2593C139.816 80.596 140.003 79.698 140.056 79.2854C140.23 78.0233 140.433 77.821 140.867 77.9667C141.467 78.1608 140.619 81.5142 141.11 81.587C141.378 81.6234 141.698 80.4746 141.796 79.5321C141.893 78.5896 142.315 75.6933 142.627 75.487C143.086 75.2039 143.483 75.6529 143.37 76.5913C143.256 77.5298 143.106 80.3735 143.605 80.4099C144.104 80.4463 144.51 75.6407 144.51 75.6407C144.51 75.6407 144.432 74.5971 145.008 74.6214C146.051 74.6659 145.24 79.7344 145.15 80.2157C145.086 80.5474 145.629 80.6202 145.678 80.2481C145.726 79.8759 145.978 75.4385 147.037 75.4749C147.848 75.5032 146.408 79.6494 146.866 80.6121C147.325 81.5749 147.641 77.3478 148.42 77.4044C148.708 77.4287 148.923 77.4853 148.392 79.8759C147.873 81.7769 147.251 83.6485 146.53 85.4824C145.313 92.1163 139.881 113.337 131.395 109.453C126.649 107.281 124.43 96.5093 124.43 96.5093L128.564 96.4607Z" fill="#FFBE9D"/>
<path d="M146.538 85.5188C146.545 85.4687 146.558 85.4197 146.578 85.3732C146.615 85.268 146.659 85.1305 146.72 84.9687C146.854 84.5844 147.037 84.0505 147.276 83.3507C147.515 82.6509 147.803 81.8014 148.087 80.7982C148.233 80.3007 148.355 79.7586 148.465 79.1802C148.521 78.8889 148.574 78.5896 148.611 78.2822C148.621 78.13 148.621 77.9773 148.611 77.8251C148.611 77.6673 148.574 77.5379 148.448 77.5338C148.323 77.5298 148.233 77.6067 148.144 77.7401C148.063 77.883 147.997 78.0334 147.945 78.1891C147.832 78.5087 147.743 78.8485 147.653 79.1923C147.564 79.5362 147.483 79.8962 147.377 80.2602C147.331 80.4596 147.249 80.6489 147.134 80.8184C147.105 80.8516 147.067 80.8756 147.025 80.8872C146.998 80.8931 146.97 80.8928 146.943 80.8865C146.917 80.8802 146.892 80.868 146.87 80.8508C146.824 80.8082 146.785 80.7575 146.757 80.7011C146.714 80.6018 146.685 80.4969 146.672 80.3897C146.653 79.5738 146.735 78.7587 146.915 77.9626C146.984 77.5581 147.057 77.1536 147.11 76.7491C147.134 76.5428 147.158 76.3446 147.162 76.1262C147.167 75.9077 147.134 75.6772 147.049 75.6407C146.964 75.6043 146.757 75.7176 146.643 75.8875C146.531 76.0669 146.442 76.26 146.38 76.4619C146.241 76.8844 146.137 77.3173 146.067 77.7563C145.99 78.2013 145.929 78.6543 145.877 79.1155C145.856 79.346 145.832 79.5766 145.812 79.8112L145.779 80.1631C145.784 80.2383 145.771 80.3135 145.743 80.3834C145.715 80.4533 145.672 80.5162 145.617 80.5676C145.547 80.6183 145.464 80.6456 145.378 80.6456C145.292 80.6456 145.208 80.6183 145.138 80.5676C145.099 80.5417 145.066 80.5078 145.04 80.468C145.015 80.4283 144.999 80.3836 144.992 80.3371C144.986 80.2941 144.986 80.2506 144.992 80.2076V80.1227L145.102 79.4148C145.171 78.9375 145.228 78.4602 145.272 77.9748C145.317 77.4893 145.353 76.9999 145.361 76.5104C145.385 76.0258 145.336 75.5404 145.215 75.0704C145.187 74.9511 145.115 74.847 145.013 74.7791C144.964 74.7635 144.911 74.7636 144.862 74.7796C144.813 74.7956 144.771 74.8266 144.741 74.8681C144.609 75.1076 144.556 75.3817 144.587 75.6529V75.6529C144.497 76.6035 144.396 77.5379 144.258 78.4561C144.189 78.9132 144.112 79.3703 143.998 79.8193C143.966 79.9285 143.934 80.0418 143.893 80.155C143.854 80.2923 143.774 80.414 143.662 80.5029C143.612 80.5271 143.556 80.5339 143.502 80.5222C143.449 80.5104 143.4 80.4808 143.366 80.4382C143.316 80.3863 143.279 80.3242 143.256 80.2562C143.212 80.144 143.181 80.0273 143.163 79.9083C143.068 79.028 143.06 78.1406 143.138 77.2588C143.198 76.8477 143.222 76.4321 143.207 76.0169C143.194 75.8397 143.113 75.6745 142.98 75.5558C142.949 75.5365 142.914 75.5237 142.878 75.5181C142.842 75.5125 142.805 75.5144 142.769 75.5234C142.731 75.5362 142.695 75.5524 142.66 75.572C142.623 75.6043 142.627 75.572 142.603 75.6407C142.456 76.0045 142.349 76.3829 142.283 76.7693C142.201 77.1738 142.132 77.5419 142.072 77.9222C142.011 78.3024 141.954 78.6746 141.905 79.0467C141.857 79.4188 141.832 79.7829 141.759 80.147C141.696 80.5026 141.601 80.8519 141.475 81.1906C141.442 81.2768 141.403 81.3606 141.358 81.4414C141.301 81.5182 141.268 81.6153 141.114 81.6639C141.075 81.6711 141.034 81.6665 140.997 81.6506C140.961 81.6348 140.929 81.6084 140.907 81.5749C140.879 81.5282 140.857 81.4778 140.843 81.4252C140.824 81.3373 140.813 81.248 140.81 81.1582C140.81 80.4665 140.903 79.8355 140.94 79.2247C140.966 78.9327 140.966 78.6389 140.94 78.3469C140.94 78.2175 140.879 78.0637 140.806 78.0354C140.755 78.0104 140.699 77.9974 140.642 77.9974C140.585 77.9974 140.529 78.0104 140.477 78.0354C140.307 78.2178 140.202 78.4509 140.177 78.6988C140.116 78.9456 140.092 79.1964 140.047 79.435C139.877 80.3897 139.699 81.2149 139.613 81.8863C139.573 82.1816 139.573 82.481 139.613 82.7763C139.67 83.019 139.755 83.2374 139.8 83.4073C139.845 83.5772 139.889 83.6985 139.918 83.8118C139.933 83.8551 139.944 83.8999 139.95 83.9453C139.926 83.9061 139.907 83.864 139.893 83.8199L139.755 83.4154C139.699 83.2414 139.613 83.0473 139.544 82.7803C139.501 82.4771 139.501 82.1693 139.544 81.8661C139.622 81.1825 139.784 80.3654 139.95 79.4067C139.995 79.1681 140.019 78.9173 140.072 78.6584C140.101 78.5216 140.137 78.3866 140.181 78.2539C140.222 78.1067 140.31 77.9772 140.433 77.8858C140.507 77.8468 140.589 77.8264 140.672 77.8264C140.756 77.8264 140.838 77.8468 140.912 77.8858C140.991 77.9356 141.056 78.0049 141.101 78.0871C141.145 78.1693 141.168 78.2615 141.167 78.355C141.195 78.6591 141.195 78.9651 141.167 79.2692C141.139 79.884 141.041 80.5272 141.058 81.1825C141.061 81.26 141.07 81.3371 141.086 81.4131C141.086 81.4899 141.143 81.5223 141.135 81.5061C141.126 81.4899 141.212 81.4414 141.244 81.3767C141.284 81.3049 141.319 81.2306 141.35 81.1542C141.47 80.8263 141.558 80.4876 141.613 80.1429C141.682 79.791 141.707 79.4269 141.755 79.0507C141.804 78.6746 141.853 78.3024 141.913 77.9181C141.974 77.5338 142.043 77.1496 142.12 76.7572C142.186 76.3474 142.301 75.9469 142.461 75.5639C142.493 75.4997 142.542 75.4452 142.603 75.4061C142.657 75.3767 142.714 75.3536 142.773 75.3374C142.841 75.318 142.913 75.3134 142.983 75.3238C143.053 75.3343 143.12 75.3596 143.179 75.398C143.273 75.4726 143.351 75.5656 143.407 75.6714C143.464 75.7772 143.498 75.8934 143.508 76.0129C143.538 76.233 143.538 76.4562 143.508 76.6763C143.487 76.8826 143.467 77.0808 143.455 77.3073C143.376 78.1689 143.384 79.0362 143.479 79.8962C143.497 79.9983 143.524 80.0985 143.56 80.1955C143.573 80.2346 143.593 80.2706 143.621 80.3007C143.621 80.3007 143.621 80.3007 143.641 80.3007C143.641 80.3937 143.641 80.3007 143.641 80.3371C143.641 80.3735 143.641 80.3371 143.641 80.3047C143.692 80.2371 143.732 80.1621 143.759 80.0822C143.797 79.9825 143.829 79.8773 143.856 79.7667C143.966 79.3379 144.039 78.8849 144.108 78.4318C144.246 77.5217 144.347 76.5873 144.432 75.6407V75.661C144.396 75.3275 144.469 74.9914 144.639 74.7023C144.704 74.6197 144.794 74.5593 144.895 74.5296C144.996 74.4998 145.104 74.5022 145.203 74.5364C145.288 74.5835 145.363 74.6472 145.423 74.7236C145.483 74.8 145.527 74.8877 145.552 74.9814C145.682 75.4788 145.735 75.993 145.71 76.5064C145.71 77.008 145.666 77.5015 145.621 77.9909C145.576 78.4804 145.516 78.9617 145.447 79.4391C145.41 79.6818 145.374 79.9164 145.337 80.155C145.305 80.3047 145.313 80.3088 145.337 80.3533C145.365 80.3722 145.398 80.3823 145.432 80.3823C145.466 80.3823 145.5 80.3722 145.528 80.3533C145.576 80.3169 145.584 80.2481 145.597 80.1146L145.625 79.7627L145.698 79.0629C145.747 78.6017 145.812 78.1406 145.889 77.6916C145.964 77.2406 146.072 76.7958 146.213 76.3608C146.287 76.1409 146.386 75.9304 146.509 75.7338C146.576 75.6278 146.665 75.5369 146.769 75.4668C146.827 75.4251 146.894 75.3978 146.964 75.3872C147.035 75.3767 147.107 75.3832 147.175 75.4061C147.237 75.4444 147.289 75.4964 147.328 75.5581C147.367 75.6198 147.39 75.6896 147.398 75.7621C147.414 75.8759 147.421 75.991 147.418 76.1059C147.418 76.3284 147.39 76.5428 147.365 76.7572C147.308 77.1617 147.231 77.5905 147.158 77.999C146.984 78.7674 146.9 79.5534 146.907 80.3411C146.918 80.4257 146.94 80.5086 146.972 80.5879C146.987 80.6166 147.004 80.6437 147.025 80.6688C147.025 80.6688 147.025 80.6688 147.025 80.6405C147.116 80.4942 147.183 80.3345 147.223 80.1672C147.329 79.8153 147.414 79.4593 147.507 79.1114C147.591 78.7653 147.692 78.4237 147.811 78.088C147.868 77.9217 147.941 77.7618 148.031 77.6107C148.079 77.5284 148.142 77.4557 148.217 77.3963C148.258 77.361 148.307 77.3361 148.359 77.3235C148.411 77.3153 148.465 77.3153 148.517 77.3235C148.573 77.329 148.626 77.3492 148.67 77.3819C148.715 77.4146 148.751 77.4587 148.773 77.5096C148.807 77.5946 148.825 77.6851 148.826 77.7765C148.829 77.9402 148.819 78.1038 148.797 78.266C148.761 78.5815 148.7 78.8809 148.643 79.1761C148.525 79.7546 148.396 80.3047 148.237 80.7942C147.933 81.7973 147.629 82.6468 147.381 83.3385C147.134 84.0302 146.923 84.552 146.781 84.9242C146.712 85.0941 146.655 85.2276 146.615 85.3287C146.597 85.3949 146.571 85.4587 146.538 85.5188Z" fill="#EB996E"/>
<path d="M124.393 96.9178C125.164 99.632 126.673 103.819 128.292 108.244C128.343 108.387 128.435 108.511 128.557 108.601C128.679 108.691 128.825 108.743 128.976 108.751C129.128 108.758 129.278 108.72 129.409 108.642C129.539 108.564 129.643 108.45 129.707 108.313L133.675 99.9435C133.675 99.9435 132.717 93.0669 132.798 93.3136C132.879 93.5604 124.612 94.2035 124.612 94.2035L124.393 96.9178Z" fill="#FEB546"/>
<path d="M133.335 95.5708C133.335 95.6032 132.84 95.7488 132.057 96.0482C131.034 96.4354 130.048 96.9147 129.112 97.4801C128.177 98.0481 127.295 98.6979 126.475 99.4218C125.847 99.9759 125.486 100.356 125.461 100.332C125.437 100.308 125.53 100.219 125.684 100.037C125.902 99.7837 126.132 99.542 126.374 99.3125C127.174 98.5448 128.055 97.8665 129.002 97.29C129.95 96.7205 130.957 96.254 132.004 95.8985C132.321 95.7897 132.643 95.6979 132.97 95.6234C133.088 95.5866 133.211 95.5688 133.335 95.5708V95.5708Z" fill="#FAFAFA"/>
<path d="M134.908 97.6581C134.65 97.3989 134.427 97.108 134.243 96.7924C133.769 96.0559 133.362 95.2789 133.026 94.4705C132.69 93.6598 132.428 92.8204 132.243 91.9626C132.149 91.6117 132.101 91.2499 132.101 90.8866C132.222 91.2258 132.318 91.5732 132.389 91.9262C132.606 92.7638 132.877 93.5866 133.2 94.3896C133.538 95.1884 133.925 95.9653 134.36 96.7156C134.563 97.0177 134.746 97.3325 134.908 97.6581Z" fill="#263238"/>
<path d="M137.552 60.5971C136.864 61.7282 136.438 62.998 136.304 64.3142C136.17 65.6305 136.332 66.9599 136.778 68.2059C137.183 69.3183 137.832 70.4145 137.715 71.5956C137.597 72.7768 136.672 73.9458 136.997 75.1108C137.191 75.8025 137.784 76.3243 138.015 76.9958C138.279 77.8048 138.015 78.6583 137.873 79.4876C137.548 81.6072 138.23 83.7389 138.396 85.8747C138.563 88.0105 137.991 90.5144 136.076 91.4448C135.496 91.728 134.737 91.8089 134.255 91.376C133.638 90.83 133.808 89.843 133.979 89.0339C135.658 80.9438 130.47 73.0478 131.654 64.8606C131.845 63.55 132.579 61.3252 133.524 60.411C134.47 59.4968 137.094 59.602 137.987 60.5728" fill="#263238"/>
<path d="M129.562 84.0667C129.562 84.0667 129.809 83.7754 130.174 83.201C130.687 82.3898 131.046 81.4918 131.233 80.5515C131.356 79.9038 131.398 79.2436 131.359 78.5856C131.288 77.8205 131.259 77.0521 131.274 76.2839C131.298 75.8633 131.376 75.4473 131.505 75.0462C131.653 74.6329 131.841 74.2347 132.065 73.8569C132.519 73.0924 133.091 72.3805 133.618 71.62C134.16 70.9013 134.536 70.0727 134.722 69.1929C134.812 68.3642 134.764 67.5264 134.58 66.7133C134.426 65.9576 134.366 65.186 134.401 64.4157C134.449 63.7429 134.586 63.0792 134.807 62.4417C135.117 61.5166 135.604 60.6606 136.243 59.9216C136.412 59.7207 136.597 59.5328 136.794 59.3594C136.857 59.2928 136.928 59.2343 137.005 59.1854C137.005 59.1854 136.734 59.4484 136.304 59.9944C135.28 61.2621 134.681 62.8186 134.592 64.444C134.565 65.2017 134.631 65.9598 134.791 66.7012C134.984 67.5361 135.036 68.3975 134.945 69.2496C134.752 70.1539 134.365 71.0056 133.809 71.7454C133.278 72.518 132.706 73.2259 132.259 73.9702C132.04 74.3339 131.858 74.7188 131.716 75.119C131.588 75.5037 131.51 75.9035 131.485 76.3082C131.467 77.068 131.488 77.8281 131.55 78.5856C131.582 79.2568 131.53 79.9294 131.395 80.5879C131.192 81.541 130.806 82.4461 130.26 83.2536C130.112 83.4719 129.949 83.68 129.773 83.8765C129.71 83.9474 129.639 84.0112 129.562 84.0667V84.0667Z" fill="#455A64"/>
<path d="M125.716 84.6693C125.749 84.575 125.791 84.4842 125.842 84.3983C125.943 84.2082 126.073 83.9574 126.247 83.6419C126.588 82.9826 127.095 82.0239 127.594 80.8103C128.205 79.393 128.543 77.8742 128.592 76.3325C128.592 75.8883 128.558 75.4447 128.491 75.0057C128.422 74.5526 128.316 74.0955 128.247 73.6182C128.163 73.1245 128.174 72.6192 128.28 72.1296C128.417 71.627 128.699 71.1755 129.091 70.8312C129.854 70.1394 130.774 69.6864 131.253 68.8733C131.668 68.0671 131.912 67.1846 131.971 66.2804C132.057 65.4516 132.245 64.6364 132.531 63.8534C133.174 62.1725 134.319 60.7293 135.812 59.7193C136.051 59.5596 136.298 59.415 136.555 59.2865C136.641 59.2348 136.734 59.1941 136.831 59.1652C136.831 59.1652 136.466 59.3593 135.861 59.7881C135.009 60.3943 134.272 61.1462 133.683 62.0088C133.274 62.6002 132.942 63.2403 132.693 63.9141C132.42 64.6989 132.243 65.5139 132.166 66.3411C132.044 67.2027 131.947 68.1654 131.427 69.019C130.908 69.8725 129.959 70.3579 129.233 71.0415C128.863 71.3617 128.596 71.7839 128.466 72.255C128.368 72.7182 128.358 73.1959 128.438 73.6627C128.503 74.1279 128.604 74.589 128.673 75.0461C128.743 75.4957 128.776 75.9503 128.771 76.4053C128.715 77.9752 128.359 79.52 127.72 80.956C127.305 81.9264 126.834 82.8718 126.308 83.7875L125.878 84.4226C125.833 84.5103 125.779 84.593 125.716 84.6693V84.6693Z" fill="#455A64"/>
<path d="M259.927 198.971C259.945 198.912 259.97 198.855 260 198.801C260.056 198.68 260.134 198.518 260.227 198.312C260.509 197.68 260.736 197.025 260.904 196.354C261.35 194.614 261.509 191.957 260.847 188.802C260.488 187.081 260.018 185.385 259.44 183.725C258.848 181.925 258.154 180.016 257.59 177.949C256.954 175.793 256.646 173.554 256.677 171.307C256.763 168.956 257.46 166.614 258.227 164.276C258.994 161.938 259.785 159.661 260.02 157.355C260.281 155.144 259.836 152.907 258.746 150.964C257.732 149.099 256.454 147.501 255.501 145.851C254.609 144.317 253.951 142.66 253.55 140.932C252.974 138.431 252.932 135.838 253.424 133.319C253.604 132.398 253.875 131.497 254.235 130.629C254.225 130.69 254.208 130.75 254.187 130.807L254.025 131.321C253.887 131.774 253.704 132.454 253.53 133.344C253.076 135.851 253.144 138.424 253.728 140.904C254.135 142.61 254.796 144.246 255.688 145.758C256.641 147.376 257.923 148.994 258.961 150.867C260.077 152.85 260.536 155.133 260.271 157.392C260.032 159.73 259.237 162.031 258.47 164.365C257.704 166.699 257.014 169.017 256.929 171.327C256.893 173.552 257.194 175.769 257.821 177.904C258.377 179.959 259.059 181.868 259.647 183.676C260.22 185.346 260.68 187.051 261.026 188.781C261.671 191.961 261.488 194.647 261.026 196.39C260.845 197.062 260.602 197.716 260.3 198.344L260.048 198.825C260.013 198.878 259.973 198.927 259.927 198.971V198.971Z" fill="#263238"/>
<path d="M256.8 147.481C256.8 147.481 254.861 141.288 258.341 137.664C258.368 137.635 258.403 137.613 258.441 137.603C258.479 137.592 258.52 137.592 258.558 137.603C258.597 137.614 258.631 137.635 258.658 137.664C258.685 137.694 258.703 137.73 258.71 137.769C258.897 138.792 259.128 141.907 256.8 147.481Z" fill="#ABC6FC"/>
<path d="M257.963 139.727C257.957 140.11 257.913 140.492 257.833 140.868C257.703 141.656 257.553 142.579 257.391 143.598C257.228 144.617 257.078 145.544 256.953 146.328C256.917 146.711 256.849 147.09 256.75 147.461C256.712 147.078 256.72 146.693 256.774 146.312C256.839 145.604 256.965 144.633 257.139 143.566C257.314 142.498 257.504 141.543 257.654 140.843C257.714 140.46 257.817 140.086 257.963 139.727Z" fill="#263238"/>
<path d="M259.078 162.088C259.078 162.088 260.267 155.709 265.045 154.131C265.083 154.118 265.123 154.116 265.162 154.124C265.201 154.133 265.237 154.152 265.266 154.18C265.294 154.208 265.315 154.243 265.324 154.281C265.334 154.32 265.333 154.36 265.321 154.398C265.005 155.381 263.751 158.241 259.078 162.088Z" fill="#ABC6FC"/>
<path d="M263.743 155.77C263.558 156.106 263.341 156.425 263.094 156.72L261.419 158.925L259.756 161.137C259.547 161.458 259.309 161.76 259.046 162.039C259.194 161.683 259.385 161.347 259.614 161.036C260.02 160.442 260.571 159.641 261.237 158.779C261.902 157.917 262.506 157.161 262.965 156.611C263.192 156.303 263.454 156.021 263.743 155.77V155.77Z" fill="#263238"/>
<path d="M257.789 178.078C257.789 178.078 257.067 171.63 261.18 168.738C261.212 168.713 261.25 168.698 261.29 168.694C261.33 168.69 261.371 168.698 261.406 168.716C261.442 168.735 261.472 168.763 261.492 168.798C261.513 168.832 261.523 168.872 261.521 168.912C261.509 169.952 261.14 173.05 257.789 178.078Z" fill="#ABC6FC"/>
<path d="M260.426 170.688C260.35 171.064 260.235 171.432 260.081 171.784L259.124 174.381C258.767 175.352 258.446 176.229 258.174 176.978C258.07 177.346 257.935 177.705 257.769 178.05C257.806 177.666 257.891 177.288 258.02 176.925C258.219 176.246 258.527 175.307 258.905 174.296C259.282 173.285 259.651 172.375 259.931 171.723C260.06 171.362 260.226 171.015 260.426 170.688V170.688Z" fill="#263238"/>
<path d="M261.387 194.169C261.387 194.169 260.9 187.697 265.11 184.955C265.143 184.932 265.182 184.919 265.222 184.917C265.262 184.915 265.302 184.925 265.336 184.944C265.371 184.963 265.4 184.992 265.42 185.027C265.439 185.061 265.449 185.101 265.447 185.141C265.398 186.18 264.92 189.267 261.387 194.169Z" fill="#ABC6FC"/>
<path d="M264.275 186.88C264.184 187.254 264.055 187.617 263.89 187.964C263.589 188.7 263.232 189.582 262.839 190.525C262.446 191.467 262.101 192.345 261.801 193.085C261.68 193.45 261.527 193.804 261.342 194.141C261.396 193.758 261.495 193.384 261.638 193.025C261.861 192.353 262.202 191.431 262.616 190.432C263.03 189.433 263.427 188.535 263.731 187.895C263.876 187.539 264.058 187.198 264.275 186.88V186.88Z" fill="#263238"/>
<path d="M254.008 142.04C254.008 142.04 248.256 139.031 248.131 134.019C248.13 133.98 248.14 133.941 248.16 133.907C248.18 133.873 248.209 133.845 248.243 133.826C248.278 133.807 248.317 133.798 248.356 133.799C248.396 133.8 248.434 133.812 248.467 133.833C249.323 134.424 251.7 136.462 254.008 142.04Z" fill="#ABC6FC"/>
<path d="M249.327 135.742C249.597 136.018 249.838 136.32 250.045 136.644C250.516 137.288 251.063 138.048 251.668 138.885L253.29 141.118C253.537 141.412 253.757 141.727 253.947 142.061C253.651 141.815 253.385 141.534 253.156 141.224C252.698 140.681 252.098 139.905 251.465 139.027C250.832 138.149 250.276 137.336 249.895 136.742C249.671 136.429 249.481 136.094 249.327 135.742V135.742Z" fill="#263238"/>
<path d="M260.203 155.337C260.203 155.337 254.264 152.687 253.846 147.683C253.843 147.644 253.851 147.605 253.868 147.569C253.886 147.534 253.913 147.504 253.947 147.483C253.98 147.462 254.019 147.451 254.059 147.451C254.098 147.45 254.137 147.461 254.171 147.481C255.059 148.019 257.554 149.904 260.203 155.337Z" fill="#ABC6FC"/>
<path d="M255.153 149.334C255.439 149.591 255.698 149.877 255.924 150.187L257.684 152.327L259.449 154.459C259.713 154.738 259.952 155.04 260.163 155.361C259.852 155.132 259.568 154.867 259.319 154.572C258.832 154.054 258.183 153.318 257.498 152.481C256.812 151.643 256.212 150.863 255.79 150.292C255.543 149.997 255.329 149.676 255.153 149.334V149.334Z" fill="#263238"/>
<path d="M256.775 170.178C256.775 170.178 252.719 165.122 254.613 160.47C254.628 160.433 254.653 160.402 254.685 160.378C254.717 160.355 254.755 160.341 254.794 160.337C254.833 160.334 254.873 160.342 254.908 160.359C254.944 160.377 254.974 160.404 254.995 160.437C255.558 161.315 256.909 164.131 256.775 170.178Z" fill="#ABC6FC"/>
<path d="M255.023 162.525C255.161 162.884 255.262 163.257 255.323 163.637C255.493 164.414 255.692 165.328 255.911 166.339C256.13 167.35 256.337 168.261 256.507 169.037C256.616 169.406 256.691 169.784 256.73 170.166C256.552 169.822 256.416 169.458 256.325 169.082C256.126 168.398 255.883 167.464 255.655 166.388C255.428 165.312 255.25 164.365 255.136 163.669C255.057 163.293 255.018 162.909 255.023 162.525V162.525Z" fill="#263238"/>
<path d="M260.831 187.616C260.831 187.616 254.937 184.87 254.604 179.862C254.6 179.822 254.607 179.782 254.625 179.746C254.643 179.71 254.671 179.68 254.705 179.659C254.739 179.638 254.779 179.627 254.819 179.627C254.859 179.627 254.898 179.638 254.932 179.66C255.805 180.214 258.267 182.143 260.831 187.616Z" fill="#ABC6FC"/>
<path d="M255.87 181.529C256.149 181.794 256.402 182.085 256.625 182.398L258.349 184.562L260.077 186.726C260.336 187.01 260.57 187.316 260.774 187.641C260.472 187.404 260.2 187.133 259.963 186.832C259.48 186.306 258.848 185.557 258.174 184.708C257.501 183.859 256.917 183.07 256.503 182.491C256.255 182.196 256.043 181.873 255.87 181.529V181.529Z" fill="#263238"/>
<path d="M272.559 162.116C272.559 162.116 272.559 162.165 272.559 162.258C272.559 162.351 272.559 162.505 272.559 162.662C272.559 163.067 272.518 163.581 272.49 164.236C272.417 165.619 272.307 167.549 272.181 169.854C271.776 172.201 270.559 174.802 268.936 177.33C267.756 179.19 266.502 180.881 265.448 182.455C264.485 183.836 263.62 185.282 262.86 186.783C262.356 187.797 261.949 188.856 261.643 189.946C261.541 190.331 261.46 190.634 261.416 190.84C261.396 190.948 261.368 191.053 261.33 191.156C261.332 191.047 261.345 190.938 261.371 190.832C261.399 190.622 261.46 190.314 261.553 189.922C261.826 188.813 262.214 187.735 262.71 186.706C263.463 185.193 264.327 183.737 265.293 182.35C266.356 180.764 267.585 179.069 268.762 177.221C270.364 174.704 271.557 172.144 272.007 169.834C272.169 167.533 272.303 165.607 272.412 164.224C272.465 163.568 272.51 163.047 272.542 162.654C272.542 162.492 272.571 162.355 272.583 162.25C272.569 162.206 272.561 162.162 272.559 162.116V162.116Z" fill="#263238"/>
<path d="M269.05 176.864C269.05 176.864 271.545 170.878 268.409 166.95C268.385 166.918 268.352 166.894 268.315 166.88C268.277 166.866 268.237 166.863 268.198 166.87C268.159 166.878 268.122 166.896 268.093 166.923C268.064 166.95 268.042 166.985 268.032 167.023C267.752 168.026 267.237 171.104 269.05 176.864Z" fill="#ABC6FC"/>
<path d="M268.594 169.042C268.702 169.411 268.769 169.79 268.793 170.174C268.882 170.878 268.98 171.853 269.057 172.933C269.134 174.013 269.17 174.992 269.17 175.704C269.195 176.088 269.172 176.474 269.101 176.853C269.031 176.475 268.997 176.092 269 175.708C268.947 174.899 268.882 173.981 268.813 172.949C268.745 171.918 268.68 170.983 268.623 170.19C268.576 169.809 268.566 169.424 268.594 169.042V169.042Z" fill="#263238"/>
<g opacity="0.3">
<path opacity="0.3" d="M269.05 176.864C269.05 176.864 271.545 170.878 268.409 166.95C268.385 166.918 268.352 166.894 268.315 166.88C268.277 166.866 268.237 166.863 268.198 166.87C268.159 166.878 268.122 166.896 268.093 166.923C268.064 166.95 268.042 166.985 268.032 167.023C267.752 168.026 267.237 171.104 269.05 176.864Z" fill="black"/>
</g>
<path d="M261.322 191.301C261.322 191.301 263.322 185.129 259.874 181.472C259.848 181.443 259.813 181.421 259.775 181.411C259.737 181.4 259.697 181.399 259.659 181.41C259.621 181.42 259.586 181.441 259.559 181.47C259.532 181.499 259.513 181.534 259.505 181.573C259.31 182.592 259.047 185.707 261.322 191.301Z" fill="#ABC6FC"/>
<path d="M260.231 183.527C260.371 183.886 260.469 184.261 260.523 184.643C260.669 185.335 260.843 186.302 261.01 187.37C261.176 188.438 261.29 189.412 261.35 190.12C261.403 190.502 261.41 190.889 261.371 191.273C261.274 190.902 261.209 190.523 261.176 190.141C261.058 189.352 260.92 188.429 260.77 187.406C260.62 186.383 260.474 185.46 260.365 184.672C260.282 184.295 260.238 183.912 260.231 183.527Z" fill="#263238"/>
<g opacity="0.3">
<path opacity="0.3" d="M261.322 191.301C261.322 191.301 263.322 185.129 259.874 181.472C259.848 181.443 259.813 181.421 259.775 181.411C259.737 181.4 259.697 181.399 259.659 181.41C259.621 181.42 259.586 181.441 259.559 181.47C259.532 181.499 259.513 181.534 259.505 181.573C259.31 182.592 259.047 185.707 261.322 191.301Z" fill="black"/>
</g>
<path d="M272.229 169.547C272.229 169.547 277.555 165.826 277.02 160.834C277.016 160.795 277.001 160.757 276.977 160.726C276.953 160.695 276.92 160.671 276.884 160.656C276.847 160.642 276.807 160.638 276.768 160.646C276.729 160.653 276.692 160.67 276.663 160.697C275.888 161.392 273.811 163.706 272.229 169.547Z" fill="#ABC6FC"/>
<g opacity="0.3">
<path opacity="0.3" d="M272.229 169.547C272.229 169.547 277.555 165.826 277.02 160.834C277.016 160.795 277.001 160.757 276.977 160.726C276.953 160.695 276.92 160.671 276.884 160.656C276.847 160.642 276.807 160.638 276.768 160.646C276.729 160.653 276.692 160.67 276.663 160.697C275.888 161.392 273.811 163.706 272.229 169.547Z" fill="black"/>
</g>
<path d="M276.055 162.699C275.949 163.069 275.801 163.426 275.613 163.763C275.309 164.402 274.867 165.275 274.351 166.23C273.836 167.185 273.341 168.03 272.96 168.629C272.773 168.965 272.545 169.277 272.283 169.559C272.425 169.203 272.602 168.862 272.81 168.54C273.191 167.84 273.642 167.023 274.136 166.113L275.459 163.686C275.625 163.338 275.825 163.008 276.055 162.699Z" fill="#263238"/>
<path d="M263.472 185.181C263.472 185.181 269.897 184.182 271.617 179.465C271.631 179.429 271.635 179.389 271.627 179.35C271.62 179.311 271.602 179.275 271.576 179.246C271.55 179.217 271.516 179.196 271.478 179.184C271.44 179.173 271.4 179.172 271.362 179.182C270.36 179.482 267.455 180.634 263.472 185.181Z" fill="#ABC6FC"/>
<g opacity="0.3">
<path opacity="0.3" d="M263.472 185.181C263.472 185.181 269.897 184.182 271.617 179.465C271.631 179.429 271.635 179.389 271.627 179.35C271.62 179.311 271.602 179.275 271.576 179.246C271.55 179.217 271.516 179.196 271.478 179.184C271.44 179.173 271.4 179.172 271.362 179.182C270.36 179.482 267.455 180.634 263.472 185.181Z" fill="black"/>
</g>
<path d="M269.929 180.716C269.669 180.999 269.378 181.253 269.061 181.472C268.505 181.917 267.722 182.508 266.842 183.139C265.962 183.77 265.138 184.308 264.53 184.68C264.213 184.9 263.869 185.081 263.508 185.218C263.796 184.962 264.107 184.733 264.437 184.534L266.7 182.94L268.96 181.322C269.26 181.086 269.585 180.883 269.929 180.716V180.716Z" fill="#263238"/>
<path d="M257.338 196.977L255.464 209.557H267.147L265.634 196.977H257.338Z" fill="#455A64"/>
<path d="M266.104 200.872C266.104 200.941 263.995 200.993 261.395 200.993C258.794 200.993 256.681 200.941 256.681 200.872C258.249 200.752 259.822 200.712 261.395 200.751C262.965 200.712 264.537 200.752 266.104 200.872V200.872Z" fill="#263238"/>
<path d="M266.331 201.875C266.331 201.944 264.153 201.997 261.463 201.997C258.774 201.997 256.596 201.944 256.596 201.875C256.596 201.806 258.774 201.754 261.463 201.754C264.153 201.754 266.331 201.806 266.331 201.875Z" fill="#263238"/>
<path d="M220.905 74.9328C220.905 74.9328 220.796 74.9328 220.585 74.9328C220.277 74.9146 219.968 74.9146 219.66 74.9328C218.468 75.0024 217.298 75.276 216.2 75.7418C214.459 76.4695 212.944 77.6465 211.811 79.1518C211.112 80.0917 210.592 81.1516 210.277 82.2787C209.567 84.9635 209.951 87.8193 211.344 90.2232C211.724 90.8887 212.187 91.5032 212.723 92.0516C213.264 92.6326 213.894 93.1241 214.589 93.5078C215.303 93.9083 216.111 94.1108 216.93 94.0943C217.774 94.0842 218.583 93.7579 219.197 93.1801C219.494 92.87 219.727 92.5047 219.882 92.1049C220.037 91.7051 220.112 91.2788 220.102 90.8502C220.096 89.9598 219.812 89.0933 219.291 88.3706C218.24 86.8941 216.536 85.9031 214.723 85.3691C212.843 84.8425 210.857 84.8146 208.963 85.2882C207.996 85.539 207.064 85.9086 206.188 86.3885C205.304 86.8859 204.501 87.5147 203.807 88.2532C203.641 88.4434 203.45 88.6173 203.3 88.8276L202.842 89.4425C202.563 89.8758 202.314 90.3271 202.095 90.7936C201.662 91.7406 201.365 92.7444 201.215 93.7748C200.921 95.8332 201.201 97.9328 202.026 99.8424C202.815 101.708 204.188 103.269 205.941 104.292C206.791 104.776 207.739 105.062 208.715 105.129C209.673 105.183 210.625 104.955 211.454 104.474C212.276 104.021 212.926 103.31 213.303 102.451C213.659 101.605 213.684 100.657 213.372 99.7938C213.052 98.961 212.527 98.2212 211.847 97.6419C211.187 97.0732 210.426 96.6328 209.604 96.3434C208 95.8391 206.284 95.8096 204.663 96.2584C203.147 96.6682 201.754 97.4417 200.607 98.5116C199.562 99.5101 198.765 100.739 198.282 102.1C197.437 104.46 197.476 107.046 198.392 109.381C199.106 111.123 200.255 112.655 201.73 113.83C202.66 114.573 203.694 115.175 204.801 115.614C205.182 115.756 205.478 115.861 205.681 115.918L205.981 116.015C205.981 116.015 205.876 115.994 205.673 115.938C205.373 115.858 205.078 115.762 204.789 115.651C203.668 115.23 202.619 114.638 201.682 113.895C200.182 112.721 199.01 111.181 198.278 109.425C197.347 107.069 197.299 104.456 198.144 102.067C198.628 100.686 199.433 99.4384 200.493 98.4266C201.657 97.3353 203.07 96.5438 204.61 96.1209C206.265 95.6606 208.018 95.6887 209.657 96.2018C210.503 96.4962 211.286 96.9478 211.965 97.5326C212.672 98.131 213.216 98.8976 213.547 99.7615C213.88 100.663 213.866 101.657 213.506 102.549C213.106 103.441 212.427 104.18 211.571 104.656C210.712 105.155 209.725 105.394 208.732 105.344C207.732 105.274 206.76 104.978 205.892 104.478C204.1 103.441 202.692 101.853 201.88 99.9516C201.038 98.007 200.749 95.8684 201.045 93.7707C201.2 92.7195 201.503 91.6954 201.945 90.7288C202.168 90.2525 202.423 89.7917 202.708 89.3495L203.178 88.7225C203.329 88.5081 203.523 88.318 203.694 88.1319C204.404 87.3794 205.225 86.7384 206.127 86.2307C207.023 85.7417 207.977 85.3666 208.967 85.1143C210.898 84.6318 212.921 84.6611 214.837 85.1992C216.686 85.7493 218.418 86.7566 219.51 88.2856C220.058 89.0385 220.356 89.9439 220.361 90.8745C220.381 91.7902 220.035 92.6763 219.4 93.3379C218.751 93.9454 217.897 94.2876 217.007 94.2966C216.155 94.3159 215.314 94.1048 214.573 93.6858C213.861 93.294 213.217 92.79 212.666 92.1931C212.123 91.6325 211.653 91.006 211.267 90.3284C209.849 87.8798 209.464 84.9699 210.196 82.2382C210.521 81.0981 211.053 80.0272 211.766 79.079C212.92 77.5623 214.461 76.3819 216.228 75.6609C217.335 75.2041 218.515 74.9467 219.712 74.9005C220.023 74.88 220.335 74.88 220.645 74.9005L220.905 74.9328Z" fill="#263876"/>
<path d="M234.449 115.408H177.574V159.151H234.449V115.408Z" fill="#364FD4"/>
<path d="M177.574 115.408L188.08 125.181H243.99L234.449 115.408H177.574Z" fill="#364FD4"/>
<path d="M177.574 115.408L234.465 115.307H234.51L234.542 115.335L243.986 125.007L244.083 125.108L244.257 125.286H244.006L188.096 125.241H188.072L177.574 115.408L188.121 125.116H188.076L243.986 125.075L243.913 125.253L243.811 125.152L234.372 115.481L234.445 115.513L177.574 115.408Z" fill="#263238"/>
<path d="M194.66 135.581C194.352 135.592 194.061 135.723 193.849 135.946C193.637 136.169 193.521 136.467 193.527 136.774C193.532 137.081 193.659 137.374 193.879 137.59C194.099 137.805 194.395 137.926 194.703 137.926C195.011 137.926 195.307 137.805 195.527 137.59C195.747 137.374 195.874 137.081 195.879 136.774C195.885 136.467 195.769 136.169 195.557 135.946C195.345 135.723 195.054 135.592 194.746 135.581" fill="#263238"/>
<path d="M208.098 135.581C207.791 135.592 207.501 135.723 207.29 135.946C207.08 136.169 206.965 136.465 206.971 136.771C206.976 137.077 207.102 137.369 207.322 137.583C207.541 137.798 207.836 137.918 208.143 137.918C208.45 137.918 208.744 137.798 208.964 137.583C209.183 137.369 209.309 137.077 209.315 136.771C209.321 136.465 209.206 136.169 208.995 135.946C208.784 135.723 208.494 135.592 208.187 135.581" fill="#263238"/>
<path d="M208.175 146.049C207.941 145.156 207.56 144.307 207.048 143.537C206.478 142.714 205.747 142.015 204.898 141.482C203.874 140.805 202.679 140.427 201.451 140.394C200.222 140.36 199.009 140.671 197.949 141.292C197.074 141.779 196.306 142.437 195.69 143.226C195.135 143.967 194.709 144.795 194.428 145.677C194.431 145.611 194.442 145.546 194.461 145.483C194.5 145.301 194.55 145.121 194.611 144.945C194.833 144.295 195.158 143.685 195.572 143.137C196.184 142.311 196.962 141.622 197.856 141.114C198.943 140.467 200.192 140.142 201.458 140.176C202.723 140.21 203.953 140.603 205.003 141.308C205.867 141.862 206.605 142.589 207.169 143.444C207.555 144.015 207.846 144.643 208.033 145.305C208.083 145.484 208.123 145.667 208.151 145.851C208.165 145.916 208.173 145.982 208.175 146.049V146.049Z" fill="#263238"/>
<path opacity="0.5" d="M177.705 115.889L187.764 128.607H234.45V125.181H188.081L177.705 115.889Z" fill="black"/>
<path d="M223.233 159.054C223.176 159.054 223.127 151.445 223.127 142.065C223.127 132.684 223.176 125.075 223.233 125.075C223.29 125.075 223.342 132.68 223.342 142.065C223.342 151.449 223.294 159.054 223.233 159.054Z" fill="#263238"/>
<path d="M232.165 149.136H227.151V154.787H232.165V149.136Z" fill="#F5F5F5"/>
<path d="M177.574 115.408L165.9 125.181H177.574V115.408Z" fill="#364FD4"/>
<g opacity="0.4">
<path opacity="0.4" d="M177.574 115.408L165.9 125.181H177.574V115.408Z" fill="black"/>
</g>
<path d="M236.129 159.151H170.735V209.448H236.129V159.151Z" fill="#364FD4"/>
<path d="M236.129 159.151H170.735V209.448H236.129V159.151Z" fill="#D46928"/>
<path d="M219.744 209.092C219.687 209.092 219.638 197.883 219.638 184.057C219.638 170.231 219.687 159.018 219.744 159.018C219.8 159.018 219.849 170.227 219.849 184.057C219.849 197.887 219.8 209.092 219.744 209.092Z" fill="#263238"/>
<path d="M230.584 198H225.57V203.651H230.584V198Z" fill="#F5F5F5"/>
<path d="M198.112 159.285H190.685V170.016H198.112V159.285Z" fill="#A64104"/>
<path d="M198.112 198.566H190.685V209.298H198.112V198.566Z" fill="#A64104"/>
<path d="M235.561 159.151H235.391H234.9L233.014 159.171L226.065 159.203L203.15 159.256L180.227 159.228L173.283 159.195L171.397 159.175H170.902H170.735H170.902H171.397L173.283 159.155L180.227 159.123L203.15 159.091L226.065 159.123L233.014 159.155L234.9 159.175H235.391L235.561 159.151Z" fill="#263238"/>
<path d="M123.489 72.0729L116.366 70.3254H116.418C114.579 71.4921 112.452 72.129 110.273 72.1659C108.983 72.1718 107.699 71.985 106.464 71.6118C104.293 70.9167 102.367 69.6163 100.913 67.8644C99.46 66.1125 98.5398 63.9824 98.2617 61.7256C98.0433 60.0188 98.2041 58.2851 98.7327 56.6472C99.2612 55.0093 100.145 53.5074 101.32 52.248C101.938 51.5711 102.631 50.9659 103.385 50.4439C103.766 50.2052 104.148 49.9585 104.545 49.7522L105.15 49.4609L105.45 49.3153L105.766 49.2021C107.395 48.5724 109.142 48.306 110.885 48.4214C113.221 48.5726 115.46 49.4101 117.32 50.8282C119.179 52.2463 120.576 54.1816 121.335 56.3901C121.756 57.6256 121.978 58.92 121.992 60.2249C122.002 62.3935 121.411 64.5227 120.284 66.3774V66.3127C122.264 69.8764 123.261 71.6765 123.485 72.0729C123.253 71.6684 122.219 69.9007 120.17 66.3734V66.341V66.3087C121.257 64.4719 121.818 62.3734 121.793 60.2411C121.774 58.9571 121.55 57.6843 121.128 56.471C120.378 54.3077 119.004 52.413 117.179 51.0243C115.355 49.6356 113.16 48.8146 110.869 48.6641C109.16 48.553 107.448 48.8153 105.851 49.4326L105.543 49.5418L105.247 49.6875L104.655 49.9706C104.249 50.1769 103.892 50.4156 103.515 50.6502C102.775 51.1582 102.095 51.747 101.487 52.4057C100.332 53.6421 99.465 55.1163 98.9456 56.7241C98.4261 58.3318 98.2675 60.0337 98.4808 61.7094C98.8569 64.7793 100.436 67.576 102.874 69.4881C103.964 70.3492 105.2 71.007 106.525 71.4297C107.737 71.8035 108.999 71.9931 110.269 71.992C112.422 71.969 114.527 71.3546 116.353 70.2162H116.378H116.422L123.489 72.0729Z" fill="#263238"/>
<path d="M109.12 55.0148L109.481 60.961C109.495 61.1956 109.595 61.4168 109.762 61.5829C109.929 61.7491 110.15 61.8487 110.386 61.8631C110.633 61.877 110.876 61.7959 111.066 61.6364C111.255 61.4769 111.376 61.2512 111.404 61.0055L112.065 55.0471C112.076 54.9405 112.065 54.8327 112.032 54.7308C111.998 54.6289 111.943 54.5353 111.871 54.4561C111.798 54.3769 111.71 54.314 111.611 54.2716C111.512 54.2291 111.406 54.2081 111.298 54.2098H109.85C109.748 54.2128 109.648 54.2363 109.556 54.2788C109.464 54.3213 109.381 54.382 109.313 54.4572C109.245 54.5323 109.193 54.6205 109.159 54.7163C109.126 54.8121 109.113 54.9137 109.12 55.0148V55.0148Z" fill="#364FD4"/>
<path d="M111.96 65.1842C111.869 65.4558 111.699 65.6945 111.473 65.8701C111.246 66.0457 110.972 66.1504 110.685 66.1708C110.399 66.1912 110.113 66.1265 109.864 65.9849C109.614 65.8433 109.412 65.6311 109.284 65.3751C109.155 65.1191 109.105 64.8309 109.141 64.5468C109.176 64.2627 109.296 63.9955 109.484 63.7789C109.671 63.5624 109.919 63.4062 110.196 63.3302C110.473 63.2542 110.766 63.2617 111.039 63.3517C111.22 63.4116 111.388 63.5066 111.532 63.6311C111.676 63.7557 111.795 63.9074 111.88 64.0776C111.966 64.2478 112.017 64.4331 112.03 64.623C112.044 64.8129 112.02 65.0036 111.96 65.1842Z" fill="#364FD4"/>
<path opacity="0.5" d="M51.1266 99.8985C51.7775 96.7212 54.3131 94.3508 57.3441 94.3508C57.9005 94.3508 58.4402 94.431 58.9547 94.5811C60.4507 90.9937 63.6972 88.5081 67.4619 88.5081C68.4352 88.5081 69.3739 88.6742 70.2566 88.9825C72.2834 85.2192 75.9655 82.7029 80.1719 82.7029C85.1764 82.7029 89.439 86.2648 91.0541 91.251C92.1976 90.5363 93.5136 90.1274 94.9154 90.1274C99.3022 90.1274 102.858 94.1151 102.858 99.0342C102.858 99.3259 102.845 99.614 102.82 99.8984L51.1266 99.8985Z" fill="white"/>
<path opacity="0.5" d="M239.988 54.0436C241.094 48.748 245.4 44.7973 250.548 44.7973C251.493 44.7973 252.409 44.931 253.283 45.1811C255.824 39.2022 261.338 35.0595 267.732 35.0595C269.385 35.0595 270.979 35.3363 272.479 35.8502C275.921 29.578 282.175 25.3842 289.319 25.3842C297.819 25.3842 305.058 31.3206 307.801 39.631C309.744 38.4398 311.979 37.7584 314.36 37.7584C321.81 37.7584 327.85 44.4046 327.85 52.603C327.85 53.0892 327.827 53.5694 327.786 54.0434L239.988 54.0436Z" fill="white"/>
</svg>
