<svg width="120" height="121" viewBox="0 0 120 121" fill="none" xmlns="http://www.w3.org/2000/svg">
<path fill-rule="evenodd" clip-rule="evenodd" d="M120 60.8843C120 76.7973 113.679 92.0585 102.426 103.311C91.1742 114.563 75.913 120.884 60 120.884C44.087 120.884 28.8258 114.563 17.5736 103.311C6.32141 92.0585 0 76.7973 0 60.8843C0 44.9713 6.32141 29.7101 17.5736 18.4579C28.8258 7.20569 44.087 0.884277 60 0.884277C75.913 0.884277 91.1742 7.20569 102.426 18.4579C113.679 29.7101 120 44.9713 120 60.8843ZM90.225 38.1593C89.6893 37.6254 89.0514 37.2051 88.3495 36.9234C87.6476 36.6417 86.8961 36.5045 86.1399 36.5199C85.3838 36.5353 84.6385 36.703 83.9486 37.013C83.2588 37.3231 82.6385 37.769 82.125 38.3243L56.0775 71.5118L40.38 55.8068C39.3137 54.8132 37.9033 54.2723 36.4461 54.298C34.9888 54.3237 33.5984 54.914 32.5678 55.9446C31.5372 56.9752 30.9469 58.3656 30.9212 59.8229C30.8955 61.2801 31.4364 62.6905 32.43 63.7568L52.275 83.6093C52.8096 84.1429 53.4462 84.5634 54.1469 84.8457C54.8475 85.1279 55.5979 85.2662 56.3531 85.2522C57.1083 85.2382 57.853 85.0722 58.5427 84.7642C59.2324 84.4562 59.853 84.0124 60.3675 83.4593L90.3075 46.0343C91.3282 44.973 91.8921 43.5538 91.878 42.0815C91.864 40.6091 91.2732 39.2009 90.2325 38.1593H90.225Z" fill="#34C98E"/>
</svg>
