<svg width="375" height="260" viewBox="0 0 375 260" fill="none" xmlns="http://www.w3.org/2000/svg">
<path d="M26.5002 52.9753C-65.8829 163.215 -64.1665 186.142 -19.4998 191.975C-28.0001 219.475 41.4993 185.475 82.5 223.975C130.102 268.674 344 275.975 327 202.475C313.331 143.375 384.882 151.215 401.5 93.9753C419.5 31.9753 304 -34.5247 255 20.4753C195.256 87.536 85.9998 -18.0247 26.5002 52.9753Z" fill="#E8F2FD"/>
<g clip-path="url(#clip0_323_1900)">
<path d="M241.744 98.3162H239.946C239.592 98.3162 239.305 98.6023 239.305 98.9552V122.961C239.305 123.314 239.592 123.6 239.946 123.6H241.744C242.099 123.6 242.386 123.314 242.386 122.961V98.9552C242.386 98.6023 242.099 98.3162 241.744 98.3162Z" fill="#263876"/>
<path d="M230.038 51H148.804C142.768 51 137.875 55.8713 137.875 61.8804V248.701C137.875 254.71 142.768 259.581 148.804 259.581H230.038C236.074 259.581 240.967 254.71 240.967 248.701V61.8804C240.967 55.8713 236.074 51 230.038 51Z" fill="#263876"/>
<path d="M226.619 56.433H214.793V57.8492C214.793 58.7307 214.618 59.6036 214.279 60.418C213.94 61.2324 213.443 61.9723 212.817 62.5955C212.191 63.2186 211.447 63.7129 210.629 64.0499C209.811 64.3869 208.934 64.5601 208.048 64.5596H170.439C169.554 64.5601 168.677 64.3869 167.859 64.0499C167.04 63.7129 166.297 63.2186 165.671 62.5955C165.044 61.9723 164.547 61.2324 164.208 60.418C163.869 59.6036 163.695 58.7307 163.695 57.8492V56.433H152.623C150.451 56.433 148.369 57.2917 146.833 58.8203C145.298 60.3489 144.435 62.4222 144.435 64.5839V246.012C144.435 248.174 145.298 250.247 146.833 251.775C148.369 253.304 150.451 254.163 152.623 254.163H226.619C228.79 254.163 230.873 253.304 232.408 251.775C233.944 250.247 234.806 248.174 234.806 246.012V64.5979C234.808 63.5263 234.598 62.4649 234.187 61.4744C233.776 60.4838 233.173 59.5836 232.413 58.8253C231.653 58.0669 230.749 57.4653 229.755 57.0548C228.761 56.6443 227.695 56.433 226.619 56.433V56.433Z" fill="white"/>
<path d="M192.788 57.2291H180.562C179.963 57.2291 179.477 57.7126 179.477 58.3091V59.0578C179.477 59.6542 179.963 60.1377 180.562 60.1377H192.788C193.387 60.1377 193.873 59.6542 193.873 59.0578V58.3091C193.873 57.7126 193.387 57.2291 192.788 57.2291Z" fill="#E6E8EC"/>
<path d="M197.709 60.3352C198.626 60.3352 199.369 59.5957 199.369 58.6835C199.369 57.7712 198.626 57.0317 197.709 57.0317C196.793 57.0317 196.05 57.7712 196.05 58.6835C196.05 59.5957 196.793 60.3352 197.709 60.3352Z" fill="#E6E8EC"/>
<path d="M190.051 177.266C200.821 177.266 209.553 168.574 209.553 157.851C209.553 147.129 200.821 138.437 190.051 138.437C179.28 138.437 170.548 147.129 170.548 157.851C170.548 168.574 179.28 177.266 190.051 177.266Z" fill="white"/>
<path d="M215.701 155.14C215.701 160.273 214.172 165.289 211.308 169.557C208.444 173.824 204.373 177.149 199.61 179.113C194.847 181.077 189.606 181.591 184.55 180.589C179.494 179.588 174.85 177.116 171.204 173.487C167.559 169.858 165.077 165.235 164.071 160.201C163.066 155.168 163.582 149.95 165.555 145.209C167.528 140.467 170.869 136.415 175.156 133.564C179.442 130.713 184.482 129.191 189.637 129.191C193.06 129.191 196.449 129.862 199.612 131.167C202.774 132.471 205.647 134.382 208.068 136.792C210.488 139.201 212.408 142.062 213.718 145.21C215.027 148.359 215.701 151.733 215.701 155.14V155.14ZM186.624 168.876L205.959 149.627C206.115 149.472 206.239 149.287 206.324 149.084C206.409 148.881 206.453 148.663 206.453 148.443C206.453 148.223 206.409 148.005 206.324 147.802C206.239 147.599 206.115 147.414 205.959 147.259L203.58 144.908C203.424 144.752 203.239 144.629 203.035 144.544C202.831 144.46 202.613 144.417 202.392 144.417C202.171 144.417 201.953 144.46 201.749 144.544C201.545 144.629 201.36 144.752 201.204 144.908L185.434 160.607L178.071 153.26C177.755 152.947 177.327 152.771 176.882 152.771C176.436 152.771 176.008 152.947 175.692 153.26L173.313 155.642C172.999 155.957 172.822 156.382 172.822 156.826C172.822 157.27 172.999 157.696 173.313 158.01L184.245 168.889C184.401 169.045 184.587 169.169 184.791 169.253C184.995 169.338 185.214 169.381 185.435 169.381C185.656 169.381 185.875 169.338 186.079 169.253C186.283 169.169 186.468 169.045 186.624 168.889L186.624 168.876Z" fill="#364FD4"/>
<path d="M141.102 92.1208H140.832C140.478 92.1208 140.191 92.407 140.191 92.7599V98.9641C140.191 99.3171 140.478 99.6032 140.832 99.6032H141.102C141.457 99.6032 141.744 99.3171 141.744 98.9641V92.7599C141.744 92.407 141.457 92.1208 141.102 92.1208Z" fill="#3F3D56"/>
<path d="M141.243 105.822H140.776C140.422 105.822 140.134 106.108 140.134 106.461V118.205C140.134 118.558 140.422 118.844 140.776 118.844H141.243C141.598 118.844 141.885 118.558 141.885 118.205V106.461C141.885 106.108 141.598 105.822 141.243 105.822Z" fill="#3F3D56"/>
<path d="M141.187 123.401H140.804C140.45 123.401 140.162 123.687 140.162 124.04V135.896C140.162 136.249 140.45 136.535 140.804 136.535H141.187C141.541 136.535 141.829 136.249 141.829 135.896V124.04C141.829 123.687 141.541 123.401 141.187 123.401Z" fill="#3F3D56"/>
<path d="M119.512 158.132C119.557 158.175 119.614 158.202 119.676 158.21C119.737 158.218 119.799 158.206 119.853 158.176C119.738 158.178 119.623 158.163 119.512 158.132Z" fill="url(#paint0_linear_323_1900)"/>
<path d="M132.396 163.149L132.06 164.973L131.8 166.369L131.328 168.921L126.751 172.111C126.751 172.111 126.339 171.759 125.658 171.205C123.782 169.668 119.839 166.537 116.944 164.856C116.2 164.383 115.394 164.014 114.549 163.757L132.396 163.149Z" fill="#FEB9B9"/>
<path d="M129.038 164.506C129.038 164.506 134.375 165.418 134.688 163.149C135 160.88 131.941 159.654 129.348 159.502C126.755 159.349 111.193 160.414 111.193 160.414C111.193 160.414 108.447 164.058 118.362 164.668L129.038 164.506Z" fill="#3F3D56"/>
<path d="M140.709 89.6339H112.79V122.591H140.709V89.6339Z" fill="#2F2E41"/>
<path opacity="0.1" d="M140.709 89.7834H112.79V122.741H140.709V89.7834Z" fill="black"/>
<path d="M80.0695 146.053C79.6098 146.168 79.0222 146.611 78.3688 147.251C75.5551 150.024 71.525 156.532 71.525 156.532C66.3726 150.423 72.0742 145.595 74.5045 143.936C75.0954 143.535 75.4923 143.314 75.4923 143.314L80.0695 146.053Z" fill="#FEB9B9"/>
<path d="M132.09 100.036C132.09 100.036 133.463 109.603 138.193 111.882C142.922 114.16 132.09 118.418 132.09 118.418L117.292 112.946C117.292 112.946 125.684 110.211 124.005 102.161L132.09 100.036Z" fill="#FEB9B9"/>
<path d="M116.224 157.597L115.889 159.414L115.617 160.815L115.145 163.367L110.568 166.554C110.568 166.554 110.155 166.206 109.474 165.652C107.599 164.114 103.656 160.983 100.757 159.303C100.012 158.829 99.2067 158.46 98.3618 158.204L116.224 157.597Z" fill="#FEB9B9"/>
<path d="M112.264 159.838C112.264 159.838 117.054 159.872 117.342 157.597C117.63 155.321 114.732 154.102 112.264 153.949C109.797 153.796 94.8038 154.932 94.8038 154.932C94.8038 154.932 92.6768 159.229 102.107 159.838L112.264 159.838Z" fill="#2F2E41"/>
<path d="M145.846 195.584C145.637 195.481 145.427 195.375 145.221 195.273L144.658 194.566L137.277 185.248V185.41C137.227 186.966 136.695 199.297 132.549 200.436C128.126 201.65 122.789 201.955 120.356 193.754C117.923 185.553 113.478 167.631 108.913 166.567L115.704 161.024C115.704 161.024 120.199 166.259 122.031 171.27C121.963 170.959 118.858 156.517 121.406 153.962H143.684C143.684 153.962 147.123 163.713 149.48 168.544C151.315 172.294 154.069 181.161 155.843 187.162C157.599 193.088 151.43 198.32 145.846 195.584Z" fill="#37474F"/>
<path opacity="0.1" d="M145.212 156.685C141.773 158.711 126.675 157.886 121.763 157.556L120.425 157.46C120.281 157.46 120.447 157.379 120.447 157.379L120.585 156L124.246 146.737L143.849 135.421C143.451 136.613 143.32 138.437 143.352 140.525C143.442 147.235 145.212 156.685 145.212 156.685Z" fill="black"/>
<path d="M145.212 156.227C141.773 158.254 126.675 157.429 121.763 157.099L120.425 157.005L120.203 156.987L120.447 156.925L121.654 156.613L124.245 146.286L143.848 134.973C143.451 136.165 143.32 137.989 143.351 140.077C143.442 146.781 145.212 156.227 145.212 156.227Z" fill="#EFEFEF"/>
<path opacity="0.1" d="M143.339 140.071C139.353 140.986 130.58 143.671 127.209 150.155C124.962 154.472 123.07 156.324 121.751 157.099L120.412 157.005C120.421 156.979 120.429 156.952 120.434 156.924L121.641 156.613L124.233 146.286L143.836 134.973C143.443 136.158 143.307 137.982 143.339 140.071Z" fill="black"/>
<path opacity="0.1" d="M75.4922 143.32L80.0694 146.053C79.6097 146.168 79.0222 146.611 78.3688 147.251C77.9873 146.143 75.5937 144.596 74.5044 143.937C75.095 143.541 75.4922 143.32 75.4922 143.32Z" fill="black"/>
<path opacity="0.1" d="M119.597 157.183C119.547 157.209 119.489 157.219 119.433 157.211C119.377 157.203 119.325 157.178 119.284 157.139C119.386 157.169 119.491 157.184 119.597 157.183V157.183Z" fill="black"/>
<path d="M129.955 111.275C129.955 111.275 125.834 111.729 122.936 108.691C122.936 108.691 110.742 112.187 106.613 120.083C102.483 127.979 74.4104 143.473 74.4104 143.473C74.4104 143.473 79.294 146.205 78.8343 147.572L97.2959 136.94C97.2959 136.94 103.861 132.234 105.684 131.169C107.507 130.105 117.587 123.575 119.722 141.344C121.857 159.113 119.722 156.987 119.722 156.987C119.722 156.987 122.773 158.052 127.197 149.545C131.621 141.039 145.349 139.065 145.349 139.065L146.112 130.108C146.112 130.108 148.835 124.169 146.738 121.704C146.102 120.975 145.679 120.085 145.515 119.133C145.168 116.858 145.515 113.067 150.373 109.918C157.849 105.056 160.747 101.109 160.747 101.109C160.747 101.109 160.9 98.2213 156.323 96.8547C151.746 95.4882 133.134 88.0466 133.134 88.0466L132.509 90.6298L147.194 100.948C147.194 100.948 139.872 106.861 134.063 106.718C134.063 106.718 135.141 111.122 129.955 111.275Z" fill="#FEB546"/>
<path opacity="0.1" d="M132.781 104.2C132.42 102.983 132.138 101.743 131.937 100.49L123.852 102.616C124.208 104.153 124.145 105.756 123.668 107.26C125.321 107.699 127.067 107.643 128.688 107.099C130.309 106.554 131.733 105.546 132.781 104.2V104.2Z" fill="black"/>
<path d="M126.066 107.098C130.868 107.098 134.76 103.223 134.76 98.4422C134.76 93.6618 130.868 89.7865 126.066 89.7865C121.264 89.7865 117.371 93.6618 117.371 98.4422C117.371 103.223 121.264 107.098 126.066 107.098Z" fill="#FEB9B9"/>
<path opacity="0.1" d="M135.523 168.151C135.523 168.151 140.556 178.024 139.031 181.058Z" fill="black"/>
<path d="M130.689 78.451C133.103 78.7251 135.395 79.755 137.771 80.3185C138.365 80.5022 138.997 80.5258 139.603 80.3868C140.525 80.1036 141.276 79.142 142.232 79.1699C142.821 79.1886 143.342 79.5871 143.827 79.9696C144.604 80.5618 145.335 81.211 146.015 81.9119C147.653 83.6828 148.669 86.067 150.164 87.9936C151.658 89.9202 153.789 92.1794 155.912 91.296C154.468 96.8983 149.964 100.403 144.846 100.752C142.804 100.891 140.713 100.469 138.737 101.063C138.245 101.264 137.725 101.39 137.195 101.436C136.057 101.436 135.141 100.397 134.431 99.3852C132.768 97.0074 131.452 94.3089 129.579 92.1395C128.954 91.4207 128.232 90.739 127.356 90.6084C126.481 90.4778 125.677 90.8947 124.899 91.2962C123.614 91.9593 122.301 92.6438 121.304 93.7862C120.306 94.9287 119.678 96.6153 120.09 98.1437C120.312 98.9717 120.819 99.7187 120.828 100.584C120.847 101.966 119.621 102.974 119.381 104.319C119.326 104.883 119.306 105.451 119.321 106.018C119.215 107.86 118.004 109.367 116.742 110.528C116.249 110.976 115.705 111.462 115.561 112.156C115.464 112.632 115.561 113.132 115.498 113.615C115.314 114.811 114.116 115.418 113.056 115.573C111.818 115.756 110.553 115.606 109.392 115.141C110.874 114.443 111.787 112.458 111.443 110.681C110.971 108.215 108.482 106.444 108.696 103.936C108.813 103.166 109.045 102.418 109.384 101.717C109.926 100.361 110.32 98.9517 110.56 97.5122C110.747 96.401 110.838 95.2214 110.488 94.1602C110.175 93.1952 109.522 92.4267 108.968 91.611C108.218 90.5014 107.625 89.2937 107.208 88.0223C107.057 87.6452 106.999 87.2373 107.04 86.8333C107.165 86.3561 107.432 85.9276 107.806 85.6038C109.166 84.1806 110.62 82.703 112.442 82.2953C113.312 82.1515 114.197 82.1181 115.075 82.1957C116.602 82.2434 118.131 82.1788 119.649 82.0026C120.899 81.8563 123.012 81.875 124.073 81.0688C125.06 80.3154 125.617 79.3694 126.833 78.8903C128.065 78.4358 129.388 78.2852 130.691 78.4513L130.689 78.451Z" fill="#2F2E41"/>
<path d="M292.247 259.063C299.212 259.063 304.859 258.112 304.859 256.94C304.859 255.767 299.212 254.816 292.247 254.816C285.281 254.816 279.634 255.767 279.634 256.94C279.634 258.112 285.281 259.063 292.247 259.063Z" fill="#0260B7"/>
<path d="M297.463 253.468C298.038 253 298.457 252.369 298.664 251.66C298.821 250.945 298.514 250.097 297.823 249.82C297.052 249.527 296.225 250.061 295.602 250.598C294.979 251.135 294.26 251.75 293.441 251.635C293.863 251.255 294.178 250.774 294.357 250.237C294.536 249.7 294.572 249.126 294.462 248.571C294.425 248.341 294.326 248.126 294.176 247.947C293.75 247.491 292.971 247.685 292.461 248.047C290.829 249.186 290.375 251.395 290.365 253.377C290.199 252.662 290.34 251.915 290.334 251.191C290.328 250.466 290.13 249.628 289.506 249.246C289.121 249.04 288.688 248.939 288.251 248.952C287.517 248.924 286.702 248.999 286.2 249.533C285.573 250.195 285.742 251.306 286.281 252.031C286.821 252.755 287.646 253.22 288.405 253.723C289.012 254.084 289.529 254.576 289.919 255.163C289.965 255.245 290.003 255.332 290.031 255.422H294.614C295.647 254.902 296.605 254.244 297.462 253.469L297.463 253.468Z" fill="#0260B7"/>
<path d="M120.766 260C125.363 260 129.089 259.373 129.089 258.599C129.089 257.825 125.363 257.198 120.766 257.198C116.169 257.198 112.442 257.825 112.442 258.599C112.442 259.373 116.169 260 120.766 260Z" fill="#EFEFEF"/>
<path d="M124.208 256.307C124.587 255.998 124.864 255.582 125.001 255.114C125.061 254.879 125.039 254.63 124.938 254.41C124.837 254.189 124.664 254.009 124.446 253.9C123.937 253.706 123.392 254.059 122.981 254.413C122.569 254.768 122.095 255.174 121.554 255.097C121.832 254.847 122.041 254.529 122.158 254.175C122.276 253.821 122.3 253.442 122.227 253.076C122.203 252.924 122.138 252.782 122.039 252.664C121.758 252.363 121.244 252.491 120.907 252.73C119.83 253.483 119.53 254.939 119.524 256.247C119.414 255.776 119.507 255.283 119.503 254.805C119.499 254.327 119.369 253.775 118.956 253.521C118.702 253.386 118.417 253.319 118.128 253.328C117.644 253.309 117.106 253.359 116.775 253.711C116.361 254.148 116.472 254.882 116.828 255.36C117.184 255.838 117.729 256.145 118.23 256.476C118.631 256.713 118.972 257.038 119.23 257.425C119.261 257.479 119.286 257.536 119.304 257.596H122.329C123.011 257.252 123.643 256.818 124.208 256.306V256.307Z" fill="#EFEFEF"/>
<path d="M73.6926 260C78.2896 260 82.0162 259.373 82.0162 258.599C82.0162 257.825 78.2896 257.198 73.6926 257.198C69.0956 257.198 65.369 257.825 65.369 258.599C65.369 259.373 69.0956 260 73.6926 260Z" fill="#EFEFEF"/>
<path d="M77.1349 256.307C77.5142 255.998 77.7906 255.582 77.9276 255.114C77.988 254.879 77.9659 254.63 77.865 254.41C77.7641 254.189 77.5905 254.009 77.3729 253.9C76.8635 253.706 76.3192 254.059 75.9074 254.413C75.4956 254.768 75.0213 255.174 74.4812 255.097C74.7592 254.847 74.9673 254.529 75.0852 254.175C75.2031 253.821 75.2268 253.442 75.1539 253.076C75.1297 252.924 75.0646 252.782 74.9656 252.664C74.6852 252.363 74.1706 252.491 73.8334 252.73C72.757 253.483 72.4568 254.939 72.4506 256.247C72.341 255.776 72.4341 255.283 72.4298 254.805C72.4256 254.327 72.2953 253.775 71.8833 253.521C71.6291 253.386 71.3435 253.319 71.0552 253.328C70.5708 253.309 70.0326 253.359 69.7013 253.711C69.2873 254.148 69.3991 254.882 69.7551 255.36C70.1111 255.838 70.6555 256.145 71.1567 256.476C71.5573 256.713 71.899 257.038 72.1565 257.425C72.1876 257.479 72.2126 257.536 72.2311 257.596H75.2554C75.9373 257.252 76.5695 256.818 77.1349 256.306V256.307Z" fill="#EFEFEF"/>
<path d="M314 259.2H61V259.708H314V259.2Z" fill="#2F2E41"/>
<path d="M271.554 204.034C271.554 204.034 245.143 202.448 248.255 220.872C248.255 220.872 247.628 224.128 250.601 225.606C250.601 225.606 250.648 224.241 253.311 224.706C254.259 224.863 255.222 224.909 256.181 224.843C257.475 224.759 258.705 224.258 259.688 223.416C259.688 223.416 267.113 220.362 269.998 208.284C269.998 208.284 272.134 205.649 272.05 204.971L267.593 206.866C267.593 206.866 269.117 210.067 267.906 212.726C267.906 212.726 267.762 206.981 266.906 207.106C266.733 207.131 264.591 208.214 264.591 208.214C264.591 208.214 267.21 213.788 265.234 217.841C265.234 217.841 265.983 210.972 263.772 208.617L260.635 210.441C260.635 210.441 263.697 216.199 261.62 220.898C261.62 220.898 262.153 213.691 259.974 210.884L257.132 213.092C257.132 213.092 260.008 218.765 258.255 222.663C258.255 222.663 258.026 214.276 256.517 213.642C256.517 213.642 254.029 215.828 253.65 216.721C253.65 216.721 255.619 220.843 254.396 223.016C254.396 223.016 253.647 217.426 253.032 217.395C253.032 217.395 250.554 221.098 250.296 223.64C250.296 223.64 250.403 219.865 252.432 217.045C252.432 217.045 250.036 217.455 248.637 218.999C248.637 218.999 249.023 216.382 253.044 216.151C253.044 216.151 255.092 213.341 255.638 213.172C255.638 213.172 251.642 212.837 249.217 213.909C249.217 213.909 251.35 211.439 256.372 212.563L259.179 210.281C259.179 210.281 253.916 209.565 251.683 210.356C251.683 210.356 254.252 208.17 259.935 209.762L262.991 207.945C262.991 207.945 258.502 206.983 255.83 207.32C255.83 207.32 258.653 205.806 263.888 207.448L266.084 206.472C266.084 206.472 262.796 205.829 261.833 205.726C260.87 205.623 260.82 205.36 260.82 205.36C262.903 205.015 265.041 205.251 266.996 206.044C266.996 206.044 271.633 204.325 271.554 204.034Z" fill="#0260B7"/>
<path d="M81.651 182.437C81.651 182.437 69.7316 181.722 71.1242 190.047C71.1242 190.047 70.8438 191.518 72.1843 192.186C72.1843 192.186 72.2062 191.562 73.4107 191.777C73.8384 191.849 74.2732 191.87 74.706 191.839C75.2911 191.801 75.8474 191.573 76.29 191.19V191.19C76.29 191.19 79.6462 189.81 80.951 184.351C80.951 184.351 81.9139 183.162 81.8761 182.856L79.8623 183.711C79.8623 183.711 80.5493 185.157 80.0097 186.359C80.0097 186.359 79.9439 183.764 79.5582 183.824C79.4797 183.824 78.5104 184.326 78.5104 184.326C78.5104 184.326 79.6961 186.846 78.8022 188.676C78.8022 188.676 79.1408 185.572 78.1403 184.507L76.7225 185.344C76.7225 185.344 78.1059 187.945 77.1679 190.069C77.1679 190.069 77.4096 186.812 76.4246 185.544L75.1416 186.544C75.1416 186.544 76.4403 189.107 75.6498 190.869C75.6498 190.869 75.5433 187.078 74.8624 186.791C74.8624 186.791 73.7395 187.778 73.5668 188.184C73.5668 188.184 74.4576 190.057 73.9057 191.028C73.9057 191.028 73.5668 188.502 73.2784 188.489C73.2784 188.489 72.1585 190.163 72.0425 191.299C72.0985 190.239 72.4316 189.213 73.0087 188.32C72.3625 188.442 71.7661 188.749 71.2929 189.204C71.2929 189.204 71.4687 188.021 73.2848 187.918C73.2848 187.918 74.2258 186.647 74.4579 186.569C74.4579 186.569 72.6513 186.419 71.5564 186.904C71.5564 186.904 72.5193 185.789 74.7873 186.295L76.0419 185.264C76.0419 185.264 73.6621 184.949 72.653 185.296C72.653 185.296 73.8135 184.31 76.3825 185.028L77.7628 184.207C77.7628 184.207 75.7333 183.773 74.5257 183.928C74.5257 183.928 75.8023 183.244 78.1675 183.983L79.1556 183.543C79.1556 183.543 77.67 183.253 77.2327 183.206C76.7954 183.159 76.7747 183.04 76.7747 183.04C77.7163 182.884 78.6829 182.992 79.5663 183.353C79.5663 183.353 81.6877 182.567 81.651 182.437Z" fill="#3F3D56"/>
</g>
<path opacity="0.5" d="M18 85.4753C18.9689 80.8559 22.743 77.4097 27.2544 77.4097C28.0826 77.4097 28.8859 77.5263 29.6518 77.7445C31.8784 72.529 36.7108 68.9152 42.3143 68.9152C43.763 68.9152 45.1602 69.1567 46.474 69.605C49.4909 64.1337 54.9715 60.4753 61.2325 60.4753C68.6815 60.4753 75.0261 65.6538 77.4302 72.9031C79.1321 71.864 81.091 71.2696 83.1776 71.2696C89.707 71.2696 95 77.0671 95 84.2187C95 84.6428 94.9802 85.0617 94.9438 85.4752L18 85.4753Z" fill="white"/>
<path opacity="0.5" d="M261 124.475C262.321 118.193 267.468 113.506 273.62 113.506C274.749 113.506 275.844 113.665 276.889 113.961C279.925 106.868 286.515 101.954 294.156 101.954C296.131 101.954 298.037 102.282 299.828 102.892C303.942 95.4507 311.416 90.4753 319.953 90.4753C330.111 90.4753 338.763 97.518 342.041 107.377C344.362 105.964 347.033 105.156 349.879 105.156C358.782 105.156 366 113.04 366 122.766C366 123.343 365.973 123.913 365.923 124.475L261 124.475Z" fill="white"/>
<defs>
<linearGradient id="paint0_linear_323_1900" x1="119.684" y1="158.213" x2="119.684" y2="158.132" gradientUnits="userSpaceOnUse">
<stop stop-color="#808080" stop-opacity="0.251"/>
<stop offset="0.54" stop-color="#808080" stop-opacity="0.122"/>
<stop offset="1" stop-color="#808080" stop-opacity="0.102"/>
</linearGradient>
<clipPath id="clip0_323_1900">
<rect width="253" height="209" fill="white" transform="translate(61 51)"/>
</clipPath>
</defs>
</svg>
