<svg width="374" height="215" viewBox="0 0 374 215" fill="none" xmlns="http://www.w3.org/2000/svg">
<path d="M62.5992 43.7845C-13.7319 134.898 -12.3138 153.848 24.5918 158.669C17.5686 181.398 74.9921 153.297 108.869 185.117C148.2 222.061 324.932 228.096 310.886 167.347C299.592 118.501 358.711 124.98 372.441 77.6713C387.314 26.4279 291.882 -28.5349 251.396 16.923C202.033 72.3491 111.76 -14.8975 62.5992 43.7845Z" fill="#E8F2FD"/>
<g clip-path="url(#clip0_639_1988)">
<path d="M240.311 81.166H238.825C238.532 81.166 238.295 81.4028 238.295 81.695V101.566C238.295 101.858 238.532 102.094 238.825 102.094H240.311C240.603 102.094 240.841 101.858 240.841 101.566V81.695C240.841 81.4028 240.603 81.166 240.311 81.166Z" fill="#263876"/>
<path d="M230.64 42H163.534C158.547 42 154.505 46.0322 154.505 51.0062V205.647C154.505 210.621 158.547 214.654 163.534 214.654H230.64C235.626 214.654 239.669 210.621 239.669 205.647V51.0062C239.669 46.0322 235.626 42 230.64 42Z" fill="#263876"/>
<path d="M227.815 46.4971H218.046V47.6693C218.046 48.399 217.902 49.1216 217.622 49.7957C217.342 50.4698 216.931 51.0822 216.414 51.5981C215.897 52.1139 215.283 52.523 214.607 52.802C213.931 53.0809 213.206 53.2243 212.475 53.2239H181.406C180.675 53.2243 179.95 53.0809 179.274 52.802C178.599 52.523 177.984 52.1139 177.467 51.5981C176.95 51.0822 176.539 50.4698 176.259 49.7957C175.979 49.1216 175.835 48.399 175.835 47.6693V46.4971H166.688C164.894 46.4971 163.174 47.2079 161.906 48.4732C160.637 49.7385 159.925 51.4546 159.925 53.244V203.421C159.925 205.211 160.637 206.927 161.906 208.192C163.174 209.457 164.894 210.168 166.688 210.168H227.815C229.609 210.168 231.329 209.457 232.598 208.192C233.866 206.927 234.579 205.211 234.579 203.421V53.2556C234.58 52.3686 234.407 51.49 234.067 50.6701C233.728 49.8502 233.23 49.105 232.602 48.4773C231.974 47.8495 231.228 47.3515 230.406 47.0118C229.585 46.672 228.704 46.4971 227.815 46.4971V46.4971Z" fill="white"/>
<path d="M199.868 47.1561H189.768C189.273 47.1561 188.872 47.5564 188.872 48.0501V48.6698C188.872 49.1635 189.273 49.5637 189.768 49.5637H199.868C200.363 49.5637 200.765 49.1635 200.765 48.6698V48.0501C200.765 47.5564 200.363 47.1561 199.868 47.1561Z" fill="#E6E8EC"/>
<path d="M203.934 49.7272C204.691 49.7272 205.305 49.1151 205.305 48.36C205.305 47.6049 204.691 46.9928 203.934 46.9928C203.177 46.9928 202.563 47.6049 202.563 48.36C202.563 49.1151 203.177 49.7272 203.934 49.7272Z" fill="#E6E8EC"/>
<path d="M197.607 146.517C206.505 146.517 213.717 139.322 213.717 130.446C213.717 121.571 206.505 114.376 197.607 114.376C188.709 114.376 181.497 121.571 181.497 130.446C181.497 139.322 188.709 146.517 197.607 146.517Z" fill="white"/>
<path d="M218.797 128.202C218.797 132.451 217.534 136.603 215.168 140.135C212.801 143.667 209.438 146.42 205.504 148.046C201.569 149.671 197.24 150.097 193.063 149.268C188.886 148.439 185.05 146.393 182.038 143.389C179.027 140.385 176.977 136.558 176.146 132.391C175.315 128.225 175.742 123.906 177.372 119.981C179.001 116.057 181.761 112.702 185.302 110.342C188.843 107.982 193.007 106.723 197.265 106.723C200.093 106.723 202.893 107.279 205.505 108.358C208.118 109.438 210.491 111.02 212.491 113.014C214.49 115.009 216.076 117.377 217.158 119.983C218.24 122.589 218.797 125.382 218.797 128.202V128.202ZM194.776 139.572L210.749 123.639C210.878 123.51 210.98 123.357 211.05 123.189C211.12 123.021 211.156 122.841 211.156 122.659C211.156 122.476 211.12 122.296 211.05 122.128C210.98 121.96 210.878 121.807 210.749 121.678L208.783 119.732C208.655 119.603 208.502 119.501 208.333 119.431C208.165 119.362 207.984 119.326 207.802 119.326C207.62 119.326 207.439 119.362 207.271 119.431C207.102 119.501 206.95 119.603 206.821 119.732L193.794 132.727L187.711 126.646C187.45 126.387 187.097 126.241 186.728 126.241C186.36 126.241 186.007 126.387 185.746 126.646L183.78 128.617C183.521 128.878 183.375 129.23 183.375 129.598C183.375 129.965 183.521 130.317 183.78 130.578L192.811 139.583C192.94 139.712 193.093 139.814 193.262 139.884C193.431 139.954 193.611 139.99 193.794 139.99C193.977 139.99 194.157 139.954 194.326 139.884C194.495 139.814 194.648 139.712 194.777 139.583L194.776 139.572Z" fill="#364FD4"/>
<path d="M157.172 76.0378H156.949C156.656 76.0378 156.418 76.2747 156.418 76.5668V81.7024C156.418 81.9945 156.656 82.2313 156.949 82.2313H157.172C157.464 82.2313 157.702 81.9945 157.702 81.7024V76.5668C157.702 76.2747 157.464 76.0378 157.172 76.0378Z" fill="#3F3D56"/>
<path d="M157.288 87.3787H156.902C156.609 87.3787 156.372 87.6155 156.372 87.9076V97.629C156.372 97.9211 156.609 98.158 156.902 98.158H157.288C157.581 98.158 157.818 97.9211 157.818 97.629V87.9076C157.818 87.6155 157.581 87.3787 157.288 87.3787Z" fill="#3F3D56"/>
<path d="M157.241 101.93H156.925C156.632 101.93 156.395 102.167 156.395 102.459V112.273C156.395 112.565 156.632 112.802 156.925 112.802H157.241C157.534 112.802 157.772 112.565 157.772 112.273V102.459C157.772 102.167 157.534 101.93 157.241 101.93Z" fill="#3F3D56"/>
<path d="M139.336 130.679C139.373 130.714 139.42 130.737 139.471 130.744C139.522 130.75 139.573 130.74 139.618 130.715C139.523 130.716 139.428 130.704 139.336 130.679Z" fill="url(#paint0_linear_639_1988)"/>
<path d="M149.98 134.832L149.702 136.342L149.487 137.496L149.097 139.609L145.316 142.25C145.316 142.25 144.975 141.959 144.413 141.5C142.864 140.227 139.607 137.636 137.215 136.244C136.6 135.853 135.934 135.547 135.237 135.335L149.98 134.832Z" fill="#FEB9B9"/>
<path d="M147.206 135.955C147.206 135.955 151.614 136.71 151.873 134.832C152.131 132.954 149.603 131.939 147.461 131.812C145.319 131.686 132.463 132.567 132.463 132.567C132.463 132.567 130.196 135.584 138.386 136.089L147.206 135.955Z" fill="#3F3D56"/>
<path d="M156.847 73.9792H133.783V101.26H156.847V73.9792Z" fill="#2F2E41"/>
<path opacity="0.1" d="M156.847 74.103H133.783V101.384H156.847V74.103Z" fill="black"/>
<path d="M106.753 120.68C106.373 120.775 105.888 121.142 105.348 121.672C103.024 123.967 99.6946 129.355 99.6946 129.355C95.4382 124.297 100.148 120.301 102.156 118.928C102.644 118.596 102.972 118.413 102.972 118.413L106.753 120.68Z" fill="#FEB9B9"/>
<path d="M149.726 82.5894C149.726 82.5894 150.861 90.509 154.768 92.3948C158.674 94.2806 149.726 97.805 149.726 97.805L137.502 93.2758C137.502 93.2758 144.434 91.0121 143.047 84.3488L149.726 82.5894Z" fill="#FEB9B9"/>
<path d="M136.619 130.236L136.343 131.74L136.118 132.9L135.728 135.012L131.947 137.65C131.947 137.65 131.606 137.362 131.044 136.903C129.495 135.631 126.238 133.039 123.843 131.648C123.228 131.256 122.562 130.95 121.864 130.738L136.619 130.236Z" fill="#FEB9B9"/>
<path d="M133.349 132.091C133.349 132.091 137.305 132.119 137.543 130.236C137.781 128.352 135.387 127.343 133.349 127.216C131.31 127.09 118.925 128.03 118.925 128.03C118.925 128.03 117.168 131.587 124.958 132.091L133.349 132.091Z" fill="#2F2E41"/>
<path d="M161.09 161.68C160.917 161.595 160.744 161.507 160.574 161.422L160.109 160.837L154.011 153.124V153.258C153.97 154.546 153.531 164.753 150.106 165.696C146.452 166.701 142.043 166.953 140.033 160.165C138.023 153.376 134.351 138.542 130.58 137.661L136.19 133.073C136.19 133.073 139.904 137.406 141.417 141.554C141.36 141.296 138.796 129.342 140.901 127.227H159.304C159.304 127.227 162.145 135.299 164.092 139.297C165.608 142.401 167.884 149.741 169.349 154.709C170.799 159.613 165.703 163.944 161.09 161.68Z" fill="#37474F"/>
<path opacity="0.1" d="M160.566 129.481C157.725 131.158 145.253 130.475 141.196 130.202L140.09 130.122C139.972 130.122 140.108 130.055 140.108 130.055L140.222 128.914L143.247 121.247L159.44 111.879C159.112 112.866 159.004 114.376 159.03 116.104C159.104 121.659 160.566 129.481 160.566 129.481Z" fill="black"/>
<path d="M160.566 129.102C157.725 130.779 145.253 130.097 141.196 129.824L140.09 129.746L139.907 129.731L140.108 129.679L141.105 129.422L143.246 120.873L159.44 111.508C159.112 112.495 159.003 114.005 159.029 115.734C159.104 121.283 160.566 129.102 160.566 129.102Z" fill="#EFEFEF"/>
<path opacity="0.1" d="M159.019 115.728C155.726 116.486 148.479 118.708 145.695 124.076C143.838 127.649 142.275 129.182 141.185 129.823L140.08 129.746C140.087 129.724 140.093 129.702 140.098 129.679L141.095 129.421L143.236 120.873L159.429 111.508C159.105 112.49 158.993 114 159.019 115.728Z" fill="black"/>
<path opacity="0.1" d="M102.972 118.418L106.753 120.68C106.373 120.776 105.888 121.142 105.348 121.672C105.033 120.755 103.056 119.475 102.156 118.928C102.644 118.601 102.972 118.418 102.972 118.418Z" fill="black"/>
<path opacity="0.1" d="M139.406 129.893C139.364 129.915 139.317 129.923 139.271 129.916C139.225 129.91 139.182 129.889 139.148 129.857C139.232 129.881 139.319 129.894 139.406 129.893V129.893Z" fill="black"/>
<path d="M147.963 91.8924C147.963 91.8924 144.559 92.2685 142.164 89.7542C142.164 89.7542 132.092 92.6473 128.68 99.1833C125.269 105.719 102.078 118.544 102.078 118.544C102.078 118.544 106.112 120.806 105.733 121.937L120.984 113.137C120.984 113.137 126.407 109.241 127.913 108.36C129.419 107.479 137.745 102.074 139.509 116.782C141.273 131.491 139.509 129.731 139.509 129.731C139.509 129.731 142.03 130.612 145.685 123.571C149.339 116.53 160.68 114.896 160.68 114.896L161.31 107.482C161.31 107.482 163.56 102.566 161.827 100.526C161.302 99.9215 160.952 99.1855 160.817 98.3975C160.53 96.5143 160.817 93.3763 164.83 90.7691C171.005 86.7448 173.4 83.4782 173.4 83.4782C173.4 83.4782 173.526 81.0875 169.745 79.9563C165.964 78.8252 150.589 72.6654 150.589 72.6654L150.073 74.8037L162.204 83.3442C162.204 83.3442 156.155 88.2391 151.356 88.1206C151.356 88.1206 152.247 91.7661 147.963 91.8924Z" fill="#FEB546"/>
<path opacity="0.1" d="M150.297 86.0363C149.999 85.0286 149.767 84.0028 149.6 82.9653L142.921 84.7255C143.216 85.9973 143.163 87.3247 142.769 88.5693C144.134 88.9328 145.577 88.8863 146.916 88.4358C148.255 87.9852 149.432 87.1506 150.297 86.0363V86.0363Z" fill="black"/>
<path d="M144.75 88.4352C148.717 88.4352 151.932 85.2274 151.932 81.2704C151.932 77.3134 148.717 74.1056 144.75 74.1056C140.783 74.1056 137.567 77.3134 137.567 81.2704C137.567 85.2274 140.783 88.4352 144.75 88.4352Z" fill="#FEB9B9"/>
<path opacity="0.1" d="M152.562 138.972C152.562 138.972 156.72 147.144 155.46 149.656Z" fill="black"/>
<path d="M148.569 64.7226C150.563 64.9494 152.456 65.802 154.419 66.2684C154.91 66.4205 155.432 66.44 155.933 66.325C156.695 66.0905 157.315 65.2945 158.105 65.3176C158.591 65.3331 159.022 65.663 159.422 65.9797C160.064 66.4698 160.668 67.0072 161.23 67.5873C162.583 69.0532 163.423 71.0268 164.657 72.6215C165.891 74.2162 167.652 76.0863 169.406 75.355C168.213 79.9923 164.492 82.8933 160.264 83.1821C158.578 83.2976 156.85 82.9476 155.217 83.4396C154.811 83.6059 154.381 83.7101 153.944 83.7487C153.004 83.7487 152.247 82.8882 151.661 82.0509C150.287 80.0827 149.199 77.849 147.652 76.0533C147.136 75.4583 146.539 74.894 145.816 74.7859C145.093 74.6778 144.429 75.0229 143.786 75.3552C142.725 75.9041 141.64 76.4707 140.816 77.4164C139.992 78.362 139.473 79.7581 139.814 81.0232C139.997 81.7086 140.416 82.3269 140.423 83.043C140.439 84.1869 139.427 85.0217 139.228 86.1346C139.183 86.602 139.166 87.0718 139.179 87.5413C139.091 89.0658 138.09 90.3131 137.048 91.2743C136.64 91.6453 136.191 92.0472 136.072 92.6216C135.992 93.0157 136.072 93.4301 136.02 93.8299C135.868 94.8193 134.879 95.3217 134.003 95.4506C132.98 95.6017 131.935 95.4781 130.976 95.0925C132.2 94.5151 132.955 92.8718 132.67 91.4006C132.281 89.3601 130.225 87.8942 130.401 85.8179C130.498 85.1808 130.689 84.5617 130.969 83.9811C131.417 82.859 131.743 81.6921 131.941 80.5005C132.095 79.5807 132.171 78.6043 131.881 77.7259C131.623 76.9271 131.083 76.291 130.626 75.6158C130.006 74.6973 129.517 73.6976 129.172 72.6453C129.047 72.3331 128.999 71.9955 129.033 71.661C129.136 71.266 129.357 70.9114 129.666 70.6433C130.789 69.4653 131.99 68.2422 133.496 67.9047C134.214 67.7857 134.945 67.758 135.671 67.8222C136.932 67.8617 138.195 67.8083 139.449 67.6624C140.482 67.5414 142.228 67.5568 143.103 66.8895C143.92 66.2658 144.379 65.4828 145.384 65.0862C146.401 64.71 147.495 64.5854 148.571 64.7228L148.569 64.7226Z" fill="#2F2E41"/>
<path d="M282.03 214.225C287.784 214.225 292.449 213.438 292.449 212.467C292.449 211.496 287.784 210.709 282.03 210.709C276.275 210.709 271.611 211.496 271.611 212.467C271.611 213.438 276.275 214.225 282.03 214.225Z" fill="#0260B7"/>
<path d="M286.339 209.593C286.814 209.205 287.16 208.684 287.331 208.096C287.461 207.504 287.207 206.803 286.637 206.574C285.999 206.331 285.317 206.773 284.802 207.217C284.287 207.662 283.693 208.171 283.017 208.075C283.365 207.761 283.625 207.363 283.773 206.918C283.921 206.474 283.951 205.999 283.86 205.54C283.829 205.349 283.748 205.171 283.624 205.023C283.271 204.645 282.628 204.806 282.207 205.105C280.859 206.049 280.483 207.877 280.476 209.517C280.338 208.926 280.455 208.308 280.45 207.708C280.445 207.108 280.281 206.414 279.766 206.098C279.448 205.927 279.09 205.844 278.729 205.855C278.123 205.832 277.449 205.894 277.035 206.335C276.516 206.883 276.656 207.804 277.102 208.403C277.548 209.003 278.229 209.388 278.856 209.804C279.358 210.103 279.785 210.51 280.107 210.996C280.145 211.064 280.176 211.136 280.199 211.211H283.985C284.839 210.78 285.63 210.236 286.338 209.594L286.339 209.593Z" fill="#0260B7"/>
<path d="M140.372 215C144.169 215 147.248 214.481 147.248 213.84C147.248 213.2 144.169 212.68 140.372 212.68C136.574 212.68 133.496 213.2 133.496 213.84C133.496 214.481 136.574 215 140.372 215Z" fill="#EFEFEF"/>
<path d="M143.215 211.943C143.529 211.688 143.757 211.343 143.87 210.956C143.92 210.761 143.902 210.555 143.819 210.373C143.735 210.19 143.592 210.041 143.412 209.951C142.991 209.79 142.542 210.082 142.201 210.376C141.861 210.669 141.469 211.005 141.023 210.942C141.253 210.735 141.425 210.472 141.522 210.178C141.62 209.885 141.639 209.572 141.579 209.269C141.559 209.143 141.505 209.025 141.423 208.927C141.192 208.678 140.767 208.784 140.488 208.982C139.599 209.606 139.351 210.81 139.346 211.894C139.255 211.503 139.332 211.096 139.329 210.7C139.325 210.304 139.218 209.847 138.877 209.637C138.667 209.525 138.431 209.47 138.193 209.477C137.793 209.462 137.348 209.503 137.075 209.794C136.733 210.156 136.825 210.763 137.119 211.159C137.413 211.555 137.863 211.809 138.277 212.083C138.608 212.28 138.89 212.548 139.103 212.868C139.128 212.913 139.149 212.961 139.164 213.01H141.663C142.226 212.725 142.748 212.366 143.215 211.942V211.943Z" fill="#EFEFEF"/>
<path d="M101.485 215C105.283 215 108.361 214.481 108.361 213.84C108.361 213.2 105.283 212.68 101.485 212.68C97.6876 212.68 94.6091 213.2 94.6091 213.84C94.6091 214.481 97.6876 215 101.485 215Z" fill="#EFEFEF"/>
<path d="M104.329 211.943C104.642 211.688 104.87 211.343 104.984 210.956C105.034 210.761 105.015 210.555 104.932 210.373C104.849 210.19 104.705 210.041 104.525 209.951C104.105 209.79 103.655 210.082 103.315 210.376C102.975 210.669 102.583 211.005 102.137 210.942C102.366 210.735 102.538 210.472 102.636 210.178C102.733 209.885 102.753 209.572 102.692 209.269C102.672 209.143 102.619 209.025 102.537 208.927C102.305 208.678 101.88 208.784 101.601 208.982C100.712 209.606 100.464 210.81 100.459 211.894C100.369 211.503 100.446 211.096 100.442 210.7C100.439 210.304 100.331 209.847 99.9905 209.637C99.7805 209.525 99.5446 209.47 99.3065 209.477C98.9063 209.462 98.4617 209.503 98.188 209.794C97.846 210.156 97.9384 210.763 98.2325 211.159C98.5266 211.555 98.9763 211.809 99.3903 212.083C99.7212 212.28 100.004 212.548 100.216 212.868C100.242 212.913 100.263 212.961 100.278 213.01H102.776C103.34 212.725 103.862 212.366 104.329 211.942V211.943Z" fill="#EFEFEF"/>
<path d="M300 214.338H91V214.758H300V214.338Z" fill="#2F2E41"/>
<path d="M264.936 168.674C264.936 168.674 243.118 167.361 245.689 182.611C245.689 182.611 245.171 185.307 247.627 186.53C247.627 186.53 247.666 185.4 249.866 185.785C250.649 185.915 251.445 185.953 252.237 185.899C253.305 185.829 254.322 185.414 255.134 184.718C255.134 184.718 261.267 182.19 263.651 172.192C263.651 172.192 265.415 170.011 265.345 169.45L261.664 171.018C261.664 171.018 262.923 173.668 261.923 175.869C261.923 175.869 261.803 171.113 261.096 171.217C260.954 171.237 259.184 172.134 259.184 172.134C259.184 172.134 261.347 176.748 259.715 180.103C259.715 180.103 260.334 174.417 258.507 172.468L255.916 173.977C255.916 173.977 258.445 178.744 256.73 182.634C256.73 182.634 257.17 176.668 255.369 174.344L253.022 176.172C253.022 176.172 255.398 180.868 253.95 184.094C253.95 184.094 253.76 177.152 252.514 176.627C252.514 176.627 250.459 178.436 250.145 179.176C250.145 179.176 251.773 182.587 250.762 184.386C250.762 184.386 250.143 179.76 249.635 179.734C249.635 179.734 247.588 182.799 247.375 184.903C247.375 184.903 247.463 181.778 249.14 179.444C249.14 179.444 247.16 179.783 246.004 181.061C246.004 181.061 246.323 178.895 249.645 178.704C249.645 178.704 251.337 176.378 251.788 176.238C251.788 176.238 248.487 175.961 246.484 176.848C246.484 176.848 248.246 174.804 252.394 175.734L254.713 173.845C254.713 173.845 250.365 173.253 248.521 173.907C248.521 173.907 250.643 172.098 255.338 173.416L257.862 171.911C257.862 171.911 254.154 171.115 251.946 171.394C251.946 171.394 254.278 170.141 258.603 171.5L260.417 170.692C260.417 170.692 257.701 170.16 256.906 170.074C256.11 169.989 256.069 169.772 256.069 169.772C257.789 169.486 259.555 169.682 261.171 170.338C261.171 170.338 265.001 168.915 264.936 168.674Z" fill="#0260B7"/>
<path d="M108.06 150.797C108.06 150.797 98.2131 150.205 99.3635 157.096C99.3635 157.096 99.1319 158.314 100.239 158.867C100.239 158.867 100.257 158.35 101.252 158.528C101.606 158.588 101.965 158.605 102.322 158.58C102.806 158.548 103.265 158.359 103.631 158.042V158.042C103.631 158.042 106.403 156.9 107.481 152.382C107.481 152.382 108.277 151.397 108.246 151.144L106.582 151.852C106.582 151.852 107.15 153.049 106.704 154.044C106.704 154.044 106.649 151.896 106.331 151.945C106.266 151.945 105.465 152.361 105.465 152.361C105.465 152.361 106.445 154.447 105.706 155.961C105.706 155.961 105.986 153.392 105.159 152.511L103.988 153.204C103.988 153.204 105.131 155.357 104.356 157.114C104.356 157.114 104.556 154.419 103.742 153.369L102.682 154.196C102.682 154.196 103.755 156.318 103.102 157.777C103.102 157.777 103.014 154.639 102.452 154.401C102.452 154.401 101.524 155.218 101.381 155.554C101.381 155.554 102.117 157.105 101.661 157.909C101.661 157.909 101.381 155.817 101.143 155.807C101.143 155.807 100.218 157.193 100.122 158.133C100.168 157.256 100.444 156.406 100.92 155.667C100.386 155.768 99.8938 156.022 99.5029 156.399C99.5029 156.399 99.6481 155.419 101.148 155.334C101.148 155.334 101.926 154.282 102.117 154.217C102.117 154.217 100.625 154.093 99.7206 154.494C99.7206 154.494 100.516 153.572 102.39 153.99L103.426 153.137C103.426 153.137 101.46 152.876 100.626 153.164C100.626 153.164 101.585 152.347 103.707 152.942L104.848 152.262C104.848 152.262 103.171 151.903 102.174 152.031C102.174 152.031 103.228 151.465 105.182 152.077L105.998 151.713C105.998 151.713 104.771 151.472 104.41 151.434C104.048 151.395 104.031 151.297 104.031 151.297C104.809 151.167 105.608 151.257 106.337 151.555C106.337 151.555 108.09 150.905 108.06 150.797Z" fill="#3F3D56"/>
</g>
<path opacity="0.5" d="M55 71C55.8053 67.1197 58.9422 64.2248 62.692 64.2248C63.3803 64.2248 64.048 64.3228 64.6846 64.5061C66.5353 60.1251 70.5518 57.0895 75.2093 57.0895C76.4134 57.0895 77.5747 57.2924 78.6667 57.6689C81.1742 53.073 85.7295 50 90.9335 50C97.1249 50 102.398 54.3499 104.397 60.4393C105.811 59.5664 107.439 59.0672 109.174 59.0672C114.601 59.0672 119 63.9371 119 69.9444C119 70.3007 118.984 70.6525 118.953 70.9999L55 71Z" fill="white"/>
<path opacity="0.5" d="M256 103C257.095 97.8263 261.359 93.9665 266.456 93.9665C267.392 93.9665 268.3 94.0971 269.165 94.3415C271.681 88.5001 277.141 84.4527 283.472 84.4527C285.109 84.4527 286.687 84.7232 288.172 85.2252C291.581 79.0974 297.773 75 304.847 75C313.264 75 320.432 80.7999 323.148 88.9191C325.071 87.7553 327.285 87.0896 329.642 87.0896C337.02 87.0896 343 93.5828 343 101.593C343 102.068 342.978 102.537 342.936 103L256 103Z" fill="white"/>
<defs>
<linearGradient id="paint0_linear_639_1988" x1="139.478" y1="130.746" x2="139.478" y2="130.679" gradientUnits="userSpaceOnUse">
<stop stop-color="#808080" stop-opacity="0.251"/>
<stop offset="0.54" stop-color="#808080" stop-opacity="0.122"/>
<stop offset="1" stop-color="#808080" stop-opacity="0.102"/>
</linearGradient>
<clipPath id="clip0_639_1988">
<rect width="209" height="173" fill="white" transform="translate(91 42)"/>
</clipPath>
</defs>
</svg>
