<svg width="244" height="244" viewBox="0 0 244 244" fill="none" xmlns="http://www.w3.org/2000/svg">
<path d="M244 186.611H0V186.733H244V186.611Z" fill="#D8E4EF"/>
<path d="M41.763 191.257H25.6005V191.379H41.763V191.257Z" fill="#D8E4EF"/>
<path d="M109.8 191.32H83.5162V191.442H109.8V191.32Z" fill="#D8E4EF"/>
<path d="M60.9804 193.775H51.6157V193.897H60.9804V193.775Z" fill="#D8E4EF"/>
<path d="M217.648 193.716H208.264V193.838H217.648V193.716Z" fill="#D8E4EF"/>
<path d="M203.916 193.716H189.134V193.838H203.916V193.716Z" fill="#D8E4EF"/>
<path d="M180.994 192.911H160.225V193.033H180.994V192.911Z" fill="#D8E4EF"/>
<path d="M115.656 164.846H21.4281C20.6899 164.845 19.9824 164.551 19.4609 164.029C18.9394 163.506 18.6465 162.798 18.6465 162.06V29.602C18.6529 28.8681 18.9487 28.1663 19.4695 27.6492C19.9903 27.132 20.6941 26.8412 21.4281 26.84H115.656C116.395 26.84 117.104 27.1335 117.626 27.6561C118.149 28.1787 118.442 28.8874 118.442 29.6264V162.06C118.442 162.799 118.149 163.508 117.626 164.03C117.104 164.553 116.395 164.846 115.656 164.846ZM21.4281 26.9376C20.7223 26.9389 20.0458 27.2201 19.5472 27.7197C19.0485 28.2192 18.7685 28.8962 18.7685 29.602V162.06C18.7685 162.766 19.0485 163.443 19.5472 163.942C20.0458 164.442 20.7223 164.723 21.4281 164.724H115.656C116.362 164.723 117.039 164.442 117.539 163.943C118.038 163.443 118.319 162.766 118.32 162.06V29.602C118.319 28.8958 118.038 28.2188 117.539 27.7194C117.039 27.22 116.362 26.9389 115.656 26.9376H21.4281Z" fill="#D8E4EF"/>
<path d="M221.215 164.846H126.982C126.244 164.845 125.536 164.551 125.013 164.029C124.491 163.507 124.197 162.799 124.196 162.06V29.602C124.204 28.8677 124.5 28.1659 125.022 27.6489C125.544 27.1318 126.248 26.8412 126.982 26.84H221.215C221.948 26.8425 222.651 27.1339 223.171 27.6509C223.69 28.1679 223.986 28.8689 223.992 29.602V162.06C223.992 162.797 223.7 163.504 223.179 164.027C222.659 164.549 221.953 164.844 221.215 164.846ZM126.982 26.9376C126.276 26.9389 125.599 27.22 125.1 27.7194C124.6 28.2188 124.319 28.8958 124.318 29.602V162.06C124.319 162.766 124.6 163.443 125.1 163.943C125.599 164.442 126.276 164.723 126.982 164.724H221.215C221.921 164.723 222.598 164.442 223.098 163.943C223.597 163.443 223.878 162.766 223.88 162.06V29.602C223.878 28.8958 223.597 28.2188 223.098 27.7194C222.598 27.22 221.921 26.9389 221.215 26.9376H126.982Z" fill="#D8E4EF"/>
<path d="M202.93 150.172C205.477 149.308 207.322 146.849 205.712 144.316C203.028 140.149 209.738 139.261 207.854 132.287C205.194 122.439 196.957 130.974 194.907 121.522C193.443 114.646 181.868 110.142 181.419 119.194C180.931 129.11 175.953 122.634 174.85 133.653C174.084 141.276 184.932 142.384 181.682 144.765C179.316 146.507 177.92 149.538 181.219 151.597C185.713 154.423 181.473 156.628 184.527 158.6C187.582 160.571 188.08 157.429 192.823 158.961C197.064 160.327 200.661 156.136 199.816 153.515C199.041 151.099 200.368 151.041 202.93 150.172Z" fill="#E6EDF3"/>
<path d="M178.413 154.696C178.413 154.696 178.759 186.601 192.131 186.601C205.502 186.601 205.853 154.696 205.853 154.696H178.413Z" fill="#C3DDF4"/>
<path d="M92.881 43.715H33.6818V107.048H92.881V43.715Z" fill="#E6EDF3"/>
<path d="M95.8334 43.715H35.0627V107.048H95.8334V43.715Z" fill="#C3DDF4"/>
<path d="M92.881 107.048H33.6818V112.533H92.881V107.048Z" fill="#E6EDF3"/>
<path d="M100.748 107.048H39.9771V112.533H100.748V107.048Z" fill="#C3DDF4"/>
<path d="M91.7 102.914V47.8435H39.1911V102.914H91.7Z" fill="#FAFAFA"/>
<path d="M46.809 102.914L71.0577 47.8435H82.5013L58.2574 102.914H46.809Z" fill="white"/>
<path d="M41.1043 98.8005C41.0267 98.8005 40.9522 98.7697 40.8973 98.7147C40.8424 98.6598 40.8115 98.5854 40.8115 98.5077V50.5324C40.8115 50.4543 40.8422 50.3793 40.897 50.3236C40.9518 50.2679 41.0262 50.236 41.1043 50.2347C41.1829 50.236 41.2579 50.2678 41.3134 50.3233C41.369 50.3789 41.4007 50.4539 41.402 50.5324V98.5077C41.4007 98.5858 41.3688 98.6603 41.3131 98.715C41.2574 98.7698 41.1824 98.8005 41.1043 98.8005Z" fill="#C3DDF4"/>
<path d="M60.717 102.914L84.9609 47.8435H89.4261L65.1774 102.914H60.717Z" fill="white"/>
<path d="M91.7 102.914V47.8435H91.1778V102.914H91.7Z" fill="#E6EDF3"/>
<path opacity="0.6" d="M96.8094 54.0752H37.6101L37.2295 49.449H96.4288L96.8094 54.0752Z" fill="#D8E4EF"/>
<path opacity="0.6" d="M96.8094 61.6538H37.6101L37.2295 57.0325H96.4288L96.8094 61.6538Z" fill="#D8E4EF"/>
<path opacity="0.6" d="M96.8094 69.2374H37.6101L37.2295 64.6161H96.4288L96.8094 69.2374Z" fill="#D8E4EF"/>
<path opacity="0.6" d="M96.8094 76.8209H37.6101L37.2295 72.1947H96.4288L96.8094 76.8209Z" fill="#D8E4EF"/>
<path opacity="0.6" d="M96.8094 84.4044H37.6101L37.2295 79.7782H96.4288L96.8094 84.4044Z" fill="#D8E4EF"/>
<path opacity="0.6" d="M96.8094 91.9831H37.6101L37.2295 87.3617H96.4288L96.8094 91.9831Z" fill="#D8E4EF"/>
<path d="M186.025 129.91H164.168V186.611H186.025V129.91Z" fill="#E6EDF3"/>
<path d="M180.189 186.611H186.025V176.832H174.069L180.189 186.611Z" fill="#F5F5F5"/>
<path d="M129.842 129.91H107.985V186.611H129.842V129.91Z" fill="#E6EDF3"/>
<path d="M186.026 129.91H124.743V183.244H186.026V129.91Z" fill="#F5F5F5"/>
<path d="M181.497 134.864H129.271V146.039H181.497V134.864Z" fill="#C3DDF4"/>
<path d="M130.579 186.611H124.747V176.832H136.699L130.579 186.611Z" fill="#F5F5F5"/>
<path d="M181.497 150.987H129.271V162.162H181.497V150.987Z" fill="#C3DDF4"/>
<path d="M181.497 167.116H129.271V178.291H181.497V167.116Z" fill="#C3DDF4"/>
<path d="M122.234 129.91H100.377V186.611H122.234V129.91Z" fill="#E6EDF3"/>
<path d="M116.398 186.611H122.234V176.832H110.278L116.398 186.611Z" fill="#F5F5F5"/>
<path d="M66.046 129.91H44.1885V186.611H66.046V129.91Z" fill="#E6EDF3"/>
<path d="M122.234 129.91H60.9512V183.244H122.234V129.91Z" fill="#F5F5F5"/>
<path d="M117.705 134.864H65.4797V146.039H117.705V134.864Z" fill="#C3DDF4"/>
<path d="M66.7877 186.611H60.9512V176.832H72.9072L66.7877 186.611Z" fill="#F5F5F5"/>
<path d="M117.705 150.987H65.4797V162.162H117.705V150.987Z" fill="#C3DDF4"/>
<path d="M117.705 167.116H65.4797V178.291H117.705V167.116Z" fill="#C3DDF4"/>
<path d="M146.81 120.277C146.673 120.283 146.536 120.296 146.4 120.316V119.521C146.4 119.212 146.277 118.915 146.058 118.696C145.84 118.477 145.543 118.355 145.234 118.355H138.992C138.683 118.355 138.386 118.477 138.167 118.696C137.949 118.915 137.826 119.212 137.826 119.521V129.91H146.4V127.822C146.535 127.846 146.672 127.861 146.81 127.866C147.716 127.866 148.585 127.506 149.225 126.865C149.866 126.225 150.226 125.356 150.226 124.45V123.708C150.228 123.258 150.141 122.812 149.97 122.396C149.799 121.98 149.548 121.602 149.231 121.283C148.913 120.964 148.536 120.711 148.121 120.539C147.705 120.366 147.26 120.277 146.81 120.277ZM148.762 124.43C148.762 124.687 148.711 124.94 148.613 125.177C148.515 125.414 148.371 125.629 148.19 125.81C148.009 125.992 147.794 126.136 147.557 126.234C147.32 126.332 147.066 126.382 146.81 126.382C146.672 126.383 146.535 126.368 146.4 126.338V121.78C146.535 121.751 146.672 121.736 146.81 121.736C147.328 121.736 147.824 121.942 148.19 122.308C148.556 122.674 148.762 123.171 148.762 123.688V124.43Z" fill="#E6EDF3"/>
<path d="M206.102 98.8395V52.4307L144.033 52.4307V98.8395H206.102Z" fill="#E6EDF3"/>
<path d="M206.814 101.211V52.4355L144.746 52.4355V101.211H206.814Z" fill="#C3DDF4"/>
<path d="M151.856 97.1217H199.694C201.368 97.1217 202.725 95.7649 202.725 94.0912V59.5506C202.725 57.8769 201.368 56.5201 199.694 56.5201L151.856 56.5201C150.182 56.5201 148.825 57.8769 148.825 59.5506V94.0912C148.825 95.7649 150.182 97.1217 151.856 97.1217Z" fill="#E6EDF3"/>
<path d="M151.856 96.4141H199.694C201.368 96.4141 202.725 95.0573 202.725 93.3836V59.5505C202.725 57.8769 201.368 56.5201 199.694 56.5201L151.856 56.5201C150.182 56.5201 148.825 57.8769 148.825 59.5505V93.3836C148.825 95.0573 150.182 96.4141 151.856 96.4141Z" fill="white"/>
<path d="M184.571 83.6822L194.224 76.7233C194.27 76.6973 194.308 76.6597 194.334 76.6142C194.361 76.5688 194.374 76.5172 194.374 76.4647C194.374 76.4121 194.361 76.3605 194.334 76.3151C194.308 76.2697 194.27 76.232 194.224 76.206L184.591 69.252C179.74 65.7531 171.854 65.7531 167.023 69.252L157.385 76.206C157.339 76.2327 157.302 76.2708 157.275 76.3166C157.249 76.3624 157.235 76.4143 157.235 76.4671C157.235 76.5199 157.249 76.5718 157.275 76.6176C157.302 76.6634 157.339 76.7015 157.385 76.7282L167.023 83.6822C171.835 87.1811 179.721 87.1811 184.571 83.6822ZM183.854 69.7839H167.706C172.157 66.5534 179.399 66.5534 183.854 69.7839ZM183.854 83.1795C179.399 86.3906 172.142 86.3906 167.706 83.1795H183.854Z" fill="#C3DDF4"/>
<path d="M87.6789 63.5474C85.8197 62.8691 82.7453 64.3233 83.3504 67.222C83.9555 70.1208 76.8941 66.4949 75.3813 72.39C76.4692 72.6283 77.4939 73.0953 78.3874 73.76C79.2809 74.4246 80.0229 75.2718 80.5639 76.2452C83.1308 80.8275 103.349 81.2959 100.474 75.6303C97.6 69.9646 103.695 68.4957 101.846 64.4844C99.9961 60.473 96.5313 59.3799 94.0376 60.3559C91.5439 61.3319 86.2345 59.824 87.6789 63.5474Z" fill="#263238"/>
<path d="M87.679 63.6107C87.6649 63.6164 87.6492 63.6164 87.6351 63.6107C87.069 62.8787 86.8738 62.3029 87.0495 61.8491C87.3569 61.0292 88.7672 60.7559 90.402 60.4387C92.0368 60.1215 93.779 59.7799 94.6525 58.843C94.6575 58.8368 94.6639 58.8319 94.671 58.8285C94.6782 58.8251 94.6861 58.8234 94.694 58.8234C94.7019 58.8234 94.7098 58.8251 94.7169 58.8285C94.7241 58.8319 94.7304 58.8368 94.7355 58.843C94.7416 58.848 94.7465 58.8543 94.7499 58.8615C94.7533 58.8687 94.7551 58.8765 94.7551 58.8845C94.7551 58.8924 94.7533 58.9002 94.7499 58.9074C94.7465 58.9146 94.7416 58.9209 94.7355 58.9259C93.8327 59.9019 92.0222 60.2435 90.4215 60.5559C88.8209 60.8682 87.4399 61.1366 87.1568 61.893C87.0007 62.3029 87.1861 62.8397 87.7229 63.5375C87.729 63.5426 87.734 63.5489 87.7374 63.5561C87.7408 63.5632 87.7425 63.5711 87.7425 63.579C87.7425 63.5869 87.7408 63.5948 87.7374 63.602C87.734 63.6091 87.729 63.6155 87.7229 63.6205C87.7153 63.6221 87.7075 63.6221 87.6999 63.6204C87.6923 63.6188 87.6852 63.6154 87.679 63.6107Z" fill="#263238"/>
<path d="M100.606 82.5208C101.728 82.1694 102.929 81.779 104.081 81.3642C105.232 80.9494 106.399 80.5298 107.541 80.071C109.807 79.1775 112.014 78.1392 114.148 76.9625C114.407 76.8258 114.724 76.6453 114.797 76.5916C114.87 76.5379 114.939 76.4794 115.012 76.4257L115.241 76.2061C115.589 75.8319 115.895 75.4212 116.154 74.9812C116.75 73.9756 117.262 72.9228 117.686 71.8336C118.145 70.7112 118.555 69.5498 118.926 68.3688C119.296 67.1878 119.658 65.9825 119.98 64.8015L121.98 65.1236C121.771 67.7303 121.319 70.3116 120.629 72.834C120.261 74.1523 119.771 75.4332 119.165 76.6599C118.83 77.3395 118.422 77.9809 117.95 78.5729C117.808 78.7339 117.671 78.8901 117.525 79.0609C117.379 79.2317 117.208 79.3683 117.037 79.5147C116.732 79.7482 116.414 79.9649 116.085 80.1638C113.862 81.5749 111.525 82.7976 109.097 83.8189C106.699 84.8592 104.236 85.7427 101.724 86.4638L100.606 82.5208Z" fill="#FFB573"/>
<path d="M97.8976 82.6184C98.5272 81.0422 107.536 79.871 107.536 79.871L108.824 87.84C108.824 87.84 101.226 90.7924 99.5959 89.304C97.966 87.8156 96.9753 84.912 97.8976 82.6184Z" fill="#263238"/>
<path d="M119.711 64.2988L119.014 61.0682L122.683 62.8153C122.683 62.8153 122.835 65.3773 121.419 66.2313L121.068 66.0507C120.727 65.8761 120.429 65.6286 120.195 65.3258C119.96 65.0231 119.795 64.6724 119.711 64.2988Z" fill="#FFB573"/>
<path d="M119.858 58.2184L123.118 59.1993L122.683 62.8153L119.014 61.0683L119.858 58.2184Z" fill="#FFB573"/>
<path d="M79.056 173.264L82.4769 175.377L87.8108 168.711L84.8828 166.052L79.056 173.264Z" fill="#FFB573"/>
<path d="M83.2967 175.192L80.276 171.869C80.2243 171.811 80.1534 171.773 80.0762 171.763C79.9991 171.753 79.921 171.772 79.8563 171.815L76.8893 173.83C76.8159 173.883 76.7545 173.951 76.7092 174.029C76.6639 174.107 76.6357 174.194 76.6265 174.284C76.6173 174.374 76.6272 174.465 76.6557 174.551C76.6842 174.637 76.7305 174.715 76.7917 174.782C77.8653 175.919 78.4411 176.417 79.7685 177.876C80.5883 178.774 82.838 181.438 83.9702 182.678C85.1023 183.917 86.4102 182.873 86.0247 182.253C84.4143 179.486 83.6188 177.227 83.5603 175.851C83.5528 175.607 83.4595 175.374 83.2967 175.192Z" fill="#263238"/>
<g opacity="0.2">
<path opacity="0.2" d="M87.8107 168.716L85.2096 171.961L81.8766 169.77L84.8827 166.052L87.8107 168.716Z" fill="black"/>
</g>
<path d="M104.359 82.8477C104.359 82.8477 106.252 83.5456 102.065 106.926L85.8393 106.667C86.2151 100.064 86.3273 95.9896 83.3993 82.389C85.654 81.9562 87.9375 81.6903 90.2313 81.5936C92.6873 81.458 95.1499 81.4988 97.6001 81.7156C100.782 82.0523 104.359 82.8477 104.359 82.8477Z" fill="#263238"/>
<path opacity="0.2" d="M85.078 91.0023C85.2586 92.0954 85.405 93.1056 85.527 94.0474C86.2057 92.4522 86.6337 90.7616 86.7958 89.0356L85.078 91.0023Z" fill="black"/>
<path d="M91.1194 73.3123C91.5488 75.6888 91.9392 80.0418 90.2556 81.6083C90.2556 81.6083 90.8656 84.0483 95.2723 84.0971C100.113 84.1752 97.6244 81.7303 97.6244 81.7303C94.9892 81.0568 95.0917 79.0951 95.5797 77.2602L91.1194 73.3123Z" fill="#FFB573"/>
<path d="M90.28 81.5985C92.7342 81.4589 95.1953 81.4981 97.6439 81.7156L98.1319 81.7693C98.7028 82.8965 98.8541 85.6196 97.4048 88.1132C97.4048 88.1132 90.9534 84.3996 89.3186 81.6473C89.6065 81.6229 89.9335 81.6082 90.28 81.5985Z" fill="#FFB573"/>
<path opacity="0.2" d="M92.9396 74.9177L95.5797 77.2455C95.4597 77.6719 95.3764 78.1078 95.3308 78.5484C94.3256 78.3874 92.9543 77.2552 92.8616 76.1963C92.8087 75.7689 92.8352 75.3355 92.9396 74.9177Z" fill="black"/>
<path d="M88.6306 69.1642C89.4699 73.039 89.7432 74.6982 92.0466 76.4013C95.4626 78.9633 100.06 77.0845 100.391 73.0341C100.694 69.3887 99.269 63.6645 95.1991 62.6982C94.3016 62.4759 93.3622 62.4874 92.4704 62.7316C91.5787 62.9759 90.7645 63.4447 90.1056 64.0933C89.4467 64.7419 88.9651 65.5487 88.7069 66.4364C88.4486 67.3242 88.4224 68.2634 88.6306 69.1642Z" fill="#FFB573"/>
<path d="M88.7282 64.2159C90.3581 64.3232 92.2711 65.148 91.8075 67.3781C91.3439 69.6083 89.5578 68.1345 90.2069 71.3797C90.8559 74.6249 84.8681 72.7461 85.7709 69.7693C86.6737 66.7925 86.2296 64.0548 88.7282 64.2159Z" fill="#263238"/>
<path d="M87.6838 66.7144C90.0653 68.93 93.3885 62.7568 96.6386 65.0748C99.8887 67.3928 99.835 63.4253 96.1506 62.4493C92.4662 61.4733 84.8095 64.0451 87.6838 66.7144Z" fill="#263238"/>
<path d="M102.065 106.926C102.065 106.926 103.783 130.169 103.324 142.35C102.836 155.038 86.6737 171.234 86.6737 171.234L82.4965 167.818C82.3891 167.872 94.2085 146.859 93.5545 140.49C92.0905 126.987 90.1825 106.711 90.1825 106.711L102.065 106.926Z" fill="#364FD4"/>
<path opacity="0.3" d="M102.065 106.926C102.065 106.926 103.783 130.169 103.324 142.35C102.836 155.038 86.6737 171.234 86.6737 171.234L82.4965 167.818C82.3891 167.872 94.2085 146.859 93.5545 140.49C92.0905 126.987 90.1825 106.711 90.1825 106.711L102.065 106.926Z" fill="white"/>
<path d="M81.413 168.624L86.8054 171.957L88.2645 170.483L82.3548 166.54L81.413 168.624Z" fill="#263238"/>
<path opacity="0.2" d="M94.2181 115.1C92.7541 112.572 91.6951 112.66 90.9045 114.236C91.5731 121.136 92.5979 131.516 93.4617 139.69C95.3844 133.712 98.6735 122.878 94.2181 115.1Z" fill="black"/>
<path d="M54.3876 148.015L55.671 151.797L64.904 150.206L63.6205 146.424L54.3876 148.015Z" fill="#FFB573"/>
<path d="M57.096 151.973L56.4616 147.532C56.4502 147.452 56.4123 147.377 56.354 147.321C56.2957 147.264 56.2203 147.229 56.1395 147.22L52.4893 146.756C52.4025 146.743 52.3139 146.751 52.2307 146.779C52.1476 146.807 52.0724 146.855 52.0113 146.918C51.9502 146.981 51.905 147.057 51.8795 147.141C51.854 147.225 51.8489 147.314 51.8646 147.4C52.1086 148.947 52.3087 149.694 52.5869 151.651C52.7626 152.851 53.1286 156.306 53.3628 157.966C53.597 159.625 55.2855 159.693 55.3148 159C55.549 155.892 56.1737 153.696 56.9203 152.656C57.0666 152.461 57.1298 152.215 57.096 151.973Z" fill="#263238"/>
<g opacity="0.2">
<path opacity="0.2" d="M64.9041 150.206L60.1461 151.026L58.8578 147.244L63.6158 146.424L64.9041 150.206Z" fill="black"/>
</g>
<path d="M97.6 106.872C97.6 106.872 95.3796 128.637 90.1971 139.817C87.9571 144.658 61.7466 151.212 61.7466 151.212L59.453 146.332C59.0968 146.332 74.3273 137.655 79.3927 135.776C79.9461 135.569 80.4371 135.223 80.819 134.772C81.2009 134.321 81.4608 133.78 81.5741 133.2C84.1215 120.351 85.7172 106.696 85.7172 106.696L97.6 106.872Z" fill="#364FD4"/>
<path opacity="0.3" d="M97.6 106.872C97.6 106.872 95.3796 128.637 90.1971 139.817C87.9571 144.658 61.7466 151.212 61.7466 151.212L59.453 146.332C59.0968 146.332 74.3273 137.655 79.3927 135.776C79.9461 135.569 80.4371 135.223 80.819 134.772C81.2009 134.321 81.4608 133.78 81.5741 133.2C84.1215 120.351 85.7172 106.696 85.7172 106.696L97.6 106.872Z" fill="white"/>
<path d="M59.1603 145.844L61.1464 151.861L63.2985 151.919L61.2294 144.829L59.1603 145.844Z" fill="#263238"/>
<path d="M56.6079 153.466C56.6271 153.825 56.7624 154.167 56.9935 154.442C57.0576 154.504 57.1346 154.551 57.2189 154.58C57.3033 154.608 57.3929 154.618 57.4815 154.608C57.5322 154.605 57.5812 154.588 57.6226 154.559C57.6641 154.53 57.6964 154.489 57.7157 154.442C57.9158 153.954 56.8715 152.388 56.7397 152.212C56.7285 152.196 56.7131 152.182 56.6951 152.174C56.6771 152.165 56.6571 152.162 56.6372 152.163C56.6185 152.167 56.6013 152.177 56.5882 152.191C56.5751 152.205 56.5667 152.222 56.564 152.241C56.5419 152.65 56.5566 153.06 56.6079 153.466ZM57.5449 154.164C57.558 154.22 57.558 154.279 57.5449 154.335C57.5365 154.354 57.5228 154.37 57.5054 154.381C57.4881 154.392 57.4679 154.398 57.4473 154.398C57.3901 154.407 57.3316 154.402 57.2765 154.385C57.2215 154.367 57.1713 154.336 57.1301 154.296C56.8763 154.062 56.7446 153.408 56.7641 152.529C57.1046 153.03 57.3633 153.582 57.5303 154.164H57.5449Z" fill="#364FD4"/>
<path d="M56.5593 152.256V152.29C56.8472 152.778 57.8476 153.681 58.2916 153.603C58.399 153.603 58.521 153.51 58.5112 153.247C58.5025 153.049 58.4167 152.864 58.2721 152.729C57.7841 152.241 56.6813 152.163 56.6373 152.158C56.6214 152.158 56.6056 152.161 56.5912 152.168C56.5768 152.175 56.5642 152.185 56.5544 152.197C56.5536 152.217 56.5553 152.237 56.5593 152.256ZM58.3307 153.173C58.3307 153.173 58.3307 153.212 58.3307 153.232C58.3307 153.403 58.2672 153.413 58.2477 153.417C57.9793 153.466 57.2034 152.842 56.8374 152.363C57.3134 152.4 57.7697 152.569 58.155 152.851C58.2441 152.933 58.3056 153.04 58.3307 153.159V153.173Z" fill="#364FD4"/>
<path d="M95.4186 69.2472C95.4674 69.5693 95.6724 69.7987 95.8822 69.7694C96.0921 69.7401 96.2189 69.4522 96.1701 69.135C96.1213 68.8178 95.9115 68.5835 95.7065 68.6128C95.5016 68.6421 95.3698 68.93 95.4186 69.2472Z" fill="#263238"/>
<path d="M99.0151 68.6957C99.0639 69.0129 99.2738 69.2471 99.5031 69.213C99.7325 69.1788 99.8398 68.8958 99.791 68.5786C99.7422 68.2614 99.5324 68.0271 99.303 68.0613C99.0737 68.0955 98.9663 68.3785 99.0151 68.6957Z" fill="#263238"/>
<path d="M99.2152 68.0906L99.9472 67.7539C99.9472 67.7539 99.6447 68.4127 99.2152 68.0906Z" fill="#263238"/>
<path d="M97.6 69.4326C98.0001 70.1168 98.4927 70.7425 99.064 71.2919C98.9197 71.4331 98.7461 71.5409 98.5555 71.6075C98.3649 71.6741 98.162 71.698 97.9611 71.6774L97.6 69.4326Z" fill="#ED893E"/>
<path d="M96.4044 73.2C96.5678 73.199 96.7309 73.186 96.8924 73.161C96.9046 73.1592 96.9164 73.155 96.927 73.1486C96.9376 73.1422 96.9468 73.1337 96.9541 73.1237C96.9613 73.1137 96.9665 73.1024 96.9694 73.0903C96.9722 73.0783 96.9726 73.0658 96.9705 73.0536C96.9687 73.0414 96.9645 73.0296 96.9581 73.019C96.9517 73.0084 96.9433 72.9992 96.9332 72.9919C96.9232 72.9847 96.9119 72.9795 96.8998 72.9766C96.8878 72.9738 96.8753 72.9734 96.8631 72.9755C96.468 73.0445 96.0623 73.02 95.6784 72.9039C95.2944 72.7878 94.9431 72.5834 94.6525 72.307C94.6445 72.2977 94.6347 72.29 94.6237 72.2845C94.6128 72.279 94.6008 72.2757 94.5886 72.2748C94.5764 72.2739 94.5641 72.2754 94.5524 72.2792C94.5408 72.2831 94.53 72.2892 94.5207 72.2972C94.5114 72.3052 94.5038 72.315 94.4983 72.3259C94.4927 72.3369 94.4894 72.3488 94.4885 72.3611C94.4876 72.3733 94.4891 72.3856 94.493 72.3972C94.4968 72.4089 94.5029 72.4197 94.5109 72.429C94.7593 72.6771 95.0547 72.8732 95.3798 73.0056C95.705 73.138 96.0533 73.2041 96.4044 73.2Z" fill="#263238"/>
<path d="M88.1231 72.9121C88.4977 73.5813 89.1225 74.0745 89.8604 74.2833C90.8364 74.5517 91.3244 73.6733 91.0463 72.751C90.7974 71.9214 89.9873 70.799 89.0064 70.921C88.7926 70.955 88.5907 71.042 88.4191 71.174C88.2475 71.3059 88.1117 71.4787 88.0239 71.6766C87.9361 71.8745 87.8992 72.0912 87.9165 72.3069C87.9339 72.5227 88.0049 72.7307 88.1231 72.9121Z" fill="#FFB573"/>
<path d="M93.4715 68.7298C93.5109 68.7294 93.5493 68.717 93.5815 68.6944C93.6137 68.6717 93.6383 68.6399 93.6521 68.603C93.9205 67.7685 94.999 67.4269 95.0087 67.4269C95.0566 67.4112 95.0962 67.3773 95.1191 67.3325C95.1419 67.2877 95.1461 67.2356 95.1307 67.1878C95.1241 67.1639 95.1127 67.1416 95.0971 67.1224C95.0815 67.1031 95.0621 67.0873 95.0401 67.0758C95.0182 67.0644 94.9941 67.0576 94.9694 67.0559C94.9447 67.0541 94.9199 67.0575 94.8965 67.0658C94.8428 67.0658 93.6228 67.4659 93.291 68.481C93.2827 68.5046 93.2793 68.5298 93.2809 68.5548C93.2826 68.5799 93.2894 68.6043 93.3008 68.6267C93.3122 68.649 93.328 68.6688 93.3473 68.6849C93.3666 68.7009 93.3889 68.7129 93.413 68.7201C93.4314 68.7281 93.4515 68.7315 93.4715 68.7298Z" fill="#263238"/>
<path d="M99.4544 66.856C99.4954 66.8552 99.535 66.8412 99.5673 66.8161C99.5997 66.791 99.6231 66.7561 99.634 66.7166C99.645 66.6772 99.6429 66.6352 99.6282 66.597C99.6134 66.5589 99.5867 66.5264 99.552 66.5046C99.2973 66.3448 99.0081 66.2482 98.7084 66.2227C98.4088 66.1973 98.1074 66.2437 97.8294 66.3582C97.7875 66.3822 97.7563 66.4212 97.7421 66.4673C97.7279 66.5134 97.7317 66.5631 97.7528 66.6065C97.7738 66.6499 97.8106 66.6837 97.8556 66.701C97.9007 66.7183 97.9506 66.7179 97.9953 66.6998C98.216 66.6114 98.4546 66.5768 98.6914 66.5989C98.9281 66.6209 99.1562 66.699 99.3568 66.8267C99.3858 66.8459 99.4197 66.8561 99.4544 66.856Z" fill="#263238"/>
<path d="M85.1414 87.7814C84.4241 88.5525 83.6775 89.3918 82.9455 90.2214C82.2135 91.051 81.4815 91.8904 80.8178 92.7541C79.455 94.4341 78.2248 96.2174 77.1383 98.088L76.9479 98.4296C76.923 98.4767 76.8953 98.5224 76.865 98.5662C76.8123 98.7026 76.7779 98.8454 76.7625 98.9908C76.7099 99.4492 76.7001 99.9116 76.7332 100.372C76.8069 101.436 76.9437 102.496 77.1431 103.544C77.3237 104.627 77.5482 105.72 77.8068 106.809C78.0655 107.897 78.2948 109.005 78.5779 110.083L76.6795 110.776C75.671 108.669 74.8164 106.492 74.1224 104.261C73.7592 103.102 73.4819 101.918 73.2928 100.718C73.1884 100.047 73.1459 99.3674 73.1659 98.6882C73.1866 98.2654 73.2554 97.8462 73.3709 97.4389C73.4069 97.3126 73.4509 97.1888 73.5027 97.0681C73.5661 96.9119 73.5905 96.8582 73.6247 96.7899L73.8247 96.3751C74.3444 95.2807 74.9345 94.2211 75.5913 93.2031C76.2208 92.1832 76.9187 91.2511 77.6214 90.2751C79.0346 88.3843 80.5737 86.5909 82.2281 84.9071L85.1414 87.7814Z" fill="#FFB573"/>
<path d="M83.4041 82.3891C81.74 82.7258 78.5973 87.9669 78.5973 87.9669L83.9653 93.1251C83.9653 93.1251 87.8986 89.8262 87.8302 87.6204C87.757 85.3171 85.3024 81.984 83.4041 82.3891Z" fill="#263238"/>
<path d="M83.7895 176.749C83.9943 177.025 84.2897 177.22 84.624 177.3C84.7086 177.309 84.7942 177.298 84.8733 177.266C84.9524 177.235 85.0226 177.184 85.0778 177.12C85.1142 177.082 85.1405 177.036 85.1541 176.986C85.1678 176.935 85.1684 176.882 85.1559 176.832C85.0241 176.285 83.3503 175.656 83.16 175.587C83.1422 175.579 83.1222 175.578 83.1034 175.583C83.0847 175.589 83.0684 175.6 83.0575 175.617C83.0456 175.632 83.0392 175.651 83.0392 175.67C83.0392 175.69 83.0456 175.709 83.0575 175.724C83.2667 176.089 83.5119 176.432 83.7895 176.749ZM84.8777 176.719C84.9216 176.763 84.9536 176.816 84.9705 176.876C84.9757 176.896 84.9752 176.917 84.9692 176.936C84.9632 176.956 84.9518 176.974 84.9363 176.988C84.9016 177.033 84.8561 177.068 84.804 177.09C84.7519 177.112 84.6949 177.121 84.6386 177.115C84.3165 177.081 83.8481 176.627 83.3601 175.865C83.9103 176.063 84.4234 176.352 84.8777 176.719Z" fill="#364FD4"/>
<path d="M83.0575 175.739C83.0667 175.749 83.0785 175.758 83.0917 175.763C83.5797 175.968 84.8436 176.085 85.1266 175.729C85.1754 175.663 85.1983 175.581 85.1911 175.499C85.1839 175.418 85.1471 175.341 85.0876 175.285C85.0297 175.207 84.9566 175.143 84.8726 175.095C84.7886 175.047 84.6957 175.017 84.5996 175.007C83.9554 174.919 83.0965 175.573 83.0624 175.602C83.0484 175.61 83.0373 175.623 83.0304 175.637C83.0234 175.652 83.021 175.669 83.0233 175.685C83.0315 175.705 83.043 175.723 83.0575 175.739ZM84.8973 175.353L84.9314 175.397C85.0388 175.538 84.9949 175.592 84.9802 175.607C84.8094 175.826 83.8773 175.807 83.3308 175.646C83.692 175.369 84.1301 175.21 84.5849 175.192C84.7097 175.205 84.8258 175.262 84.9119 175.353H84.8973Z" fill="#364FD4"/>
<path d="M95.6138 68.6469L96.3458 68.3102C96.3458 68.3102 96.0481 68.9641 95.6138 68.6469Z" fill="#263238"/>
<path d="M85.6097 105.711L85.1705 107.175C85.112 107.287 85.2437 107.404 85.4341 107.409L102.133 107.677C102.28 107.677 102.402 107.609 102.412 107.516L102.582 106.052C102.582 105.95 102.465 105.862 102.304 105.862L85.8879 105.593C85.8352 105.585 85.7813 105.592 85.7322 105.613C85.6831 105.633 85.6407 105.667 85.6097 105.711Z" fill="#FAFAFA"/>
<path d="M87.7863 107.585H87.3471C87.2593 107.585 87.1958 107.536 87.2007 107.482L87.4398 105.598C87.4398 105.545 87.5228 105.501 87.6106 105.501H88.0498C88.1377 105.501 88.2011 105.55 88.1962 105.608L87.9571 107.492C87.9522 107.541 87.8741 107.585 87.7863 107.585Z" fill="#364FD4"/>
<g opacity="0.3">
<path opacity="0.3" d="M87.7863 107.585H87.3471C87.2593 107.585 87.1958 107.536 87.2007 107.482L87.4398 105.598C87.4398 105.545 87.5228 105.501 87.6106 105.501H88.0498C88.1377 105.501 88.2011 105.55 88.1962 105.608L87.9571 107.492C87.9522 107.541 87.8741 107.585 87.7863 107.585Z" fill="white"/>
</g>
<path d="M100.894 107.794H100.45C100.362 107.794 100.299 107.75 100.303 107.692L100.543 105.808C100.543 105.754 100.626 105.711 100.713 105.711H101.153C101.24 105.711 101.309 105.759 101.299 105.813L101.065 107.697C101.055 107.75 100.982 107.794 100.894 107.794Z" fill="#364FD4"/>
<path opacity="0.3" d="M100.894 107.794H100.45C100.362 107.794 100.299 107.75 100.303 107.692L100.543 105.808C100.543 105.754 100.626 105.711 100.713 105.711H101.153C101.24 105.711 101.309 105.759 101.299 105.813L101.065 107.697C101.055 107.75 100.982 107.794 100.894 107.794Z" fill="white"/>
<path d="M94.3402 107.687H93.901C93.8132 107.687 93.7448 107.638 93.7546 107.584L93.9888 105.701C94.001 105.667 94.0249 105.638 94.0562 105.62C94.0875 105.603 94.1242 105.596 94.1596 105.603H94.6037C94.6916 105.603 94.755 105.652 94.7501 105.706L94.511 107.589C94.5061 107.643 94.428 107.687 94.3402 107.687Z" fill="#364FD4"/>
<path opacity="0.3" d="M94.3402 107.687H93.901C93.8132 107.687 93.7448 107.638 93.7546 107.584L93.9888 105.701C94.001 105.667 94.0249 105.638 94.0562 105.62C94.0875 105.603 94.1242 105.596 94.1596 105.603H94.6037C94.6916 105.603 94.755 105.652 94.7501 105.706L94.511 107.589C94.5061 107.643 94.428 107.687 94.3402 107.687Z" fill="white"/>
<path d="M78.6265 109.8L81.0665 113.367L77.0258 112.952C77.0258 112.952 76.0498 110.586 77.0649 109.292L78.6265 109.8Z" fill="#FFB573"/>
<path d="M80.8324 116.715L77.4701 116.183L77.0162 112.943L81.0569 113.362L80.8324 116.715Z" fill="#FFB573"/>
<path d="M151.675 77.104L151.095 77.3822L150.558 77.6213C150.202 77.7726 149.845 77.9141 149.484 78.0508C148.767 78.324 148.045 78.5729 147.308 78.7974C145.817 79.2512 144.291 79.5778 142.745 79.7734C141.132 79.9712 139.502 79.9712 137.889 79.7734C137.042 79.6723 136.205 79.4926 135.391 79.2366C135.186 79.1829 134.976 79.1 134.771 79.0316L134.464 78.9194L134.112 78.7681C133.881 78.6723 133.656 78.5614 133.439 78.4363C133.224 78.3192 133.014 78.202 132.829 78.0752C132.108 77.6013 131.439 77.0534 130.833 76.4404C130.27 75.8851 129.739 75.2986 129.242 74.6835C128.309 73.5048 127.455 72.2659 126.685 70.9748C125.184 68.4739 123.909 65.8446 122.874 63.1179L125.382 61.8979C126.119 63.0301 126.88 64.2159 127.68 65.3139C128.481 66.4119 129.276 67.549 130.12 68.608C130.93 69.6538 131.798 70.6525 132.721 71.5994C133.515 72.4587 134.429 73.1984 135.435 73.7954C136.371 74.2251 137.386 74.4545 138.416 74.4688C139.612 74.5238 140.81 74.4469 141.988 74.2395C143.234 74.0269 144.464 73.7285 145.668 73.3464C146.278 73.161 146.888 72.956 147.493 72.7315C147.791 72.6193 148.088 72.4973 148.381 72.3802L148.816 72.1996L149.196 72.0386L151.675 77.104Z" fill="#FF8B7B"/>
<path d="M125.592 63.2252L125.348 59.4579L122.034 62.9178C122.034 62.9178 122.893 65.5384 124.655 65.8458L124.933 65.5286C125.207 65.2178 125.409 64.8498 125.523 64.4513C125.637 64.0529 125.66 63.634 125.592 63.2252Z" fill="#FF8B7B"/>
<path d="M123.039 57.2083L120.17 59.4823L122.029 62.9178L125.348 59.4579L123.039 57.2083Z" fill="#FF8B7B"/>
<path d="M172.157 71.736C173.055 72.79 173.806 73.8051 174.597 74.8738C175.387 75.9425 176.09 77.0259 176.788 78.1434C178.229 80.4184 179.441 82.8313 180.404 85.3463L180.741 86.3516L180.824 86.6004L180.863 86.7273L180.916 86.9176C180.989 87.1816 181.041 87.4508 181.072 87.7228C181.166 88.5944 181.123 89.4753 180.946 90.3336C180.653 91.7288 180.203 93.0861 179.604 94.3792C178.504 96.7821 177.151 99.061 175.568 101.177L173.128 99.7813C173.562 98.654 174.011 97.4828 174.411 96.3312C174.811 95.1795 175.197 94.0278 175.509 92.9152C175.82 91.8555 176.031 90.769 176.139 89.67C176.177 89.2851 176.156 88.8966 176.075 88.5183C176.07 88.4747 176.055 88.4329 176.031 88.3963V88.3621L175.992 88.2645L175.909 88.0742L175.587 87.3032C174.575 85.1773 173.397 83.1344 172.064 81.1934C171.4 80.2174 170.698 79.2072 169.99 78.2215C169.282 77.2357 168.526 76.2695 167.823 75.352L172.157 71.736Z" fill="#FF8B7B"/>
<path d="M172.752 99.957L170.703 103.129L175.426 102.324C175.426 102.324 176.295 99.7081 175.065 98.4198L174.65 98.5076C174.246 98.5931 173.866 98.7675 173.538 99.0182C173.209 99.2689 172.941 99.5896 172.752 99.957Z" fill="#FF8B7B"/>
<path d="M171.225 106.316L174.885 106.199L175.436 102.324L170.712 103.129L171.225 106.316Z" fill="#FF8B7B"/>
<path d="M154.291 56.3884C154.267 56.691 154.096 56.9252 153.896 56.9203C153.696 56.9155 153.559 56.6666 153.579 56.3689C153.598 56.0712 153.779 55.8321 153.974 55.837C154.169 55.8419 154.311 56.0907 154.291 56.3884Z" fill="#263238"/>
<path d="M154.12 56.9301C153.698 57.8349 153.158 58.68 152.515 59.4433C152.712 59.5964 152.941 59.7038 153.185 59.7578C153.429 59.8119 153.682 59.8111 153.925 59.7556L154.12 56.9301Z" fill="#FF5652"/>
<path d="M154.032 54.4656C154.065 54.4776 154.102 54.4776 154.135 54.4656C154.347 54.4083 154.569 54.4022 154.784 54.4481C154.999 54.4939 155.199 54.5903 155.369 54.7292C155.406 54.75 155.449 54.7571 155.49 54.749C155.532 54.7409 155.569 54.7182 155.595 54.6851C155.621 54.652 155.634 54.6106 155.632 54.5685C155.63 54.5265 155.613 54.4865 155.584 54.4559C155.369 54.28 155.115 54.1588 154.843 54.1027C154.571 54.0466 154.289 54.0573 154.023 54.1338C153.978 54.1494 153.942 54.1815 153.921 54.2233C153.9 54.2652 153.896 54.3136 153.91 54.3583C153.921 54.3843 153.938 54.4074 153.959 54.426C153.98 54.4446 154.005 54.4582 154.032 54.4656Z" fill="#263238"/>
<path d="M162.645 60.3558C162.758 63.4156 161.879 67.1878 163.831 68.8665C163.831 68.8665 163.172 71.6725 158.131 72.019C152.588 72.3997 155.399 69.4424 155.399 69.4424C158.405 68.5103 158.258 66.2655 157.668 64.1866L162.645 60.3558Z" fill="#FF8B7B"/>
<path d="M165.193 69.7206C165.564 68.8178 165.915 67.4514 165.003 67.1976C163.997 66.9243 158.942 66.3973 155.243 67.8613C155.47 68.2707 155.609 68.7237 155.649 69.1905C155.69 69.6572 155.631 70.1273 155.477 70.5697L165.193 69.7206Z" fill="#263238"/>
<path d="M187.47 181.853C187.417 181.854 187.364 181.844 187.314 181.824C187.246 181.791 187.189 181.738 187.153 181.671C187.117 181.605 187.104 181.528 187.114 181.453C187.114 181.391 187.127 181.33 187.152 181.274C187.177 181.217 187.214 181.167 187.26 181.126C187.675 180.745 188.881 180.843 188.934 180.848C188.951 180.849 188.967 180.855 188.981 180.866C188.994 180.876 189.005 180.89 189.01 180.906C189.016 180.922 189.017 180.939 189.013 180.956C189.009 180.973 189 180.988 188.988 180.999C188.734 181.243 187.944 181.853 187.47 181.853ZM188.549 181.009C188.144 180.974 187.738 181.061 187.382 181.258C187.353 181.281 187.329 181.311 187.313 181.345C187.297 181.379 187.289 181.416 187.29 181.453C187.29 181.624 187.363 181.653 187.382 181.663C187.622 181.761 188.275 181.38 188.71 181.014L188.549 181.009Z" fill="#364FD4"/>
<path d="M188.905 181.048C188.47 181.048 187.48 180.716 187.343 180.326C187.319 180.262 187.319 180.191 187.342 180.127C187.365 180.062 187.411 180.008 187.47 179.974C187.523 179.931 187.584 179.901 187.65 179.885C187.716 179.869 187.784 179.868 187.851 179.882C188.388 179.979 188.973 180.858 188.998 180.916C189.006 180.929 189.01 180.945 189.01 180.96C189.01 180.976 189.006 180.991 188.998 181.004C188.99 181.017 188.979 181.027 188.966 181.035C188.954 181.043 188.939 181.047 188.924 181.048H188.905ZM187.758 180.072C187.693 180.071 187.63 180.092 187.577 180.131C187.48 180.209 187.499 180.262 187.509 180.287C187.592 180.521 188.29 180.824 188.749 180.882C188.563 180.628 188.163 180.135 187.821 180.077L187.758 180.072Z" fill="#364FD4"/>
<path d="M163.748 193.809C163.634 193.816 163.519 193.787 163.422 193.726C163.368 193.682 163.329 193.622 163.31 193.555C163.292 193.487 163.295 193.416 163.319 193.351C163.49 192.609 165.354 192.98 165.564 193.024C165.581 193.028 165.597 193.037 165.609 193.05C165.621 193.063 165.629 193.079 165.632 193.097C165.635 193.115 165.633 193.134 165.625 193.15C165.617 193.167 165.604 193.181 165.588 193.19C165.022 193.516 164.397 193.727 163.748 193.809ZM164.373 193.072C163.934 193.072 163.548 193.146 163.49 193.39C163.456 193.531 163.49 193.57 163.529 193.585C163.753 193.751 164.651 193.468 165.281 193.15C164.981 193.103 164.677 193.076 164.373 193.072Z" fill="#364FD4"/>
<path d="M165.544 193.199C165.056 193.146 164.012 192.667 163.944 192.223C163.944 192.121 163.944 191.979 164.178 191.877C164.255 191.844 164.338 191.827 164.422 191.827C164.506 191.827 164.589 191.844 164.666 191.877C165.222 192.101 165.598 193.028 165.613 193.067C165.619 193.081 165.622 193.096 165.622 193.111C165.622 193.127 165.619 193.142 165.613 193.155C165.605 193.167 165.595 193.177 165.583 193.184C165.571 193.192 165.558 193.197 165.544 193.199ZM164.456 192.009C164.39 192.009 164.325 192.024 164.266 192.052C164.114 192.121 164.129 192.189 164.129 192.213C164.173 192.472 164.915 192.882 165.422 192.994C165.265 192.605 164.99 192.274 164.637 192.048C164.579 192.023 164.518 192.01 164.456 192.009Z" fill="#364FD4"/>
<path d="M169.424 191.818L165.896 192.994L163.138 184.84L166.662 183.669L169.424 191.818Z" fill="#FF8B7B"/>
<path d="M192.594 178.779L189.393 180.663L183.698 174.026L186.904 172.142L192.594 178.779Z" fill="#FF8B7B"/>
<path d="M188.959 180.419L192.555 178.296C192.618 178.259 192.692 178.246 192.764 178.257C192.836 178.269 192.902 178.305 192.95 178.359L195.151 180.902C195.203 180.966 195.241 181.04 195.261 181.12C195.282 181.2 195.285 181.283 195.27 181.365C195.255 181.446 195.223 181.523 195.175 181.59C195.128 181.658 195.066 181.714 194.995 181.756C193.726 182.478 193.077 182.761 191.491 183.708C190.515 184.279 188.563 185.562 187.226 186.357C185.889 187.153 184.976 185.869 185.46 185.445C187.631 183.439 188.148 182.131 188.549 180.941C188.617 180.723 188.763 180.537 188.959 180.419Z" fill="#263238"/>
<path d="M165.798 192.575L169.648 191.286C169.718 191.264 169.793 191.266 169.86 191.293C169.928 191.319 169.984 191.369 170.019 191.433L171.639 194.361C171.679 194.433 171.703 194.513 171.708 194.596C171.713 194.678 171.699 194.761 171.669 194.837C171.638 194.914 171.59 194.983 171.529 195.039C171.469 195.095 171.396 195.136 171.317 195.161C169.922 195.605 167.901 196.191 166.149 196.771C164.105 197.455 162.367 198.748 159.869 199.114C158.361 199.333 157.775 197.864 158.405 197.65C161.216 196.596 163.095 195.424 165.047 193.141C165.24 192.886 165.5 192.69 165.798 192.575Z" fill="#263238"/>
<path d="M170.268 69.1594C173.811 69.2765 179.208 77.8946 179.208 77.8946L173.089 83.9848C170.989 81.8496 169.065 79.5486 167.335 77.104C164.632 73.2 166.647 69.0423 170.268 69.1594Z" fill="#364FD4"/>
<path opacity="0.2" d="M170.517 77.9043L168.677 73.8392L167.872 77.8848C168.941 79.3488 170.063 80.6956 170.99 81.7497C171.221 80.4494 171.056 79.1098 170.517 77.9043Z" fill="black"/>
<path d="M148.967 87.3521C149.274 91.4903 149.88 96.6241 150.919 102.968L170.751 101.611C170.795 98.5517 168.443 83.7897 170.947 69.2082C168.737 68.9328 166.512 68.804 164.285 68.8227C161.467 68.8504 158.653 69.0427 155.858 69.3985C153.932 69.7254 152.035 70.2001 150.182 70.8186C150.182 70.8186 148.611 72.7706 148.689 81.4229C148.718 83.1406 148.796 85.1024 148.967 87.3521Z" fill="#364FD4"/>
<path opacity="0.2" d="M148.967 87.3521C150.016 85.0829 151.895 80.5201 151.407 78.0557L148.694 81.4229C148.718 83.1406 148.796 85.1024 148.967 87.3521Z" fill="black"/>
<path d="M154.125 76.8698C153.012 80.2273 145.912 83.4481 145.912 83.4481L140.056 74.1761C142.978 72.7316 146.063 71.6437 149.245 70.9357C154.379 69.95 155.379 73.0878 154.125 76.8698Z" fill="#364FD4"/>
<path opacity="0.2" d="M163.138 184.845L164.559 189.046L168.087 187.87L166.667 183.669L163.138 184.845Z" fill="black"/>
<path opacity="0.2" d="M186.904 172.142L183.703 174.031L186.636 177.447L189.837 175.563L186.904 172.142Z" fill="black"/>
<path d="M164.324 56.0566C163.836 59.7263 163.753 61.8882 161.767 63.7182C161.132 64.3222 160.342 64.7405 159.486 64.9275C158.629 65.1145 157.737 65.063 156.908 64.7788C156.078 64.4946 155.343 63.9884 154.781 63.3153C154.219 62.6422 153.852 61.8279 153.72 60.9609C153.154 57.6328 154.032 52.177 157.736 50.8398C158.528 50.5224 159.389 50.4199 160.234 50.5425C161.078 50.665 161.874 51.0085 162.543 51.538C163.212 52.0674 163.729 52.7642 164.041 53.5577C164.354 54.3512 164.452 55.2132 164.324 56.0566Z" fill="#FF8B7B"/>
<path d="M158.4 63.44C159.376 64.5624 162.68 64.0842 163.373 63.5083C164.066 62.9325 170.522 59.1163 169.019 55.8662C167.516 52.6161 158.99 50.7227 157.922 53.5677C156.853 56.4128 157.39 62.2688 158.4 63.44Z" fill="#263238"/>
<path d="M167.311 54.9049C167.311 54.9049 169.98 55.1489 170.58 57.462C169.751 56.608 168.462 55.3685 167.311 54.9049Z" fill="#263238"/>
<path d="M159.483 54.4901C155.648 54.2266 148.006 48.5658 153.71 45.7061C159.415 42.8464 159.278 48.3266 161.577 49.7223C163.875 51.118 164.993 48.3608 167.711 49.4246C170.307 50.4397 171.483 56.2957 167.125 55.7394C162.768 55.183 159.483 54.4901 159.483 54.4901Z" fill="#263238"/>
<path d="M160.02 53.7239C157.317 53.7239 153.12 51.6695 151.958 49.1807C151.698 48.6802 151.602 48.111 151.681 47.5527C151.761 46.9944 152.013 46.475 152.402 46.0672C153.33 45.0083 154.223 44.4715 155.135 44.4324C156.526 44.3641 157.663 45.4377 158.766 46.4771C159.742 47.4141 160.718 48.2974 161.626 48.0924C161.641 48.0888 161.658 48.0884 161.674 48.0911C161.689 48.0938 161.705 48.0996 161.718 48.1083C161.732 48.1169 161.744 48.1281 161.753 48.1413C161.762 48.1545 161.769 48.1694 161.772 48.1851C161.776 48.2008 161.776 48.2171 161.773 48.233C161.771 48.2489 161.765 48.264 161.756 48.2777C161.748 48.2913 161.736 48.303 161.723 48.3123C161.71 48.3215 161.695 48.3281 161.679 48.3315C160.616 48.5658 159.635 47.6386 158.595 46.6577C157.556 45.6768 156.438 44.6081 155.145 44.6715C154.306 44.7155 153.466 45.223 152.583 46.2283C152.222 46.599 151.988 47.0748 151.915 47.5871C151.843 48.0994 151.935 48.6216 152.178 49.0782C153.325 51.5182 157.497 53.5434 160.142 53.4702C160.175 53.4702 160.206 53.483 160.228 53.5059C160.251 53.5288 160.264 53.5598 160.264 53.5922C160.264 53.6237 160.252 53.654 160.23 53.6768C160.208 53.6995 160.179 53.7129 160.147 53.7142L160.02 53.7239Z" fill="#263238"/>
<path d="M159.288 56.974C159.016 57.8647 158.467 58.6457 157.722 59.2042C156.746 59.9362 156.033 59.2384 156.131 58.1404C156.219 57.1644 156.843 55.593 157.917 55.2904C158.99 54.9879 159.576 55.9053 159.288 56.974Z" fill="#FF8B7B"/>
<path d="M157.966 102.48C157.966 102.48 163.021 130.603 165.647 141.086C168.526 152.568 184.737 177.554 184.737 177.554L190.593 174.099C190.593 174.099 178.584 152.822 176.797 141.403C174.845 128.983 170.761 101.626 170.761 101.626L157.966 102.48Z" fill="#263238"/>
<path d="M182.61 175.914C182.585 175.914 184.454 177.866 184.454 177.866L191.052 173.962L189.832 171.986L182.61 175.914Z" fill="#364FD4"/>
<path opacity="0.2" d="M160.928 112.435C165.808 113.06 165.847 131.287 165.544 140.681C163.944 134.166 161.509 121.58 159.84 112.64C160.169 112.452 160.552 112.38 160.928 112.435Z" fill="black"/>
<path d="M150.933 102.968C150.933 102.968 151.251 130.784 151.992 142.106C152.744 153.876 162.992 188.661 162.992 188.661L168.965 186.665C168.965 186.665 163.387 153.837 163.319 142.257C163.251 129.613 163.953 102.104 163.953 102.104L150.933 102.968Z" fill="#263238"/>
<path d="M161.157 186.636C161.128 186.636 162.226 189.032 162.226 189.032L169.487 186.592L169.424 183.698L161.157 186.636Z" fill="#364FD4"/>
<path d="M114.831 54.8196L114.463 55.1404L116.17 57.0968L116.538 56.776L114.831 54.8196Z" fill="#364FD4"/>
<path d="M117.032 48.4124L116.573 48.5797L119.078 55.4423L119.536 55.275L117.032 48.4124Z" fill="#364FD4"/>
<path d="M122.361 50.6763L122.101 54.9237L122.588 54.9536L122.849 50.7062L122.361 50.6763Z" fill="#364FD4"/>
<path d="M127.243 50.3488L124.738 55.4307L125.175 55.6464L127.68 50.5646L127.243 50.3488Z" fill="#364FD4"/>
<path d="M128.624 55.7184L127.159 56.3256L127.346 56.7764L128.811 56.1692L128.624 55.7184Z" fill="#364FD4"/>
</svg>
