<svg width="16" height="16" viewBox="0 0 16 16" fill="none" xmlns="http://www.w3.org/2000/svg">
<path fill-rule="evenodd" clip-rule="evenodd" d="M8 16C3.5816 16 0 12.4184 0 8C0 3.5816 3.5816 0 8 0C12.4184 0 16 3.5816 16 8C16 12.4184 12.4184 16 8 16ZM4.0104 13.0048C5.14284 13.9102 6.55014 14.4023 8 14.4C9.576 14.4 11.0184 13.8304 12.1336 12.8864C11.081 11.8063 9.63617 11.1981 8.128 11.2C6.56324 11.1982 5.06949 11.8529 4.0104 13.0048ZM2.8928 11.856C4.25178 10.4138 6.14638 9.59735 8.128 9.6C10.0373 9.59752 11.8689 10.3558 13.2176 11.7072C15.1185 9.03173 14.6875 5.35192 12.2198 3.18816C9.75201 1.0244 6.04743 1.07808 3.64339 3.31243C1.23936 5.54678 0.915136 9.23753 2.8928 11.8568V11.856ZM8 8.8C6.23269 8.8 4.8 7.36731 4.8 5.6C4.8 3.83269 6.23269 2.4 8 2.4C9.76731 2.4 11.2 3.83269 11.2 5.6C11.2 7.36731 9.76731 8.8 8 8.8ZM8 7.2C8.88366 7.2 9.6 6.48366 9.6 5.6C9.6 4.71634 8.88366 4 8 4C7.11634 4 6.4 4.71634 6.4 5.6C6.4 6.48366 7.11634 7.2 8 7.2Z" fill="#1E2126"/>
</svg>
