<svg width="16" height="17" viewBox="0 0 16 17" fill="none" xmlns="http://www.w3.org/2000/svg">
<path fill-rule="evenodd" clip-rule="evenodd" d="M14.8571 5.41072H12.5714C12.5714 2.96429 10.4464 0.800003 8 0.800003C5.55357 0.800003 3.42857 2.96429 3.42857 5.41072H1.14286L0 17H16L14.8571 5.41072ZM1.45074 15.6908L2.43665 6.71429H3.42857V8.01072C3.08571 8.20715 2.85714 8.57857 2.85714 9C2.85714 9.63215 3.36786 10.1429 4 10.1429C4.63214 10.1429 5.14286 9.63215 5.14286 9C5.14286 8.57857 4.91429 8.20715 4.57143 8.01072V6.71429H11.4286V8.01072C11.0857 8.20715 10.8571 8.57857 10.8571 9C10.8571 9.63215 11.3679 10.1429 12 10.1429C12.6321 10.1429 13.1429 9.63215 13.1429 9C13.1429 8.57857 12.9143 8.20715 12.5714 8.01072V6.71429H13.5411L14.4966 15.6116L1.45074 15.6908ZM8 1.3C7.72386 1.3 7.5 1.52386 7.5 1.8V3.3H6C5.72386 3.3 5.5 3.52386 5.5 3.8C5.5 4.07614 5.72386 4.3 6 4.3H7.5V5.8C7.5 6.07614 7.72386 6.3 8 6.3C8.27614 6.3 8.5 6.07614 8.5 5.8V4.3H10C10.2761 4.3 10.5 4.07614 10.5 3.8C10.5 3.52386 10.2761 3.3 10 3.3H8.5V1.8C8.5 1.52386 8.27614 1.3 8 1.3Z" fill="#1E2126"/>
</svg>
