<svg width="22" height="22" viewBox="0 0 22 22" fill="none" xmlns="http://www.w3.org/2000/svg">
<path fill-rule="evenodd" clip-rule="evenodd" d="M19.5714 6.51339H16.7143C16.7143 3.45536 14.2589 1 11.2009 1H10.8438C7.78571 1 5.28571 3.45536 5.28571 6.51339H2.42857L1 21H21L19.5714 6.51339ZM10.9012 1.16025H11.236H11.2583C13.4107 1.16025 15.1635 2.80745 15.3301 4.91551C15.3474 5.13389 15.3188 5.35291 15.2706 5.5666V5.5666C14.9662 6.91632 13.7672 7.875 12.3836 7.875H11L9.77747 7.8692C8.26301 7.86201 6.9832 6.7447 6.77169 5.24507V5.24507C6.77169 2.98168 8.63776 1.16025 10.9012 1.16025ZM2.81342 19.3635L4.0458 8.14288H5.28571V9.76341C4.85713 10.0089 4.57142 10.4732 4.57142 11C4.57142 11.7902 5.20981 12.4286 5.99999 12.4286C6.79017 12.4286 7.42856 11.7902 7.42856 11C7.42856 10.4732 7.14285 10.0089 6.71428 9.76341V8.14288H15.2857V9.76341C14.8571 10.0089 14.5714 10.4732 14.5714 11C14.5714 11.7902 15.2098 12.4286 16 12.4286C16.7902 12.4286 17.4286 11.7902 17.4286 11C17.4286 10.4732 17.1428 10.0089 16.7143 9.76341V8.14288H17.9264L19.1207 19.2645L2.81342 19.3635ZM11 2.25C11.1972 2.25 11.3571 2.4099 11.3571 2.60714V4.39284H13.1429C13.3401 4.39284 13.5 4.55274 13.5 4.74998C13.5 4.94723 13.3401 5.10712 13.1429 5.10712H11.3571V6.89286C11.3571 7.0901 11.1972 7.25 11 7.25C10.8027 7.25 10.6428 7.0901 10.6428 6.89286V5.10712H8.85714C8.6599 5.10712 8.5 4.94723 8.5 4.74998C8.5 4.55274 8.6599 4.39284 8.85714 4.39284H10.6428V2.60714C10.6428 2.4099 10.8027 2.25 11 2.25Z" fill="#1E2126"/>
<path d="M19.5714 6.51339L19.7207 6.49867L19.7074 6.36339H19.5714V6.51339ZM16.7143 6.51339L16.5643 6.51339V6.66339H16.7143V6.51339ZM5.28571 6.51339V6.66339H5.43571V6.51339H5.28571ZM2.42857 6.51339V6.36339H2.29264L2.2793 6.49867L2.42857 6.51339ZM1 21L0.850724 20.9853L0.83448 21.15H1V21ZM21 21V21.15H21.1655L21.1493 20.9853L21 21ZM11 7.875L10.9993 8.025H11V7.875ZM6.77169 5.24507L6.62169 5.24507L6.62169 5.2556L6.62316 5.26602L6.77169 5.24507ZM15.2706 5.5666L15.4169 5.5996L15.2706 5.5666ZM2.81342 19.3635L2.66432 19.3471L2.64593 19.5145L2.81433 19.5135L2.81342 19.3635ZM4.0458 8.14288V7.99288H3.91137L3.8967 8.1265L4.0458 8.14288ZM5.28571 8.14288H5.43571V7.99288H5.28571V8.14288ZM5.28571 9.76341L5.36027 9.89357L5.43571 9.85035V9.76341H5.28571ZM6.71428 9.76341H6.56428V9.85035L6.63971 9.89357L6.71428 9.76341ZM6.71428 8.14288V7.99288H6.56428V8.14288H6.71428ZM15.2857 8.14288H15.4357V7.99288H15.2857V8.14288ZM15.2857 9.76341L15.3603 9.89357L15.4357 9.85035V9.76341H15.2857ZM16.7143 9.76341H16.5643V9.85035L16.6397 9.89357L16.7143 9.76341ZM16.7143 8.14288V7.99288H16.5643V8.14288H16.7143ZM17.9264 8.14288L18.0756 8.12686L18.0612 7.99288H17.9264V8.14288ZM19.1207 19.2645L19.1216 19.4145L19.2876 19.4135L19.2699 19.2485L19.1207 19.2645ZM11.3571 4.39284H11.2071V4.54284H11.3571V4.39284ZM11.3571 5.10712V4.95712H11.2071V5.10712H11.3571ZM10.6428 5.10712H10.7928V4.95712H10.6428V5.10712ZM10.6428 4.39284V4.54284H10.7928V4.39284H10.6428ZM19.5714 6.36339H16.7143V6.66339H19.5714V6.36339ZM16.8643 6.51339C16.8643 3.37252 14.3418 0.850002 11.2009 0.850002V1.15C14.1761 1.15 16.5643 3.5382 16.5643 6.51339L16.8643 6.51339ZM11.2009 0.850002H10.8438V1.15H11.2009V0.850002ZM10.8438 0.850002C7.70445 0.850002 5.13571 3.37095 5.13571 6.51339H5.43571C5.43571 3.53977 7.86698 1.15 10.8438 1.15V0.850002ZM5.28571 6.36339H2.42857V6.66339H5.28571V6.36339ZM2.2793 6.49867L0.850724 20.9853L1.14928 21.0147L2.57785 6.52812L2.2793 6.49867ZM1 21.15H21V20.85H1V21.15ZM21.1493 20.9853L19.7207 6.49867L19.4222 6.52812L20.8507 21.0147L21.1493 20.9853ZM10.9012 1.31025H11.236V1.01025H10.9012V1.31025ZM11.236 1.31025H11.2583V1.01025H11.236V1.31025ZM11.2583 1.31025C13.3319 1.31025 15.02 2.89678 15.1806 4.92734L15.4797 4.90369C15.3069 2.71813 13.4895 1.01025 11.2583 1.01025V1.31025ZM6.92169 5.24507C6.92169 3.06664 8.71848 1.31025 10.9012 1.31025V1.01025C8.55705 1.01025 6.62169 2.89672 6.62169 5.24507L6.92169 5.24507ZM12.3836 7.725H11V8.025H12.3836V7.725ZM11.0007 7.725L9.77818 7.7192L9.77675 8.01919L10.9993 8.02499L11.0007 7.725ZM9.77818 7.7192C8.3382 7.71237 7.12133 6.65 6.92022 5.22412L6.62316 5.26602C6.84507 6.8394 8.18782 8.01166 9.77675 8.01919L9.77818 7.7192ZM15.1243 5.5336C14.8353 6.81491 13.6971 7.725 12.3836 7.725V8.025C13.8373 8.025 15.0971 7.01773 15.4169 5.5996L15.1243 5.5336ZM15.1806 4.92734C15.1963 5.12532 15.1706 5.32821 15.1243 5.5336L15.4169 5.5996C15.467 5.3776 15.4986 5.14245 15.4797 4.90369L15.1806 4.92734ZM2.96253 19.3799L4.1949 8.15925L3.8967 8.1265L2.66432 19.3471L2.96253 19.3799ZM4.0458 8.29288H5.28571V7.99288H4.0458V8.29288ZM5.13571 8.14288V9.76341H5.43571V8.14288H5.13571ZM5.21114 9.63326C4.73717 9.9048 4.42142 10.418 4.42142 11H4.72142C4.72142 10.5284 4.9771 10.1131 5.36027 9.89357L5.21114 9.63326ZM4.42142 11C4.42142 11.873 5.12697 12.5786 5.99999 12.5786V12.2786C5.29266 12.2786 4.72142 11.7074 4.72142 11H4.42142ZM5.99999 12.5786C6.87301 12.5786 7.57856 11.873 7.57856 11H7.27856C7.27856 11.7074 6.70733 12.2786 5.99999 12.2786V12.5786ZM7.57856 11C7.57856 10.418 7.26281 9.9048 6.78884 9.63326L6.63971 9.89357C7.02288 10.1131 7.27856 10.5284 7.27856 11H7.57856ZM6.86428 9.76341V8.14288H6.56428V9.76341H6.86428ZM6.71428 8.29288H15.2857V7.99288H6.71428V8.29288ZM15.1357 8.14288V9.76341H15.4357V8.14288H15.1357ZM15.2111 9.63326C14.7372 9.9048 14.4214 10.418 14.4214 11H14.7214C14.7214 10.5284 14.9771 10.1131 15.3603 9.89357L15.2111 9.63326ZM14.4214 11C14.4214 11.873 15.127 12.5786 16 12.5786V12.2786C15.2927 12.2786 14.7214 11.7074 14.7214 11H14.4214ZM16 12.5786C16.873 12.5786 17.5786 11.873 17.5786 11H17.2786C17.2786 11.7074 16.7073 12.2786 16 12.2786V12.5786ZM17.5786 11C17.5786 10.418 17.2628 9.9048 16.7888 9.63326L16.6397 9.89357C17.0229 10.1131 17.2786 10.5284 17.2786 11H17.5786ZM16.8643 9.76341V8.14288H16.5643V9.76341H16.8643ZM16.7143 8.29288H17.9264V7.99288H16.7143V8.29288ZM17.7773 8.15889L18.9716 19.2805L19.2699 19.2485L18.0756 8.12686L17.7773 8.15889ZM19.1198 19.1145L2.81251 19.2135L2.81433 19.5135L19.1216 19.4145L19.1198 19.1145ZM11.5071 2.60714C11.5071 2.32706 11.28 2.1 11 2.1V2.4C11.1144 2.4 11.2071 2.49274 11.2071 2.60714H11.5071ZM11.5071 4.39284V2.60714H11.2071V4.39284H11.5071ZM13.1429 4.24284H11.3571V4.54284H13.1429V4.24284ZM13.65 4.74998C13.65 4.46989 13.4229 4.24284 13.1429 4.24284V4.54284C13.2573 4.54284 13.35 4.63558 13.35 4.74998H13.65ZM13.1429 5.25712C13.4229 5.25712 13.65 5.03007 13.65 4.74998H13.35C13.35 4.86438 13.2573 4.95712 13.1429 4.95712V5.25712ZM11.3571 5.25712H13.1429V4.95712H11.3571V5.25712ZM11.5071 6.89286V5.10712H11.2071V6.89286H11.5071ZM11 7.4C11.28 7.4 11.5071 7.17294 11.5071 6.89286H11.2071C11.2071 7.00726 11.1144 7.1 11 7.1V7.4ZM10.4928 6.89286C10.4928 7.17294 10.7199 7.4 11 7.4V7.1C10.8855 7.1 10.7928 7.00726 10.7928 6.89286H10.4928ZM10.4928 5.10712V6.89286H10.7928V5.10712H10.4928ZM8.85714 5.25712H10.6428V4.95712H8.85714V5.25712ZM8.35 4.74998C8.35 5.03007 8.57706 5.25712 8.85714 5.25712V4.95712C8.74274 4.95712 8.65 4.86438 8.65 4.74998H8.35ZM8.85714 4.24284C8.57706 4.24284 8.35 4.46989 8.35 4.74998H8.65C8.65 4.63558 8.74274 4.54284 8.85714 4.54284V4.24284ZM10.6428 4.24284H8.85714V4.54284H10.6428V4.24284ZM10.4928 2.60714V4.39284H10.7928V2.60714H10.4928ZM11 2.1C10.7199 2.1 10.4928 2.32706 10.4928 2.60714H10.7928C10.7928 2.49274 10.8855 2.4 11 2.4V2.1Z" fill="#1E2126"/>
</svg>
