<svg width="127" height="137" viewBox="0 0 127 137" fill="none" xmlns="http://www.w3.org/2000/svg">
<path d="M61.7017 79.5732C60.3734 80.4696 58.583 79.5179 58.583 77.9154V60.636C58.583 59.8444 58.1161 59.1273 57.3922 58.807L12.5731 38.9763C11.2508 38.3913 9.76383 39.3594 9.76383 40.8053V95.7842C9.76383 96.6002 10.2596 97.3344 11.0166 97.6393L46.7441 112.03C47.3016 112.254 47.7285 112.718 47.9068 113.292L49.4829 118.363C49.9802 119.963 48.4068 121.429 46.8457 120.82L1.27279 103.032C0.505265 102.732 0 101.992 0 101.169V29.3165C0 28.5243 0.46762 27.8067 1.19238 27.4868L62.6573 0.356479C63.1717 0.129395 63.758 0.129395 64.2725 0.356479L125.737 27.4868C126.462 27.8067 126.93 28.5243 126.93 29.3165V96.7694C126.93 98.7314 124.641 99.367 123.707 97.6411C121.493 93.5463 118.961 88.5785 117.447 85.9753C117.264 85.6608 117.166 85.3077 117.166 84.9439V40.8053C117.166 39.3594 115.679 38.3913 114.357 38.9763L69.5375 58.807C68.8137 59.1273 68.3468 59.8444 68.3468 60.636V74.0258C68.3468 74.6905 68.0165 75.3118 67.4655 75.6836L61.7017 79.5732ZM51.6107 14.8302C50.0678 15.5129 50.0114 17.6818 51.5168 18.4437L91.4514 38.6546C91.9876 38.926 92.6173 38.9418 93.1665 38.6979L107.021 32.5432C108.605 31.8391 108.604 29.5896 107.019 28.887L64.2746 9.94404C63.7589 9.71553 63.1708 9.71536 62.655 9.94357L51.6107 14.8302ZM62.6552 51.4824C63.1708 51.7109 63.759 51.7111 64.2748 51.4829L77.9126 45.4487C79.4555 44.766 79.5119 42.5971 78.0064 41.8352L38.0717 21.6242C37.5356 21.3529 36.906 21.337 36.3569 21.5808L19.9105 28.8835C18.3254 29.5874 18.3263 31.8372 19.9119 32.5399L62.6552 51.4824Z" fill="#333333"/>
<path d="M104.112 129.944C98.6021 133.241 92.1255 135 85.4999 135C76.615 135 68.0941 131.839 61.8118 126.213C55.5294 120.587 52 112.957 52 105C52 99.0665 53.9646 93.2665 57.6459 88.3332C61.3271 83.3991 66.5591 79.5545 72.6799 77.2838C78.8014 75.0131 85.5372 74.4188 92.0354 75.5764C98.5336 76.7338 104.503 79.5911 109.188 83.7865C113.873 87.9825 117.064 93.3279 118.356 99.1472C119.649 104.967 118.986 110.999 116.45 116.481C113.915 121.963 109.621 126.648 104.112 129.944ZM88.1323 89.3098C87.434 88.6845 86.4871 88.3332 85.4999 88.3332C84.5128 88.3332 83.5659 88.6845 82.8676 89.3098C82.17 89.9345 81.7777 90.7825 81.7777 91.6665V101.667H70.6111C69.6239 101.667 68.677 102.018 67.9787 102.643C67.2812 103.268 66.8889 104.116 66.8889 105C66.8889 105.884 67.2812 106.732 67.9787 107.357C68.677 107.982 69.6239 108.333 70.6111 108.333H81.7777V118.333C81.7777 119.217 82.17 120.065 82.8676 120.691C83.5659 121.315 84.5128 121.667 85.4999 121.667C86.4871 121.667 87.434 121.315 88.1323 120.691C88.8298 120.065 89.2222 119.217 89.2222 118.333V108.333H100.389C101.376 108.333 102.323 107.982 103.021 107.357C103.719 106.732 104.111 105.884 104.111 105C104.111 104.116 103.719 103.268 103.021 102.643C102.323 102.018 101.376 101.667 100.389 101.667H89.2222V91.6665C89.2222 90.7825 88.8298 89.9345 88.1323 89.3098Z" fill="#333333"/>
</svg>
