<svg width="40" height="39" viewBox="0 0 40 39" fill="none" xmlns="http://www.w3.org/2000/svg">
<path fill-rule="evenodd" clip-rule="evenodd" d="M28.5 38C34.299 38 39 33.299 39 27.5C39 21.701 34.299 17 28.5 17C22.701 17 18 21.701 18 27.5C18 33.299 22.701 38 28.5 38ZM27.1875 21.9375C27.1875 21.3852 27.6352 20.9375 28.1875 20.9375H28.8125C29.3648 20.9375 29.8125 21.3852 29.8125 21.9375V26.1875H34.0625C34.6148 26.1875 35.0625 26.6352 35.0625 27.1875V27.8125C35.0625 28.3648 34.6148 28.8125 34.0625 28.8125H29.8125V33.0625C29.8125 33.6148 29.3648 34.0625 28.8125 34.0625H28.1875C27.6352 34.0625 27.1875 33.6148 27.1875 33.0625V28.8125H22.9375C22.3852 28.8125 21.9375 28.3648 21.9375 27.8125V27.1875C21.9375 26.6352 22.3852 26.1875 22.9375 26.1875H27.1875V21.9375Z" fill="#1E2126"/>
<path d="M17.8727 32.9592L17.8221 32.8424L17.6978 32.8146C17.4177 32.752 17.1414 32.6661 16.8717 32.5568L4.12229 27.3867C4.12225 27.3867 4.12222 27.3866 4.12218 27.3866C3.79754 27.2547 3.58221 26.9347 3.58221 26.5759V9.41005C3.58221 9.05125 3.79761 8.73111 4.12221 8.59946C4.12221 8.59945 4.12222 8.59945 4.12222 8.59945L16.8717 3.42927L16.7778 3.19759L16.8718 3.42927C18.1314 2.91844 19.5363 2.91844 20.7962 3.42927L33.5456 8.59944C33.8702 8.7311 34.0856 9.05125 34.0856 9.41005V17.0935V17.2455L34.2206 17.3155C34.9966 17.7177 35.7234 18.2036 36.3897 18.7613L36.8002 19.1049V18.5696V9.41005C36.8002 7.93284 35.9131 6.60187 34.556 6.0516L21.8066 0.881375L21.7126 1.11305L21.8065 0.881374C19.8983 0.107577 17.7695 0.107575 15.8614 0.881375L3.11183 6.0516C1.75489 6.60187 0.867676 7.93283 0.867676 9.41005V26.5759C0.867676 28.0532 1.75488 29.3842 3.11183 29.9345L15.8614 35.1046C16.8701 35.5137 17.9408 35.7066 19.0079 35.6829L19.4867 35.6723L19.2043 35.2856C18.6796 34.5669 18.2317 33.7874 17.8727 32.9592ZM20.1907 19.6205V15.5165L29.3513 11.3889C30.0372 11.08 30.3423 10.269 30.0399 9.57894L30.0398 9.57888C29.7364 8.88705 28.9344 8.57167 28.2466 8.88144L28.2466 8.88146L18.8334 13.1228L9.42068 8.88148C8.73307 8.57164 7.9308 8.88702 7.62749 9.5789C7.32492 10.269 7.63013 11.0799 8.31586 11.3889L8.41856 11.161L8.31586 11.3889L17.4761 15.5165V22.9451L17.9538 23.0483C18.5002 21.8427 19.2365 20.7438 20.1237 19.7909L20.1907 19.7189V19.6205Z" fill="#212121" stroke="#212121" stroke-width="0.5"/>
</svg>
