<svg width="16" height="16" viewBox="0 0 16 16" fill="none" xmlns="http://www.w3.org/2000/svg">
<path fill-rule="evenodd" clip-rule="evenodd" d="M14.8571 4.41071H12.5714C12.5714 1.96429 10.6071 0 8.16071 0H7.875C5.42857 0 3.42857 1.96429 3.42857 4.41071H1.14286L0 16H16L14.8571 4.41071ZM7.875 1.14286H8.14286H8.16071C9.97143 1.14286 11.4286 2.6 11.4286 4.41071H4.57143C4.57143 2.6 6.06429 1.14286 7.875 1.14286ZM1.45074 14.6908L2.43665 5.71429H3.42857V7.01071C3.08571 7.20714 2.85714 7.57857 2.85714 8C2.85714 8.63214 3.36786 9.14286 4 9.14286C4.63214 9.14286 5.14286 8.63214 5.14286 8C5.14286 7.57857 4.91429 7.20714 4.57143 7.01071V5.71429H11.4286V7.01071C11.0857 7.20714 10.8571 7.57857 10.8571 8C10.8571 8.63214 11.3679 9.14286 12 9.14286C12.6321 9.14286 13.1429 8.63214 13.1429 8C13.1429 7.57857 12.9143 7.20714 12.5714 7.01071V5.71429H13.5411L14.4966 14.6116L1.45074 14.6908Z" fill="#1E2126"/>
</svg>
