<svg width="12" height="12" viewBox="0 0 12 12" fill="none" xmlns="http://www.w3.org/2000/svg">
<path fill-rule="evenodd" clip-rule="evenodd" d="M0.343146 11.6569C0.789459 12.1032 1.51308 12.1032 1.95939 11.6569L6 7.61625L10.0406 11.6569C10.4869 12.1032 11.2105 12.1032 11.6569 11.6569C12.1032 11.2105 12.1032 10.4869 11.6569 10.0406L7.61624 6L11.6569 1.95939C12.1032 1.51308 12.1032 0.789462 11.6569 0.343149C11.2105 -0.103165 10.4869 -0.103165 10.0406 0.343149L6 4.38376L1.95939 0.343149C1.51308 -0.103165 0.789459 -0.103165 0.343146 0.343149C-0.103168 0.789462 -0.103168 1.51308 0.343146 1.95939L4.38376 6L0.343146 10.0406C-0.103167 10.4869 -0.103168 11.2105 0.343146 11.6569Z" fill="#1E2126"/>
</svg>
