<svg width="14" height="16" viewBox="0 0 14 16" fill="none" xmlns="http://www.w3.org/2000/svg">
<path fill-rule="evenodd" clip-rule="evenodd" d="M6.22222 12C6.22222 12.4418 5.874 12.8 5.44444 12.8C5.01489 12.8 4.66667 12.4418 4.66667 12V7.2C4.66667 6.75817 5.01489 6.4 5.44444 6.4C5.874 6.4 6.22222 6.75817 6.22222 7.2V12ZM9.33333 12C9.33333 12.4418 8.98511 12.8 8.55556 12.8C8.126 12.8 7.77778 12.4418 7.77778 12V7.2C7.77778 6.75817 8.126 6.4 8.55556 6.4C8.98511 6.4 9.33333 6.75817 9.33333 7.2V12ZM5.44444 1.6V2.4H8.55556V1.6H5.44444ZM0.777778 2.4H3.88889V0.8C3.88889 0.358172 4.23711 0 4.66667 0H9.33333C9.76289 0 10.1111 0.358172 10.1111 0.8V2.4H13.2222C13.6518 2.4 14 2.75817 14 3.2C14 3.64183 13.6518 4 13.2222 4H12.4444V14.8C12.4444 15.4627 11.9221 16 11.2778 16H2.72222C2.07789 16 1.55556 15.4627 1.55556 14.8V4H0.777778C0.348223 4 0 3.64183 0 3.2C0 2.75817 0.348223 2.4 0.777778 2.4ZM10.8889 4H3.11111V14.4H10.8889V4Z" fill="#1E2126"/>
</svg>
