<svg width="20" height="20" viewBox="0 0 20 20" fill="none" xmlns="http://www.w3.org/2000/svg">
<path d="M18.2031 3.43649H13.6696C14.264 2.58399 14.1818 1.39966 13.4218 0.639697C12.5689 -0.213232 11.1811 -0.213232 10.3282 0.639697C10.2325 0.735439 10.1182 0.874072 10 1.10856C9.88188 0.874072 9.76758 0.735439 9.67184 0.639697C8.81894 -0.213232 7.43117 -0.213232 6.57828 0.639697C5.81832 1.39966 5.73613 2.58396 6.33047 3.43649H1.79688C0.804492 3.43649 0 4.24099 0 5.23337V6.63962C0 7.632 0.804492 8.43649 1.79688 8.43649H7.92969C8.03754 8.43649 8.125 8.34903 8.125 8.24118V4.42009C8.27855 4.45497 8.4466 4.4888 8.63184 4.52099C8.90254 4.56806 9.15996 4.60306 9.375 4.62841V8.24114C9.375 8.34899 9.46246 8.43645 9.57031 8.43645H10.4297C10.5375 8.43645 10.625 8.34899 10.625 8.24114V4.62841C10.84 4.60306 11.0975 4.56802 11.3682 4.52099C11.5534 4.4888 11.7214 4.45497 11.875 4.42009V8.24118C11.875 8.34903 11.9625 8.43649 12.0703 8.43649H18.2031C19.1955 8.43649 20 7.632 20 6.63962V5.23337C20 4.24099 19.1955 3.43649 18.2031 3.43649ZM8.84598 3.28946C7.73563 3.09642 7.48684 2.87411 7.46211 2.84938C7.0966 2.48384 7.0966 1.88911 7.46211 1.52356C7.64488 1.34079 7.88496 1.24942 8.12504 1.24942C8.36512 1.24942 8.6052 1.34079 8.78797 1.52356C8.81254 1.54813 9.03359 1.79544 9.22629 2.89735C9.25434 3.05774 9.27781 3.21431 9.29723 3.35872C9.15609 3.3397 9.00313 3.31681 8.84598 3.28946ZM11.1641 3.28771C11.0037 3.31575 10.8472 3.33923 10.7028 3.35864C10.7218 3.21755 10.7447 3.06458 10.772 2.90743C10.965 1.79708 11.1873 1.54829 11.2121 1.52356C11.3948 1.34079 11.6349 1.24942 11.875 1.24942C12.1151 1.24942 12.3552 1.34079 12.5379 1.52356C12.9034 1.88911 12.9034 2.48384 12.5379 2.84938C12.5134 2.87399 12.2661 3.09501 11.1641 3.28771Z" fill="#1E2126"/>
<path d="M9.375 9.88127V19.8031C9.375 19.911 9.46246 19.9985 9.57031 19.9985H10.4297C10.5375 19.9985 10.625 19.911 10.625 19.8031V9.88127C10.625 9.77342 10.5375 9.68596 10.4297 9.68596H9.57031C9.46246 9.68596 9.375 9.77342 9.375 9.88127Z" fill="#1E2126"/>
<path d="M7.92969 9.68596H1.875C1.5298 9.68596 1.25 9.96576 1.25 10.311V18.2016C1.25 19.194 2.05449 19.9985 3.04688 19.9985H7.92969C8.03754 19.9985 8.125 19.911 8.125 19.8031V9.88127C8.125 9.77342 8.03754 9.68596 7.92969 9.68596Z" fill="#1E2126"/>
<path d="M18.125 9.68596H12.0703C11.9625 9.68596 11.875 9.77342 11.875 9.88127V19.8031C11.875 19.911 11.9625 19.9985 12.0703 19.9985H16.9531C17.9455 19.9985 18.75 19.194 18.75 18.2016V10.311C18.75 9.96576 18.4702 9.68596 18.125 9.68596Z" fill="#1E2126"/>
</svg>
