<svg width="24" height="24" viewBox="0 0 24 24" fill="none" xmlns="http://www.w3.org/2000/svg">
<path fill-rule="evenodd" clip-rule="evenodd" d="M8.9149 16.4614C8.9149 16.0196 8.58957 15.6614 8.15154 15.6614C7.71351 15.6614 7.38718 16.0196 7.38718 16.4614V17.2614C7.38718 19.0287 8.70436 20.4614 10.4565 20.4614H15.3864C17.1386 20.4614 18.4615 19.0287 18.4615 17.2614V7.66143C18.4615 5.89411 17.0412 4.46143 15.289 4.46143H10.4565C8.70436 4.46143 7.38718 5.89411 7.38718 7.66143V8.46143C7.38718 8.90326 7.708 9.26143 8.14603 9.26143C8.58407 9.26143 8.93916 8.90326 8.93916 8.46143V7.66143C8.93916 6.77777 9.58043 5.98931 10.4565 5.98931L15.3864 6.01998C16.2625 6.01998 16.9486 6.77777 16.9486 7.66143V17.2614C16.9486 18.1451 16.2625 18.9244 15.3864 18.9244H10.4565C9.58043 18.9244 8.9149 18.1451 8.9149 17.2614V16.4614ZM15.5563 11.8855L15.5671 11.8957C15.8941 12.2082 15.8941 12.7147 15.5671 13.0271L13.0548 15.4271C12.7278 15.7395 12.1975 15.7395 11.8705 15.4271C11.5435 15.1147 11.5435 14.6082 11.8705 14.2957L13.3233 12.9079H6.33847C5.89664 12.9079 5.53847 12.5497 5.53847 12.1079C5.53847 11.666 5.89664 11.3079 6.33847 11.3079H12.5831L11.8705 10.6271C11.5435 10.3147 11.5435 9.80816 11.8705 9.49574C12.1975 9.18332 12.7278 9.18332 13.0548 9.49574L14.9747 11.3298C15.2544 11.3969 15.477 11.6108 15.5563 11.8855Z" fill="#828B9A"/>
<mask id="mask0_113_42" style="mask-type:luminance" maskUnits="userSpaceOnUse" x="5" y="4" width="14" height="17">
<path fill-rule="evenodd" clip-rule="evenodd" d="M8.9149 16.4614C8.9149 16.0196 8.58957 15.6614 8.15154 15.6614C7.71351 15.6614 7.38718 16.0196 7.38718 16.4614V17.2614C7.38718 19.0287 8.70436 20.4614 10.4565 20.4614H15.3864C17.1386 20.4614 18.4615 19.0287 18.4615 17.2614V7.66143C18.4615 5.89411 17.0412 4.46143 15.289 4.46143H10.4565C8.70436 4.46143 7.38718 5.89411 7.38718 7.66143V8.46143C7.38718 8.90326 7.708 9.26143 8.14603 9.26143C8.58407 9.26143 8.93916 8.90326 8.93916 8.46143V7.66143C8.93916 6.77777 9.58043 5.98931 10.4565 5.98931L15.3864 6.01998C16.2625 6.01998 16.9486 6.77777 16.9486 7.66143V17.2614C16.9486 18.1451 16.2625 18.9244 15.3864 18.9244H10.4565C9.58043 18.9244 8.9149 18.1451 8.9149 17.2614V16.4614ZM15.5563 11.8855L15.5671 11.8957C15.8941 12.2082 15.8941 12.7147 15.5671 13.0271L13.0548 15.4271C12.7278 15.7395 12.1975 15.7395 11.8705 15.4271C11.5435 15.1147 11.5435 14.6082 11.8705 14.2957L13.3233 12.9079H6.33847C5.89664 12.9079 5.53847 12.5497 5.53847 12.1079C5.53847 11.666 5.89664 11.3079 6.33847 11.3079H12.5831L11.8705 10.6271C11.5435 10.3147 11.5435 9.80816 11.8705 9.49574C12.1975 9.18332 12.7278 9.18332 13.0548 9.49574L14.9747 11.3298C15.2544 11.3969 15.477 11.6108 15.5563 11.8855Z" fill="white"/>
</mask>
<g mask="url(#mask0_113_42)">
</g>
</svg>
