<svg width="14" height="17" viewBox="0 0 14 17" fill="none" xmlns="http://www.w3.org/2000/svg">
<path fill-rule="evenodd" clip-rule="evenodd" d="M3.9149 12.4615C3.9149 12.0197 3.58957 11.6615 3.15154 11.6615C2.71351 11.6615 2.38718 12.0197 2.38718 12.4615V13.2615C2.38718 15.0288 3.70436 16.4615 5.4565 16.4615H10.3864C12.1386 16.4615 13.4615 15.0288 13.4615 13.2615V3.66153C13.4615 1.89422 12.0412 0.461533 10.289 0.461533H5.4565C3.70436 0.461533 2.38718 1.89422 2.38718 3.66153V4.46154C2.38718 4.90336 2.708 5.26154 3.14603 5.26154C3.58407 5.26154 3.93916 4.90336 3.93916 4.46154V3.66153C3.93916 2.77788 4.58043 1.98942 5.4565 1.98942L10.3864 2.02009C11.2625 2.02009 11.9486 2.77788 11.9486 3.66153V13.2615C11.9486 14.1452 11.2625 14.9245 10.3864 14.9245H5.4565C4.58043 14.9245 3.9149 14.1452 3.9149 13.2615V12.4615ZM10.5563 7.88556L10.5671 7.89585C10.8941 8.20827 10.8941 8.7148 10.5671 9.02722L8.0548 11.4272C7.72776 11.7396 7.19753 11.7396 6.87049 11.4272C6.54345 11.1148 6.54345 10.6083 6.87049 10.2958L8.32331 8.90796H1.33847C0.896643 8.90796 0.53847 8.54979 0.53847 8.10796C0.53847 7.66613 0.896644 7.30796 1.33847 7.30796H7.58308L6.87049 6.62722C6.54345 6.3148 6.54345 5.80827 6.87049 5.49585C7.19753 5.18343 7.72776 5.18343 8.0548 5.49585L9.97472 7.32996C10.2544 7.39696 10.477 7.61088 10.5563 7.88556Z" fill="#1E2126"/>
</svg>
