<svg width="14" height="16" viewBox="0 0 14 16" fill="none" xmlns="http://www.w3.org/2000/svg">
<path fill-rule="evenodd" clip-rule="evenodd" d="M13.6334 10.5655L12.232 9.11759V5.54983C12.2705 2.81028 10.3365 0.461268 7.70071 0.0461863C6.20412 -0.156316 4.69513 0.313176 3.55928 1.33471C2.42344 2.35625 1.77076 3.83087 1.76801 5.38184V9.11759L0.366582 10.5655C0.00669727 10.9414 -0.0991487 11.5022 0.0978799 11.9891C0.294909 12.476 0.756516 12.7944 1.26972 12.7974H3.88572V13.0693C3.96144 14.7602 5.35412 16.0695 7 15.9971C8.64588 16.0695 10.0386 14.7602 10.1143 13.0693V12.7974H12.7303C13.2435 12.7944 13.7051 12.476 13.9021 11.9891C14.0991 11.5022 13.9933 10.9414 13.6334 10.5655ZM8.55714 13.0693C8.46744 13.8687 7.78122 14.4539 7 14.3972C6.21878 14.4539 5.53256 13.8687 5.44286 13.0693V12.7974H8.55714V13.0693ZM1.94708 11.1975L2.86579 10.2535C3.16012 9.9529 3.32548 9.544 3.32515 9.11759V5.38184C3.32601 4.29006 3.78581 3.25187 4.58643 2.53402C5.37654 1.79848 6.44106 1.45632 7.49829 1.59808C9.35995 1.90866 10.7148 3.58044 10.6749 5.51783V9.11759C10.6725 9.54285 10.8349 9.95159 11.1264 10.2535L12.0529 11.1975H1.94708Z" fill="#1E2126"/>
</svg>
