<svg width="206" height="207" viewBox="0 0 206 207" fill="none" xmlns="http://www.w3.org/2000/svg">
<path d="M96.8 95.3527V188.368L90.6 191.471L10 151.22V50.3485L90.6 10L171.2 50.3485V122.51H158.8V64.3154L96.8 95.3527ZM90.6 23.9668L67.2531 35.6058L127.412 66.0612L151.147 54.2282L90.6 23.9668ZM84.4 174.498V95.3527L22.4 64.3154V143.461L84.4 174.498ZM30.0531 54.2282L90.6 84.4896L113.656 73.0446L53.4 42.5892L30.0531 54.2282ZM134 172.17V159.755H196V172.17H134ZM134 134.925H196V147.34H134V134.925ZM109.2 197V184.585H121.6V197H109.2ZM109.2 147.34V134.925H121.6V147.34H109.2ZM109.2 172.17V159.755H121.6V172.17H109.2ZM134 197V184.585H196V197H134Z" fill="#333333"/>
</svg>
