<svg width="18" height="18" viewBox="0 0 18 18" fill="none" xmlns="http://www.w3.org/2000/svg">
<path fill-rule="evenodd" clip-rule="evenodd" d="M9.93067 9L6.25105 12.7563C5.91632 13.098 5.91632 13.652 6.25105 13.9937C6.58579 14.3354 7.1285 14.3354 7.46323 13.9937L11.7489 9.61872C12.0837 9.27701 12.0837 8.72299 11.7489 8.38128L7.46323 4.00628C7.1285 3.66457 6.58579 3.66457 6.25105 4.00628C5.91632 4.34799 5.91632 4.90201 6.25105 5.24372L9.93067 9Z" fill="#CAD1D9"/>
<mask id="mask0_101_937" style="mask-type:luminance" maskUnits="userSpaceOnUse" x="6" y="3" width="6" height="12">
<path fill-rule="evenodd" clip-rule="evenodd" d="M9.93067 9L6.25105 12.7563C5.91632 13.098 5.91632 13.652 6.25105 13.9937C6.58579 14.3354 7.1285 14.3354 7.46323 13.9937L11.7489 9.61872C12.0837 9.27701 12.0837 8.72299 11.7489 8.38128L7.46323 4.00628C7.1285 3.66457 6.58579 3.66457 6.25105 4.00628C5.91632 4.34799 5.91632 4.90201 6.25105 5.24372L9.93067 9Z" fill="white"/>
</mask>
<g mask="url(#mask0_101_937)">
</g>
</svg>
