<svg width="20" height="20" viewBox="0 0 20 20" fill="none" xmlns="http://www.w3.org/2000/svg">
<path d="M18.743 19.3637L18.1164 0.566405C18.1058 0.250585 17.8468 0 17.5308 0H2.46829C2.15227 0 1.89317 0.250585 1.88266 0.566405L1.25508 19.3945C1.24981 19.5532 1.30919 19.7073 1.41958 19.8214C1.52997 19.9355 1.68196 20 1.84071 20H18.1584C18.1587 20 18.159 20 18.1592 20C18.4827 20 18.7451 19.7376 18.7451 19.414C18.7451 19.397 18.7443 19.3803 18.743 19.3637ZM9.99952 8.70311C7.60003 8.70311 5.64797 6.751 5.64797 4.35155C5.64797 4.02796 5.91031 3.76562 6.2339 3.76562C6.5575 3.76562 6.81984 4.02796 6.81984 4.35155C6.81984 6.10487 8.24628 7.53124 9.99952 7.53124C11.7528 7.53124 13.1792 6.10483 13.1792 4.35155C13.1792 4.02796 13.4415 3.76562 13.7651 3.76562C14.0887 3.76562 14.3511 4.02796 14.3511 4.35155C14.3511 6.751 12.399 8.70311 9.99952 8.70311Z" fill="#1E2126"/>
</svg>
