<svg width="10" height="10" viewBox="0 0 10 10" fill="none" xmlns="http://www.w3.org/2000/svg">
<path fill-rule="evenodd" clip-rule="evenodd" d="M7.78081 9.50033C7.70181 9.50033 7.62231 9.48183 7.54931 9.44383L4.99981 8.11183L2.45081 9.44383C2.28181 9.53133 2.07781 9.51633 1.92481 9.40433C1.77081 9.29233 1.69431 9.10283 1.72681 8.91533L2.21231 6.10133L0.152312 4.10883C0.0153115 3.97633 -0.0341885 3.77733 0.0243115 3.59533C0.0828115 3.41433 0.239312 3.28183 0.428311 3.25483L3.27831 2.84083L4.55231 0.277827C4.72131 -0.0621729 5.27881 -0.0621729 5.44781 0.277827L6.72181 2.84083L9.57181 3.25483C9.76081 3.28183 9.91731 3.41433 9.97581 3.59533C10.0343 3.77733 9.98481 3.97633 9.84781 4.10883L7.78781 6.10133L8.27331 8.91533C8.30581 9.10283 8.22881 9.29233 8.07531 9.40433C7.98831 9.46833 7.88481 9.50033 7.78081 9.50033" fill="#FDC34E"/>
</svg>
