<svg width="24" height="24" viewBox="0 0 24 24" fill="none" xmlns="http://www.w3.org/2000/svg">
<path fill-rule="evenodd" clip-rule="evenodd" d="M9.6 11.4C11.3673 11.4 12.8 9.96731 12.8 8.2C12.8 6.43269 11.3673 5 9.6 5C7.83269 5 6.4 6.43269 6.4 8.2C6.4 9.96731 7.83269 11.4 9.6 11.4ZM9.6 6.6C10.4837 6.6 11.2 7.31634 11.2 8.2C11.2 9.08366 10.4837 9.8 9.6 9.8C8.71634 9.8 8 9.08366 8 8.2C8 7.31634 8.71634 6.6 9.6 6.6ZM18.4 10.6C18.4 11.9255 17.3255 13 16 13C14.6745 13 13.6 11.9255 13.6 10.6C13.6 9.27452 14.6745 8.2 16 8.2C17.3255 8.2 18.4 9.27452 18.4 10.6ZM16.8 10.6C16.8 10.1582 16.4418 9.8 16 9.8C15.5582 9.8 15.2 10.1582 15.2 10.6C15.2 11.0418 15.5582 11.4 16 11.4C16.4418 11.4 16.8 11.0418 16.8 10.6ZM13.552 14.64C14.2524 14.0965 15.1135 13.801 16 13.8C18.2091 13.8 20 15.5909 20 17.8C20 18.2418 19.6418 18.6 19.2 18.6C18.7582 18.6 18.4 18.2418 18.4 17.8C18.3988 16.8806 17.8725 16.0426 17.0448 15.6424C16.217 15.2421 15.2334 15.35 14.512 15.92C14.9651 16.7404 15.2019 17.6627 15.2 18.6C15.2 19.0418 14.8418 19.4 14.4 19.4C13.9582 19.4 13.6 19.0418 13.6 18.6C13.6 16.3909 11.8091 14.6 9.6 14.6C7.39086 14.6 5.6 16.3909 5.6 18.6C5.6 19.0418 5.24183 19.4 4.8 19.4C4.35817 19.4 4 19.0418 4 18.6C4.00306 16.3384 5.36619 14.3006 7.45538 13.4345C9.54457 12.5684 11.9497 13.0439 13.552 14.64Z" fill="#828B9A"/>
</svg>
