<svg width="40" height="40" viewBox="0 0 40 40" fill="none" xmlns="http://www.w3.org/2000/svg">
<rect width="40" height="40" rx="8" fill="#F0F3F8"/>
<path fill-rule="evenodd" clip-rule="evenodd" d="M16.9149 24.4614C16.9149 24.0196 16.5896 23.6614 16.1515 23.6614C15.7135 23.6614 15.3872 24.0196 15.3872 24.4614V25.2614C15.3872 27.0287 16.7044 28.4614 18.4565 28.4614H23.3864C25.1386 28.4614 26.4615 27.0287 26.4615 25.2614V15.6614C26.4615 13.8941 25.0412 12.4614 23.289 12.4614H18.4565C16.7044 12.4614 15.3872 13.8941 15.3872 15.6614V16.4614C15.3872 16.9033 15.708 17.2614 16.146 17.2614C16.5841 17.2614 16.9392 16.9033 16.9392 16.4614V15.6614C16.9392 14.7778 17.5804 13.9893 18.4565 13.9893L23.3864 14.02C24.2625 14.02 24.9486 14.7778 24.9486 15.6614V25.2614C24.9486 26.1451 24.2625 26.9244 23.3864 26.9244H18.4565C17.5804 26.9244 16.9149 26.1451 16.9149 25.2614V24.4614ZM23.5563 19.8855L23.5671 19.8957C23.8941 20.2082 23.8941 20.7147 23.5671 21.0271L21.0548 23.4271C20.7278 23.7395 20.1975 23.7395 19.8705 23.4271C19.5435 23.1147 19.5435 22.6082 19.8705 22.2957L21.3233 20.9079H14.3385C13.8966 20.9079 13.5385 20.5497 13.5385 20.1079C13.5385 19.666 13.8966 19.3079 14.3385 19.3079H20.5831L19.8705 18.6271C19.5435 18.3147 19.5435 17.8082 19.8705 17.4957C20.1975 17.1833 20.7278 17.1833 21.0548 17.4957L22.9747 19.3298C23.2544 19.3969 23.477 19.6108 23.5563 19.8855Z" fill="#828B9A"/>
<mask id="mask0_681_1998" style="mask-type:luminance" maskUnits="userSpaceOnUse" x="13" y="12" width="14" height="17">
<path fill-rule="evenodd" clip-rule="evenodd" d="M16.9149 24.4614C16.9149 24.0196 16.5896 23.6614 16.1515 23.6614C15.7135 23.6614 15.3872 24.0196 15.3872 24.4614V25.2614C15.3872 27.0287 16.7044 28.4614 18.4565 28.4614H23.3864C25.1386 28.4614 26.4615 27.0287 26.4615 25.2614V15.6614C26.4615 13.8941 25.0412 12.4614 23.289 12.4614H18.4565C16.7044 12.4614 15.3872 13.8941 15.3872 15.6614V16.4614C15.3872 16.9033 15.708 17.2614 16.146 17.2614C16.5841 17.2614 16.9392 16.9033 16.9392 16.4614V15.6614C16.9392 14.7778 17.5804 13.9893 18.4565 13.9893L23.3864 14.02C24.2625 14.02 24.9486 14.7778 24.9486 15.6614V25.2614C24.9486 26.1451 24.2625 26.9244 23.3864 26.9244H18.4565C17.5804 26.9244 16.9149 26.1451 16.9149 25.2614V24.4614ZM23.5563 19.8855L23.5671 19.8957C23.8941 20.2082 23.8941 20.7147 23.5671 21.0271L21.0548 23.4271C20.7278 23.7395 20.1975 23.7395 19.8705 23.4271C19.5435 23.1147 19.5435 22.6082 19.8705 22.2957L21.3233 20.9079H14.3385C13.8966 20.9079 13.5385 20.5497 13.5385 20.1079C13.5385 19.666 13.8966 19.3079 14.3385 19.3079H20.5831L19.8705 18.6271C19.5435 18.3147 19.5435 17.8082 19.8705 17.4957C20.1975 17.1833 20.7278 17.1833 21.0548 17.4957L22.9747 19.3298C23.2544 19.3969 23.477 19.6108 23.5563 19.8855Z" fill="white"/>
</mask>
<g mask="url(#mask0_681_1998)">
</g>
</svg>
